<svg width="600" height="605" viewBox="0 0 717 805" fill="none" xmlns="http://www.w3.org/2000/svg">
<path d="M68.3879 725.96C57.1114 722.719 48.8938 718.747 43.7349 714.045C38.6217 709.297 36.0651 703.453 36.0651 696.514C36.0651 688.661 39.1924 682.179 45.4469 677.065C51.7471 671.906 59.9191 669.327 69.963 669.327C76.811 669.327 82.9058 670.651 88.2473 673.299C93.6344 675.947 97.7889 679.599 100.711 684.256C103.678 688.912 105.162 694.003 105.162 699.527H91.9452C91.9452 693.501 90.0278 688.775 86.1928 685.351C82.3579 681.882 76.948 680.147 69.963 680.147C63.4801 680.147 58.4126 681.585 54.7603 684.461C51.1536 687.292 49.3503 691.241 49.3503 696.308C49.3503 700.372 51.0623 703.818 54.4863 706.649C57.956 709.434 63.8225 711.99 72.0859 714.319C80.3948 716.647 86.8777 719.226 91.5343 722.057C96.2367 724.842 99.7063 728.106 101.943 731.85C104.226 735.593 105.367 739.999 105.367 745.066C105.367 753.147 102.217 759.63 95.9171 764.515C89.6169 769.354 81.1938 771.774 70.6478 771.774C63.7997 771.774 57.4082 770.473 51.4732 767.871C45.5382 765.223 40.95 761.616 37.7086 757.051C34.5128 752.485 32.915 747.304 32.915 741.505H46.1317C46.1317 747.532 48.3459 752.303 52.7743 755.818C57.2484 759.288 63.2062 761.022 70.6478 761.022C77.5871 761.022 82.9058 759.607 86.6037 756.777C90.3017 753.946 92.1507 750.088 92.1507 745.203C92.1507 740.319 90.4386 736.552 87.0146 733.904C83.5906 731.211 77.3817 728.563 68.3879 725.96ZM198.98 723.769C198.98 733.539 197.337 742.076 194.05 749.381C190.763 756.64 186.106 762.187 180.08 766.022C174.053 769.856 167.023 771.774 158.988 771.774C151.135 771.774 144.173 769.856 138.101 766.022C132.029 762.141 127.304 756.64 123.926 749.518C120.593 742.35 118.881 734.064 118.79 724.659V717.469C118.79 707.882 120.456 699.413 123.789 692.063C127.121 684.712 131.824 679.097 137.896 675.216C144.013 671.29 150.998 669.327 158.851 669.327C166.84 669.327 173.871 671.267 179.943 675.148C186.06 678.983 190.763 684.575 194.05 691.926C197.337 699.23 198.98 707.745 198.98 717.469V723.769ZM185.901 717.332C185.901 705.508 183.527 696.445 178.779 690.145C174.031 683.799 167.388 680.626 158.851 680.626C150.542 680.626 143.99 683.799 139.197 690.145C134.449 696.445 132.006 705.211 131.869 716.442V723.769C131.869 735.228 134.266 744.245 139.06 750.819C143.899 757.347 150.542 760.612 158.988 760.612C167.479 760.612 174.053 757.53 178.71 751.367C183.367 745.158 185.764 736.278 185.901 724.728V717.332ZM231.919 759.653H279.171V770.404H218.703V670.697H231.919V759.653ZM360.663 670.697V738.492C360.617 747.897 357.65 755.59 351.76 761.57C345.917 767.551 337.973 770.906 327.929 771.637L324.437 771.774C313.525 771.774 304.828 768.829 298.346 762.94C291.863 757.051 288.576 748.947 288.484 738.629V670.697H301.496V738.218C301.496 745.432 303.482 751.047 307.454 755.065C311.425 759.037 317.086 761.022 324.437 761.022C331.878 761.022 337.562 759.037 341.488 755.065C345.46 751.093 347.446 745.5 347.446 738.287V670.697H360.663ZM450.304 681.517H418.255V770.404H405.175V681.517H373.195V670.697H450.304V681.517ZM479.203 770.404H466.055V670.697H479.203V770.404ZM580.006 723.769C580.006 733.539 578.363 742.076 575.076 749.381C571.789 756.64 567.132 762.187 561.106 766.022C555.079 769.856 548.049 771.774 540.014 771.774C532.161 771.774 525.199 769.856 519.127 766.022C513.055 762.141 508.33 756.64 504.952 749.518C501.619 742.35 499.907 734.064 499.815 724.659V717.469C499.815 707.882 501.482 699.413 504.815 692.063C508.147 684.712 512.85 679.097 518.922 675.216C525.039 671.29 532.024 669.327 539.877 669.327C547.866 669.327 554.897 671.267 560.969 675.148C567.086 678.983 571.789 684.575 575.076 691.926C578.363 699.23 580.006 707.745 580.006 717.469V723.769ZM566.926 717.332C566.926 705.508 564.552 696.445 559.804 690.145C555.056 683.799 548.414 680.626 539.877 680.626C531.568 680.626 525.016 683.799 520.223 690.145C515.475 696.445 513.032 705.211 512.895 716.442V723.769C512.895 735.228 515.292 744.245 520.086 750.819C524.925 757.347 531.568 760.612 540.014 760.612C548.505 760.612 555.079 757.53 559.736 751.367C564.393 745.158 566.789 736.278 566.926 724.728V717.332ZM676.358 770.404H663.142L612.945 693.569V770.404H599.729V670.697H612.945L663.279 747.874V670.697H676.358V770.404Z" fill="#29B2E0"/>
<path d="M716.5 594.9C716.5 614.2 700.8 629.9 681.5 629.9H237.6C227.9 629.9 219.2 626 212.9 619.6C206.6 613.3 202.6 604.5 202.6 594.9C202.6 588.5 204.3 582.6 207.2 577.5C207.2 577.5 207.2 577.5 207.2 577.4L247.4 507.8C247.6 507.5 247.8 507.1 248 506.8C253 498.6 261.2 492.6 271 490.6C273.3 490.1 275.6 489.9 278 489.9H560.2C563.9 489.9 567.4 489.3 570.7 488.3C584.9 483.8 595.2 470.6 595.2 454.9C595.2 451.3 594.7 447.8 593.6 444.5C592.9 442.3 592 440.1 590.9 438.1L590.6 437.5C590.5 437.2 590.3 437 590.2 436.8L587.9 432.8L562 388L489.1 261.7L453.6 200.2L449.5 193.1C449.2 192.5 448.8 192 448.5 191.5C442.3 181.9 431.5 175.6 419.2 175.6C406.2 175.6 394.9 182.7 388.8 193.2L358.5 245.6L349.1 261.8L247.5 437.9L217.4 490L175.1 563.3L156.8 595L146.7 612.4C146.7 612.4 146.7 612.4 146.6 612.5C146.4 612.8 146.2 613.1 146 613.5C145.6 614.1 145.2 614.7 144.8 615.3C144.8 615.3 144.8 615.4 144.7 615.4C144.5 615.7 144.3 616 144 616.3C143.8 616.6 143.5 616.9 143.3 617.2C142.8 617.8 142.3 618.4 141.8 618.9C141.5 619.2 141.3 619.4 141 619.7C140.6 620.1 140.2 620.5 139.8 620.9C139.4 621.3 139 621.7 138.5 622C138.2 622.2 137.9 622.5 137.6 622.7C137.3 622.9 137 623.2 136.7 623.4C136.4 623.6 136.1 623.8 135.8 624C135.8 624 135.7 624 135.7 624.1C135.1 624.5 134.5 624.9 133.9 625.2C132.2 626.2 130.5 627 128.6 627.7C128.3 627.8 128.1 627.9 127.8 628C126.8 628.4 125.7 628.7 124.6 629C124.4 629.1 124.2 629.1 124 629.1C123.4 629.2 122.9 629.4 122.3 629.5C122.1 629.5 121.9 629.6 121.7 629.6C121.5 629.6 121.2 629.7 121 629.7C119.4 629.9 117.7 630.1 116.1 630.1H35C34.4 630.1 33.8002 630.1 33.2002 630C32.9002 630 32.5998 630 32.2998 629.9C31.6998 629.9 31.1 629.8 30.5 629.7C30.2 629.7 29.9001 629.6 29.6001 629.6C29.3001 629.6 29.0002 629.5 28.7002 629.5C28.4002 629.4 28.0999 629.4 27.8999 629.3C27.5999 629.2 27.3 629.2 27 629.1C26.7 629 26.4002 629 26.2002 628.9C25.9002 628.8 25.6999 628.8 25.3999 628.7C24.8999 628.6 24.4 628.4 24 628.3C23.9 628.3 23.8998 628.3 23.7998 628.2C23.2998 628 22.8999 627.9 22.3999 627.7C21.7999 627.5 21.2001 627.2 20.6001 626.9C20.3001 626.8 20.0998 626.7 19.7998 626.5C19.4998 626.4 19.3 626.2 19 626.1C18.2 625.7 17.4998 625.3 16.7998 624.9C16.3998 624.6 15.9 624.4 15.5 624.1C14.5 623.4 13.6001 622.7 12.6001 621.9C12.2001 621.6 11.7999 621.2 11.3999 620.8C10.5999 620.1 9.9001 619.3 9.1001 618.5C8.9001 618.3 8.7 618.1 8.5 617.9C5.6 614.5 3.1998 610.5 1.7998 606.1C1.6998 605.7 1.4999 605.3 1.3999 604.8C0.499902 601.7 0 598.3 0 594.9C0 594.5 0 594.2 0 593.8C0 593.4 9.76548e-05 593 0.100098 592.6C0.100098 592.2 0.100195 591.8 0.200195 591.5C0.200195 591.1 0.299805 590.7 0.299805 590.3C0.299805 589.9 0.4 589.6 0.5 589.2C0.6 588.8 0.600195 588.4 0.700195 588.1C0.800195 587.7 0.799902 587.4 0.899902 587C0.999902 586.6 1.1002 586.3 1.2002 585.9C1.3002 585.5 1.4 585.2 1.5 584.8C1.6 584.4 1.6998 584.1 1.7998 583.8C2.4998 581.7 3.4 579.7 4.5 577.8L4.6001 577.6L145.2 334L186.8 261.9L271.8 114.7L327.5 18.2998C333.5 7.7998 344.9 0.700195 357.9 0.700195C359.4 0.700195 360.9 0.8 362.3 1C367 1.6 371.4 3.0999 375.4 5.3999C380.7 8.4999 385.2 12.8998 388.2 18.2998L438.7 105.7L477.7 173.2L528.9 261.9L643.6 460.6L660.6 490.1L711.2 577.7C711.6 578.3 711.9 579 712.2 579.7C712.4 580 712.5 580.4 712.7 580.7C712.8 581 713 581.2 713.1 581.5C713.3 581.9 713.4 582.3 713.6 582.7C713.7 583.1 713.9 583.4 714 583.8C714.1 584 714.1 584.2 714.2 584.3C714.3 584.5 714.3 584.7 714.4 584.8C714.7 585.9 715 587 715.2 588.1C715.3 588.4 715.3 588.6 715.3 588.9C715.5 589.9 715.6 591 715.7 592C715.7 592.2 715.7 592.4 715.7 592.6C715.7 592.7 715.7 592.8 715.7 592.9C715.7 593.2 715.7 593.5 715.8 593.9V594C716.4 594.2 716.5 594.5 716.5 594.9Z" fill="#29B2E0"/>
<path d="M529.5 261.7H489.1L453.6 200.2L449.5 193.1C443.5 182.6 432.1 175.5 419.1 175.5C406.1 175.5 394.8 182.6 388.7 193.1L358.4 245.5L349 261.7H187.3L272.3 114.5L328 18.1001C334 7.6001 345.4 0.5 358.4 0.5C359.9 0.5 361.4 0.599805 362.8 0.799805C367.5 1.3998 371.9 2.9002 375.9 5.2002C381.2 8.3002 385.7 12.7001 388.7 18.1001L439.2 105.5L529.5 261.7Z" fill="url(#paint0_linear)"/>
<path d="M453.6 200.2L449.5 193.1C443.5 182.6 432.1 175.5 419.1 175.5C406.1 175.5 394.8 182.6 388.7 193.1L358.4 245.5L247.4 437.8C199.7 420.4 162.1 382 145.7 333.9L272.3 114.6C282.9 112.5 293.8 111.4 305 111.4C369.4 111.3 425.2 147.3 453.6 200.2Z" fill="url(#paint1_linear)"/>
<path d="M606.6 509.3C606.6 556.6 587.1 599.3 555.7 629.9H330.6V489.9H560.2C579.5 489.9 595.2 474.2 595.2 454.9C595.2 451.3 594.7 447.8 593.6 444.5C602 464.4 606.6 486.3 606.6 509.3Z" fill="url(#paint2_linear)"/>
<path d="M354.569 457.486V407.211C354.569 400.003 357.152 393.877 362.318 388.831C367.483 383.666 373.67 381.083 380.878 381.083H448.452C452.416 381.083 454.398 381.083 454.398 381.083C454.398 381.083 454.398 379.101 454.398 375.136V361.261C454.398 357.297 454.398 355.315 454.398 355.315C454.398 355.315 452.416 355.315 448.452 355.315H388.086C384.121 355.315 382.139 355.315 382.139 355.315C382.139 355.315 382.139 357.297 382.139 361.261V365.766H354.569V353.873C354.569 346.665 357.152 340.538 362.318 335.493C367.483 330.327 373.67 327.744 380.878 327.744H455.66C462.868 327.744 469.054 330.327 474.22 335.493C479.386 340.538 481.969 346.665 481.969 353.873V382.524C481.969 389.732 479.386 395.919 474.22 401.085C469.054 406.25 462.868 408.833 455.66 408.833H388.086C384.121 408.833 382.139 408.833 382.139 408.833C382.139 408.833 382.139 410.815 382.139 414.78V423.97C382.139 427.934 382.139 429.916 382.139 429.916C382.139 429.916 384.121 429.916 388.086 429.916H481.969V457.486H354.569Z" fill="#29B2E0"/>
<defs>
<linearGradient id="paint0_linear" x1="187.485" y1="131.106" x2="529.515" y2="131.106" gradientUnits="userSpaceOnUse">
<stop offset="0.0864865" stop-color="#50D6FE"/>
<stop offset="0.8191" stop-color="#29B2E0"/>
</linearGradient>
<linearGradient id="paint1_linear" x1="234.152" y1="359.469" x2="399.591" y2="99.9815" gradientUnits="userSpaceOnUse">
<stop offset="0.111" stop-color="#29B2E0"/>
<stop offset="1" stop-color="#0072B1"/>
</linearGradient>
<linearGradient id="paint2_linear" x1="330.574" y1="537.186" x2="606.594" y2="537.186" gradientUnits="userSpaceOnUse">
<stop offset="0.111" stop-color="#29B2E0"/>
<stop offset="1" stop-color="#0072B1"/>
</linearGradient>
</defs>
</svg>
