<svg width="1038" height="1038" viewBox="0 0 1038 1038" fill="none" xmlns="http://www.w3.org/2000/svg">
<g filter="url(#filter0_d_451_4)">
<circle cx="545" cy="491" r="434" fill="white"/>
<circle cx="545" cy="491" r="420" stroke="white" stroke-width="28"/>
</g>
<mask id="path-3-outside-1_451_4" maskUnits="userSpaceOnUse" x="254" y="168" width="582" height="646" fill="black">
<rect fill="white" x="254" y="168" width="582" height="646"/>
<path d="M260 529.645C260 555.26 278.967 576.519 303.606 580.087C296.845 587.899 293.427 596.613 293.427 606.19C293.427 627.561 310.817 644.951 332.188 644.951C333.728 644.951 335.23 644.876 336.77 644.688C335.155 648.895 334.292 653.402 334.292 657.984C334.292 678.491 350.968 695.205 371.512 695.205C374.893 695.205 378.235 694.754 381.428 693.853C380.714 698.66 380.376 704.257 381.353 708.951C386.348 733.477 407.118 749.327 434.236 749.327C446.743 749.327 456.133 746.06 462.405 743.13C462.743 770.886 485.466 793.384 513.297 793.384C536.922 793.384 557.617 776.858 562.913 753.947C563.213 753.271 563.363 752.52 563.363 751.731V751.13H563.326C563.401 747.9 563.551 734.191 563.664 671.956H616.096V758.83C616.096 761.947 618.612 764.464 621.73 764.464H666.876C669.655 788.539 690.162 807.281 714.989 807.281C741.693 807.281 763.44 785.534 763.44 758.83C763.44 732.125 741.693 710.379 714.989 710.379C690.162 710.379 669.655 729.121 666.876 753.196H627.326V666.322C627.326 663.205 624.81 660.688 621.692 660.688H563.664C563.701 645.327 563.701 627.336 563.739 606.303H732.566C735.608 630.115 756.003 648.557 780.604 648.557C807.308 648.557 829.055 626.81 829.055 600.106C829.055 573.401 807.308 551.655 780.604 551.655C755.59 551.655 734.97 570.697 732.416 595.073H563.739C563.776 557.589 563.776 511.091 563.814 453.476H599.72V502.302C599.72 505.42 602.237 507.936 605.354 507.936H662.857C664.622 533.063 685.618 552.969 711.158 552.969C737.862 552.969 759.609 531.223 759.609 504.518C759.609 477.814 737.862 456.067 711.158 456.067C687.12 456.067 667.101 473.683 663.345 496.706H610.95V447.88C610.95 444.762 608.434 442.246 605.317 442.246H563.814C563.814 424.593 563.814 405.926 563.814 386.17H725.918C728.435 410.508 749.092 429.588 774.106 429.588C800.811 429.588 822.557 407.842 822.557 381.137C822.557 354.433 800.811 332.686 774.106 332.686C749.505 332.686 729.111 351.128 726.068 374.94H563.814C563.814 357.625 563.814 339.522 563.814 320.555H615.195C618.312 320.555 620.828 318.038 620.828 314.921V228.085H660.34C663.12 252.16 683.627 270.902 708.453 270.902C735.158 270.902 756.904 249.155 756.904 222.451C756.904 195.747 735.158 174 708.453 174C683.627 174 663.12 192.742 660.34 216.817H615.195C612.077 216.817 609.561 219.334 609.561 222.451V309.325H563.814C563.814 287.578 563.814 264.817 563.814 240.892V239.578C563.814 211.108 540.64 187.934 512.171 187.934C483.701 187.934 460.527 211.108 460.527 239.578C460.527 240.291 460.527 240.968 460.565 241.681C456.17 239.766 450.536 238.301 443.663 238.301C441.973 238.301 440.208 238.376 438.48 238.564C415.531 240.93 398.855 257.756 398.705 278.602C393.898 276.648 387.512 275.033 379.625 275.033C377.184 275.033 374.667 275.184 372.151 275.484C346.198 278.602 326.63 299.785 326.63 324.761C326.63 332.761 328.695 340.536 332.564 347.409C332.226 347.409 331.925 347.409 331.587 347.409C309.728 347.409 291.925 365.212 291.925 387.072C291.925 401.382 296.845 410.696 301.841 416.631C285.765 420.724 273.822 435.335 273.822 452.687C273.822 465.232 280.019 476.462 289.747 483.222C276.301 489.42 260 502.565 260 529.645ZM714.989 721.609C735.496 721.609 752.209 738.285 752.209 758.83C752.209 779.374 735.533 796.051 714.989 796.051C694.481 796.051 677.768 779.374 677.768 758.83C677.768 738.285 694.444 721.609 714.989 721.609ZM780.604 562.922C801.111 562.922 817.825 579.599 817.825 600.143C817.825 620.65 801.149 637.364 780.604 637.364C760.097 637.364 743.383 620.688 743.383 600.143C743.383 579.636 760.097 562.922 780.604 562.922ZM711.12 467.297C731.627 467.297 748.341 483.974 748.341 504.518C748.341 525.026 731.665 541.739 711.12 541.739C690.575 541.739 673.899 525.063 673.899 504.518C673.937 484.011 690.613 467.297 711.12 467.297ZM774.069 343.916C794.576 343.916 811.29 360.593 811.29 381.137C811.29 401.682 794.614 418.358 774.069 418.358C753.562 418.358 736.848 401.682 736.848 381.137C736.848 360.593 753.562 343.916 774.069 343.916ZM708.453 185.268C728.961 185.268 745.674 201.944 745.674 222.489C745.674 243.033 728.998 259.709 708.453 259.709C687.946 259.709 671.232 243.033 671.232 222.489C671.232 201.944 687.946 185.268 708.453 185.268ZM306.31 489.457C310.817 488.518 311.381 485.288 311.418 483.974C311.493 481.157 309.503 478.753 306.723 478.265C294.179 476.161 285.052 465.42 285.052 452.687C285.052 438.377 296.695 426.734 311.005 426.734C312.057 426.734 313.183 426.847 314.46 426.997C318.892 429.701 326.442 432.969 337.033 432.969C346.348 432.969 358.029 430.452 371.963 422.79C374.667 421.288 375.681 417.87 374.179 415.166C372.677 412.461 369.259 411.447 366.555 412.95C362.386 415.241 358.479 417.006 354.836 418.321C340 423.692 329.709 421.739 323.775 419.222C319.944 417.607 317.916 415.767 317.653 415.504C317.09 414.94 316.413 414.527 315.662 414.264C310.892 410.771 303.118 403.485 303.118 387.072C303.118 371.41 315.888 358.64 331.55 358.64C335.569 358.64 339.475 359.466 343.155 361.118C345.709 362.245 348.714 361.344 350.216 359.015L350.705 358.302C352.17 355.973 351.756 352.931 349.691 351.09C342.179 344.367 337.86 334.79 337.86 324.761C337.86 305.456 353.184 289.08 373.465 286.639C375.569 286.376 377.634 286.264 379.625 286.264C394.536 286.264 401.71 293.212 401.973 293.475C402.724 294.264 403.663 294.752 404.677 295.015C409.334 300.198 418.236 312.667 416.546 331.184C416.283 334.264 418.536 337.006 421.654 337.269C421.841 337.269 421.992 337.306 422.179 337.306C425.071 337.306 427.513 335.128 427.776 332.198C430.104 306.132 415.419 289.681 410.649 285.024C410.198 282.996 409.973 280.968 409.973 278.902C409.973 263.54 422.179 251.559 439.644 249.756C440.996 249.606 442.348 249.531 443.663 249.531C454.367 249.531 460.602 254.188 462.968 256.367C467.137 267.184 479.419 284.348 500.715 284.348C502.593 284.348 504.546 284.198 506.537 283.935C509.617 283.484 511.757 280.667 511.307 277.587C510.856 274.508 508.001 272.367 504.959 272.817C502.255 273.193 499.776 273.193 497.485 272.93C487.569 271.728 481.109 265.193 477.391 259.634C475.851 257.343 474.762 255.24 474.086 253.7C474.048 253.212 473.973 252.723 473.823 252.273C472.471 248.141 471.757 243.897 471.757 239.615C471.757 217.343 489.898 199.202 512.171 199.202C534.443 199.202 552.584 217.343 552.584 239.615V240.93C552.584 271.578 552.621 444.875 552.546 581.063C550.856 580.763 548.866 580.35 546.612 579.824C538.199 577.833 526.443 574.153 514.8 567.58C516.227 565.927 517.804 563.937 519.419 561.533C528.809 547.486 538.837 520.518 521.448 479.504C520.246 476.65 516.94 475.298 514.086 476.537C511.232 477.739 509.879 481.044 511.119 483.898C512.546 487.316 513.786 490.584 514.837 493.777C526.556 529.533 514.199 550.866 506.875 559.617C506.311 560.293 505.785 560.894 505.297 561.42C497.034 555.336 489.335 547.486 483.663 537.42C482.199 534.791 480.846 532.049 479.682 529.119C478.518 526.227 475.25 524.838 472.358 526.002C469.466 527.166 468.076 530.434 469.241 533.326C487.419 578.472 536.434 589.965 552.546 592.556C552.509 677.59 552.396 745.646 552.208 750.642V750.679C548.415 768.971 532.077 782.229 513.372 782.229C491.513 782.229 473.71 764.426 473.71 742.567C473.71 740.088 473.973 737.534 474.461 735.017L474.499 734.604L474.536 734.341C474.574 734.003 474.799 731.712 475.964 728.332C478.931 719.881 487.907 704.745 514.912 697.346C518.255 696.444 521.861 695.618 525.804 694.98C528.884 694.454 530.95 691.562 530.424 688.519C529.898 685.44 527.006 683.374 523.964 683.9C476.339 691.787 466.086 719.693 463.907 729.872C463.532 730.06 463.156 730.247 462.743 730.473C457.785 733.177 448.546 738.172 434.273 738.172C412.715 738.172 396.264 725.853 392.395 706.811C391.081 700.35 393.635 689.421 394.724 685.778C394.874 685.252 394.949 684.764 394.949 684.238C396.001 681.458 397.653 677.965 400.17 674.397C401.334 672.745 402.724 671.055 404.301 669.439C407.869 665.759 412.602 662.303 418.761 659.824C421.654 658.66 423.043 655.392 421.841 652.5C420.677 649.608 417.409 648.219 414.517 649.421C395.663 657.045 387.588 671.618 384.282 680.707C380.414 682.923 376.019 684.05 371.512 684.05C357.202 684.05 345.559 672.407 345.559 658.097C345.559 651.486 348.076 645.214 352.62 640.331C354.386 638.453 354.648 635.561 353.221 633.383L352.583 632.406C351.005 629.965 347.775 629.139 345.221 630.528C341.24 632.669 336.733 633.796 332.226 633.796C317.052 633.796 304.695 621.439 304.695 606.265C304.695 591.467 316.714 582.716 320.62 579.862C320.77 579.749 320.958 579.636 321.146 579.486C321.334 579.411 321.521 579.336 321.709 579.261C322.047 579.073 325.428 577.27 330.16 576.143C336.132 574.716 344.282 574.34 351.306 579.599C353.033 580.876 354.648 582.491 356.188 584.519C357.278 585.984 358.968 586.772 360.695 586.772C361.86 586.772 363.062 586.397 364.076 585.646C366.555 583.768 367.043 580.237 365.165 577.758C350.667 558.528 327.944 563.373 317.165 568.932C314.949 569.27 312.92 569.458 311.005 569.458C289.108 569.458 271.268 551.617 271.268 529.72C271.268 500.011 295.756 491.673 306.31 489.457Z"/>
</mask>
<path d="M260 529.645C260 555.26 278.967 576.519 303.606 580.087C296.845 587.899 293.427 596.613 293.427 606.19C293.427 627.561 310.817 644.951 332.188 644.951C333.728 644.951 335.23 644.876 336.77 644.688C335.155 648.895 334.292 653.402 334.292 657.984C334.292 678.491 350.968 695.205 371.512 695.205C374.893 695.205 378.235 694.754 381.428 693.853C380.714 698.66 380.376 704.257 381.353 708.951C386.348 733.477 407.118 749.327 434.236 749.327C446.743 749.327 456.133 746.06 462.405 743.13C462.743 770.886 485.466 793.384 513.297 793.384C536.922 793.384 557.617 776.858 562.913 753.947C563.213 753.271 563.363 752.52 563.363 751.731V751.13H563.326C563.401 747.9 563.551 734.191 563.664 671.956H616.096V758.83C616.096 761.947 618.612 764.464 621.73 764.464H666.876C669.655 788.539 690.162 807.281 714.989 807.281C741.693 807.281 763.44 785.534 763.44 758.83C763.44 732.125 741.693 710.379 714.989 710.379C690.162 710.379 669.655 729.121 666.876 753.196H627.326V666.322C627.326 663.205 624.81 660.688 621.692 660.688H563.664C563.701 645.327 563.701 627.336 563.739 606.303H732.566C735.608 630.115 756.003 648.557 780.604 648.557C807.308 648.557 829.055 626.81 829.055 600.106C829.055 573.401 807.308 551.655 780.604 551.655C755.59 551.655 734.97 570.697 732.416 595.073H563.739C563.776 557.589 563.776 511.091 563.814 453.476H599.72V502.302C599.72 505.42 602.237 507.936 605.354 507.936H662.857C664.622 533.063 685.618 552.969 711.158 552.969C737.862 552.969 759.609 531.223 759.609 504.518C759.609 477.814 737.862 456.067 711.158 456.067C687.12 456.067 667.101 473.683 663.345 496.706H610.95V447.88C610.95 444.762 608.434 442.246 605.317 442.246H563.814C563.814 424.593 563.814 405.926 563.814 386.17H725.918C728.435 410.508 749.092 429.588 774.106 429.588C800.811 429.588 822.557 407.842 822.557 381.137C822.557 354.433 800.811 332.686 774.106 332.686C749.505 332.686 729.111 351.128 726.068 374.94H563.814C563.814 357.625 563.814 339.522 563.814 320.555H615.195C618.312 320.555 620.828 318.038 620.828 314.921V228.085H660.34C663.12 252.16 683.627 270.902 708.453 270.902C735.158 270.902 756.904 249.155 756.904 222.451C756.904 195.747 735.158 174 708.453 174C683.627 174 663.12 192.742 660.34 216.817H615.195C612.077 216.817 609.561 219.334 609.561 222.451V309.325H563.814C563.814 287.578 563.814 264.817 563.814 240.892V239.578C563.814 211.108 540.64 187.934 512.171 187.934C483.701 187.934 460.527 211.108 460.527 239.578C460.527 240.291 460.527 240.968 460.565 241.681C456.17 239.766 450.536 238.301 443.663 238.301C441.973 238.301 440.208 238.376 438.48 238.564C415.531 240.93 398.855 257.756 398.705 278.602C393.898 276.648 387.512 275.033 379.625 275.033C377.184 275.033 374.667 275.184 372.151 275.484C346.198 278.602 326.63 299.785 326.63 324.761C326.63 332.761 328.695 340.536 332.564 347.409C332.226 347.409 331.925 347.409 331.587 347.409C309.728 347.409 291.925 365.212 291.925 387.072C291.925 401.382 296.845 410.696 301.841 416.631C285.765 420.724 273.822 435.335 273.822 452.687C273.822 465.232 280.019 476.462 289.747 483.222C276.301 489.42 260 502.565 260 529.645ZM714.989 721.609C735.496 721.609 752.209 738.285 752.209 758.83C752.209 779.374 735.533 796.051 714.989 796.051C694.481 796.051 677.768 779.374 677.768 758.83C677.768 738.285 694.444 721.609 714.989 721.609ZM780.604 562.922C801.111 562.922 817.825 579.599 817.825 600.143C817.825 620.65 801.149 637.364 780.604 637.364C760.097 637.364 743.383 620.688 743.383 600.143C743.383 579.636 760.097 562.922 780.604 562.922ZM711.12 467.297C731.627 467.297 748.341 483.974 748.341 504.518C748.341 525.026 731.665 541.739 711.12 541.739C690.575 541.739 673.899 525.063 673.899 504.518C673.937 484.011 690.613 467.297 711.12 467.297ZM774.069 343.916C794.576 343.916 811.29 360.593 811.29 381.137C811.29 401.682 794.614 418.358 774.069 418.358C753.562 418.358 736.848 401.682 736.848 381.137C736.848 360.593 753.562 343.916 774.069 343.916ZM708.453 185.268C728.961 185.268 745.674 201.944 745.674 222.489C745.674 243.033 728.998 259.709 708.453 259.709C687.946 259.709 671.232 243.033 671.232 222.489C671.232 201.944 687.946 185.268 708.453 185.268ZM306.31 489.457C310.817 488.518 311.381 485.288 311.418 483.974C311.493 481.157 309.503 478.753 306.723 478.265C294.179 476.161 285.052 465.42 285.052 452.687C285.052 438.377 296.695 426.734 311.005 426.734C312.057 426.734 313.183 426.847 314.46 426.997C318.892 429.701 326.442 432.969 337.033 432.969C346.348 432.969 358.029 430.452 371.963 422.79C374.667 421.288 375.681 417.87 374.179 415.166C372.677 412.461 369.259 411.447 366.555 412.95C362.386 415.241 358.479 417.006 354.836 418.321C340 423.692 329.709 421.739 323.775 419.222C319.944 417.607 317.916 415.767 317.653 415.504C317.09 414.94 316.413 414.527 315.662 414.264C310.892 410.771 303.118 403.485 303.118 387.072C303.118 371.41 315.888 358.64 331.55 358.64C335.569 358.64 339.475 359.466 343.155 361.118C345.709 362.245 348.714 361.344 350.216 359.015L350.705 358.302C352.17 355.973 351.756 352.931 349.691 351.09C342.179 344.367 337.86 334.79 337.86 324.761C337.86 305.456 353.184 289.08 373.465 286.639C375.569 286.376 377.634 286.264 379.625 286.264C394.536 286.264 401.71 293.212 401.973 293.475C402.724 294.264 403.663 294.752 404.677 295.015C409.334 300.198 418.236 312.667 416.546 331.184C416.283 334.264 418.536 337.006 421.654 337.269C421.841 337.269 421.992 337.306 422.179 337.306C425.071 337.306 427.513 335.128 427.776 332.198C430.104 306.132 415.419 289.681 410.649 285.024C410.198 282.996 409.973 280.968 409.973 278.902C409.973 263.54 422.179 251.559 439.644 249.756C440.996 249.606 442.348 249.531 443.663 249.531C454.367 249.531 460.602 254.188 462.968 256.367C467.137 267.184 479.419 284.348 500.715 284.348C502.593 284.348 504.546 284.198 506.537 283.935C509.617 283.484 511.757 280.667 511.307 277.587C510.856 274.508 508.001 272.367 504.959 272.817C502.255 273.193 499.776 273.193 497.485 272.93C487.569 271.728 481.109 265.193 477.391 259.634C475.851 257.343 474.762 255.24 474.086 253.7C474.048 253.212 473.973 252.723 473.823 252.273C472.471 248.141 471.757 243.897 471.757 239.615C471.757 217.343 489.898 199.202 512.171 199.202C534.443 199.202 552.584 217.343 552.584 239.615V240.93C552.584 271.578 552.621 444.875 552.546 581.063C550.856 580.763 548.866 580.35 546.612 579.824C538.199 577.833 526.443 574.153 514.8 567.58C516.227 565.927 517.804 563.937 519.419 561.533C528.809 547.486 538.837 520.518 521.448 479.504C520.246 476.65 516.94 475.298 514.086 476.537C511.232 477.739 509.879 481.044 511.119 483.898C512.546 487.316 513.786 490.584 514.837 493.777C526.556 529.533 514.199 550.866 506.875 559.617C506.311 560.293 505.785 560.894 505.297 561.42C497.034 555.336 489.335 547.486 483.663 537.42C482.199 534.791 480.846 532.049 479.682 529.119C478.518 526.227 475.25 524.838 472.358 526.002C469.466 527.166 468.076 530.434 469.241 533.326C487.419 578.472 536.434 589.965 552.546 592.556C552.509 677.59 552.396 745.646 552.208 750.642V750.679C548.415 768.971 532.077 782.229 513.372 782.229C491.513 782.229 473.71 764.426 473.71 742.567C473.71 740.088 473.973 737.534 474.461 735.017L474.499 734.604L474.536 734.341C474.574 734.003 474.799 731.712 475.964 728.332C478.931 719.881 487.907 704.745 514.912 697.346C518.255 696.444 521.861 695.618 525.804 694.98C528.884 694.454 530.95 691.562 530.424 688.519C529.898 685.44 527.006 683.374 523.964 683.9C476.339 691.787 466.086 719.693 463.907 729.872C463.532 730.06 463.156 730.247 462.743 730.473C457.785 733.177 448.546 738.172 434.273 738.172C412.715 738.172 396.264 725.853 392.395 706.811C391.081 700.35 393.635 689.421 394.724 685.778C394.874 685.252 394.949 684.764 394.949 684.238C396.001 681.458 397.653 677.965 400.17 674.397C401.334 672.745 402.724 671.055 404.301 669.439C407.869 665.759 412.602 662.303 418.761 659.824C421.654 658.66 423.043 655.392 421.841 652.5C420.677 649.608 417.409 648.219 414.517 649.421C395.663 657.045 387.588 671.618 384.282 680.707C380.414 682.923 376.019 684.05 371.512 684.05C357.202 684.05 345.559 672.407 345.559 658.097C345.559 651.486 348.076 645.214 352.62 640.331C354.386 638.453 354.648 635.561 353.221 633.383L352.583 632.406C351.005 629.965 347.775 629.139 345.221 630.528C341.24 632.669 336.733 633.796 332.226 633.796C317.052 633.796 304.695 621.439 304.695 606.265C304.695 591.467 316.714 582.716 320.62 579.862C320.77 579.749 320.958 579.636 321.146 579.486C321.334 579.411 321.521 579.336 321.709 579.261C322.047 579.073 325.428 577.27 330.16 576.143C336.132 574.716 344.282 574.34 351.306 579.599C353.033 580.876 354.648 582.491 356.188 584.519C357.278 585.984 358.968 586.772 360.695 586.772C361.86 586.772 363.062 586.397 364.076 585.646C366.555 583.768 367.043 580.237 365.165 577.758C350.667 558.528 327.944 563.373 317.165 568.932C314.949 569.27 312.92 569.458 311.005 569.458C289.108 569.458 271.268 551.617 271.268 529.72C271.268 500.011 295.756 491.673 306.31 489.457Z" fill="black"/>
<path d="M260 529.645C260 555.26 278.967 576.519 303.606 580.087C296.845 587.899 293.427 596.613 293.427 606.19C293.427 627.561 310.817 644.951 332.188 644.951C333.728 644.951 335.23 644.876 336.77 644.688C335.155 648.895 334.292 653.402 334.292 657.984C334.292 678.491 350.968 695.205 371.512 695.205C374.893 695.205 378.235 694.754 381.428 693.853C380.714 698.66 380.376 704.257 381.353 708.951C386.348 733.477 407.118 749.327 434.236 749.327C446.743 749.327 456.133 746.06 462.405 743.13C462.743 770.886 485.466 793.384 513.297 793.384C536.922 793.384 557.617 776.858 562.913 753.947C563.213 753.271 563.363 752.52 563.363 751.731V751.13H563.326C563.401 747.9 563.551 734.191 563.664 671.956H616.096V758.83C616.096 761.947 618.612 764.464 621.73 764.464H666.876C669.655 788.539 690.162 807.281 714.989 807.281C741.693 807.281 763.44 785.534 763.44 758.83C763.44 732.125 741.693 710.379 714.989 710.379C690.162 710.379 669.655 729.121 666.876 753.196H627.326V666.322C627.326 663.205 624.81 660.688 621.692 660.688H563.664C563.701 645.327 563.701 627.336 563.739 606.303H732.566C735.608 630.115 756.003 648.557 780.604 648.557C807.308 648.557 829.055 626.81 829.055 600.106C829.055 573.401 807.308 551.655 780.604 551.655C755.59 551.655 734.97 570.697 732.416 595.073H563.739C563.776 557.589 563.776 511.091 563.814 453.476H599.72V502.302C599.72 505.42 602.237 507.936 605.354 507.936H662.857C664.622 533.063 685.618 552.969 711.158 552.969C737.862 552.969 759.609 531.223 759.609 504.518C759.609 477.814 737.862 456.067 711.158 456.067C687.12 456.067 667.101 473.683 663.345 496.706H610.95V447.88C610.95 444.762 608.434 442.246 605.317 442.246H563.814C563.814 424.593 563.814 405.926 563.814 386.17H725.918C728.435 410.508 749.092 429.588 774.106 429.588C800.811 429.588 822.557 407.842 822.557 381.137C822.557 354.433 800.811 332.686 774.106 332.686C749.505 332.686 729.111 351.128 726.068 374.94H563.814C563.814 357.625 563.814 339.522 563.814 320.555H615.195C618.312 320.555 620.828 318.038 620.828 314.921V228.085H660.34C663.12 252.16 683.627 270.902 708.453 270.902C735.158 270.902 756.904 249.155 756.904 222.451C756.904 195.747 735.158 174 708.453 174C683.627 174 663.12 192.742 660.34 216.817H615.195C612.077 216.817 609.561 219.334 609.561 222.451V309.325H563.814C563.814 287.578 563.814 264.817 563.814 240.892V239.578C563.814 211.108 540.64 187.934 512.171 187.934C483.701 187.934 460.527 211.108 460.527 239.578C460.527 240.291 460.527 240.968 460.565 241.681C456.17 239.766 450.536 238.301 443.663 238.301C441.973 238.301 440.208 238.376 438.48 238.564C415.531 240.93 398.855 257.756 398.705 278.602C393.898 276.648 387.512 275.033 379.625 275.033C377.184 275.033 374.667 275.184 372.151 275.484C346.198 278.602 326.63 299.785 326.63 324.761C326.63 332.761 328.695 340.536 332.564 347.409C332.226 347.409 331.925 347.409 331.587 347.409C309.728 347.409 291.925 365.212 291.925 387.072C291.925 401.382 296.845 410.696 301.841 416.631C285.765 420.724 273.822 435.335 273.822 452.687C273.822 465.232 280.019 476.462 289.747 483.222C276.301 489.42 260 502.565 260 529.645ZM714.989 721.609C735.496 721.609 752.209 738.285 752.209 758.83C752.209 779.374 735.533 796.051 714.989 796.051C694.481 796.051 677.768 779.374 677.768 758.83C677.768 738.285 694.444 721.609 714.989 721.609ZM780.604 562.922C801.111 562.922 817.825 579.599 817.825 600.143C817.825 620.65 801.149 637.364 780.604 637.364C760.097 637.364 743.383 620.688 743.383 600.143C743.383 579.636 760.097 562.922 780.604 562.922ZM711.12 467.297C731.627 467.297 748.341 483.974 748.341 504.518C748.341 525.026 731.665 541.739 711.12 541.739C690.575 541.739 673.899 525.063 673.899 504.518C673.937 484.011 690.613 467.297 711.12 467.297ZM774.069 343.916C794.576 343.916 811.29 360.593 811.29 381.137C811.29 401.682 794.614 418.358 774.069 418.358C753.562 418.358 736.848 401.682 736.848 381.137C736.848 360.593 753.562 343.916 774.069 343.916ZM708.453 185.268C728.961 185.268 745.674 201.944 745.674 222.489C745.674 243.033 728.998 259.709 708.453 259.709C687.946 259.709 671.232 243.033 671.232 222.489C671.232 201.944 687.946 185.268 708.453 185.268ZM306.31 489.457C310.817 488.518 311.381 485.288 311.418 483.974C311.493 481.157 309.503 478.753 306.723 478.265C294.179 476.161 285.052 465.42 285.052 452.687C285.052 438.377 296.695 426.734 311.005 426.734C312.057 426.734 313.183 426.847 314.46 426.997C318.892 429.701 326.442 432.969 337.033 432.969C346.348 432.969 358.029 430.452 371.963 422.79C374.667 421.288 375.681 417.87 374.179 415.166C372.677 412.461 369.259 411.447 366.555 412.95C362.386 415.241 358.479 417.006 354.836 418.321C340 423.692 329.709 421.739 323.775 419.222C319.944 417.607 317.916 415.767 317.653 415.504C317.09 414.94 316.413 414.527 315.662 414.264C310.892 410.771 303.118 403.485 303.118 387.072C303.118 371.41 315.888 358.64 331.55 358.64C335.569 358.64 339.475 359.466 343.155 361.118C345.709 362.245 348.714 361.344 350.216 359.015L350.705 358.302C352.17 355.973 351.756 352.931 349.691 351.09C342.179 344.367 337.86 334.79 337.86 324.761C337.86 305.456 353.184 289.08 373.465 286.639C375.569 286.376 377.634 286.264 379.625 286.264C394.536 286.264 401.71 293.212 401.973 293.475C402.724 294.264 403.663 294.752 404.677 295.015C409.334 300.198 418.236 312.667 416.546 331.184C416.283 334.264 418.536 337.006 421.654 337.269C421.841 337.269 421.992 337.306 422.179 337.306C425.071 337.306 427.513 335.128 427.776 332.198C430.104 306.132 415.419 289.681 410.649 285.024C410.198 282.996 409.973 280.968 409.973 278.902C409.973 263.54 422.179 251.559 439.644 249.756C440.996 249.606 442.348 249.531 443.663 249.531C454.367 249.531 460.602 254.188 462.968 256.367C467.137 267.184 479.419 284.348 500.715 284.348C502.593 284.348 504.546 284.198 506.537 283.935C509.617 283.484 511.757 280.667 511.307 277.587C510.856 274.508 508.001 272.367 504.959 272.817C502.255 273.193 499.776 273.193 497.485 272.93C487.569 271.728 481.109 265.193 477.391 259.634C475.851 257.343 474.762 255.24 474.086 253.7C474.048 253.212 473.973 252.723 473.823 252.273C472.471 248.141 471.757 243.897 471.757 239.615C471.757 217.343 489.898 199.202 512.171 199.202C534.443 199.202 552.584 217.343 552.584 239.615V240.93C552.584 271.578 552.621 444.875 552.546 581.063C550.856 580.763 548.866 580.35 546.612 579.824C538.199 577.833 526.443 574.153 514.8 567.58C516.227 565.927 517.804 563.937 519.419 561.533C528.809 547.486 538.837 520.518 521.448 479.504C520.246 476.65 516.94 475.298 514.086 476.537C511.232 477.739 509.879 481.044 511.119 483.898C512.546 487.316 513.786 490.584 514.837 493.777C526.556 529.533 514.199 550.866 506.875 559.617C506.311 560.293 505.785 560.894 505.297 561.42C497.034 555.336 489.335 547.486 483.663 537.42C482.199 534.791 480.846 532.049 479.682 529.119C478.518 526.227 475.25 524.838 472.358 526.002C469.466 527.166 468.076 530.434 469.241 533.326C487.419 578.472 536.434 589.965 552.546 592.556C552.509 677.59 552.396 745.646 552.208 750.642V750.679C548.415 768.971 532.077 782.229 513.372 782.229C491.513 782.229 473.71 764.426 473.71 742.567C473.71 740.088 473.973 737.534 474.461 735.017L474.499 734.604L474.536 734.341C474.574 734.003 474.799 731.712 475.964 728.332C478.931 719.881 487.907 704.745 514.912 697.346C518.255 696.444 521.861 695.618 525.804 694.98C528.884 694.454 530.95 691.562 530.424 688.519C529.898 685.44 527.006 683.374 523.964 683.9C476.339 691.787 466.086 719.693 463.907 729.872C463.532 730.06 463.156 730.247 462.743 730.473C457.785 733.177 448.546 738.172 434.273 738.172C412.715 738.172 396.264 725.853 392.395 706.811C391.081 700.35 393.635 689.421 394.724 685.778C394.874 685.252 394.949 684.764 394.949 684.238C396.001 681.458 397.653 677.965 400.17 674.397C401.334 672.745 402.724 671.055 404.301 669.439C407.869 665.759 412.602 662.303 418.761 659.824C421.654 658.66 423.043 655.392 421.841 652.5C420.677 649.608 417.409 648.219 414.517 649.421C395.663 657.045 387.588 671.618 384.282 680.707C380.414 682.923 376.019 684.05 371.512 684.05C357.202 684.05 345.559 672.407 345.559 658.097C345.559 651.486 348.076 645.214 352.62 640.331C354.386 638.453 354.648 635.561 353.221 633.383L352.583 632.406C351.005 629.965 347.775 629.139 345.221 630.528C341.24 632.669 336.733 633.796 332.226 633.796C317.052 633.796 304.695 621.439 304.695 606.265C304.695 591.467 316.714 582.716 320.62 579.862C320.77 579.749 320.958 579.636 321.146 579.486C321.334 579.411 321.521 579.336 321.709 579.261C322.047 579.073 325.428 577.27 330.16 576.143C336.132 574.716 344.282 574.34 351.306 579.599C353.033 580.876 354.648 582.491 356.188 584.519C357.278 585.984 358.968 586.772 360.695 586.772C361.86 586.772 363.062 586.397 364.076 585.646C366.555 583.768 367.043 580.237 365.165 577.758C350.667 558.528 327.944 563.373 317.165 568.932C314.949 569.27 312.92 569.458 311.005 569.458C289.108 569.458 271.268 551.617 271.268 529.72C271.268 500.011 295.756 491.673 306.31 489.457Z" stroke="white" stroke-width="12" mask="url(#path-3-outside-1_451_4)"/>
<path d="M479.291 340.274L479.273 340.274C474.529 340.216 470.693 336.332 470.751 331.641L479.291 340.274ZM479.291 340.274H479.309M479.291 340.274H479.309M479.309 340.274C479.599 340.274 482.253 340.336 486.182 340.985L486.187 340.986M479.309 340.274L486.187 340.986M486.187 340.986C493.073 342.111 503.574 344.978 512.417 352.203C511.612 353.836 510.503 355.777 509.008 357.802L508.966 357.86M486.187 340.986L508.966 357.86M508.966 357.86L508.926 357.92M508.966 357.86L508.926 357.92M508.926 357.92C508.881 357.987 508.803 358.086 508.591 358.339L508.558 358.379M508.926 357.92L508.558 358.379M508.558 358.379L508.527 358.42M508.558 358.379L508.527 358.42M508.527 358.42C506.236 361.371 503.127 364.441 498.958 366.921L498.952 366.925M508.527 358.42L498.952 366.925M498.952 366.925L498.945 366.929M498.952 366.925L498.945 366.929M498.945 366.929C495.761 368.846 491.88 370.416 487.207 371.366M498.945 366.929L487.207 371.366M545.535 380.846L545.536 380.855C546.109 385.55 542.797 389.872 538.067 390.465C537.604 390.528 537.211 390.528 536.992 390.528L536.962 390.528C532.714 390.528 528.956 387.378 528.426 382.978C528.141 380.768 527.748 378.694 527.28 376.679C526.416 372.99 525.234 369.7 523.818 366.754C523.341 367.444 522.833 368.144 522.29 368.848C516.226 376.783 506.315 385.195 490.559 388.292C490.016 388.4 489.482 388.462 488.887 388.462C484.849 388.462 481.23 385.594 480.422 381.499L545.535 380.846ZM545.535 380.846C543.511 364.655 537.228 352.931 529.199 344.467M545.535 380.846L529.199 344.467M487.207 371.366C482.547 372.291 479.501 376.831 480.422 381.498L487.207 371.366ZM529.199 344.467C528.846 344.031 528.474 343.66 528.127 343.351C518.251 333.468 506.172 328.434 496.625 325.861C487.369 323.366 480.296 323.132 479.483 323.119C474.624 323.009 470.808 326.971 470.751 331.64L529.199 344.467Z" fill="black" stroke="white" stroke-width="6"/>
<path d="M432.024 595.374L432.024 595.374C432.082 590.647 435.94 586.852 440.658 586.852C441.089 586.852 449.424 587.032 460.452 590.002C471.443 592.961 485.316 598.747 496.65 610.089C497.158 610.516 497.55 610.96 497.865 611.348C507.095 621.084 514.361 634.537 516.687 653.18L516.688 653.188C517.26 657.883 513.948 662.206 509.219 662.798C508.756 662.862 508.362 662.862 508.144 662.861L508.113 662.861C503.86 662.861 500.098 659.704 499.576 655.294L499.574 655.283C499.328 653.133 498.937 651.101 498.495 649.034L498.494 649.033C497.229 643.109 495.307 637.969 492.922 633.535C491.999 634.994 490.962 636.5 489.806 638.016C482.913 647.087 471.534 656.74 453.486 660.288C452.943 660.396 452.408 660.458 451.813 660.458C447.775 660.458 444.157 657.59 443.348 653.494L432.024 595.374ZM432.024 595.374C431.966 600.177 435.839 604.024 440.546 604.081L440.564 604.082H440.583C440.929 604.082 443.498 604.147 447.395 604.656M432.024 595.374L447.395 604.656M447.395 604.656C455.761 605.807 469.76 609.209 481.233 619.024C480.535 620.568 479.577 622.419 478.315 624.41C474.968 629.659 469.54 635.776 460.978 639.832C457.806 641.311 454.244 642.546 450.14 643.36C445.476 644.282 442.427 648.825 443.348 653.493L447.395 604.656Z" fill="black" stroke="white" stroke-width="6"/>
<path d="M322.459 517.688L322.448 517.68C318.52 515.061 317.383 509.691 320.106 505.813C320.768 504.836 325.727 497.852 334.347 490.207C343.354 482.219 356.532 473.354 373.143 470.018C373.677 469.863 374.168 469.804 374.457 469.772C388.333 467.24 404.385 468.666 422.071 477.372C426.369 479.468 428.062 484.658 426.003 488.891C423.91 493.194 418.716 494.89 414.481 492.83L414.472 492.825C412.499 491.857 410.548 491.025 408.607 490.256C402.126 487.697 396.028 486.354 390.339 485.939C391.21 487.785 392.058 489.807 392.822 491.994C396.771 503.249 398.693 518.78 391.417 536.635L391.414 536.643L391.411 536.65C390.03 539.987 386.807 541.996 383.418 541.996C382.409 541.996 381.296 541.828 380.166 541.355C375.787 539.559 373.675 534.552 375.452 530.139L375.456 530.129L375.46 530.118C377.02 526.325 377.972 522.723 378.5 519.308L378.501 519.304C380.188 508.478 377.592 499.399 374.655 493.135C373.657 491.016 372.645 489.239 371.751 487.83C355.913 492.319 344.483 503.166 338.626 509.934L322.459 517.688ZM322.459 517.688L322.471 517.695M322.459 517.688L322.471 517.695M322.471 517.695C323.937 518.654 325.56 519.123 327.23 519.123C329.968 519.123 332.731 517.814 334.412 515.321L334.434 515.288M322.471 517.695L334.434 515.288M334.434 515.288L334.456 515.255M334.434 515.288L334.456 515.255M334.456 515.255C334.623 514.991 336.069 512.893 338.626 509.935L334.456 515.255Z" fill="black" stroke="white" stroke-width="6"/>
<path d="M417.908 401.469L417.911 401.47C423.735 403.279 432.468 406.92 439.53 413.735C446.496 420.459 451.949 430.364 451.26 445.113L451.259 445.123L451.259 445.133C451.187 446.935 451.044 448.777 450.763 450.673L450.76 450.693L450.757 450.713C450.13 455.391 453.371 459.786 458.088 460.431C458.564 460.498 459.009 460.497 459.248 460.497C459.263 460.497 459.276 460.497 459.289 460.497C463.517 460.497 467.187 457.38 467.816 453.087L467.818 453.079L467.819 453.07C469.876 438.454 467.675 426.64 463.069 417.17C458.475 407.725 451.575 400.788 444.487 395.751C430.95 386.131 416.434 383.235 414.767 382.955L414.767 382.954C410.09 382.145 405.586 385.314 404.833 390.06L404.83 390.08L404.827 390.1C404.153 394.758 407.234 399.211 411.947 399.984C411.959 399.987 411.972 399.989 411.987 399.992C412.524 400.087 414.757 400.486 417.908 401.469Z" fill="black" stroke="white" stroke-width="6"/>
<path d="M437.088 516.507L437.068 516.506L437.048 516.506C432.188 516.334 428.315 520.037 428.086 524.729L428.086 524.736C427.981 527.003 427.704 529.009 427.291 530.906C424.491 543.109 415.058 547.798 408.257 549.659C405.076 550.499 402.663 550.692 401.881 550.755C401.846 550.758 401.814 550.76 401.786 550.763C397.111 550.976 393.395 554.919 393.568 559.651L393.568 559.653C393.74 564.296 397.533 567.988 402.2 567.988H402.388H402.434L402.481 567.986C409.624 567.764 419.925 565.319 428.68 558.84C437.554 552.274 444.707 541.646 445.385 525.489L445.387 525.444L445.388 525.399C445.444 520.704 441.816 516.738 437.088 516.507Z" fill="black" stroke="white" stroke-width="6"/>
<path d="M480.457 409.315L480.449 409.315L480.44 409.315C475.705 409.544 471.985 413.506 472.217 418.315C472.446 423.061 476.334 426.711 481.179 426.54L481.189 426.54L481.199 426.539C484.585 426.397 487.687 426.576 490.513 427.03L490.523 427.031L490.532 427.033C503.688 429.057 511.538 436.459 515.796 442.288L515.803 442.297C518.56 446.041 519.772 449.097 519.93 449.495C519.931 449.496 519.931 449.498 519.932 449.499C521.254 452.924 524.519 455.049 527.984 455.049C528.963 455.049 529.977 454.878 530.935 454.54L530.965 454.53L530.994 454.519C535.417 452.853 537.725 447.91 536.054 443.417L536.054 443.417C535.642 442.315 532.114 433.777 523.853 425.506C515.168 416.812 501.249 408.428 480.457 409.315Z" fill="black" stroke="white" stroke-width="6"/>
<defs>
<filter id="filter0_d_451_4" x="0" y="0" width="1038" height="1038" filterUnits="userSpaceOnUse" color-interpolation-filters="sRGB">
<feFlood flood-opacity="0" result="BackgroundImageFix"/>
<feColorMatrix in="SourceAlpha" type="matrix" values="0 0 0 0 0 0 0 0 0 0 0 0 0 0 0 0 0 0 127 0" result="hardAlpha"/>
<feMorphology radius="10" operator="dilate" in="SourceAlpha" result="effect1_dropShadow_451_4"/>
<feOffset dx="-26" dy="28"/>
<feGaussianBlur stdDeviation="37.5"/>
<feComposite in2="hardAlpha" operator="out"/>
<feColorMatrix type="matrix" values="0 0 0 0 0 0 0 0 0 0 0 0 0 0 0 0 0 0 0.25 0"/>
<feBlend mode="normal" in2="BackgroundImageFix" result="effect1_dropShadow_451_4"/>
<feBlend mode="normal" in="SourceGraphic" in2="effect1_dropShadow_451_4" result="shape"/>
</filter>
</defs>
</svg>
