<svg width="582" height="646" viewBox="0 0 582 646" fill="none" xmlns="http://www.w3.org/2000/svg">
<mask id="path-1-outside-1_252_35" maskUnits="userSpaceOnUse" x="0" y="0" width="582" height="646" fill="black">
<rect fill="white" width="582" height="646"/>
<path d="M6 361.645C6 387.26 24.9672 408.519 49.6059 412.087C42.8453 419.899 39.4274 428.613 39.4274 438.19C39.4274 459.561 56.8172 476.951 78.1882 476.951C79.7281 476.951 81.2305 476.876 82.7704 476.688C81.1554 480.895 80.2915 485.402 80.2915 489.984C80.2915 510.491 96.9677 527.205 117.512 527.205C120.893 527.205 124.235 526.754 127.428 525.853C126.714 530.66 126.376 536.257 127.353 540.951C132.348 565.477 153.118 581.327 180.236 581.327C192.743 581.327 202.133 578.06 208.405 575.13C208.743 602.886 231.466 625.384 259.297 625.384C282.922 625.384 303.617 608.858 308.913 585.947C309.213 585.271 309.363 584.52 309.363 583.731V583.13H309.326C309.401 579.9 309.551 566.191 309.664 503.956H362.096V590.83C362.096 593.947 364.612 596.464 367.73 596.464H412.876C415.655 620.539 436.162 639.281 460.989 639.281C487.693 639.281 509.44 617.534 509.44 590.83C509.44 564.125 487.693 542.379 460.989 542.379C436.162 542.379 415.655 561.121 412.876 585.196H373.326V498.322C373.326 495.205 370.81 492.688 367.692 492.688H309.664C309.701 477.327 309.701 459.336 309.739 438.303H478.566C481.608 462.115 502.003 480.557 526.604 480.557C553.308 480.557 575.055 458.81 575.055 432.106C575.055 405.401 553.308 383.655 526.604 383.655C501.59 383.655 480.97 402.697 478.416 427.073H309.739C309.776 389.589 309.776 343.091 309.814 285.476H345.72V334.302C345.72 337.42 348.237 339.936 351.354 339.936H408.857C410.622 365.063 431.618 384.969 457.158 384.969C483.862 384.969 505.609 363.223 505.609 336.518C505.609 309.814 483.862 288.067 457.158 288.067C433.12 288.067 413.101 305.683 409.345 328.706H356.95V279.88C356.95 276.762 354.434 274.246 351.317 274.246H309.814C309.814 256.593 309.814 237.926 309.814 218.17H471.918C474.435 242.508 495.092 261.588 520.106 261.588C546.811 261.588 568.557 239.842 568.557 213.137C568.557 186.433 546.811 164.686 520.106 164.686C495.505 164.686 475.111 183.128 472.068 206.94H309.814C309.814 189.625 309.814 171.522 309.814 152.555H361.195C364.312 152.555 366.828 150.038 366.828 146.921V60.0848H406.34C409.12 84.1601 429.627 102.902 454.453 102.902C481.158 102.902 502.904 81.1554 502.904 54.451C502.904 27.7466 481.158 6 454.453 6C429.627 6 409.12 24.7419 406.34 48.8172H361.195C358.077 48.8172 355.561 51.3336 355.561 54.451V141.325H309.814C309.814 119.578 309.814 96.8174 309.814 72.8924V71.5779C309.814 43.1082 286.64 19.9344 258.171 19.9344C229.701 19.9344 206.527 43.1082 206.527 71.5779C206.527 72.2915 206.527 72.9675 206.565 73.6811C202.17 71.7656 196.536 70.3008 189.663 70.3008C187.973 70.3008 186.208 70.376 184.48 70.5638C161.531 72.93 144.855 89.7564 144.705 110.602C139.898 108.648 133.512 107.033 125.625 107.033C123.184 107.033 120.667 107.184 118.151 107.484C92.1977 110.602 72.6295 131.785 72.6295 156.761C72.6295 164.761 74.6952 172.536 78.5638 179.409C78.2258 179.409 77.9253 179.409 77.5873 179.409C55.728 179.409 37.9251 197.212 37.9251 219.072C37.9251 233.382 42.8453 242.696 47.8406 248.631C31.7654 252.724 19.8217 267.335 19.8217 284.687C19.8217 297.232 26.0189 308.462 35.7466 315.222C22.3006 321.42 6 334.565 6 361.645ZM460.989 553.609C481.496 553.609 498.209 570.285 498.209 590.83C498.209 611.374 481.533 628.051 460.989 628.051C440.481 628.051 423.768 611.374 423.768 590.83C423.768 570.285 440.444 553.609 460.989 553.609ZM526.604 394.922C547.111 394.922 563.825 411.599 563.825 432.143C563.825 452.65 547.149 469.364 526.604 469.364C506.097 469.364 489.383 452.688 489.383 432.143C489.383 411.636 506.097 394.922 526.604 394.922ZM457.12 299.297C477.627 299.297 494.341 315.974 494.341 336.518C494.341 357.026 477.665 373.739 457.12 373.739C436.575 373.739 419.899 357.063 419.899 336.518C419.937 316.011 436.613 299.297 457.12 299.297ZM520.069 175.916C540.576 175.916 557.29 192.593 557.29 213.137C557.29 233.682 540.614 250.358 520.069 250.358C499.562 250.358 482.848 233.682 482.848 213.137C482.848 192.593 499.562 175.916 520.069 175.916ZM454.453 17.2677C474.961 17.2677 491.674 33.9438 491.674 54.4885C491.674 75.0333 474.998 91.7094 454.453 91.7094C433.946 91.7094 417.232 75.0333 417.232 54.4885C417.232 33.9438 433.946 17.2677 454.453 17.2677ZM52.3101 321.457C56.8172 320.518 57.3806 317.288 57.4181 315.974C57.4933 313.157 55.5026 310.753 52.7233 310.265C40.1786 308.161 31.0518 297.42 31.0518 284.687C31.0518 270.377 42.695 258.734 57.005 258.734C58.0566 258.734 59.1834 258.847 60.4604 258.997C64.8924 261.701 72.4417 264.969 83.0333 264.969C92.3479 264.969 104.029 262.452 117.963 254.79C120.667 253.288 121.681 249.87 120.179 247.166C118.677 244.461 115.259 243.447 112.555 244.95C108.386 247.241 104.479 249.006 100.836 250.321C86.0005 255.692 75.7093 253.739 69.775 251.222C65.944 249.607 63.9158 247.767 63.6529 247.504C63.0895 246.94 62.4135 246.527 61.6623 246.264C56.8923 242.771 49.1176 235.485 49.1176 219.072C49.1176 203.41 61.8877 190.64 77.5497 190.64C81.5685 190.64 85.4746 191.466 89.1554 193.118C91.7094 194.245 94.7141 193.344 96.2165 191.015L96.7048 190.302C98.1695 187.973 97.7564 184.931 95.6907 183.09C88.1789 176.367 83.8596 166.79 83.8596 156.761C83.8596 137.456 99.1837 121.08 119.465 118.639C121.569 118.376 123.634 118.264 125.625 118.264C140.536 118.264 147.71 125.212 147.973 125.475C148.724 126.264 149.663 126.752 150.677 127.015C155.334 132.198 164.236 144.667 162.546 163.184C162.283 166.264 164.536 169.006 167.654 169.269C167.841 169.269 167.992 169.306 168.179 169.306C171.071 169.306 173.513 167.128 173.776 164.198C176.104 138.132 161.419 121.681 156.649 117.024C156.198 114.996 155.973 112.968 155.973 110.902C155.973 95.5404 168.179 83.5591 185.644 81.7563C186.996 81.6061 188.348 81.531 189.663 81.531C200.367 81.531 206.602 86.1883 208.968 88.3667C213.137 99.1836 225.419 116.348 246.715 116.348C248.593 116.348 250.546 116.198 252.537 115.935C255.617 115.484 257.757 112.667 257.307 109.587C256.856 106.508 254.001 104.367 250.959 104.817C248.255 105.193 245.776 105.193 243.485 104.93C233.569 103.728 227.109 97.193 223.391 91.6343C221.851 89.3432 220.762 87.2399 220.086 85.7C220.048 85.2117 219.973 84.7235 219.823 84.2728C218.471 80.1413 217.757 75.8971 217.757 71.6154C217.757 49.343 235.898 31.202 258.171 31.202C280.443 31.202 298.584 49.343 298.584 71.6154V72.93C298.584 103.578 298.621 276.875 298.546 413.063C296.856 412.763 294.866 412.35 292.612 411.824C284.199 409.833 272.443 406.153 260.8 399.58C262.227 397.927 263.804 395.937 265.419 393.533C274.809 379.486 284.837 352.518 267.448 311.504C266.246 308.65 262.94 307.298 260.086 308.537C257.232 309.739 255.879 313.044 257.119 315.898C258.546 319.316 259.786 322.584 260.837 325.777C272.556 361.533 260.199 382.866 252.875 391.617C252.311 392.293 251.785 392.894 251.297 393.42C243.034 387.336 235.335 379.486 229.663 369.42C228.199 366.791 226.846 364.049 225.682 361.119C224.518 358.227 221.25 356.838 218.358 358.002C215.466 359.166 214.076 362.434 215.241 365.326C233.419 410.472 282.434 421.965 298.546 424.556C298.509 509.59 298.396 577.646 298.208 582.642V582.679C294.415 600.971 278.077 614.229 259.372 614.229C237.513 614.229 219.71 596.426 219.71 574.567C219.71 572.088 219.973 569.534 220.461 567.017L220.499 566.604L220.536 566.341C220.574 566.003 220.799 563.712 221.964 560.332C224.931 551.881 233.907 536.745 260.912 529.346C264.255 528.444 267.861 527.618 271.804 526.98C274.884 526.454 276.95 523.562 276.424 520.519C275.898 517.44 273.006 515.374 269.964 515.9C222.339 523.787 212.086 551.693 209.907 561.872C209.532 562.06 209.156 562.247 208.743 562.473C203.785 565.177 194.546 570.172 180.273 570.172C158.715 570.172 142.264 557.853 138.395 538.811C137.081 532.35 139.635 521.421 140.724 517.778C140.874 517.252 140.949 516.764 140.949 516.238C142.001 513.458 143.653 509.965 146.17 506.397C147.334 504.745 148.724 503.055 150.301 501.439C153.869 497.759 158.602 494.303 164.761 491.824C167.654 490.66 169.043 487.392 167.841 484.5C166.677 481.608 163.409 480.219 160.517 481.421C141.663 489.045 133.588 503.618 130.282 512.707C126.414 514.923 122.019 516.05 117.512 516.05C103.202 516.05 91.5592 504.407 91.5592 490.097C91.5592 483.486 94.0756 477.214 98.6203 472.331C100.386 470.453 100.648 467.561 99.2212 465.383L98.5827 464.406C97.0052 461.965 93.7752 461.139 91.2212 462.528C87.2399 464.669 82.7328 465.796 78.2258 465.796C63.052 465.796 50.6951 453.439 50.6951 438.265C50.6951 423.467 62.7139 414.716 66.6201 411.862C66.7703 411.749 66.9581 411.636 67.1459 411.486C67.3337 411.411 67.5215 411.336 67.7093 411.261C68.0473 411.073 71.4276 409.27 76.16 408.143C82.1319 406.716 90.2822 406.34 97.3057 411.599C99.0334 412.876 100.648 414.491 102.188 416.519C103.278 417.984 104.968 418.772 106.695 418.772C107.86 418.772 109.062 418.397 110.076 417.646C112.555 415.768 113.043 412.237 111.165 409.758C96.6672 390.528 73.9441 395.373 63.1646 400.932C60.9487 401.27 58.9205 401.458 57.005 401.458C35.1081 401.458 17.2677 383.617 17.2677 361.72C17.2677 332.011 41.7561 323.673 52.3101 321.457Z"/>
</mask>
<path d="M6 361.645C6 387.26 24.9672 408.519 49.6059 412.087C42.8453 419.899 39.4274 428.613 39.4274 438.19C39.4274 459.561 56.8172 476.951 78.1882 476.951C79.7281 476.951 81.2305 476.876 82.7704 476.688C81.1554 480.895 80.2915 485.402 80.2915 489.984C80.2915 510.491 96.9677 527.205 117.512 527.205C120.893 527.205 124.235 526.754 127.428 525.853C126.714 530.66 126.376 536.257 127.353 540.951C132.348 565.477 153.118 581.327 180.236 581.327C192.743 581.327 202.133 578.06 208.405 575.13C208.743 602.886 231.466 625.384 259.297 625.384C282.922 625.384 303.617 608.858 308.913 585.947C309.213 585.271 309.363 584.52 309.363 583.731V583.13H309.326C309.401 579.9 309.551 566.191 309.664 503.956H362.096V590.83C362.096 593.947 364.612 596.464 367.73 596.464H412.876C415.655 620.539 436.162 639.281 460.989 639.281C487.693 639.281 509.44 617.534 509.44 590.83C509.44 564.125 487.693 542.379 460.989 542.379C436.162 542.379 415.655 561.121 412.876 585.196H373.326V498.322C373.326 495.205 370.81 492.688 367.692 492.688H309.664C309.701 477.327 309.701 459.336 309.739 438.303H478.566C481.608 462.115 502.003 480.557 526.604 480.557C553.308 480.557 575.055 458.81 575.055 432.106C575.055 405.401 553.308 383.655 526.604 383.655C501.59 383.655 480.97 402.697 478.416 427.073H309.739C309.776 389.589 309.776 343.091 309.814 285.476H345.72V334.302C345.72 337.42 348.237 339.936 351.354 339.936H408.857C410.622 365.063 431.618 384.969 457.158 384.969C483.862 384.969 505.609 363.223 505.609 336.518C505.609 309.814 483.862 288.067 457.158 288.067C433.12 288.067 413.101 305.683 409.345 328.706H356.95V279.88C356.95 276.762 354.434 274.246 351.317 274.246H309.814C309.814 256.593 309.814 237.926 309.814 218.17H471.918C474.435 242.508 495.092 261.588 520.106 261.588C546.811 261.588 568.557 239.842 568.557 213.137C568.557 186.433 546.811 164.686 520.106 164.686C495.505 164.686 475.111 183.128 472.068 206.94H309.814C309.814 189.625 309.814 171.522 309.814 152.555H361.195C364.312 152.555 366.828 150.038 366.828 146.921V60.0848H406.34C409.12 84.1601 429.627 102.902 454.453 102.902C481.158 102.902 502.904 81.1554 502.904 54.451C502.904 27.7466 481.158 6 454.453 6C429.627 6 409.12 24.7419 406.34 48.8172H361.195C358.077 48.8172 355.561 51.3336 355.561 54.451V141.325H309.814C309.814 119.578 309.814 96.8174 309.814 72.8924V71.5779C309.814 43.1082 286.64 19.9344 258.171 19.9344C229.701 19.9344 206.527 43.1082 206.527 71.5779C206.527 72.2915 206.527 72.9675 206.565 73.6811C202.17 71.7656 196.536 70.3008 189.663 70.3008C187.973 70.3008 186.208 70.376 184.48 70.5638C161.531 72.93 144.855 89.7564 144.705 110.602C139.898 108.648 133.512 107.033 125.625 107.033C123.184 107.033 120.667 107.184 118.151 107.484C92.1977 110.602 72.6295 131.785 72.6295 156.761C72.6295 164.761 74.6952 172.536 78.5638 179.409C78.2258 179.409 77.9253 179.409 77.5873 179.409C55.728 179.409 37.9251 197.212 37.9251 219.072C37.9251 233.382 42.8453 242.696 47.8406 248.631C31.7654 252.724 19.8217 267.335 19.8217 284.687C19.8217 297.232 26.0189 308.462 35.7466 315.222C22.3006 321.42 6 334.565 6 361.645ZM460.989 553.609C481.496 553.609 498.209 570.285 498.209 590.83C498.209 611.374 481.533 628.051 460.989 628.051C440.481 628.051 423.768 611.374 423.768 590.83C423.768 570.285 440.444 553.609 460.989 553.609ZM526.604 394.922C547.111 394.922 563.825 411.599 563.825 432.143C563.825 452.65 547.149 469.364 526.604 469.364C506.097 469.364 489.383 452.688 489.383 432.143C489.383 411.636 506.097 394.922 526.604 394.922ZM457.12 299.297C477.627 299.297 494.341 315.974 494.341 336.518C494.341 357.026 477.665 373.739 457.12 373.739C436.575 373.739 419.899 357.063 419.899 336.518C419.937 316.011 436.613 299.297 457.12 299.297ZM520.069 175.916C540.576 175.916 557.29 192.593 557.29 213.137C557.29 233.682 540.614 250.358 520.069 250.358C499.562 250.358 482.848 233.682 482.848 213.137C482.848 192.593 499.562 175.916 520.069 175.916ZM454.453 17.2677C474.961 17.2677 491.674 33.9438 491.674 54.4885C491.674 75.0333 474.998 91.7094 454.453 91.7094C433.946 91.7094 417.232 75.0333 417.232 54.4885C417.232 33.9438 433.946 17.2677 454.453 17.2677ZM52.3101 321.457C56.8172 320.518 57.3806 317.288 57.4181 315.974C57.4933 313.157 55.5026 310.753 52.7233 310.265C40.1786 308.161 31.0518 297.42 31.0518 284.687C31.0518 270.377 42.695 258.734 57.005 258.734C58.0566 258.734 59.1834 258.847 60.4604 258.997C64.8924 261.701 72.4417 264.969 83.0333 264.969C92.3479 264.969 104.029 262.452 117.963 254.79C120.667 253.288 121.681 249.87 120.179 247.166C118.677 244.461 115.259 243.447 112.555 244.95C108.386 247.241 104.479 249.006 100.836 250.321C86.0005 255.692 75.7093 253.739 69.775 251.222C65.944 249.607 63.9158 247.767 63.6529 247.504C63.0895 246.94 62.4135 246.527 61.6623 246.264C56.8923 242.771 49.1176 235.485 49.1176 219.072C49.1176 203.41 61.8877 190.64 77.5497 190.64C81.5685 190.64 85.4746 191.466 89.1554 193.118C91.7094 194.245 94.7141 193.344 96.2165 191.015L96.7048 190.302C98.1695 187.973 97.7564 184.931 95.6907 183.09C88.1789 176.367 83.8596 166.79 83.8596 156.761C83.8596 137.456 99.1837 121.08 119.465 118.639C121.569 118.376 123.634 118.264 125.625 118.264C140.536 118.264 147.71 125.212 147.973 125.475C148.724 126.264 149.663 126.752 150.677 127.015C155.334 132.198 164.236 144.667 162.546 163.184C162.283 166.264 164.536 169.006 167.654 169.269C167.841 169.269 167.992 169.306 168.179 169.306C171.071 169.306 173.513 167.128 173.776 164.198C176.104 138.132 161.419 121.681 156.649 117.024C156.198 114.996 155.973 112.968 155.973 110.902C155.973 95.5404 168.179 83.5591 185.644 81.7563C186.996 81.6061 188.348 81.531 189.663 81.531C200.367 81.531 206.602 86.1883 208.968 88.3667C213.137 99.1836 225.419 116.348 246.715 116.348C248.593 116.348 250.546 116.198 252.537 115.935C255.617 115.484 257.757 112.667 257.307 109.587C256.856 106.508 254.001 104.367 250.959 104.817C248.255 105.193 245.776 105.193 243.485 104.93C233.569 103.728 227.109 97.193 223.391 91.6343C221.851 89.3432 220.762 87.2399 220.086 85.7C220.048 85.2117 219.973 84.7235 219.823 84.2728C218.471 80.1413 217.757 75.8971 217.757 71.6154C217.757 49.343 235.898 31.202 258.171 31.202C280.443 31.202 298.584 49.343 298.584 71.6154V72.93C298.584 103.578 298.621 276.875 298.546 413.063C296.856 412.763 294.866 412.35 292.612 411.824C284.199 409.833 272.443 406.153 260.8 399.58C262.227 397.927 263.804 395.937 265.419 393.533C274.809 379.486 284.837 352.518 267.448 311.504C266.246 308.65 262.94 307.298 260.086 308.537C257.232 309.739 255.879 313.044 257.119 315.898C258.546 319.316 259.786 322.584 260.837 325.777C272.556 361.533 260.199 382.866 252.875 391.617C252.311 392.293 251.785 392.894 251.297 393.42C243.034 387.336 235.335 379.486 229.663 369.42C228.199 366.791 226.846 364.049 225.682 361.119C224.518 358.227 221.25 356.838 218.358 358.002C215.466 359.166 214.076 362.434 215.241 365.326C233.419 410.472 282.434 421.965 298.546 424.556C298.509 509.59 298.396 577.646 298.208 582.642V582.679C294.415 600.971 278.077 614.229 259.372 614.229C237.513 614.229 219.71 596.426 219.71 574.567C219.71 572.088 219.973 569.534 220.461 567.017L220.499 566.604L220.536 566.341C220.574 566.003 220.799 563.712 221.964 560.332C224.931 551.881 233.907 536.745 260.912 529.346C264.255 528.444 267.861 527.618 271.804 526.98C274.884 526.454 276.95 523.562 276.424 520.519C275.898 517.44 273.006 515.374 269.964 515.9C222.339 523.787 212.086 551.693 209.907 561.872C209.532 562.06 209.156 562.247 208.743 562.473C203.785 565.177 194.546 570.172 180.273 570.172C158.715 570.172 142.264 557.853 138.395 538.811C137.081 532.35 139.635 521.421 140.724 517.778C140.874 517.252 140.949 516.764 140.949 516.238C142.001 513.458 143.653 509.965 146.17 506.397C147.334 504.745 148.724 503.055 150.301 501.439C153.869 497.759 158.602 494.303 164.761 491.824C167.654 490.66 169.043 487.392 167.841 484.5C166.677 481.608 163.409 480.219 160.517 481.421C141.663 489.045 133.588 503.618 130.282 512.707C126.414 514.923 122.019 516.05 117.512 516.05C103.202 516.05 91.5592 504.407 91.5592 490.097C91.5592 483.486 94.0756 477.214 98.6203 472.331C100.386 470.453 100.648 467.561 99.2212 465.383L98.5827 464.406C97.0052 461.965 93.7752 461.139 91.2212 462.528C87.2399 464.669 82.7328 465.796 78.2258 465.796C63.052 465.796 50.6951 453.439 50.6951 438.265C50.6951 423.467 62.7139 414.716 66.6201 411.862C66.7703 411.749 66.9581 411.636 67.1459 411.486C67.3337 411.411 67.5215 411.336 67.7093 411.261C68.0473 411.073 71.4276 409.27 76.16 408.143C82.1319 406.716 90.2822 406.34 97.3057 411.599C99.0334 412.876 100.648 414.491 102.188 416.519C103.278 417.984 104.968 418.772 106.695 418.772C107.86 418.772 109.062 418.397 110.076 417.646C112.555 415.768 113.043 412.237 111.165 409.758C96.6672 390.528 73.9441 395.373 63.1646 400.932C60.9487 401.27 58.9205 401.458 57.005 401.458C35.1081 401.458 17.2677 383.617 17.2677 361.72C17.2677 332.011 41.7561 323.673 52.3101 321.457Z" fill="white"/>
<path d="M6 361.645C6 387.26 24.9672 408.519 49.6059 412.087C42.8453 419.899 39.4274 428.613 39.4274 438.19C39.4274 459.561 56.8172 476.951 78.1882 476.951C79.7281 476.951 81.2305 476.876 82.7704 476.688C81.1554 480.895 80.2915 485.402 80.2915 489.984C80.2915 510.491 96.9677 527.205 117.512 527.205C120.893 527.205 124.235 526.754 127.428 525.853C126.714 530.66 126.376 536.257 127.353 540.951C132.348 565.477 153.118 581.327 180.236 581.327C192.743 581.327 202.133 578.06 208.405 575.13C208.743 602.886 231.466 625.384 259.297 625.384C282.922 625.384 303.617 608.858 308.913 585.947C309.213 585.271 309.363 584.52 309.363 583.731V583.13H309.326C309.401 579.9 309.551 566.191 309.664 503.956H362.096V590.83C362.096 593.947 364.612 596.464 367.73 596.464H412.876C415.655 620.539 436.162 639.281 460.989 639.281C487.693 639.281 509.44 617.534 509.44 590.83C509.44 564.125 487.693 542.379 460.989 542.379C436.162 542.379 415.655 561.121 412.876 585.196H373.326V498.322C373.326 495.205 370.81 492.688 367.692 492.688H309.664C309.701 477.327 309.701 459.336 309.739 438.303H478.566C481.608 462.115 502.003 480.557 526.604 480.557C553.308 480.557 575.055 458.81 575.055 432.106C575.055 405.401 553.308 383.655 526.604 383.655C501.59 383.655 480.97 402.697 478.416 427.073H309.739C309.776 389.589 309.776 343.091 309.814 285.476H345.72V334.302C345.72 337.42 348.237 339.936 351.354 339.936H408.857C410.622 365.063 431.618 384.969 457.158 384.969C483.862 384.969 505.609 363.223 505.609 336.518C505.609 309.814 483.862 288.067 457.158 288.067C433.12 288.067 413.101 305.683 409.345 328.706H356.95V279.88C356.95 276.762 354.434 274.246 351.317 274.246H309.814C309.814 256.593 309.814 237.926 309.814 218.17H471.918C474.435 242.508 495.092 261.588 520.106 261.588C546.811 261.588 568.557 239.842 568.557 213.137C568.557 186.433 546.811 164.686 520.106 164.686C495.505 164.686 475.111 183.128 472.068 206.94H309.814C309.814 189.625 309.814 171.522 309.814 152.555H361.195C364.312 152.555 366.828 150.038 366.828 146.921V60.0848H406.34C409.12 84.1601 429.627 102.902 454.453 102.902C481.158 102.902 502.904 81.1554 502.904 54.451C502.904 27.7466 481.158 6 454.453 6C429.627 6 409.12 24.7419 406.34 48.8172H361.195C358.077 48.8172 355.561 51.3336 355.561 54.451V141.325H309.814C309.814 119.578 309.814 96.8174 309.814 72.8924V71.5779C309.814 43.1082 286.64 19.9344 258.171 19.9344C229.701 19.9344 206.527 43.1082 206.527 71.5779C206.527 72.2915 206.527 72.9675 206.565 73.6811C202.17 71.7656 196.536 70.3008 189.663 70.3008C187.973 70.3008 186.208 70.376 184.48 70.5638C161.531 72.93 144.855 89.7564 144.705 110.602C139.898 108.648 133.512 107.033 125.625 107.033C123.184 107.033 120.667 107.184 118.151 107.484C92.1977 110.602 72.6295 131.785 72.6295 156.761C72.6295 164.761 74.6952 172.536 78.5638 179.409C78.2258 179.409 77.9253 179.409 77.5873 179.409C55.728 179.409 37.9251 197.212 37.9251 219.072C37.9251 233.382 42.8453 242.696 47.8406 248.631C31.7654 252.724 19.8217 267.335 19.8217 284.687C19.8217 297.232 26.0189 308.462 35.7466 315.222C22.3006 321.42 6 334.565 6 361.645ZM460.989 553.609C481.496 553.609 498.209 570.285 498.209 590.83C498.209 611.374 481.533 628.051 460.989 628.051C440.481 628.051 423.768 611.374 423.768 590.83C423.768 570.285 440.444 553.609 460.989 553.609ZM526.604 394.922C547.111 394.922 563.825 411.599 563.825 432.143C563.825 452.65 547.149 469.364 526.604 469.364C506.097 469.364 489.383 452.688 489.383 432.143C489.383 411.636 506.097 394.922 526.604 394.922ZM457.12 299.297C477.627 299.297 494.341 315.974 494.341 336.518C494.341 357.026 477.665 373.739 457.12 373.739C436.575 373.739 419.899 357.063 419.899 336.518C419.937 316.011 436.613 299.297 457.12 299.297ZM520.069 175.916C540.576 175.916 557.29 192.593 557.29 213.137C557.29 233.682 540.614 250.358 520.069 250.358C499.562 250.358 482.848 233.682 482.848 213.137C482.848 192.593 499.562 175.916 520.069 175.916ZM454.453 17.2677C474.961 17.2677 491.674 33.9438 491.674 54.4885C491.674 75.0333 474.998 91.7094 454.453 91.7094C433.946 91.7094 417.232 75.0333 417.232 54.4885C417.232 33.9438 433.946 17.2677 454.453 17.2677ZM52.3101 321.457C56.8172 320.518 57.3806 317.288 57.4181 315.974C57.4933 313.157 55.5026 310.753 52.7233 310.265C40.1786 308.161 31.0518 297.42 31.0518 284.687C31.0518 270.377 42.695 258.734 57.005 258.734C58.0566 258.734 59.1834 258.847 60.4604 258.997C64.8924 261.701 72.4417 264.969 83.0333 264.969C92.3479 264.969 104.029 262.452 117.963 254.79C120.667 253.288 121.681 249.87 120.179 247.166C118.677 244.461 115.259 243.447 112.555 244.95C108.386 247.241 104.479 249.006 100.836 250.321C86.0005 255.692 75.7093 253.739 69.775 251.222C65.944 249.607 63.9158 247.767 63.6529 247.504C63.0895 246.94 62.4135 246.527 61.6623 246.264C56.8923 242.771 49.1176 235.485 49.1176 219.072C49.1176 203.41 61.8877 190.64 77.5497 190.64C81.5685 190.64 85.4746 191.466 89.1554 193.118C91.7094 194.245 94.7141 193.344 96.2165 191.015L96.7048 190.302C98.1695 187.973 97.7564 184.931 95.6907 183.09C88.1789 176.367 83.8596 166.79 83.8596 156.761C83.8596 137.456 99.1837 121.08 119.465 118.639C121.569 118.376 123.634 118.264 125.625 118.264C140.536 118.264 147.71 125.212 147.973 125.475C148.724 126.264 149.663 126.752 150.677 127.015C155.334 132.198 164.236 144.667 162.546 163.184C162.283 166.264 164.536 169.006 167.654 169.269C167.841 169.269 167.992 169.306 168.179 169.306C171.071 169.306 173.513 167.128 173.776 164.198C176.104 138.132 161.419 121.681 156.649 117.024C156.198 114.996 155.973 112.968 155.973 110.902C155.973 95.5404 168.179 83.5591 185.644 81.7563C186.996 81.6061 188.348 81.531 189.663 81.531C200.367 81.531 206.602 86.1883 208.968 88.3667C213.137 99.1836 225.419 116.348 246.715 116.348C248.593 116.348 250.546 116.198 252.537 115.935C255.617 115.484 257.757 112.667 257.307 109.587C256.856 106.508 254.001 104.367 250.959 104.817C248.255 105.193 245.776 105.193 243.485 104.93C233.569 103.728 227.109 97.193 223.391 91.6343C221.851 89.3432 220.762 87.2399 220.086 85.7C220.048 85.2117 219.973 84.7235 219.823 84.2728C218.471 80.1413 217.757 75.8971 217.757 71.6154C217.757 49.343 235.898 31.202 258.171 31.202C280.443 31.202 298.584 49.343 298.584 71.6154V72.93C298.584 103.578 298.621 276.875 298.546 413.063C296.856 412.763 294.866 412.35 292.612 411.824C284.199 409.833 272.443 406.153 260.8 399.58C262.227 397.927 263.804 395.937 265.419 393.533C274.809 379.486 284.837 352.518 267.448 311.504C266.246 308.65 262.94 307.298 260.086 308.537C257.232 309.739 255.879 313.044 257.119 315.898C258.546 319.316 259.786 322.584 260.837 325.777C272.556 361.533 260.199 382.866 252.875 391.617C252.311 392.293 251.785 392.894 251.297 393.42C243.034 387.336 235.335 379.486 229.663 369.42C228.199 366.791 226.846 364.049 225.682 361.119C224.518 358.227 221.25 356.838 218.358 358.002C215.466 359.166 214.076 362.434 215.241 365.326C233.419 410.472 282.434 421.965 298.546 424.556C298.509 509.59 298.396 577.646 298.208 582.642V582.679C294.415 600.971 278.077 614.229 259.372 614.229C237.513 614.229 219.71 596.426 219.71 574.567C219.71 572.088 219.973 569.534 220.461 567.017L220.499 566.604L220.536 566.341C220.574 566.003 220.799 563.712 221.964 560.332C224.931 551.881 233.907 536.745 260.912 529.346C264.255 528.444 267.861 527.618 271.804 526.98C274.884 526.454 276.95 523.562 276.424 520.519C275.898 517.44 273.006 515.374 269.964 515.9C222.339 523.787 212.086 551.693 209.907 561.872C209.532 562.06 209.156 562.247 208.743 562.473C203.785 565.177 194.546 570.172 180.273 570.172C158.715 570.172 142.264 557.853 138.395 538.811C137.081 532.35 139.635 521.421 140.724 517.778C140.874 517.252 140.949 516.764 140.949 516.238C142.001 513.458 143.653 509.965 146.17 506.397C147.334 504.745 148.724 503.055 150.301 501.439C153.869 497.759 158.602 494.303 164.761 491.824C167.654 490.66 169.043 487.392 167.841 484.5C166.677 481.608 163.409 480.219 160.517 481.421C141.663 489.045 133.588 503.618 130.282 512.707C126.414 514.923 122.019 516.05 117.512 516.05C103.202 516.05 91.5592 504.407 91.5592 490.097C91.5592 483.486 94.0756 477.214 98.6203 472.331C100.386 470.453 100.648 467.561 99.2212 465.383L98.5827 464.406C97.0052 461.965 93.7752 461.139 91.2212 462.528C87.2399 464.669 82.7328 465.796 78.2258 465.796C63.052 465.796 50.6951 453.439 50.6951 438.265C50.6951 423.467 62.7139 414.716 66.6201 411.862C66.7703 411.749 66.9581 411.636 67.1459 411.486C67.3337 411.411 67.5215 411.336 67.7093 411.261C68.0473 411.073 71.4276 409.27 76.16 408.143C82.1319 406.716 90.2822 406.34 97.3057 411.599C99.0334 412.876 100.648 414.491 102.188 416.519C103.278 417.984 104.968 418.772 106.695 418.772C107.86 418.772 109.062 418.397 110.076 417.646C112.555 415.768 113.043 412.237 111.165 409.758C96.6672 390.528 73.9441 395.373 63.1646 400.932C60.9487 401.27 58.9205 401.458 57.005 401.458C35.1081 401.458 17.2677 383.617 17.2677 361.72C17.2677 332.011 41.7561 323.673 52.3101 321.457Z" stroke="white" stroke-width="12" mask="url(#path-1-outside-1_252_35)"/>
<path d="M225.291 172.274L225.273 172.274C220.529 172.216 216.693 168.332 216.751 163.641L225.291 172.274ZM225.291 172.274H225.309M225.291 172.274H225.309M225.309 172.274C225.599 172.274 228.253 172.336 232.182 172.985L232.187 172.986M225.309 172.274L232.187 172.986M232.187 172.986C239.073 174.111 249.574 176.978 258.417 184.203C257.612 185.836 256.503 187.777 255.008 189.802L254.966 189.86M232.187 172.986L254.966 189.86M254.966 189.86L254.926 189.92M254.966 189.86L254.926 189.92M254.926 189.92C254.881 189.987 254.803 190.086 254.591 190.339L254.558 190.379M254.926 189.92L254.558 190.379M254.558 190.379L254.527 190.42M254.558 190.379L254.527 190.42M254.527 190.42C252.236 193.371 249.127 196.441 244.958 198.921L244.952 198.925M254.527 190.42L244.952 198.925M244.952 198.925L244.945 198.929M244.952 198.925L244.945 198.929M244.945 198.929C241.761 200.846 237.88 202.416 233.207 203.366M244.945 198.929L233.207 203.366M291.535 212.846L291.536 212.855C292.109 217.55 288.797 221.872 284.067 222.465C283.604 222.528 283.211 222.528 282.992 222.528L282.962 222.528C278.714 222.528 274.956 219.378 274.426 214.978C274.141 212.768 273.748 210.694 273.28 208.679C272.416 204.99 271.234 201.7 269.818 198.754C269.341 199.444 268.833 200.144 268.29 200.848C262.226 208.783 252.315 217.195 236.559 220.292C236.016 220.4 235.482 220.462 234.887 220.462C230.849 220.462 227.23 217.594 226.422 213.499L291.535 212.846ZM291.535 212.846C289.511 196.655 283.228 184.931 275.199 176.467M291.535 212.846L275.199 176.467M233.207 203.366C228.547 204.291 225.501 208.831 226.422 213.498L233.207 203.366ZM275.199 176.467C274.846 176.031 274.474 175.66 274.127 175.351C264.251 165.468 252.172 160.434 242.625 157.861C233.369 155.366 226.296 155.132 225.483 155.119C220.624 155.009 216.808 158.971 216.751 163.64L275.199 176.467Z" fill="white" stroke="white" stroke-width="6"/>
<path d="M178.024 427.374L178.024 427.374C178.082 422.647 181.94 418.852 186.658 418.852C187.089 418.852 195.424 419.032 206.452 422.002C217.443 424.961 231.316 430.747 242.65 442.089C243.158 442.516 243.55 442.96 243.865 443.348C253.095 453.084 260.361 466.537 262.687 485.18L262.688 485.188C263.26 489.883 259.948 494.206 255.219 494.798C254.756 494.862 254.362 494.862 254.144 494.861L254.113 494.861C249.86 494.861 246.098 491.704 245.576 487.294L245.574 487.283C245.328 485.133 244.937 483.101 244.495 481.034L244.494 481.033C243.229 475.109 241.307 469.969 238.922 465.535C237.999 466.994 236.962 468.5 235.806 470.016C228.913 479.087 217.534 488.74 199.486 492.288C198.943 492.396 198.408 492.458 197.813 492.458C193.775 492.458 190.157 489.59 189.348 485.494L178.024 427.374ZM178.024 427.374C177.966 432.177 181.839 436.024 186.546 436.081L186.564 436.082H186.583C186.929 436.082 189.498 436.147 193.395 436.656M178.024 427.374L193.395 436.656M193.395 436.656C201.761 437.807 215.76 441.209 227.233 451.024C226.535 452.568 225.577 454.419 224.315 456.41C220.968 461.659 215.54 467.776 206.978 471.832C203.806 473.311 200.244 474.546 196.14 475.36C191.476 476.282 188.427 480.825 189.348 485.493L193.395 436.656Z" fill="white" stroke="white" stroke-width="6"/>
<path d="M68.4595 349.688L68.4483 349.68C64.5199 347.061 63.3832 341.691 66.1064 337.813C66.7675 336.836 71.7269 329.852 80.3473 322.207C89.3542 314.219 102.532 305.354 119.143 302.018C119.677 301.863 120.168 301.804 120.457 301.772C134.333 299.24 150.385 300.666 168.071 309.372C172.369 311.468 174.062 316.658 172.003 320.891C169.91 325.194 164.716 326.89 160.481 324.83L160.472 324.825C158.499 323.857 156.548 323.025 154.607 322.256C148.126 319.697 142.028 318.354 136.339 317.939C137.21 319.785 138.058 321.807 138.822 323.994C142.771 335.249 144.693 350.78 137.417 368.635L137.414 368.643L137.411 368.65C136.03 371.987 132.807 373.996 129.418 373.996C128.409 373.996 127.296 373.828 126.166 373.355C121.787 371.559 119.675 366.552 121.452 362.139L121.456 362.129L121.46 362.118C123.02 358.325 123.972 354.723 124.5 351.308L124.501 351.304C126.188 340.478 123.592 331.399 120.655 325.135C119.657 323.016 118.645 321.239 117.751 319.83C101.913 324.319 90.4829 335.166 84.6265 341.934L68.4595 349.688ZM68.4595 349.688L68.4707 349.695M68.4595 349.688L68.4707 349.695M68.4707 349.695C69.9373 350.654 71.5598 351.123 73.2298 351.123C75.9677 351.123 78.7311 349.814 80.4119 347.321L80.4342 347.288M68.4707 349.695L80.4342 347.288M80.4342 347.288L80.4557 347.255M80.4342 347.288L80.4557 347.255M80.4557 347.255C80.6232 346.991 82.0695 344.893 84.626 341.935L80.4557 347.255Z" fill="white" stroke="white" stroke-width="6"/>
<path d="M163.908 233.469L163.911 233.47C169.735 235.279 178.468 238.92 185.53 245.735C192.496 252.459 197.949 262.364 197.26 277.113L197.259 277.123L197.259 277.133C197.187 278.935 197.044 280.777 196.763 282.673L196.76 282.693L196.757 282.713C196.13 287.391 199.371 291.786 204.088 292.431C204.564 292.498 205.009 292.497 205.248 292.497C205.263 292.497 205.276 292.497 205.289 292.497C209.517 292.497 213.187 289.38 213.816 285.087L213.818 285.079L213.819 285.07C215.876 270.454 213.675 258.64 209.069 249.17C204.475 239.725 197.575 232.788 190.487 227.751C176.95 218.131 162.434 215.235 160.767 214.955L160.767 214.954C156.09 214.145 151.586 217.314 150.833 222.06L150.83 222.08L150.827 222.1C150.153 226.758 153.234 231.211 157.947 231.984C157.959 231.987 157.972 231.989 157.987 231.992C158.524 232.087 160.757 232.486 163.908 233.469Z" fill="white" stroke="white" stroke-width="6"/>
<path d="M183.088 348.507L183.068 348.506L183.048 348.506C178.188 348.334 174.315 352.037 174.086 356.729L174.086 356.736C173.981 359.003 173.704 361.009 173.291 362.906C170.491 375.109 161.058 379.798 154.257 381.659C151.076 382.499 148.663 382.692 147.881 382.755C147.846 382.758 147.814 382.76 147.786 382.763C143.111 382.976 139.395 386.919 139.568 391.651L139.568 391.653C139.74 396.296 143.533 399.988 148.2 399.988H148.388H148.434L148.481 399.986C155.624 399.764 165.925 397.319 174.68 390.84C183.554 384.274 190.707 373.646 191.385 357.489L191.387 357.444L191.388 357.399C191.444 352.704 187.816 348.738 183.088 348.507Z" fill="white" stroke="white" stroke-width="6"/>
<path d="M226.457 241.315L226.449 241.315L226.44 241.315C221.705 241.544 217.985 245.506 218.217 250.315C218.446 255.061 222.334 258.711 227.179 258.54L227.189 258.54L227.199 258.539C230.585 258.397 233.687 258.576 236.513 259.03L236.523 259.031L236.532 259.033C249.688 261.057 257.538 268.459 261.796 274.288L261.803 274.297C264.56 278.041 265.772 281.097 265.93 281.495C265.931 281.496 265.931 281.498 265.932 281.499C267.254 284.924 270.519 287.049 273.984 287.049C274.963 287.049 275.977 286.878 276.935 286.54L276.965 286.53L276.994 286.519C281.417 284.853 283.725 279.91 282.054 275.417L282.054 275.417C281.642 274.315 278.114 265.777 269.853 257.506C261.168 248.812 247.249 240.428 226.457 241.315Z" fill="white" stroke="white" stroke-width="6"/>
</svg>
