<svg width="2538" height="2464" viewBox="0 0 2538 2464" fill="none" xmlns="http://www.w3.org/2000/svg">
<path d="M1290.44 169.746C1386.63 256.266 1476.01 355.068 1593.19 409.934C1710.54 464.901 1844.35 470.349 1969.27 504.879C2159.9 557.579 2330 681.335 2438.81 846.474C2561.96 1033.4 2588.39 1317.09 2414.11 1457.58C2288.21 1559.07 2101.95 1552.1 1970.42 1646.16C1806.68 1763.25 1779.32 1992.41 1674.71 2164.37C1558.4 2355.54 1332.57 2474.49 1109.1 2462.28C885.642 2450.06 674.125 2307.21 579.356 2104.49C515.89 1968.74 501.812 1811.15 420.376 1685.35C326.47 1540.29 155.73 1457.71 64.9716 1310.68C-37.1237 1145.28 -9.84867 930.608 84.0742 768.193C199.147 569.202 410.19 526.077 555.584 368.856C642.823 274.521 662.654 122.342 771.297 48.3414C943.881 -69.223 1158.04 50.6931 1290.44 169.763V169.746Z" fill="#78D8DA"/>
<path d="M2263.27 1952.47C2350.49 1797.83 2368.38 1614.2 2370.96 1436.71C2374.65 1182.93 2350.76 928.729 2299.88 680.066C2265.76 513.269 2211.22 336.356 2074.56 234.796C1886.54 95.0688 1619.46 151.068 1404.8 244.862C967.958 435.7 590.693 760.427 336.977 1163.98C197.997 1385.03 96.8487 1673.82 226.777 1900.32C311.022 2047.19 473.454 2130.33 633.45 2185.73C1065.98 2335.49 1984.63 2446.51 2263.29 1952.5L2263.27 1952.47Z" fill="#35C5C7"/>
<path d="M590.572 1306V1070H497.772V1026H735.372V1070H642.572V1306H590.572ZM848.122 1308.8C824.389 1308.8 803.589 1304.13 785.722 1294.8C768.122 1285.2 754.389 1272.13 744.522 1255.6C734.922 1239.07 730.122 1220.27 730.122 1199.2C730.122 1177.87 734.789 1159.07 744.122 1142.8C753.722 1126.27 766.789 1113.33 783.322 1104C800.122 1094.67 819.189 1090 840.522 1090C861.322 1090 879.855 1094.53 896.122 1103.6C912.389 1112.67 925.189 1125.47 934.522 1142C943.855 1158.53 948.522 1178 948.522 1200.4C948.522 1202.53 948.389 1204.93 948.122 1207.6C948.122 1210.27 947.989 1212.8 947.722 1215.2H769.722V1182H921.322L901.722 1192.4C901.989 1180.13 899.455 1169.33 894.122 1160C888.789 1150.67 881.455 1143.33 872.122 1138C863.055 1132.67 852.522 1130 840.522 1130C828.255 1130 817.455 1132.67 808.122 1138C799.055 1143.33 791.855 1150.8 786.522 1160.4C781.455 1169.73 778.922 1180.8 778.922 1193.6V1201.6C778.922 1214.4 781.855 1225.73 787.722 1235.6C793.589 1245.47 801.855 1253.07 812.522 1258.4C823.189 1263.73 835.455 1266.4 849.322 1266.4C861.322 1266.4 872.122 1264.53 881.722 1260.8C891.322 1257.07 899.855 1251.2 907.322 1243.2L934.122 1274C924.522 1285.2 912.389 1293.87 897.722 1300C883.322 1305.87 866.789 1308.8 848.122 1308.8ZM996.55 1306V1009.2H1046.55V1306H996.55ZM1112.18 1306V1092.4H1162.18V1306H1112.18ZM1137.38 1057.2C1128.04 1057.2 1120.31 1054.27 1114.18 1048.4C1108.31 1042.53 1105.38 1035.47 1105.38 1027.2C1105.38 1018.67 1108.31 1011.6 1114.18 1006C1120.31 1000.13 1128.04 997.2 1137.38 997.2C1146.71 997.2 1154.31 1000 1160.18 1005.6C1166.31 1010.93 1169.38 1017.73 1169.38 1026C1169.38 1034.8 1166.44 1042.27 1160.58 1048.4C1154.71 1054.27 1146.98 1057.2 1137.38 1057.2ZM1325.8 1308.8C1303.4 1308.8 1283.4 1304.13 1265.8 1294.8C1248.47 1285.2 1234.87 1272.13 1225 1255.6C1215.13 1239.07 1210.2 1220.27 1210.2 1199.2C1210.2 1177.87 1215.13 1159.07 1225 1142.8C1234.87 1126.27 1248.47 1113.33 1265.8 1104C1283.4 1094.67 1303.4 1090 1325.8 1090C1346.6 1090 1364.87 1094.27 1380.6 1102.8C1396.6 1111.07 1408.73 1123.33 1417 1139.6L1378.6 1162C1372.2 1151.87 1364.33 1144.4 1355 1139.6C1345.93 1134.8 1336.07 1132.4 1325.4 1132.4C1313.13 1132.4 1302.07 1135.07 1292.2 1140.4C1282.33 1145.73 1274.6 1153.47 1269 1163.6C1263.4 1173.47 1260.6 1185.33 1260.6 1199.2C1260.6 1213.07 1263.4 1225.07 1269 1235.2C1274.6 1245.07 1282.33 1252.67 1292.2 1258C1302.07 1263.33 1313.13 1266 1325.4 1266C1336.07 1266 1345.93 1263.6 1355 1258.8C1364.33 1254 1372.2 1246.53 1378.6 1236.4L1417 1258.8C1408.73 1274.8 1396.6 1287.2 1380.6 1296C1364.87 1304.53 1346.6 1308.8 1325.8 1308.8ZM1499.07 1258.4L1500.27 1195.6L1611.87 1092.4H1671.87L1577.07 1187.6L1550.67 1209.6L1499.07 1258.4ZM1458.27 1306V1009.2H1508.27V1306H1458.27ZM1619.47 1306L1541.47 1209.6L1573.07 1169.6L1680.27 1306H1619.47ZM1804.37 1308.8C1780.64 1308.8 1759.84 1304.13 1741.97 1294.8C1724.37 1285.2 1710.64 1272.13 1700.77 1255.6C1691.17 1239.07 1686.37 1220.27 1686.37 1199.2C1686.37 1177.87 1691.04 1159.07 1700.37 1142.8C1709.97 1126.27 1723.04 1113.33 1739.57 1104C1756.37 1094.67 1775.44 1090 1796.77 1090C1817.57 1090 1836.11 1094.53 1852.37 1103.6C1868.64 1112.67 1881.44 1125.47 1890.77 1142C1900.11 1158.53 1904.77 1178 1904.77 1200.4C1904.77 1202.53 1904.64 1204.93 1904.37 1207.6C1904.37 1210.27 1904.24 1212.8 1903.97 1215.2H1725.97V1182H1877.57L1857.97 1192.4C1858.24 1180.13 1855.71 1169.33 1850.37 1160C1845.04 1150.67 1837.71 1143.33 1828.37 1138C1819.31 1132.67 1808.77 1130 1796.77 1130C1784.51 1130 1773.71 1132.67 1764.37 1138C1755.31 1143.33 1748.11 1150.8 1742.77 1160.4C1737.71 1169.73 1735.17 1180.8 1735.17 1193.6V1201.6C1735.17 1214.4 1738.11 1225.73 1743.97 1235.6C1749.84 1245.47 1758.11 1253.07 1768.77 1258.4C1779.44 1263.73 1791.71 1266.4 1805.57 1266.4C1817.57 1266.4 1828.37 1264.53 1837.97 1260.8C1847.57 1257.07 1856.11 1251.2 1863.57 1243.2L1890.37 1274C1880.77 1285.2 1868.64 1293.87 1853.97 1300C1839.57 1305.87 1823.04 1308.8 1804.37 1308.8ZM1952.8 1306V1092.4H2000.4V1151.2L1994.8 1134C2001.2 1119.6 2011.2 1108.67 2024.8 1101.2C2038.67 1093.73 2055.87 1090 2076.4 1090V1137.6C2074.27 1137.07 2072.27 1136.8 2070.4 1136.8C2068.53 1136.53 2066.67 1136.4 2064.8 1136.4C2045.87 1136.4 2030.8 1142 2019.6 1153.2C2008.4 1164.13 2002.8 1180.53 2002.8 1202.4V1306H1952.8ZM2186.77 1308.8C2168.9 1308.8 2151.7 1306.53 2135.17 1302C2118.9 1297.2 2105.97 1291.47 2096.37 1284.8L2115.57 1246.8C2125.17 1252.93 2136.64 1258 2149.97 1262C2163.3 1266 2176.64 1268 2189.97 1268C2205.7 1268 2217.04 1265.87 2223.97 1261.6C2231.17 1257.33 2234.77 1251.6 2234.77 1244.4C2234.77 1238.53 2232.37 1234.13 2227.57 1231.2C2222.77 1228 2216.5 1225.6 2208.77 1224C2201.04 1222.4 2192.37 1220.93 2182.77 1219.6C2173.44 1218.27 2163.97 1216.53 2154.37 1214.4C2145.04 1212 2136.5 1208.67 2128.77 1204.4C2121.04 1199.87 2114.77 1193.87 2109.97 1186.4C2105.17 1178.93 2102.77 1169.07 2102.77 1156.8C2102.77 1143.2 2106.64 1131.47 2114.37 1121.6C2122.1 1111.47 2132.9 1103.73 2146.77 1098.4C2160.9 1092.8 2177.57 1090 2196.77 1090C2211.17 1090 2225.7 1091.6 2240.37 1094.8C2255.04 1098 2267.17 1102.53 2276.77 1108.4L2257.57 1146.4C2247.44 1140.27 2237.17 1136.13 2226.77 1134C2216.64 1131.6 2206.5 1130.4 2196.37 1130.4C2181.17 1130.4 2169.84 1132.67 2162.37 1137.2C2155.17 1141.73 2151.57 1147.47 2151.57 1154.4C2151.57 1160.8 2153.97 1165.6 2158.77 1168.8C2163.57 1172 2169.84 1174.53 2177.57 1176.4C2185.3 1178.27 2193.84 1179.87 2203.17 1181.2C2212.77 1182.27 2222.24 1184 2231.57 1186.4C2240.9 1188.8 2249.44 1192.13 2257.17 1196.4C2265.17 1200.4 2271.57 1206.13 2276.37 1213.6C2281.17 1221.07 2283.57 1230.8 2283.57 1242.8C2283.57 1256.13 2279.57 1267.73 2271.57 1277.6C2263.84 1287.47 2252.77 1295.2 2238.37 1300.8C2223.97 1306.13 2206.77 1308.8 2186.77 1308.8ZM1028.71 1796.8C1005.24 1796.8 987.108 1790.8 974.308 1778.8C961.508 1766.53 955.108 1748.53 955.108 1724.8V1533.2H1005.11V1723.6C1005.11 1733.73 1007.64 1741.6 1012.71 1747.2C1018.04 1752.8 1025.37 1755.6 1034.71 1755.6C1045.91 1755.6 1055.24 1752.67 1062.71 1746.8L1076.71 1782.4C1070.84 1787.2 1063.64 1790.8 1055.11 1793.2C1046.57 1795.6 1037.77 1796.8 1028.71 1796.8ZM919.908 1622V1582H1062.31V1622H919.908ZM1211.21 1796.8C1187.47 1796.8 1166.67 1792.13 1148.81 1782.8C1131.21 1773.2 1117.47 1760.13 1107.61 1743.6C1098.01 1727.07 1093.21 1708.27 1093.21 1687.2C1093.21 1665.87 1097.87 1647.07 1107.21 1630.8C1116.81 1614.27 1129.87 1601.33 1146.41 1592C1163.21 1582.67 1182.27 1578 1203.61 1578C1224.41 1578 1242.94 1582.53 1259.21 1591.6C1275.47 1600.67 1288.27 1613.47 1297.61 1630C1306.94 1646.53 1311.61 1666 1311.61 1688.4C1311.61 1690.53 1311.47 1692.93 1311.21 1695.6C1311.21 1698.27 1311.07 1700.8 1310.81 1703.2H1132.81V1670H1284.41L1264.81 1680.4C1265.07 1668.13 1262.54 1657.33 1257.21 1648C1251.87 1638.67 1244.54 1631.33 1235.21 1626C1226.14 1620.67 1215.61 1618 1203.61 1618C1191.34 1618 1180.54 1620.67 1171.21 1626C1162.14 1631.33 1154.94 1638.8 1149.61 1648.4C1144.54 1657.73 1142.01 1668.8 1142.01 1681.6V1689.6C1142.01 1702.4 1144.94 1713.73 1150.81 1723.6C1156.67 1733.47 1164.94 1741.07 1175.61 1746.4C1186.27 1751.73 1198.54 1754.4 1212.41 1754.4C1224.41 1754.4 1235.21 1752.53 1244.81 1748.8C1254.41 1745.07 1262.94 1739.2 1270.41 1731.2L1297.21 1762C1287.61 1773.2 1275.47 1781.87 1260.81 1788C1246.41 1793.87 1229.87 1796.8 1211.21 1796.8ZM1485.38 1794V1750.8L1482.58 1741.6V1666C1482.58 1651.33 1478.18 1640 1469.38 1632C1460.58 1623.73 1447.24 1619.6 1429.38 1619.6C1417.38 1619.6 1405.51 1621.47 1393.78 1625.2C1382.31 1628.93 1372.58 1634.13 1364.58 1640.8L1344.98 1604.4C1356.44 1595.6 1370.04 1589.07 1385.78 1584.8C1401.78 1580.27 1418.31 1578 1435.38 1578C1466.31 1578 1490.18 1585.47 1506.98 1600.4C1524.04 1615.07 1532.58 1637.87 1532.58 1668.8V1794H1485.38ZM1418.18 1796.8C1402.18 1796.8 1388.18 1794.13 1376.18 1788.8C1364.18 1783.2 1354.84 1775.6 1348.18 1766C1341.78 1756.13 1338.58 1745.07 1338.58 1732.8C1338.58 1720.8 1341.38 1710 1346.98 1700.4C1352.84 1690.8 1362.31 1683.2 1375.38 1677.6C1388.44 1672 1405.78 1669.2 1427.38 1669.2H1489.38V1702.4H1430.98C1413.91 1702.4 1402.44 1705.2 1396.58 1710.8C1390.71 1716.13 1387.78 1722.8 1387.78 1730.8C1387.78 1739.87 1391.38 1747.07 1398.58 1752.4C1405.78 1757.73 1415.78 1760.4 1428.58 1760.4C1440.84 1760.4 1451.78 1757.6 1461.38 1752C1471.24 1746.4 1478.31 1738.13 1482.58 1727.2L1490.98 1757.2C1486.18 1769.73 1477.51 1779.47 1464.98 1786.4C1452.71 1793.33 1437.11 1796.8 1418.18 1796.8ZM1866.35 1578C1883.41 1578 1898.48 1581.33 1911.55 1588C1924.88 1594.67 1935.28 1604.93 1942.75 1618.8C1950.21 1632.4 1953.95 1650 1953.95 1671.6V1794H1903.95V1678C1903.95 1659.07 1899.81 1644.93 1891.55 1635.6C1883.28 1626.27 1871.41 1621.6 1855.95 1621.6C1845.01 1621.6 1835.28 1624 1826.75 1628.8C1818.48 1633.6 1811.95 1640.67 1807.15 1650C1802.61 1659.33 1800.35 1671.2 1800.35 1685.6V1794H1750.35V1678C1750.35 1659.07 1746.21 1644.93 1737.95 1635.6C1729.68 1626.27 1717.81 1621.6 1702.35 1621.6C1691.41 1621.6 1681.68 1624 1673.15 1628.8C1664.88 1633.6 1658.35 1640.67 1653.55 1650C1649.01 1659.33 1646.75 1671.2 1646.75 1685.6V1794H1596.75V1580.4H1644.35V1637.2L1635.95 1620.4C1643.15 1606.53 1653.55 1596 1667.15 1588.8C1681.01 1581.6 1696.75 1578 1714.35 1578C1734.35 1578 1751.68 1582.93 1766.35 1592.8C1781.28 1602.67 1791.15 1617.6 1795.95 1637.6L1776.35 1630.8C1783.28 1614.8 1794.75 1602 1810.75 1592.4C1826.75 1582.8 1845.28 1578 1866.35 1578Z" fill="white"/>
</svg>
