<svg width="688" height="428" viewBox="0 0 688 428" fill="none" xmlns="http://www.w3.org/2000/svg">
<path d="M190.596 281.504C204.279 288.058 206.824 293.595 206.824 305.177V321.278C206.824 329.328 204.692 345.937 198.265 345.937C192.283 345.937 187.574 342.915 182.037 340.401L7.25473 250.766C-2.30622e-05 247.235 0.413648 233.139 0 224.07C0.413648 215.002 -2.30622e-05 200.906 7.25473 197.374L182.037 107.74C187.605 105.226 192.283 102.203 198.265 102.203C204.66 102.203 206.824 118.813 206.824 126.863V142.486C206.824 154.577 204.247 160.114 190.596 166.669L78.6568 224.07L190.596 281.504Z" fill="white"/>
<path d="M298.274 381.193C283.319 416.957 285.037 427.521 265.786 427.521C255.095 427.521 229.035 425.517 229.035 408.875C229.035 397.293 250.831 360.033 274.314 303.65L380.717 46.3286C395.672 10.5639 393.954 0 413.204 0C423.895 0 449.955 2.00459 449.955 18.646C449.955 30.2281 428.159 67.4883 404.677 123.872L298.274 381.193Z" fill="white"/>
<path d="M609.335 224.101L497.396 166.699C483.713 160.145 481.168 154.608 481.168 143.026V126.925C481.168 118.875 483.3 102.266 489.727 102.266C495.709 102.266 500.418 105.288 505.955 107.802L680.737 197.437C687.992 200.968 687.578 215.064 687.992 224.133C687.578 233.201 687.992 247.297 680.737 250.829L505.955 340.4C500.387 342.913 495.709 345.936 489.727 345.936C483.332 345.936 481.168 329.327 481.168 321.276V305.653C481.168 293.562 483.745 288.025 497.396 281.471L609.335 224.101Z" fill="white"/>
</svg>
