<svg width="1038" height="1038" viewBox="0 0 1038 1038" fill="none" xmlns="http://www.w3.org/2000/svg">
<g filter="url(#filter0_d_451_2)">
<circle cx="545" cy="491" r="434" fill="white"/>
<circle cx="545" cy="491" r="420" stroke="white" stroke-width="28"/>
</g>
<g opacity="0.5">
<path opacity="0.5" d="M395.274 547.867C408.956 554.422 411.502 559.958 411.502 571.54V587.641C411.502 595.691 409.37 612.301 402.942 612.301C396.96 612.301 392.251 609.278 386.715 606.764L211.932 517.13C204.678 513.598 205.091 499.502 204.678 490.434C205.091 481.365 204.678 467.269 211.932 463.737L386.715 374.103C392.283 371.589 396.96 368.566 402.942 368.566C409.338 368.566 411.502 385.176 411.502 393.226V408.849C411.502 420.941 408.924 426.477 395.274 433.032L283.335 490.434L395.274 547.867Z" fill="black"/>
<path opacity="0.5" d="M502.949 647.556C487.994 683.321 489.713 693.884 470.462 693.884C459.771 693.884 433.711 691.88 433.711 675.239C433.711 663.656 455.507 626.396 478.99 570.013L585.393 312.692C600.348 276.927 598.629 266.363 617.88 266.363C628.571 266.363 654.631 268.368 654.631 285.009C654.631 296.591 632.835 333.852 609.352 390.235L502.949 647.556Z" fill="black"/>
<path opacity="0.5" d="M814.013 490.466L702.073 433.065C688.391 426.51 685.846 420.973 685.846 409.391V393.291C685.846 385.24 687.978 368.631 694.405 368.631C700.387 368.631 705.096 371.654 710.633 374.167L885.415 463.802C892.67 467.334 892.256 481.43 892.67 490.498C892.256 499.566 892.67 513.662 885.415 517.194L710.633 606.765C705.064 609.279 700.387 612.301 694.405 612.301C688.009 612.301 685.846 595.692 685.846 587.642V572.018C685.846 559.927 688.423 554.391 702.073 547.836L814.013 490.466Z" fill="black"/>
</g>
<path d="M388.596 541.504C402.279 548.058 404.824 553.595 404.824 565.177V581.278C404.824 589.328 402.692 605.937 396.265 605.937C390.283 605.937 385.574 602.915 380.037 600.401L205.255 510.766C198 507.235 198.414 493.139 198 484.07C198.414 475.002 198 460.906 205.255 457.374L380.037 367.74C385.605 365.226 390.283 362.203 396.265 362.203C402.66 362.203 404.824 378.813 404.824 386.863V402.486C404.824 414.577 402.247 420.114 388.596 426.669L276.657 484.07L388.596 541.504Z" fill="black"/>
<path d="M496.272 641.193C481.317 676.957 483.035 687.521 463.784 687.521C453.093 687.521 427.033 685.517 427.033 668.875C427.033 657.293 448.829 620.033 472.312 563.65L578.715 306.329C593.67 270.564 591.952 260 611.202 260C621.893 260 647.953 262.005 647.953 278.646C647.953 290.228 626.157 327.488 602.675 383.872L496.272 641.193Z" fill="black"/>
<path d="M807.335 484.103L695.396 426.701C681.713 420.146 679.168 414.61 679.168 403.028V386.927C679.168 378.877 681.3 362.268 687.727 362.268C693.709 362.268 698.418 365.29 703.955 367.804L878.737 457.438C885.992 460.97 885.578 475.066 885.992 484.135C885.578 493.203 885.992 507.299 878.737 510.831L703.955 600.402C698.387 602.915 693.709 605.938 687.727 605.938C681.332 605.938 679.168 589.329 679.168 581.278V565.655C679.168 553.564 681.745 548.027 695.396 541.473L807.335 484.103Z" fill="black"/>
<defs>
<filter id="filter0_d_451_2" x="0" y="0" width="1038" height="1038" filterUnits="userSpaceOnUse" color-interpolation-filters="sRGB">
<feFlood flood-opacity="0" result="BackgroundImageFix"/>
<feColorMatrix in="SourceAlpha" type="matrix" values="0 0 0 0 0 0 0 0 0 0 0 0 0 0 0 0 0 0 127 0" result="hardAlpha"/>
<feMorphology radius="10" operator="dilate" in="SourceAlpha" result="effect1_dropShadow_451_2"/>
<feOffset dx="-26" dy="28"/>
<feGaussianBlur stdDeviation="37.5"/>
<feComposite in2="hardAlpha" operator="out"/>
<feColorMatrix type="matrix" values="0 0 0 0 0 0 0 0 0 0 0 0 0 0 0 0 0 0 0.25 0"/>
<feBlend mode="normal" in2="BackgroundImageFix" result="effect1_dropShadow_451_2"/>
<feBlend mode="normal" in="SourceGraphic" in2="effect1_dropShadow_451_2" result="shape"/>
</filter>
</defs>
</svg>
