<svg width="342" height="213" viewBox="0 0 342 213" fill="none" xmlns="http://www.w3.org/2000/svg">
<circle cx="235.5" cy="106.5" r="106.5" fill="white"/>
<path d="M0.941051 81.6364H10.7599L18.4482 96.853H18.7678L26.456 81.6364H36.2749L22.9759 105.855V118H14.2401V105.855L0.941051 81.6364ZM46.3912 118.515C43.5266 118.515 41.0645 117.929 39.0048 116.757C36.957 115.573 35.3767 113.928 34.264 111.821C33.1632 109.702 32.6127 107.246 32.6127 104.452C32.6127 101.647 33.1632 99.1908 34.264 97.0838C35.3767 94.965 36.957 93.3196 39.0048 92.1477C41.0645 90.964 43.5266 90.3722 46.3912 90.3722C49.2557 90.3722 51.7119 90.964 53.7598 92.1477C55.8194 93.3196 57.3997 94.965 58.5005 97.0838C59.6132 99.1908 60.1696 101.647 60.1696 104.452C60.1696 107.246 59.6132 109.702 58.5005 111.821C57.3997 113.928 55.8194 115.573 53.7598 116.757C51.7119 117.929 49.2557 118.515 46.3912 118.515ZM46.4444 111.963C47.4861 111.963 48.368 111.643 49.09 111.004C49.8121 110.365 50.3625 109.477 50.7413 108.341C51.1319 107.205 51.3272 105.891 51.3272 104.399C51.3272 102.884 51.1319 101.558 50.7413 100.422C50.3625 99.2855 49.8121 98.3977 49.09 97.7585C48.368 97.1193 47.4861 96.7997 46.4444 96.7997C45.3672 96.7997 44.4558 97.1193 43.71 97.7585C42.9761 98.3977 42.4139 99.2855 42.0233 100.422C41.6445 101.558 41.4551 102.884 41.4551 104.399C41.4551 105.891 41.6445 107.205 42.0233 108.341C42.4139 109.477 42.9761 110.365 43.71 111.004C44.4558 111.643 45.3672 111.963 46.4444 111.963ZM82.2132 106.228V90.7273H90.878V118H82.6039V112.922H82.3198C81.7161 114.591 80.6863 115.917 79.2303 116.899C77.7862 117.87 76.0402 118.355 73.9924 118.355C72.1339 118.355 70.5004 117.929 69.0918 117.077C67.6832 116.224 66.5882 115.035 65.807 113.508C65.0257 111.969 64.6292 110.17 64.6174 108.11V90.7273H73.2999V106.406C73.3117 107.885 73.7024 109.051 74.4718 109.903C75.2412 110.756 76.2888 111.182 77.6145 111.182C78.4786 111.182 79.254 110.992 79.9405 110.614C80.6389 110.223 81.1893 109.661 81.5918 108.927C82.0061 108.181 82.2132 107.281 82.2132 106.228Z" fill="white"/>
<path d="M149.334 118.391C147.322 118.391 145.493 117.87 143.848 116.828C142.202 115.786 140.888 114.224 139.906 112.141C138.923 110.057 138.432 107.471 138.432 104.381C138.432 101.174 138.941 98.5339 139.959 96.4624C140.977 94.3909 142.309 92.858 143.954 91.8636C145.611 90.8693 147.393 90.3722 149.299 90.3722C150.731 90.3722 151.956 90.6207 152.974 91.1179C153.992 91.6032 154.833 92.2306 155.495 93C156.158 93.7694 156.661 94.5684 157.005 95.397H157.182V81.6364H165.865V118H157.271V113.579H157.005C156.638 114.419 156.117 115.206 155.442 115.94C154.767 116.674 153.921 117.266 152.903 117.716C151.897 118.166 150.707 118.391 149.334 118.391ZM152.353 111.626C153.406 111.626 154.306 111.33 155.051 110.738C155.797 110.134 156.371 109.288 156.774 108.199C157.176 107.11 157.377 105.831 157.377 104.364C157.377 102.872 157.176 101.588 156.774 100.511C156.383 99.4335 155.809 98.6049 155.051 98.0249C154.306 97.4448 153.406 97.1548 152.353 97.1548C151.275 97.1548 150.364 97.4508 149.618 98.0426C148.873 98.6345 148.304 99.469 147.914 100.546C147.535 101.623 147.346 102.896 147.346 104.364C147.346 105.831 147.541 107.11 147.931 108.199C148.322 109.288 148.884 110.134 149.618 110.738C150.364 111.33 151.275 111.626 152.353 111.626ZM184.104 118.515C181.251 118.515 178.789 117.953 176.718 116.828C174.658 115.692 173.072 114.076 171.959 111.981C170.858 109.874 170.308 107.37 170.308 104.47C170.308 101.653 170.864 99.1908 171.977 97.0838C173.09 94.965 174.658 93.3196 176.682 92.1477C178.706 90.964 181.092 90.3722 183.838 90.3722C185.779 90.3722 187.555 90.674 189.165 91.2777C190.774 91.8814 192.165 92.7751 193.337 93.9588C194.509 95.1425 195.421 96.6044 196.072 98.3445C196.723 100.073 197.048 102.055 197.048 104.293V106.459H173.344V101.416H188.969C188.957 100.493 188.738 99.6702 188.312 98.9482C187.886 98.2261 187.3 97.6638 186.555 97.2614C185.821 96.8471 184.974 96.6399 184.015 96.6399C183.045 96.6399 182.175 96.8589 181.405 97.2969C180.636 97.723 180.026 98.3089 179.577 99.0547C179.127 99.7886 178.89 100.623 178.866 101.558V106.69C178.866 107.802 179.085 108.779 179.523 109.619C179.961 110.448 180.583 111.093 181.388 111.555C182.193 112.016 183.151 112.247 184.264 112.247C185.033 112.247 185.732 112.141 186.359 111.928C186.987 111.714 187.525 111.401 187.975 110.987C188.425 110.572 188.762 110.063 188.987 109.46L196.959 109.69C196.628 111.478 195.9 113.034 194.775 114.36C193.663 115.674 192.201 116.698 190.39 117.432C188.579 118.154 186.483 118.515 184.104 118.515ZM225.293 99.0547L217.321 99.2678C217.238 98.6996 217.013 98.1965 216.646 97.7585C216.279 97.3087 215.8 96.9595 215.208 96.7109C214.628 96.4505 213.953 96.3203 213.184 96.3203C212.177 96.3203 211.319 96.5215 210.609 96.924C209.911 97.3265 209.567 97.871 209.579 98.5575C209.567 99.0902 209.78 99.5518 210.218 99.9425C210.668 100.333 211.467 100.647 212.615 100.884L217.871 101.878C220.594 102.399 222.618 103.263 223.944 104.47C225.281 105.678 225.956 107.276 225.968 109.264C225.956 111.134 225.4 112.762 224.299 114.147C223.21 115.532 221.718 116.609 219.824 117.379C217.93 118.136 215.764 118.515 213.326 118.515C209.431 118.515 206.359 117.716 204.11 116.118C201.873 114.508 200.595 112.354 200.275 109.655L208.851 109.442C209.041 110.436 209.532 111.194 210.325 111.714C211.118 112.235 212.13 112.496 213.361 112.496C214.474 112.496 215.379 112.289 216.078 111.874C216.776 111.46 217.131 110.91 217.143 110.223C217.131 109.607 216.859 109.116 216.326 108.749C215.794 108.371 214.959 108.075 213.823 107.862L209.064 106.956C206.33 106.459 204.294 105.541 202.956 104.204C201.619 102.854 200.956 101.138 200.968 99.0547C200.956 97.2318 201.441 95.6752 202.424 94.3849C203.406 93.0829 204.803 92.0885 206.614 91.402C208.425 90.7154 210.562 90.3722 213.024 90.3722C216.717 90.3722 219.629 91.1475 221.76 92.6982C223.89 94.237 225.068 96.3558 225.293 99.0547ZM242.991 118.515C240.138 118.515 237.676 117.953 235.605 116.828C233.545 115.692 231.959 114.076 230.846 111.981C229.745 109.874 229.195 107.37 229.195 104.47C229.195 101.653 229.751 99.1908 230.864 97.0838C231.977 94.965 233.545 93.3196 235.569 92.1477C237.593 90.964 239.978 90.3722 242.725 90.3722C244.666 90.3722 246.441 90.674 248.051 91.2777C249.661 91.8814 251.052 92.7751 252.224 93.9588C253.396 95.1425 254.307 96.6044 254.958 98.3445C255.609 100.073 255.935 102.055 255.935 104.293V106.459H232.231V101.416H247.856C247.844 100.493 247.625 99.6702 247.199 98.9482C246.773 98.2261 246.187 97.6638 245.441 97.2614C244.707 96.8471 243.861 96.6399 242.902 96.6399C241.932 96.6399 241.061 96.8589 240.292 97.2969C239.523 97.723 238.913 98.3089 238.463 99.0547C238.013 99.7886 237.777 100.623 237.753 101.558V106.69C237.753 107.802 237.972 108.779 238.41 109.619C238.848 110.448 239.469 111.093 240.274 111.555C241.079 112.016 242.038 112.247 243.151 112.247C243.92 112.247 244.619 112.141 245.246 111.928C245.873 111.714 246.412 111.401 246.862 110.987C247.311 110.572 247.649 110.063 247.874 109.46L255.846 109.69C255.515 111.478 254.787 113.034 253.662 114.36C252.549 115.674 251.088 116.698 249.276 117.432C247.465 118.154 245.37 118.515 242.991 118.515ZM260.369 118V90.7273H268.803V95.6989H269.087C269.585 93.8996 270.395 92.562 271.52 91.6861C272.644 90.7983 273.952 90.3544 275.444 90.3544C275.846 90.3544 276.261 90.384 276.687 90.4432C277.113 90.4905 277.509 90.5675 277.876 90.674V98.2202C277.462 98.0781 276.918 97.9657 276.243 97.8828C275.58 97.8 274.988 97.7585 274.467 97.7585C273.438 97.7585 272.508 97.9893 271.68 98.451C270.863 98.9008 270.218 99.5341 269.744 100.351C269.283 101.156 269.052 102.103 269.052 103.192V118H260.369ZM308.7 90.7273L299.343 118H289.4L280.06 90.7273H289.205L294.229 109.513H294.513L299.556 90.7273H308.7ZM323.899 118.515C321.046 118.515 318.584 117.953 316.513 116.828C314.453 115.692 312.867 114.076 311.754 111.981C310.653 109.874 310.103 107.37 310.103 104.47C310.103 101.653 310.659 99.1908 311.772 97.0838C312.885 94.965 314.453 93.3196 316.477 92.1477C318.501 90.964 320.887 90.3722 323.633 90.3722C325.574 90.3722 327.35 90.674 328.96 91.2777C330.569 91.8814 331.96 92.7751 333.132 93.9588C334.304 95.1425 335.215 96.6044 335.866 98.3445C336.518 100.073 336.843 102.055 336.843 104.293V106.459H313.139V101.416H328.764C328.752 100.493 328.533 99.6702 328.107 98.9482C327.681 98.2261 327.095 97.6638 326.349 97.2614C325.616 96.8471 324.769 96.6399 323.81 96.6399C322.84 96.6399 321.97 96.8589 321.2 97.2969C320.431 97.723 319.821 98.3089 319.371 99.0547C318.922 99.7886 318.685 100.623 318.661 101.558V106.69C318.661 107.802 318.88 108.779 319.318 109.619C319.756 110.448 320.378 111.093 321.183 111.555C321.987 112.016 322.946 112.247 324.059 112.247C324.828 112.247 325.527 112.141 326.154 111.928C326.781 111.714 327.32 111.401 327.77 110.987C328.22 110.572 328.557 110.063 328.782 109.46L336.754 109.69C336.423 111.478 335.695 113.034 334.57 114.36C333.458 115.674 331.996 116.698 330.185 117.432C328.374 118.154 326.278 118.515 323.899 118.515Z" fill="black"/>
<rect y="153" width="106" height="4" rx="2" fill="white"/>
<circle r="2" transform="matrix(1 0 0 -1 113 155)" fill="#D9D9D9"/>
<circle r="2" transform="matrix(1 0 0 -1 121 155)" fill="#D9D9D9"/>
<circle r="2" transform="matrix(1 0 0 -1 129 155)" fill="#D9D9D9"/>
<path d="M3.46236 163.091V174H0.825639V163.091H3.46236ZM7.72239 169.334V174H5.11763V165.818H7.59455V167.32H7.6851C7.86621 166.82 8.17516 166.427 8.61195 166.143C9.04874 165.855 9.56898 165.712 10.1727 165.712C10.748 165.712 11.2469 165.841 11.6695 166.1C12.0956 166.356 12.4259 166.715 12.6602 167.176C12.8982 167.635 13.0154 168.171 13.0118 168.785V174H10.407V169.297C10.4106 168.842 10.2952 168.487 10.0608 168.231C9.82999 167.975 9.50861 167.848 9.09668 167.848C8.82324 167.848 8.58176 167.908 8.37225 168.029C8.16628 168.146 8.00648 168.315 7.89284 168.535C7.78276 168.755 7.72594 169.021 7.72239 169.334ZM21.6664 174.154C20.8034 174.154 20.063 173.977 19.4451 173.622C18.8308 173.267 18.3585 172.773 18.0282 172.141C17.698 171.505 17.5328 170.77 17.5328 169.936C17.5328 169.098 17.698 168.363 18.0282 167.73C18.362 167.095 18.8361 166.599 19.4505 166.244C20.0684 165.889 20.8052 165.712 21.661 165.712C22.4174 165.712 23.0762 165.848 23.6373 166.122C24.2019 166.395 24.6422 166.782 24.9583 167.283C25.2779 167.78 25.4466 168.364 25.4643 169.036H23.03C22.9803 168.616 22.8382 168.288 22.6039 168.05C22.373 167.812 22.0712 167.693 21.6983 167.693C21.3965 167.693 21.1319 167.778 20.9047 167.949C20.6774 168.116 20.4998 168.364 20.372 168.695C20.2477 169.021 20.1855 169.426 20.1855 169.909C20.1855 170.392 20.2477 170.8 20.372 171.134C20.4998 171.464 20.6774 171.715 20.9047 171.885C21.1319 172.052 21.3965 172.136 21.6983 172.136C21.9398 172.136 22.1529 172.084 22.3375 171.981C22.5257 171.878 22.6802 171.727 22.801 171.528C22.9217 171.326 22.998 171.081 23.03 170.793H25.4643C25.4395 171.468 25.2708 172.058 24.9583 172.562C24.6493 173.066 24.2143 173.458 23.6532 173.739C23.0957 174.016 22.4334 174.154 21.6664 174.154ZM30.6166 174.154C29.7572 174.154 29.0186 173.979 28.4007 173.627C27.7863 173.272 27.3122 172.778 26.9784 172.146C26.6482 171.511 26.483 170.774 26.483 169.936C26.483 169.094 26.6482 168.357 26.9784 167.725C27.3122 167.089 27.7863 166.596 28.4007 166.244C29.0186 165.889 29.7572 165.712 30.6166 165.712C31.4759 165.712 32.2128 165.889 32.8271 166.244C33.445 166.596 33.9191 167.089 34.2494 167.725C34.5832 168.357 34.7501 169.094 34.7501 169.936C34.7501 170.774 34.5832 171.511 34.2494 172.146C33.9191 172.778 33.445 173.272 32.8271 173.627C32.2128 173.979 31.4759 174.154 30.6166 174.154ZM30.6325 172.189C30.945 172.189 31.2096 172.093 31.4262 171.901C31.6428 171.71 31.808 171.443 31.9216 171.102C32.0388 170.761 32.0974 170.367 32.0974 169.92C32.0974 169.465 32.0388 169.067 31.9216 168.727C31.808 168.386 31.6428 168.119 31.4262 167.928C31.2096 167.736 30.945 167.64 30.6325 167.64C30.3094 167.64 30.036 167.736 29.8122 167.928C29.5921 168.119 29.4234 168.386 29.3062 168.727C29.1926 169.067 29.1357 169.465 29.1357 169.92C29.1357 170.367 29.1926 170.761 29.3062 171.102C29.4234 171.443 29.5921 171.71 29.8122 171.901C30.036 172.093 30.3094 172.189 30.6325 172.189ZM39.0727 174.117C38.469 174.117 37.9204 173.961 37.4268 173.648C36.9331 173.336 36.539 172.867 36.2442 172.242C35.9495 171.617 35.8021 170.841 35.8021 169.914C35.8021 168.952 35.9548 168.16 36.2602 167.539C36.5656 166.917 36.9651 166.457 37.4587 166.159C37.9559 165.861 38.4903 165.712 39.0621 165.712C39.4917 165.712 39.8593 165.786 40.1647 165.935C40.4701 166.081 40.7222 166.269 40.9211 166.5C41.1199 166.731 41.2709 166.971 41.3738 167.219H41.4271V163.091H44.0319V174H41.4537V172.674H41.3738C41.2638 172.926 41.1075 173.162 40.9051 173.382C40.7027 173.602 40.4488 173.78 40.1434 173.915C39.8415 174.05 39.4846 174.117 39.0727 174.117ZM39.9782 172.088C40.2943 172.088 40.5642 171.999 40.7879 171.821C41.0116 171.64 41.1839 171.386 41.3046 171.06C41.4253 170.733 41.4857 170.349 41.4857 169.909C41.4857 169.462 41.4253 169.076 41.3046 168.753C41.1874 168.43 41.0152 168.181 40.7879 168.007C40.5642 167.833 40.2943 167.746 39.9782 167.746C39.6551 167.746 39.3817 167.835 39.1579 168.013C38.9342 168.19 38.7638 168.441 38.6466 168.764C38.5329 169.087 38.4761 169.469 38.4761 169.909C38.4761 170.349 38.5347 170.733 38.6519 171.06C38.7691 171.386 38.9378 171.64 39.1579 171.821C39.3817 171.999 39.6551 172.088 39.9782 172.088ZM49.5037 174.154C48.6479 174.154 47.9093 173.986 47.2878 173.648C46.6699 173.308 46.1941 172.823 45.8603 172.194C45.53 171.562 45.3649 170.811 45.3649 169.941C45.3649 169.096 45.5318 168.357 45.8656 167.725C46.1994 167.089 46.6699 166.596 47.2772 166.244C47.8844 165.889 48.6 165.712 49.4238 165.712C50.0062 165.712 50.5389 165.802 51.0218 165.983C51.5048 166.164 51.9221 166.433 52.2736 166.788C52.6252 167.143 52.8986 167.581 53.0939 168.103C53.2892 168.622 53.3869 169.217 53.3869 169.888V170.538H46.2757V169.025H50.9632C50.9597 168.748 50.894 168.501 50.7662 168.284C50.6383 168.068 50.4625 167.899 50.2388 167.778C50.0186 167.654 49.7647 167.592 49.4771 167.592C49.1859 167.592 48.9249 167.658 48.6941 167.789C48.4632 167.917 48.2804 168.093 48.1454 168.316C48.0105 168.537 47.9395 168.787 47.9324 169.067V170.607C47.9324 170.941 47.998 171.234 48.1294 171.486C48.2608 171.734 48.4473 171.928 48.6887 172.066C48.9302 172.205 49.2179 172.274 49.5517 172.274C49.7825 172.274 49.992 172.242 50.1802 172.178C50.3684 172.114 50.53 172.02 50.665 171.896C50.7999 171.772 50.9011 171.619 50.9686 171.438L53.3603 171.507C53.2608 172.043 53.0424 172.51 52.7051 172.908C52.3713 173.302 51.9327 173.609 51.3894 173.83C50.8461 174.046 50.2175 174.154 49.5037 174.154ZM59.4687 174L57.338 165.818H59.9534L61.056 171.06H61.1253L62.3078 165.818H64.8593L66.0738 171.022H66.143L67.2137 165.818H69.8291L67.6931 174H64.9072L63.6288 169.233H63.5383L62.2599 174H59.4687ZM74.5233 174.154C73.6674 174.154 72.9288 173.986 72.3074 173.648C71.6895 173.308 71.2136 172.823 70.8798 172.194C70.5495 171.562 70.3844 170.811 70.3844 169.941C70.3844 169.096 70.5513 168.357 70.8851 167.725C71.2189 167.089 71.6895 166.596 72.2967 166.244C72.9039 165.889 73.6195 165.712 74.4434 165.712C75.0257 165.712 75.5584 165.802 76.0414 165.983C76.5243 166.164 76.9416 166.433 77.2931 166.788C77.6447 167.143 77.9181 167.581 78.1135 168.103C78.3088 168.622 78.4064 169.217 78.4064 169.888V170.538H71.2953V169.025H75.9828C75.9792 168.748 75.9135 168.501 75.7857 168.284C75.6578 168.068 75.4821 167.899 75.2583 167.778C75.0382 167.654 74.7843 167.592 74.4966 167.592C74.2054 167.592 73.9444 167.658 73.7136 167.789C73.4828 167.917 73.2999 168.093 73.165 168.316C73.03 168.537 72.959 168.787 72.9519 169.067V170.607C72.9519 170.941 73.0176 171.234 73.149 171.486C73.2804 171.734 73.4668 171.928 73.7083 172.066C73.9498 172.205 74.2374 172.274 74.5712 172.274C74.802 172.274 75.0115 172.242 75.1998 172.178C75.388 172.114 75.5495 172.02 75.6845 171.896C75.8194 171.772 75.9206 171.619 75.9881 171.438L78.3798 171.507C78.2804 172.043 78.062 172.51 77.7246 172.908C77.3908 173.302 76.9522 173.609 76.4089 173.83C75.8656 174.046 75.237 174.154 74.5233 174.154ZM87.5777 165.818V167.736H82.4161V165.818H87.5777ZM83.4974 163.858H86.1022V171.427C86.1022 171.587 86.127 171.717 86.1768 171.816C86.23 171.912 86.3064 171.981 86.4058 172.024C86.5052 172.063 86.6242 172.082 86.7627 172.082C86.8621 172.082 86.9669 172.074 87.077 172.056C87.1906 172.034 87.2758 172.017 87.3327 172.002L87.7268 173.883C87.6025 173.918 87.4268 173.963 87.1995 174.016C86.9758 174.069 86.7077 174.103 86.3952 174.117C85.7844 174.146 85.2606 174.075 84.8238 173.904C84.3905 173.73 84.0585 173.46 83.8277 173.094C83.6004 172.729 83.4903 172.269 83.4974 171.715V163.858ZM88.9067 174V165.818H91.4369V167.31H91.5221C91.6713 166.77 91.9145 166.369 92.2519 166.106C92.5892 165.839 92.9816 165.706 93.4291 165.706C93.5498 165.706 93.6741 165.715 93.8019 165.733C93.9298 165.747 94.0487 165.77 94.1588 165.802V168.066C94.0345 168.023 93.8712 167.99 93.6688 167.965C93.4699 167.94 93.2923 167.928 93.1361 167.928C92.8271 167.928 92.5484 167.997 92.2998 168.135C92.0548 168.27 91.8612 168.46 91.7192 168.705C91.5807 168.947 91.5115 169.231 91.5115 169.558V174H88.9067ZM100.499 170.468V165.818H103.098V174H100.616V172.477H100.531C100.35 172.977 100.041 173.375 99.604 173.67C99.1708 173.961 98.647 174.107 98.0327 174.107C97.4751 174.107 96.9851 173.979 96.5625 173.723C96.1399 173.467 95.8114 173.11 95.5771 172.652C95.3427 172.191 95.2237 171.651 95.2202 171.033V165.818H97.8249V170.522C97.8285 170.966 97.9457 171.315 98.1765 171.571C98.4073 171.827 98.7216 171.955 99.1193 171.955C99.3786 171.955 99.6112 171.898 99.8171 171.784C100.027 171.667 100.192 171.498 100.312 171.278C100.437 171.054 100.499 170.784 100.499 170.468ZM111.899 168.316L109.508 168.38C109.483 168.21 109.415 168.059 109.305 167.928C109.195 167.793 109.051 167.688 108.874 167.613C108.7 167.535 108.497 167.496 108.267 167.496C107.965 167.496 107.707 167.556 107.494 167.677C107.285 167.798 107.182 167.961 107.185 168.167C107.182 168.327 107.246 168.466 107.377 168.583C107.512 168.7 107.752 168.794 108.096 168.865L109.673 169.163C110.49 169.32 111.097 169.579 111.495 169.941C111.896 170.303 112.098 170.783 112.102 171.379C112.098 171.94 111.931 172.429 111.601 172.844C111.274 173.26 110.827 173.583 110.259 173.814C109.691 174.041 109.041 174.154 108.309 174.154C107.141 174.154 106.219 173.915 105.545 173.435C104.873 172.952 104.49 172.306 104.394 171.496L106.967 171.433C107.024 171.731 107.171 171.958 107.409 172.114C107.647 172.271 107.951 172.349 108.32 172.349C108.654 172.349 108.925 172.287 109.135 172.162C109.344 172.038 109.451 171.873 109.454 171.667C109.451 171.482 109.369 171.335 109.209 171.225C109.05 171.111 108.799 171.022 108.458 170.958L107.031 170.687C106.21 170.538 105.6 170.262 105.198 169.861C104.797 169.456 104.598 168.941 104.602 168.316C104.598 167.77 104.744 167.303 105.039 166.915C105.333 166.525 105.752 166.227 106.296 166.021C106.839 165.815 107.48 165.712 108.219 165.712C109.327 165.712 110.2 165.944 110.839 166.409C111.479 166.871 111.832 167.507 111.899 168.316ZM118.002 165.818V167.736H112.841V165.818H118.002ZM113.922 163.858H116.527V171.427C116.527 171.587 116.552 171.717 116.602 171.816C116.655 171.912 116.731 171.981 116.831 172.024C116.93 172.063 117.049 172.082 117.188 172.082C117.287 172.082 117.392 172.074 117.502 172.056C117.615 172.034 117.701 172.017 117.757 172.002L118.152 173.883C118.027 173.918 117.852 173.963 117.624 174.016C117.401 174.069 117.132 174.103 116.82 174.117C116.209 174.146 115.685 174.075 115.249 173.904C114.815 173.73 114.483 173.46 114.252 173.094C114.025 172.729 113.915 172.269 113.922 171.715V163.858Z" fill="#A0A0A0"/>
</svg>
