<svg width="1038" height="1038" viewBox="0 0 1038 1038" fill="none" xmlns="http://www.w3.org/2000/svg">
<g filter="url(#filter0_d_451_5)">
<circle cx="545" cy="491" r="434" fill="white"/>
<circle cx="545" cy="491" r="420" stroke="white" stroke-width="28"/>
</g>
<path fill-rule="evenodd" clip-rule="evenodd" d="M479.787 706.375C462.583 706.375 454.072 680.66 453.706 666.842C450.961 553.916 350.755 571.669 350.755 442.27C350.755 340.051 433.665 257.141 535.885 257.141C638.104 257.141 721.014 340.051 721.014 442.27C721.014 571.669 620.9 553.916 618.063 666.842C617.697 680.752 607.081 706.375 591.982 706.375H479.787Z" fill="white" stroke="black" stroke-width="22.3829" stroke-miterlimit="2.6131" stroke-linecap="round" stroke-linejoin="round"/>
<path d="M468.26 750.664H603.424" stroke="black" stroke-width="22.3829" stroke-miterlimit="2.6131" stroke-linecap="round" stroke-linejoin="round"/>
<path d="M468.26 787.641H603.424" stroke="black" stroke-width="22.3829" stroke-miterlimit="2.6131" stroke-linecap="round" stroke-linejoin="round"/>
<path d="M484.456 824.703H587.316" stroke="black" stroke-width="22.3829" stroke-miterlimit="2.6131" stroke-linecap="round" stroke-linejoin="round"/>
<path d="M535.886 231.516V167" stroke="black" stroke-width="22.3829" stroke-miterlimit="2.6131" stroke-linecap="round" stroke-linejoin="round"/>
<path d="M646.891 256.592L679.835 199.58" stroke="black" stroke-width="22.3829" stroke-miterlimit="2.6131" stroke-linecap="round" stroke-linejoin="round"/>
<path d="M732.18 335.565L790.382 301.889" stroke="black" stroke-width="22.3829" stroke-miterlimit="2.6131" stroke-linecap="round" stroke-linejoin="round"/>
<path d="M767.137 448.857H835.771" stroke="black" stroke-width="22.3829" stroke-miterlimit="2.6131" stroke-linecap="round" stroke-linejoin="round"/>
<path d="M740.233 566.816L800.815 601.774" stroke="black" stroke-width="22.3829" stroke-miterlimit="2.6131" stroke-linecap="round" stroke-linejoin="round"/>
<path d="M424.88 256.592L391.936 199.58" stroke="black" stroke-width="22.3829" stroke-miterlimit="2.6131" stroke-linecap="round" stroke-linejoin="round"/>
<path d="M339.593 335.565L281.392 301.889" stroke="black" stroke-width="22.3829" stroke-miterlimit="2.6131" stroke-linecap="round" stroke-linejoin="round"/>
<path d="M304.543 448.857H236" stroke="black" stroke-width="22.3829" stroke-miterlimit="2.6131" stroke-linecap="round" stroke-linejoin="round"/>
<path d="M331.538 566.816L270.957 601.774" stroke="black" stroke-width="22.3829" stroke-miterlimit="2.6131" stroke-linecap="round" stroke-linejoin="round"/>
<path fill-rule="evenodd" clip-rule="evenodd" d="M527.56 298.139C531.038 302.897 533.143 309.395 531.587 318.821C530.031 328.155 501.022 345.359 493.426 352.223C450.415 390.932 461.397 379.127 437.695 430.283C420.674 466.979 382.147 467.437 388.827 426.439C398.345 368.237 428.727 329.253 473.202 302.989C492.145 291.824 511.729 276.45 527.56 298.139Z" fill="white" stroke="black" stroke-width="22.3829" stroke-miterlimit="2.6131" stroke-linecap="round" stroke-linejoin="round"/>
<defs>
<filter id="filter0_d_451_5" x="0" y="0" width="1038" height="1038" filterUnits="userSpaceOnUse" color-interpolation-filters="sRGB">
<feFlood flood-opacity="0" result="BackgroundImageFix"/>
<feColorMatrix in="SourceAlpha" type="matrix" values="0 0 0 0 0 0 0 0 0 0 0 0 0 0 0 0 0 0 127 0" result="hardAlpha"/>
<feMorphology radius="10" operator="dilate" in="SourceAlpha" result="effect1_dropShadow_451_5"/>
<feOffset dx="-26" dy="28"/>
<feGaussianBlur stdDeviation="37.5"/>
<feComposite in2="hardAlpha" operator="out"/>
<feColorMatrix type="matrix" values="0 0 0 0 0 0 0 0 0 0 0 0 0 0 0 0 0 0 0.25 0"/>
<feBlend mode="normal" in2="BackgroundImageFix" result="effect1_dropShadow_451_5"/>
<feBlend mode="normal" in="SourceGraphic" in2="effect1_dropShadow_451_5" result="shape"/>
</filter>
</defs>
</svg>
