<svg width="623" height="681" viewBox="0 0 623 681" fill="none" xmlns="http://www.w3.org/2000/svg">
<path fill-rule="evenodd" clip-rule="evenodd" d="M255.786 551.375C238.582 551.375 230.071 525.66 229.705 511.842C226.96 398.916 126.754 416.669 126.754 287.27C126.754 185.051 209.664 102.141 311.884 102.141C414.103 102.141 497.013 185.051 497.013 287.27C497.013 416.669 396.899 398.916 394.062 511.842C393.696 525.752 383.08 551.375 367.981 551.375H255.786Z" fill="white" stroke="white" stroke-width="22.3829" stroke-miterlimit="2.6131" stroke-linecap="round" stroke-linejoin="round"/>
<path d="M244.258 595.664H379.422" stroke="white" stroke-width="22.3829" stroke-miterlimit="2.6131" stroke-linecap="round" stroke-linejoin="round"/>
<path d="M244.258 632.641H379.422" stroke="white" stroke-width="22.3829" stroke-miterlimit="2.6131" stroke-linecap="round" stroke-linejoin="round"/>
<path d="M260.457 669.703H363.317" stroke="white" stroke-width="22.3829" stroke-miterlimit="2.6131" stroke-linecap="round" stroke-linejoin="round"/>
<path d="M311.887 76.5163V12" stroke="white" stroke-width="22.3829" stroke-miterlimit="2.6131" stroke-linecap="round" stroke-linejoin="round"/>
<path d="M422.891 101.59L455.835 44.5781" stroke="white" stroke-width="22.3829" stroke-miterlimit="2.6131" stroke-linecap="round" stroke-linejoin="round"/>
<path d="M508.18 180.567L566.382 146.891" stroke="white" stroke-width="22.3829" stroke-miterlimit="2.6131" stroke-linecap="round" stroke-linejoin="round"/>
<path d="M543.137 293.859H611.771" stroke="white" stroke-width="22.3829" stroke-miterlimit="2.6131" stroke-linecap="round" stroke-linejoin="round"/>
<path d="M516.234 411.82L576.816 446.778" stroke="white" stroke-width="22.3829" stroke-miterlimit="2.6131" stroke-linecap="round" stroke-linejoin="round"/>
<path d="M200.882 101.59L167.938 44.5781" stroke="white" stroke-width="22.3829" stroke-miterlimit="2.6131" stroke-linecap="round" stroke-linejoin="round"/>
<path d="M115.593 180.567L57.3906 146.891" stroke="white" stroke-width="22.3829" stroke-miterlimit="2.6131" stroke-linecap="round" stroke-linejoin="round"/>
<path d="M80.5428 293.859H12" stroke="white" stroke-width="22.3829" stroke-miterlimit="2.6131" stroke-linecap="round" stroke-linejoin="round"/>
<path d="M107.538 411.82L46.957 446.778" stroke="white" stroke-width="22.3829" stroke-miterlimit="2.6131" stroke-linecap="round" stroke-linejoin="round"/>
<path fill-rule="evenodd" clip-rule="evenodd" d="M303.561 143.139C307.039 147.897 309.144 154.395 307.588 163.821C306.032 173.155 277.023 190.359 269.427 197.223C226.416 235.932 237.398 224.127 213.696 275.283C196.675 311.979 158.148 312.437 164.828 271.439C174.346 213.237 204.728 174.253 249.203 147.989C268.146 136.824 287.73 121.45 303.561 143.139Z" fill="white" stroke="white" stroke-width="22.3829" stroke-miterlimit="2.6131" stroke-linecap="round" stroke-linejoin="round"/>
</svg>
