<svg width="1038" height="1038" viewBox="0 0 1038 1038" fill="none" xmlns="http://www.w3.org/2000/svg">
<g filter="url(#filter0_d_451_3)">
<circle cx="545" cy="491" r="434" fill="white"/>
<circle cx="545" cy="491" r="420" stroke="white" stroke-width="28"/>
</g>
<path d="M758.173 599.789L758.173 599.789C744.579 577.407 711.626 572.81 684.621 589.252C657.572 605.651 646.456 637.083 660.006 659.422C673.557 681.805 706.554 686.401 733.559 669.959C760.564 653.56 771.723 622.172 758.173 599.789ZM555.709 633.283L555.708 633.283C524.382 637.567 501.656 661.924 505.185 687.841C508.714 713.758 537.105 731.145 568.432 726.861C599.757 722.578 622.483 698.22 618.954 672.304C615.425 646.386 586.991 629.043 555.709 633.283ZM384.384 587.09L384.384 587.091C376.02 595.554 373.068 607.751 374.997 620.58C376.927 633.41 383.738 646.908 394.956 658.055C406.174 669.202 419.707 675.915 432.536 677.739C445.364 679.562 457.523 676.496 465.908 668.034C474.294 659.57 477.246 647.373 475.312 634.543C473.377 621.713 466.554 608.216 455.337 597.069C444.119 585.922 430.586 579.209 417.757 577.385C404.929 575.562 392.77 578.627 384.384 587.09ZM439.579 345.684L439.578 345.684C434.272 335.034 423.697 328.312 410.95 326.016C398.203 323.721 383.25 325.84 369.093 332.896C354.935 339.953 344.24 350.632 338.393 362.208C332.545 373.784 331.533 386.29 336.818 396.94C342.103 407.591 352.678 414.313 365.43 416.608C378.183 418.904 393.146 416.784 407.304 409.728C421.461 402.672 432.167 392.004 438.02 380.433C443.873 368.862 444.885 356.356 439.579 345.684ZM334.844 447.168L334.844 447.169C309.268 452.492 293.862 482.046 300.257 513.026C306.652 544.005 332.455 565.074 358.032 559.794L358.033 559.794C383.608 554.471 399.014 524.917 392.619 493.937C386.225 462.958 360.421 441.889 334.844 447.168ZM838.403 558.934C840.865 632.672 796.263 691.721 730.498 727.718C664.729 763.717 577.854 776.62 495.953 758.06C332.128 720.935 225.822 574.018 258.357 429.956C274.65 357.93 325.415 291.87 391.172 252.636C456.921 213.407 537.613 201.022 613.781 236.263C638.255 247.586 648.728 262.646 651.442 279.636C654.164 296.683 649.092 315.758 642.251 335.13C640.183 340.984 637.953 346.868 635.733 352.725C630.625 366.2 625.57 379.539 622.663 392.076C618.489 410.082 618.697 426.619 629.632 439.718C642.68 455.363 662.12 464.466 683.907 470.882C698.839 475.28 714.929 478.429 730.862 481.547C738.164 482.976 745.433 484.399 752.543 485.932C775.206 490.82 796.267 496.836 811.868 507.751C827.432 518.641 837.581 534.42 838.403 558.934ZM533.299 265.47C517.542 264.323 502.901 268.055 491.975 275.034L527.162 350.596L527.126 351.095C527.126 351.095 527.126 351.095 527.127 351.095C542.884 352.242 557.525 348.51 568.451 341.531C579.376 334.552 586.614 324.302 587.466 312.427C588.317 300.553 582.636 289.374 572.832 280.896C563.027 272.419 549.078 266.617 533.299 265.47Z" fill="black" stroke="black"/>
<defs>
<filter id="filter0_d_451_3" x="0" y="0" width="1038" height="1038" filterUnits="userSpaceOnUse" color-interpolation-filters="sRGB">
<feFlood flood-opacity="0" result="BackgroundImageFix"/>
<feColorMatrix in="SourceAlpha" type="matrix" values="0 0 0 0 0 0 0 0 0 0 0 0 0 0 0 0 0 0 127 0" result="hardAlpha"/>
<feMorphology radius="10" operator="dilate" in="SourceAlpha" result="effect1_dropShadow_451_3"/>
<feOffset dx="-26" dy="28"/>
<feGaussianBlur stdDeviation="37.5"/>
<feComposite in2="hardAlpha" operator="out"/>
<feColorMatrix type="matrix" values="0 0 0 0 0 0 0 0 0 0 0 0 0 0 0 0 0 0 0.25 0"/>
<feBlend mode="normal" in2="BackgroundImageFix" result="effect1_dropShadow_451_3"/>
<feBlend mode="normal" in="SourceGraphic" in2="effect1_dropShadow_451_3" result="shape"/>
</filter>
</defs>
</svg>
