<svg width="587" height="552" viewBox="0 0 587 552" fill="none" xmlns="http://www.w3.org/2000/svg">
<path d="M243.842 543.548C407.875 580.72 591.843 491.876 586.903 343.917C583.594 245.221 429.83 286.524 378.016 224.398C334.881 172.726 460.376 66.3282 361.991 20.809C209.3 -49.836 38.5216 70.5015 5.86964 214.846C-26.7394 359.234 79.8091 506.375 243.842 543.548ZM432.88 374.679C459.732 358.33 492.341 362.977 505.745 385.048C519.107 407.119 508.151 438.226 481.299 454.532C454.447 470.881 421.795 466.234 408.434 444.163C395.072 422.135 405.985 390.985 432.88 374.679ZM366.459 457.371C369.939 482.927 347.512 507.107 316.364 511.366C285.216 515.625 257.161 498.33 253.681 472.774C250.201 447.218 272.628 423.038 303.776 418.779C334.881 414.563 362.979 431.815 366.459 457.371ZM221.458 89.1738C223.134 65.8119 249.943 48.6884 281.263 50.9687C312.626 53.249 336.643 74.0294 334.967 97.3914C333.291 120.753 306.482 137.877 275.162 135.596C243.842 133.359 219.783 112.536 221.458 89.1738ZM213.553 452.682C197.055 469.332 165.606 464.857 143.309 442.7C121.011 420.543 116.285 389.092 132.74 372.442C149.238 355.792 180.687 360.267 202.984 382.424C225.282 404.581 230.051 436.031 213.553 452.682ZM117.316 118.344C145.457 104.318 176.691 109.954 187.131 130.907C197.571 151.902 183.221 180.255 155.081 194.281C126.94 208.307 95.6625 202.67 85.2654 181.718C74.8684 160.765 89.1751 132.37 117.316 118.344ZM48.7468 297.925C42.3883 267.12 57.7261 237.907 82.9454 232.658C108.165 227.452 133.771 248.233 140.129 279.038C146.488 309.843 131.15 339.056 105.931 344.305C80.7114 349.511 55.1053 328.73 48.7468 297.925Z" fill="white"/>
</svg>
