<svg width="9030" height="3766" viewBox="0 0 9030 3766" fill="none" xmlns="http://www.w3.org/2000/svg">
<g filter="url(#filter0_d_573_84)">
<path d="M1179.84 1062.9C1175.73 1053.42 1172.15 1045.16 1169.29 1038.98C1121.18 935.552 1065.05 676.251 1187.13 626.099C1333.46 565.977 1337.14 809.531 1347.9 876.785C1360.35 954.519 1369.48 1038.36 1340.03 1112.88C1328.96 1140.97 1300.51 1184.12 1268.36 1182.53C1232.75 1180.82 1199.58 1108.15 1179.84 1062.9V1062.9Z" fill="#192E35"/>
<path d="M1131.58 923.538C1130.95 966.763 1154.95 1015.74 1193.8 1033.66C1246.53 1058.04 1266.85 1009.68 1266.88 962.315C1266.9 924.177 1250.18 858.406 1206.94 844.883C1166.17 832.077 1132.1 888.057 1131.56 923.538H1131.58Z" fill="#F7B6A0"/>
<path d="M201.744 1327.06C37.8245 1084.45 81.8908 869.473 68.3438 440.85L138.15 425.973C165.959 495.143 299.309 1036.65 368.884 1079.21C368.884 1079.21 514.988 1231.38 201.719 1327.06H201.744Z" fill="#F7B6A0"/>
<path d="M8.94019 304.553C2.03885 382.338 37.0823 445.885 65.4289 483.563C100.984 519.836 124.525 507.08 153.459 490.286C173.55 478.579 178.534 466.82 185.87 448.109C189.883 431.494 202.587 409.28 202.587 409.28C230.192 351.357 247.573 315.647 247.573 315.647C247.573 315.647 268.073 282.007 255.139 271.757C234.41 255.423 212.658 294.328 212.658 294.328L193.692 319.609C183.314 334.486 181.55 315.596 181.55 315.596L174.419 281.905C155.709 227.688 203.021 133.339 205.552 133.185C138.225 136.074 120.461 253.173 120.461 253.173C120.461 253.173 122.812 188.834 163.914 126.923C163.914 126.923 177.052 78.8916 131.503 113.451C131.503 113.451 72.2536 187.095 76.3688 265.06C76.3688 265.06 62.1316 210.382 100.242 136.406C100.242 136.406 97.2518 101.974 68.6751 125.261C68.6751 125.261 26.8581 229.452 40.3541 278.582C40.3541 278.582 28.1106 233.005 35.4209 186.993C35.4209 186.993 24.4554 167.234 9.5792 188.271C9.5792 188.271 -2.53649 268.178 8.94019 304.527V304.553Z" fill="#F7B6A0"/>
<path d="M40.0977 621.724C40.0977 621.724 39.5098 580.161 60.6995 553.321L58.1179 490.182C58.1179 490.182 136.435 499.538 182.572 472.289L191.212 529.318C191.212 529.318 225.923 528.372 246.831 596.239C246.831 596.239 333.481 1043.57 466.345 1170.36C466.345 1170.36 333.916 1543.67 204.145 1475.95C204.145 1475.95 22.9722 1327.08 40.0722 621.75L40.0977 621.724Z" fill="#2C6496"/>
<path d="M1528.21 681.825C1602.28 709.177 1593.95 779.447 1608.47 846.547C1614.42 874.128 1626.21 900.431 1633.49 927.042C1647.42 896.981 1645.68 802.759 1643.94 770.091C1633.11 567.359 1554.64 451.001 1620.94 628.912C1636.38 670.297 1499.86 552.993 1456.41 545.605C1394.5 535.048 1418.02 586.454 1440.3 648.365L1528.21 681.8V681.825Z" fill="#192E35"/>
<path d="M1239.76 1041.02C1264.5 1103.32 1298.29 1154.47 1356.9 1190.51C1414.23 1225.81 1473.56 1243.86 1528.95 1198.2C1573.04 1161.83 1601.62 1108.79 1617.67 1055.29C1654.65 932.23 1626.64 761.834 1548.45 662.551C1462.57 553.58 1296.53 577.711 1232.29 699.207C1179.97 798.157 1199.83 940.41 1239.76 1041V1041.02Z" fill="#F7B6A0"/>
<path d="M1195.05 995.544C1198.3 995.544 1201.31 993.372 1202.23 990.1C1215.5 942.733 1205.35 897.872 1178.05 883.429C1174.42 881.512 1169.9 882.893 1167.98 886.548C1166.07 890.178 1167.45 894.702 1171.1 896.619C1191.55 907.407 1198.94 946.746 1187.89 986.086C1186.77 990.048 1189.1 994.164 1193.06 995.289C1193.75 995.468 1194.41 995.57 1195.08 995.57L1195.05 995.544Z" fill="#F2937C"/>
<path d="M1155.66 935.22C1156.66 935.22 1157.66 934.99 1158.6 934.581C1169.9 929.749 1184.77 927.014 1192.49 931.794C1196 933.967 1200.6 932.945 1202.77 929.443C1204.94 925.941 1203.89 921.34 1200.39 919.167C1187.28 910.936 1167.16 914.694 1152.72 920.88C1148.94 922.49 1147.2 926.887 1148.81 930.67C1150.01 933.507 1152.77 935.22 1155.66 935.22Z" fill="#F2937C"/>
<path d="M1332.72 955.028C1333.28 964.742 1351.58 971.644 1373.62 970.366C1395.62 969.113 1413.03 960.217 1412.49 950.478C1411.96 940.739 1393.63 933.863 1371.6 935.141C1349.56 936.394 1332.18 945.289 1332.72 955.028Z" fill="#F2937C"/>
<path d="M1529.31 955.028C1529.84 964.742 1548.17 971.644 1570.2 970.366C1592.19 969.113 1609.62 960.217 1609.06 950.478C1608.49 940.739 1590.19 933.863 1568.16 935.141C1546.13 936.394 1528.74 945.289 1529.31 955.028Z" fill="#F2937C"/>
<path d="M1478.39 993.117C1494.54 993.117 1512.64 988.644 1520.08 977.959C1523.12 973.588 1526.9 964.488 1518.16 952.371C1460.6 872.746 1476.06 858.738 1487.36 848.513C1490.05 846.085 1492.55 843.784 1494.44 841.228C1496.92 837.93 1496.23 833.278 1492.96 830.799C1489.66 828.319 1484.98 828.984 1482.53 832.307C1481.18 834.096 1479.34 835.681 1477.39 837.445C1458.07 854.929 1445.72 877.551 1506.12 961.114C1509.98 966.456 1508.53 968.527 1507.91 969.421C1502.62 977.013 1479.26 980.745 1464.03 976.527C1460.04 975.428 1455.95 977.703 1454.82 981.691C1453.72 985.653 1456.05 989.743 1460.01 990.868C1465.18 992.325 1471.62 993.143 1478.44 993.143L1478.39 993.117Z" fill="#F2937C"/>
<path d="M1499.43 843.81C1501.14 843.81 1502.85 843.35 1504.44 842.404C1541.47 819.961 1570.38 835.221 1573.55 837.011C1578.18 839.643 1584.06 838.059 1586.74 833.406C1589.4 828.754 1587.76 822.849 1583.14 820.191C1564.27 809.455 1529.74 804.445 1494.42 825.84C1489.87 828.601 1488.41 834.557 1491.17 839.132C1492.98 842.123 1496.18 843.784 1499.43 843.784V843.81Z" fill="#192E35"/>
<path d="M1333.84 852.552C1336.22 852.552 1338.6 851.657 1340.46 849.944C1356.06 835.323 1387.75 829.52 1406.87 843.682C1411.17 846.877 1417.2 845.957 1420.39 841.662C1423.56 837.368 1422.67 831.335 1418.37 828.14C1391.1 807.946 1348.47 815.972 1327.25 835.834C1323.36 839.489 1323.16 845.573 1326.82 849.484C1328.73 851.504 1331.29 852.552 1333.87 852.552H1333.84Z" fill="#192E35"/>
<path d="M1352.22 892.709C1355.03 892.709 1357.74 891.099 1358.97 888.364C1360.38 885.297 1365.21 882.996 1371.26 882.485C1378.96 881.948 1386.78 884.3 1389.39 888.185C1391.69 891.585 1396.29 892.531 1399.71 890.204C1403.11 887.878 1404.01 883.277 1401.71 879.877C1394.73 869.525 1380.26 866.739 1370.04 867.684C1358.38 868.63 1349.16 874.049 1345.47 882.178C1343.76 885.91 1345.4 890.307 1349.13 892.019C1350.13 892.454 1351.2 892.684 1352.22 892.684V892.709Z" fill="#21263D"/>
<path d="M1534.98 892.709C1537.79 892.709 1540.5 891.099 1541.73 888.364C1543.13 885.297 1547.96 882.996 1554.02 882.485C1561.74 881.948 1569.56 884.3 1572.17 888.185C1574.45 891.585 1579.07 892.531 1582.5 890.204C1585.9 887.878 1586.79 883.277 1584.49 879.877C1577.51 869.525 1563.05 866.739 1552.82 867.684C1541.14 868.63 1531.96 874.049 1528.23 882.178C1526.52 885.91 1528.16 890.307 1531.89 892.019C1532.91 892.454 1533.96 892.684 1534.98 892.684V892.709Z" fill="#21263D"/>
<path d="M1235.9 572.7C1220.2 574.719 1204.48 573.134 1191.19 583.589C1161.57 606.927 1158.6 670.321 1153.26 704.395C1146.49 747.237 1142.68 790.564 1140.79 833.892C1140.07 850.865 1144.21 874.612 1139.69 891.023C1144.95 871.928 1171.61 834.148 1200.7 860.195C1212.87 871.034 1220 928.676 1226.11 943.118C1234.23 962.392 1238.17 954.928 1255.81 954.903C1257.24 897.874 1239.91 736.194 1300.39 730.161C1374.69 722.723 1655.8 760.478 1643.56 627.965C1636.66 553.554 1553.31 470.401 1445.82 520.579" fill="#192E35"/>
<path d="M1481.71 1063.23C1483.96 1063.23 1486.21 1063.05 1488.46 1062.77C1499.12 1061.26 1514.07 1055.15 1524.76 1034.86C1526.67 1031.23 1525.27 1026.7 1521.64 1024.79C1517.98 1022.84 1513.48 1024.3 1511.57 1027.93C1505.35 1039.76 1496.87 1046.51 1486.36 1048.02C1471.72 1050.25 1452.8 1041.55 1438.11 1026.22C1435.24 1023.25 1430.51 1023.18 1427.57 1026.04C1424.61 1028.88 1424.51 1033.6 1427.37 1036.6C1440.25 1050.02 1460.7 1063.28 1481.74 1063.28L1481.71 1063.23Z" fill="#F2937C"/>
<path d="M1556.63 529.83C1567.24 492.228 1557.7 460.02 1516.91 457.949C1472.87 455.674 1472.41 525.126 1437.11 515.694C1401.84 506.313 1384.35 455.444 1341.69 493.302C1326.25 507.003 1331.67 527.529 1318.23 542.202C1302.51 559.328 1284.03 554.65 1264.17 549.64C1228.1 540.591 1176.95 532.974 1170.16 581.848C1166.35 609.251 1178.56 614.005 1155.3 628.908C1138.61 639.593 1126.45 642.021 1118.04 663.442C1103.08 701.453 1119.57 754.366 1162.67 765.051C1214.22 777.806 1231.53 715.716 1261.74 688.263C1304.86 649.076 1366.2 636.985 1420.9 643.862C1477.21 650.968 1559.21 671.98 1609.06 634.915C1634.05 616.306 1638.63 598.208 1645.07 566.971C1648.29 551.481 1658.08 517.458 1613.5 497.443C1594.1 488.751 1580.84 508.971 1569.18 519.63L1556.63 529.83V529.83Z" fill="#192E35"/>
<path d="M989.365 3292.6C960.507 3297.33 946.167 3366.96 922.626 3381.17C865.192 3415.93 830.097 3471.94 835.797 3529C840.117 3572.5 834.519 3619.15 869.102 3649.37C901.973 3678.05 953.861 3666.21 994.323 3667.72C1030.57 3669.07 1086.21 3679.02 1123.1 3666.85C1170.1 3651.31 1167.37 3608.7 1176.37 3563.68C1189.35 3498.91 1187.33 3433.39 1187.51 3365.83C1187.61 3325.37 1174.55 3298.76 1140.5 3277.62C1088.95 3245.61 1044.09 3283.63 989.365 3292.62V3292.6Z" fill="#003056"/>
<g filter="url(#filter1_d_573_84)">
<path d="M4085.69 976.271C4090.29 966.788 4094.23 958.531 4097.42 952.345C4150.84 848.896 4196.65 613.777 4060.44 517.178C3934.81 428.094 3910.98 722.901 3899.02 790.154C3885.19 867.888 3875.05 951.732 3907.76 1026.24C3920.08 1054.31 3951.68 1097.49 3987.41 1095.93C4026.95 1094.19 4063.76 1021.54 4085.69 976.297V976.271Z" fill="#A9723E"/>
<path d="M5125.01 1034.02C5103.95 741.996 4970.01 555.7 4715.81 210.332L4651.7 241.824C4672.61 313.398 4822.47 634.508 4877.33 1066.33C4877.33 1066.33 5056.53 1203.52 5125.01 1034.02V1034.02Z" fill="#F7B6A0"/>
<path d="M4028.92 937.902H3770.12V1259.73H4028.92V937.902Z" fill="#F7B6A0"/>
<path d="M3949.91 1116.02C3975.88 1061.52 3991.32 1006.41 3986.95 937.824L3769.99 938.003L3770.22 1217.73C3838.34 1207.22 3922.26 1174.07 3949.91 1116.02Z" fill="#F2937C"/>
<path d="M3717.42 595.139C3643.34 622.541 3651.7 692.76 3637.18 759.886C3631.22 787.442 3619.42 813.745 3612.16 840.355C3598.23 810.32 3603.47 741.609 3599.02 709.248C3583.53 597.133 3637.1 471.572 3613.64 534.455C3598.2 575.84 3745.76 466.358 3789.21 458.945C3851.12 448.388 3827.61 499.818 3805.32 561.704L3717.39 595.139H3717.42Z" fill="#A9723E"/>
<path d="M4114.04 836.904C4114.68 880.104 4090.67 929.106 4051.8 947.05C3999.07 971.411 3978.75 923.048 3978.72 875.733C3978.72 837.543 3995.41 771.797 4038.66 758.224C4079.43 745.443 4113.5 801.424 4114.04 836.904V836.904Z" fill="#F7B6A0"/>
<path d="M4005.84 954.387C3981.12 1016.68 3947.33 1067.83 3888.72 1103.9C3831.36 1139.17 3772.06 1157.25 3716.65 1111.57C3672.56 1075.19 3643.98 1022.13 3627.93 968.651C3590.94 845.595 3618.98 675.199 3697.17 575.916C3783.05 466.946 3949.1 491.076 4013.33 612.547C4065.68 711.497 4045.82 853.801 4005.87 954.362L4005.84 954.387Z" fill="#F7B6A0"/>
<path d="M3704.28 893.472C3753.1 906.841 3795.04 897.306 3840.97 879.157C3891.25 859.296 3917.83 879.362 3944.21 924.479C3952.42 938.512 3982.04 924.479 3996.51 925.987C4002.08 926.575 4008.65 929.668 4013.66 933.374C4048.12 834.705 4062.1 704.85 4013.3 612.597C3949.07 491.101 3783.03 466.97 3697.15 575.967C3637.05 652.269 3606.74 770.544 3612.67 877.112C3644.39 874.428 3672.86 884.934 3704.25 893.523L3704.28 893.472Z" fill="#F7B6A0"/>
<path d="M3716.65 1111.57C3772.06 1157.25 3831.34 1139.17 3888.72 1103.9C3947.33 1067.83 3981.12 1016.68 4005.84 954.387C4006.5 952.751 4018.01 901.448 4018.01 901.448C3989.84 868.243 3959.93 955.358 3944.21 924.454C3932.35 901.141 3895.24 876.295 3865.44 886.008C3834.66 896.08 3806.03 909.117 3773.85 914.408C3718.03 923.559 3668.03 886.52 3613.64 891.76C3616.02 918.6 3620.69 944.545 3627.93 968.65C3644 1022.13 3672.58 1075.19 3716.65 1111.57Z" fill="#A9723E"/>
<path d="M4050.57 908.914C4051.24 908.914 4051.93 908.786 4052.59 908.607C4056.55 907.508 4058.88 903.393 4057.75 899.405C4046.74 860.065 4054.1 820.776 4074.55 809.964C4078.2 807.995 4079.58 803.496 4077.66 799.867C4075.72 796.262 4071.22 794.856 4067.59 796.748C4040.3 811.191 4030.15 856.077 4043.41 903.444C4044.33 906.741 4047.32 908.914 4050.57 908.914V908.914Z" fill="#F2937C"/>
<path d="M4089.96 848.562C4092.85 848.562 4095.61 846.875 4096.81 844.037C4098.42 840.229 4096.68 835.832 4092.9 834.221C4078.46 828.035 4058.37 824.303 4045.23 832.56C4041.73 834.733 4040.68 839.334 4042.85 842.785C4045.05 846.287 4049.62 847.36 4053.13 845.188C4060.82 840.356 4075.7 843.091 4087.02 847.948C4087.97 848.357 4088.96 848.562 4089.96 848.562V848.562Z" fill="#F2937C"/>
<path d="M3709.41 809.422C3708.62 823.124 3701.34 833.834 3693.13 833.374C3684.9 832.888 3678.89 821.411 3679.66 807.71C3680.45 794.06 3687.74 783.324 3695.94 783.784C3704.17 784.244 3710.18 795.696 3709.41 809.422V809.422Z" fill="#21263D"/>
<path d="M3887.44 819.57C3886.65 833.272 3879.37 843.982 3871.16 843.548C3862.96 843.062 3856.92 831.585 3857.69 817.883C3858.48 804.182 3865.77 793.472 3873.97 793.957C3882.2 794.417 3888.21 805.895 3887.44 819.57V819.57Z" fill="#21263D"/>
<path d="M3874.36 762.033C3889.54 762.417 3915.79 766.277 3928.7 771.006C3931.94 729.519 3863.11 738.082 3846.8 739.36C3838.9 739.973 3831.7 743.118 3836.25 761.062C3838.57 770.188 3845.58 761.318 3874.36 762.033Z" fill="#A9723E"/>
<path d="M3705.43 760.805C3690.24 761.214 3664.02 765.074 3651.06 769.777C3647.84 728.316 3716.65 736.828 3732.98 738.132C3740.85 738.745 3748.09 741.94 3743.54 759.885C3741.21 768.985 3734.21 760.089 3705.43 760.805Z" fill="#A9723E"/>
<path d="M3912.9 868.37C3912.34 878.134 3894.04 884.985 3872.01 883.732C3849.97 882.48 3832.59 873.584 3833.15 863.82C3833.69 854.081 3852.02 847.255 3874.05 848.482C3896.06 849.735 3913.46 858.656 3912.9 868.37V868.37Z" fill="#F2937C"/>
<path d="M3716.32 868.371C3715.73 878.084 3697.45 884.986 3675.42 883.734C3653.41 882.456 3636 873.586 3636.57 863.821C3637.13 854.082 3655.43 847.231 3677.44 848.484C3699.45 849.736 3716.85 858.657 3716.32 868.371V868.371Z" fill="#F2937C"/>
<path d="M3765.11 906.841C3772.65 906.841 3779.94 905.792 3785.69 904.208C3789.65 903.083 3791.95 898.968 3790.85 895.005C3789.75 891.043 3785.64 888.743 3781.65 889.842C3766.47 894.085 3746.43 891.554 3740.45 884.55C3739.5 883.451 3736.97 880.512 3740.32 873.124C3749.7 852.445 3756.75 837.951 3762.07 827.036C3774.72 801.065 3778.12 794.087 3778.12 773.458C3778.12 769.343 3774.8 766.02 3770.68 766.02C3766.57 766.02 3763.24 769.343 3763.24 773.458C3763.24 790.661 3761.02 795.237 3748.68 820.518C3743.33 831.484 3736.2 846.131 3726.74 866.989C3720.41 880.921 3725.52 890.046 3729.12 894.238C3737.05 903.466 3751.51 906.789 3765.11 906.789V906.841Z" fill="#F2937C"/>
<path d="M4092.62 566.689C4058.44 499.767 3988.54 464.901 3915.56 457.718C3845.91 450.867 3689.5 455.136 3666.63 532.001C3628.69 659.53 3870.98 636.038 3945.26 643.477C4005.74 649.561 3988.41 811.215 3989.84 868.269C4007.48 868.269 4011.44 875.759 4019.57 856.485C4025.68 842.042 4032.81 784.349 4044.97 773.485C4074.04 747.463 4100.7 785.244 4105.96 804.339C4105.96 804.339 4140.9 690.511 4092.62 566.689V566.689Z" fill="#A9723E"/>
<path d="M3777.48 974.965C3813.27 974.965 3834.61 943.881 3849.1 922.742C3851.43 919.342 3850.59 914.69 3847.16 912.389C3843.76 910.037 3839.11 910.881 3836.78 914.306C3817.97 941.734 3800.03 964.178 3769.76 959.449C3765.72 958.784 3761.89 961.621 3761.28 965.711C3760.66 969.776 3763.45 973.559 3767.51 974.198C3770.94 974.709 3774.26 974.99 3777.46 974.99L3777.48 974.965Z" fill="#F2937C"/>
<path d="M4488.58 48.9069C4522.55 11.203 4584.25 142.029 4605.44 159.054C4589.23 130.143 4519.68 25.1854 4543.15 1.13157C4558.41 -11.8028 4607.25 90.0617 4620.19 107.188C4614.03 88.2724 4577.47 17.6957 4597.49 5.01699C4613.59 -0.529961 4644.88 70.3534 4657.99 90.2151C4657.84 84.1058 4628.52 18.3604 4643.78 18.0792C4658.6 16.6733 4685.8 59.0806 4697.79 81.1662C4751.59 180.832 4814.09 289.496 4738.28 307.006C4681.71 320.145 4650.12 325.82 4509.51 235.152C4485.2 219.533 4532.87 197.294 4587.75 218.23C4590.74 203.915 4484.51 53.457 4488.55 48.9325L4488.58 48.9069Z" fill="#F7B6A0"/>
<path d="M4621.44 229.734C4620.03 229.708 4618.6 229.657 4617.17 229.606C4611.78 229.478 4611.75 225.031 4617.17 225.184C4619.06 225.21 4620.93 225.363 4622.79 225.516C4620.62 226.309 4618.45 227.127 4616.28 227.945C4616.61 221.12 4621.82 220.89 4627.8 221.478C4635.32 222.244 4640.92 218.103 4648.97 219.203C4670.34 222.04 4689.74 242.464 4696.74 262.326C4698.66 267.668 4685.6 267.591 4683.32 264.115C4675.22 251.692 4669.08 239.575 4656.94 230.296C4649.38 224.519 4644.14 227.664 4636.42 228.482C4634.17 228.712 4632.17 228.354 4629.93 227.996C4629.18 227.868 4628.44 227.791 4627.73 227.689C4623.97 226.794 4623.59 226.871 4626.55 227.97C4625.91 230.45 4622.15 230.833 4620.03 230.45C4618.3 230.117 4616.58 229.785 4614.87 229.351C4609.14 227.945 4616.33 224.775 4619.42 225.542C4620.67 225.874 4621.95 226.181 4623.2 226.462C4626.93 227.408 4623.64 229.836 4621.39 229.785L4621.44 229.734Z" fill="#21263D"/>
<path d="M3590.4 495.064C3597.33 426.098 3623.05 398.056 3694.33 390.95C3752.74 385.147 3813.88 381.62 3872.64 375.92C3954.8 367.944 3979.41 417.56 4032.22 465.182C4063.5 493.402 4148.49 495.064 4137.43 551.556C4125.51 612.24 4054.97 624.459 4010.95 640.716C3914.49 676.35 3816.97 637.163 3722.35 616.637C3654.13 601.862 3581.89 580.39 3590.4 495.064V495.064Z" fill="#A9723E"/>
</g>
<path d="M2272.63 1019.19C2267.95 1009.73 2263.97 1001.47 2260.7 995.362C2206.48 892.322 2142.12 633.532 2277.34 582.306C2439.44 520.931 2445.4 764.486 2457.87 831.586C2472.29 909.244 2483.05 993.01 2450.94 1067.78C2438.83 1095.95 2407.57 1139.3 2371.83 1138.02C2332.27 1136.57 2294.92 1064.2 2272.63 1019.16V1019.19Z" fill="#3E1600"/>
<path d="M2637.94 635.247C2712.22 662.035 2704.4 732.357 2719.46 799.354C2725.64 826.859 2737.63 853.086 2745.12 879.645C2758.82 849.507 2761.04 815.535 2765.29 783.123C2774.03 715.997 2780.06 657.179 2755.29 592.251C2739.52 550.969 2608.63 506.619 2565.1 499.589C2503.14 489.543 2527.04 540.769 2549.81 602.502L2637.97 635.247H2637.94Z" fill="#3E1600"/>
<path d="M2243.19 880.056C2242.91 923.281 2267.29 972.079 2306.24 989.716C2359.21 1013.64 2379.14 965.1 2378.81 917.785C2378.56 879.621 2361.3 814.029 2317.98 800.762C2277.08 788.313 2243.44 844.524 2243.19 880.03V880.056Z" fill="#BB6A57"/>
<path d="M2409.46 1157.89C2383.08 1103.59 2367.23 1048.59 2371.07 979.977L2588 978.469L2589.92 1258.22C2521.69 1248.22 2437.55 1215.74 2409.43 1157.91L2409.46 1157.89Z" fill="#9D483E"/>
<path d="M2352.28 996.695C2377.48 1058.81 2411.66 1109.68 2470.55 1145.29C2528.19 1180.15 2587.59 1197.71 2642.65 1151.65C2686.48 1114.97 2714.62 1061.65 2730.27 1008.02C2766.33 884.708 2736.99 714.541 2658.01 615.898C2571.31 507.591 2405.47 532.949 2342.13 654.956C2290.58 754.316 2311.54 896.441 2352.25 996.695H2352.28Z" fill="#BB6A57"/>
<path d="M2307.19 951.552C2310.46 951.552 2313.45 949.379 2314.35 946.056C2327.25 898.562 2316.72 853.802 2289.35 839.539C2285.67 837.698 2281.19 839.079 2279.3 842.734C2277.41 846.39 2278.82 850.888 2282.47 852.78C2303 863.465 2310.69 902.703 2299.96 942.17C2298.88 946.132 2301.23 950.248 2305.2 951.322C2305.86 951.475 2306.5 951.552 2307.16 951.552H2307.19Z" fill="#9D483E"/>
<path d="M2267.29 891.481C2268.29 891.481 2269.28 891.302 2270.26 890.868C2281.55 885.934 2296.43 883.071 2304.17 887.851C2307.68 889.998 2312.28 888.874 2314.42 885.372C2316.57 881.87 2315.47 877.269 2311.97 875.121C2295.43 865.024 2271.3 874.125 2264.32 877.192C2260.54 878.828 2258.8 883.25 2260.47 886.982C2261.69 889.794 2264.43 891.456 2267.32 891.456L2267.29 891.481Z" fill="#9D483E"/>
<path d="M2647.58 849.456C2648.47 863.131 2655.86 873.791 2664.07 873.254C2672.27 872.717 2678.23 861.214 2677.33 847.513C2676.44 833.863 2669.08 823.178 2660.85 823.715C2652.64 824.251 2646.71 835.729 2647.58 849.456Z" fill="#21263D"/>
<path d="M2469.63 861.011C2470.52 874.686 2477.91 885.371 2486.11 884.834C2494.35 884.298 2500.25 872.795 2499.38 859.119C2498.51 845.392 2491.15 834.733 2482.89 835.244C2474.69 835.832 2468.78 847.335 2469.63 861.011Z" fill="#21263D"/>
<path d="M2444.58 909.987C2445.19 919.701 2463.57 926.423 2485.55 924.992C2507.59 923.56 2524.92 914.486 2524.28 904.798C2523.64 895.11 2505.28 888.362 2483.25 889.793C2461.27 891.225 2443.94 900.248 2444.55 909.987H2444.58Z" fill="#AB5642"/>
<path d="M2641.16 908.454C2641.78 918.193 2660.13 924.891 2682.14 923.485C2704.17 922.053 2721.5 913.004 2720.84 903.316C2720.2 893.552 2701.82 886.803 2679.84 888.26C2657.86 889.717 2640.53 898.741 2641.16 908.454Z" fill="#AB5642"/>
<path d="M2592.04 947.283C2605.81 947.283 2620.59 943.884 2628.54 934.451C2632.12 930.234 2637.15 921.057 2630.71 907.177C2621.1 886.42 2613.87 871.799 2608.45 860.884C2595.92 835.68 2593.67 831.13 2593.55 813.927C2593.52 809.862 2590.2 806.539 2586.11 806.539H2586.06C2581.94 806.59 2578.64 809.939 2578.67 814.054C2578.82 834.657 2582.27 841.61 2595.1 867.453C2600.52 878.343 2607.68 892.811 2617.21 913.388C2620.64 920.776 2618.13 923.715 2617.19 924.814C2611.26 931.869 2591.24 934.554 2576.04 930.387C2572.1 929.262 2567.98 931.639 2566.89 935.627C2565.81 939.615 2568.14 943.705 2572.13 944.753C2577.72 946.286 2584.75 947.258 2592.09 947.258L2592.04 947.283Z" fill="#9D483E"/>
<path d="M2610.21 795.905C2612.84 795.905 2615.45 794.831 2617.37 792.709C2633.65 774.867 2673.42 784.734 2684.23 791.406C2688.76 794.192 2694.74 792.786 2697.53 788.262C2700.31 783.686 2698.91 777.756 2694.38 774.969C2678.53 765.205 2628.1 752.219 2603.1 779.724C2599.53 783.661 2599.81 789.744 2603.74 793.323C2605.58 795.01 2607.94 795.879 2610.24 795.879L2610.21 795.905Z" fill="#3E1600"/>
<path d="M2444.81 807.435C2447.21 807.435 2449.59 806.54 2451.45 804.751C2466.97 790.104 2498.66 784.097 2517.86 798.054C2522.15 801.198 2528.21 800.252 2531.36 795.932C2534.5 791.612 2533.55 785.605 2529.23 782.461C2501.42 762.165 2459.68 770.37 2438.16 790.769C2434.28 794.424 2434.12 800.559 2437.78 804.419C2439.67 806.387 2442.23 807.41 2444.78 807.41L2444.81 807.435Z" fill="#3E1600"/>
<path d="M2251.01 847.437C2255.41 831.256 2251.09 807.892 2251.67 791.175C2253.16 748.307 2256.58 705.491 2262.82 663.084C2269.28 618.938 2278.64 574.384 2287.13 530.8C2290.22 514.952 2293.82 500.918 2308.19 490.847C2324.29 479.549 2348.65 491.281 2361.07 477.222C2365.47 472.238 2361.76 457.846 2367.03 450.612C2374.54 440.234 2382.29 439.774 2393.76 438.087C2412.22 435.352 2424.69 444.171 2442.61 450.127C2466.18 432.949 2448.59 402.096 2490.36 410.812C2512.42 415.439 2534.65 443.148 2552.9 430.751C2573.84 416.513 2566.91 390.516 2604.28 398.364C2631.58 404.09 2643.64 426.737 2658.65 445.935C2685 424.002 2702.66 407.566 2730.04 443.097C2745.22 462.729 2746.52 490.259 2755.45 506.874C2768.38 531.056 2782 546.291 2763.45 574.409C2749.64 595.319 2730.75 596.29 2711.2 604.726C2744.05 696.135 2470.04 703.497 2421.73 679.418C2369.58 653.421 2415.06 754.979 2406.42 767.402C2377.15 817.504 2368.69 853.418 2367.69 910.473C2350.11 910.6 2346.17 918.116 2337.89 898.97C2331.68 884.553 2324.09 826.987 2311.89 816.2C2282.6 790.382 2256.25 828.342 2251.09 847.513L2251.01 847.437Z" fill="#3E1600"/>
<path d="M2579.61 1010.09C2600.11 1010.09 2621.79 1004.8 2633.45 1001.47C2637.41 1000.32 2639.68 996.183 2638.56 992.246C2637.43 988.284 2633.27 986.035 2629.36 987.134C2601.19 995.262 2566.04 999.787 2551.86 988.489C2548.64 985.907 2543.93 986.469 2541.4 989.639C2538.82 992.86 2539.36 997.563 2542.55 1000.12C2551.88 1007.56 2565.45 1010.09 2579.61 1010.09V1010.09Z" fill="#9D483E"/>
</g>
<path d="M1270.05 1158.35C1136.39 1148.76 796.946 1166.02 775.935 1351.55C767.832 1423.2 856.093 1469.11 912.428 1485.9C990.03 1509.03 1073.97 1493.47 1152.26 1482.6C1259.9 1467.73 1368.63 1450.39 1474.35 1424.99C1506.84 1417.19 1568.87 1392.6 1582.96 1359.55C1599.6 1320.46 1562.2 1265.56 1533.5 1240.38C1464.94 1180.28 1357.72 1164.61 1270.02 1158.35H1270.05Z" fill="#2C6496"/>
<path d="M1093.09 1458.04C1095.88 1458.04 1098.53 1456.45 1099.81 1453.77C1101.58 1450.06 1099.99 1445.66 1096.28 1443.88C1073 1432.86 1037.42 1429.07 999.768 1425.06C932.774 1417.93 856.859 1409.88 843.849 1358.4C842.826 1354.38 838.813 1351.93 834.826 1353C830.838 1354 828.435 1358.04 829.432 1362.03C844.999 1423.58 926.409 1432.22 998.208 1439.86C1034.56 1443.72 1068.93 1447.38 1089.92 1457.35C1090.94 1457.83 1092.04 1458.06 1093.11 1458.06L1093.09 1458.04Z" fill="#21263D"/>
<path d="M1044.65 1313.15C1046.06 1313.15 1047.49 1312.72 1048.74 1311.9C1052.17 1309.63 1053.11 1305.02 1050.81 1301.6C1041.51 1287.59 1038.88 1275.37 1042.97 1265.3C1047.98 1252.98 1063.21 1243.52 1085.81 1238.69C1089.82 1237.8 1092.37 1233.89 1091.51 1229.85C1090.66 1225.83 1086.73 1223.33 1082.69 1224.15C1055.11 1230.08 1036.12 1242.7 1029.16 1259.7C1025.02 1269.95 1023.21 1286.95 1038.42 1309.83C1039.85 1311.98 1042.2 1313.15 1044.6 1313.15H1044.65Z" fill="#21263D"/>
<path d="M2368.33 1857.16C2353.96 1812.15 2300.7 1741.62 2263.99 1707.06C2041.38 1497.61 1739.39 1392.01 1639.83 1389.71C1620.56 1381.76 1457.76 1431.86 1569.36 1573.94C1628.43 1643.16 2165.56 1893.39 2217.04 1936.87C2217.04 1936.87 2332.37 1974.8 2368.33 1857.19V1857.16Z" fill="#F6AD94"/>
<path d="M2135.09 2049.36C2454.03 2074.9 2422.13 1803.71 2422.13 1803.71C2180.38 1602.67 2056.59 1494.47 1731.64 1378.08C1640.52 1338.18 1538.84 1360.19 1538.84 1360.19L1376.79 1479.08C1376.79 1479.08 1339.34 1583.52 1499.22 1698.94C1499.22 1698.94 1714.16 1905.45 2135.09 2049.36Z" fill="#2C6496"/>
<path d="M934.896 3414.04C1093.45 3414.04 1232.88 3309.34 1276.56 3155.77C1277.69 3151.83 1275.39 3147.74 1271.45 3146.61C1267.54 3145.44 1263.4 3147.76 1262.27 3151.7C1219.33 3302.7 1079.95 3404.59 922.933 3398.94C918.946 3399.14 915.393 3402 915.24 3406.12C915.086 3410.24 918.307 3413.66 922.422 3413.81C926.588 3413.97 930.755 3414.04 934.921 3414.04H934.896Z" fill="#21263D"/>
<path d="M804.409 3390.55C784.063 3311.16 802.16 3101.98 806.429 3080.59L846.047 2778.42L1779.42 2787.88L1801.91 3165.63L1790.15 3390.55H804.409Z" fill="#003056"/>
<path d="M1329.12 3764.98H792.524L791.578 3229.2C851.006 2827.96 1449.43 3026.11 1449.43 3026.11L1446.75 3210.46L1329.12 3764.96V3764.98Z" fill="#003056"/>
<path d="M1486.93 2908.78C1540.58 2908.78 1610.28 2906.71 1728.17 2899.76C1732.28 2899.53 1735.4 2896 1735.17 2891.91C1734.92 2887.8 1731.39 2884.37 1727.32 2884.93C1529.95 2896.51 1468.24 2894.49 1390.13 2891.91C1368.17 2891.2 1344.84 2890.4 1316.8 2889.89C1302 2889.61 1282.54 2889.89 1259.21 2890.23C1174.81 2891.48 1033.56 2893.5 881.909 2870.13C877.82 2869.55 874.037 2872.31 873.423 2876.37C872.81 2880.44 875.57 2884.22 879.634 2884.83C1032.56 2908.37 1174.6 2906.3 1259.44 2905.08C1282.57 2904.77 1301.87 2904.44 1316.51 2904.74C1344.48 2905.28 1367.76 2906.05 1389.67 2906.82C1421.44 2907.86 1450.5 2908.78 1486.98 2908.78H1486.93Z" fill="#21263D"/>
<path d="M855.94 3226.73C999.105 3226.73 1095.85 3164.41 1169.62 3024.63C1171.54 3021.03 1170.13 3016.5 1166.53 3014.59C1162.87 3012.7 1158.4 3014.05 1156.48 3017.68C1084.66 3153.8 994.785 3211.87 855.94 3211.87C851.85 3211.87 848.502 3215.2 848.502 3219.31C848.502 3223.43 851.825 3226.73 855.94 3226.73V3226.73Z" fill="#21263D"/>
<path d="M1297.88 3764.98L1237.35 3179.66H1801.24L1774 3764.98H1297.88Z" fill="#003056"/>
<path d="M1512.61 3171.33C1485.42 3184.93 1465.74 3194.8 1452.98 3214.53C1439.87 3234.78 1442.6 3260.93 1445.52 3288.61C1447.59 3308.39 1449.74 3328.79 1445.47 3346.97C1419.78 3456.17 1395.5 3555.07 1372.01 3650.72C1362.5 3689.47 1353.19 3727.46 1344.04 3765.01H1328.76C1338.16 3726.28 1347.77 3687.17 1357.59 3647.19C1381.05 3551.57 1405.34 3452.72 1431.03 3343.54C1434.71 3327.85 1432.79 3309.54 1430.77 3290.19C1427.7 3261.16 1424.56 3231.15 1440.53 3206.45C1455.51 3183.35 1477.8 3172.2 1506.02 3158.06C1533.29 3144.41 1567.24 3127.42 1606.35 3093.21C1609.44 3090.48 1614.12 3090.79 1616.82 3093.9C1619.53 3097 1619.2 3101.67 1616.13 3104.41C1575.62 3139.86 1540.71 3157.32 1512.67 3171.33H1512.61Z" fill="#21263D"/>
<path d="M1475.5 1024.51H1216.7V1346.36H1475.5V1024.51Z" fill="#F7B6A0"/>
<path d="M1591.52 1394.59L1475.17 1307.76H1216.52L1076.88 1394.59H1591.52Z" fill="#F7B6A0"/>
<path d="M1807.97 2250.95C1810.96 2410.76 1826.47 2534.43 1829.46 2694.27C1831.23 2788.41 1848.56 3104.72 1819.31 3223.45C1789 3346.58 1747.49 3129.41 1645.99 3104.33C1622.45 3098.5 1599.47 3090.45 1575.85 3085.06C1485.78 3064.46 1421.67 3146.05 1338.34 3170.49C1256.91 3194.41 1173.12 3231.1 1090.43 3244.52C1002.55 3258.83 902.791 3234.6 817.981 3208.88C732.533 3183.01 723.356 3158.37 739.204 3080.53C746.667 3043.85 747.153 3004.21 751.038 2966.94C762.464 2857.2 773.915 2747.44 785.315 2637.7C800.447 2492.53 795.002 2324.69 832.653 2183.33L776.037 1588.92C756.202 1470.03 860.463 1431.45 860.463 1431.45L1196.76 1290.38C1343.17 1400.68 1475.6 1288.84 1475.6 1288.84L1646.53 1364.76C1646.53 1364.76 1735.71 1413.05 1754.26 1565.37L1807.91 2250.97" fill="#2C6496"/>
<path d="M1828.72 3038.36H1828.8C1832.91 3038.33 1836.21 3034.96 1836.16 3030.87C1835.47 2962.13 1835.34 2893.11 1835.24 2829.64C1835.09 2738.9 1834.96 2660.55 1833.25 2608.96C1831.56 2557.51 1830.31 2513.98 1829.21 2475.43C1825.42 2343.07 1823.35 2270.17 1810.45 2140.72C1804.36 2079.7 1800.12 2020.45 1795.65 1957.75C1787.85 1848.73 1779.8 1735.95 1760.94 1596.84C1760.37 1592.77 1756.62 1589.81 1752.58 1590.5C1748.51 1591.04 1745.65 1594.77 1746.21 1598.86C1765.02 1737.51 1773.08 1850.03 1780.85 1958.85C1785.32 2021.65 1789.56 2080.98 1795.67 2142.23C1808.53 2271.19 1810.6 2343.89 1814.36 2475.89C1815.46 2514.46 1816.68 2558.02 1818.4 2609.48C1820.08 2660.83 1820.24 2739.08 1820.39 2829.69C1820.49 2893.21 1820.62 2962.26 1821.31 3031.02C1821.36 3035.13 1824.68 3038.41 1828.75 3038.41L1828.72 3038.36Z" fill="#21263D"/>
<path d="M968.507 2896.03C969.607 2896.03 970.731 2895.82 971.805 2895.29C1133.65 2815.1 1245.33 2683.91 1270.48 2544.47C1271.22 2540.41 1268.54 2536.55 1264.47 2535.83C1260.38 2535.14 1256.57 2537.78 1255.83 2541.81C1227.18 2700.63 1086.9 2821.67 965.185 2881.94C961.504 2883.78 959.996 2888.26 961.811 2891.94C963.114 2894.57 965.747 2896.03 968.482 2896.03H968.507Z" fill="#21263D"/>
<path d="M1174.96 2946.87C1175.8 2946.87 1176.65 2946.74 1177.47 2946.43C1203.08 2938 1194.36 2814.28 1189.07 2795.16C1187.97 2791.2 1183.86 2788.87 1179.92 2789.99C1175.96 2791.09 1173.66 2795.18 1174.73 2799.12C1182.37 2826.6 1182.02 2923.5 1172.05 2932.73C1168.16 2934.04 1166.4 2938.02 1167.7 2941.91C1168.7 2945 1171.79 2946.84 1174.96 2946.84V2946.87Z" fill="#21263D"/>
<path d="M809.981 3137.59C813.662 3137.59 816.857 3134.85 817.342 3131.12C822.889 3089.07 828.282 3051.16 833.343 3015.53C845.229 2932.1 855.479 2860.01 861.383 2776.73C875.723 2574.18 879.429 2440.26 882.113 2342.51C885.001 2237.4 886.944 2167.9 899.034 2086.33C899.622 2082.26 896.836 2078.48 892.746 2077.92C888.682 2077.25 884.924 2080.09 884.311 2084.18C872.067 2166.67 870.15 2236.43 867.237 2342.1C864.553 2439.75 860.872 2573.46 846.558 2775.68C840.679 2858.45 830.455 2930.28 818.62 3013.49C813.534 3049.14 808.141 3087.1 802.594 3129.18C802.057 3133.29 804.92 3137.03 808.984 3137.54C809.316 3137.59 809.649 3137.61 809.955 3137.61L809.981 3137.59Z" fill="#21263D"/>
<path d="M357.126 1256.46C379.491 1198.61 452.492 1193.98 499.932 1211.06C785.955 1313.92 1072.05 1428.16 1135.49 1504.97C1153.69 1515.15 1215.06 1674.06 1034.43 1674.29C944.813 1670.79 488.149 1486.44 362.749 1416.99C362.749 1416.99 300.918 1376.45 357.126 1256.46V1256.46Z" fill="#F7B6A0"/>
<path d="M204.171 1475.93C204.171 1475.93 102.031 1069.42 466.371 1170.34C809.955 1315.53 1204.51 1477.13 1204.51 1477.13C1295.2 1533.01 1293.97 1682.04 1293.97 1682.04C1293.97 1682.04 1181.66 1992.39 922.626 1897.96C922.626 1897.96 402.904 1719.82 204.171 1475.93Z" fill="#2C6496"/>
<path d="M891.672 2092.67C894.1 2092.67 896.452 2091.49 897.883 2089.32C948.876 2012.25 1117.27 1749.78 1143.49 1608.83C1144.18 1604.97 1159.55 1514.33 1098.38 1432.4C1095.93 1429.1 1091.27 1428.41 1088 1430.89C1084.71 1433.35 1084.04 1438.02 1086.49 1441.3C1143.7 1517.91 1129.05 1605.3 1128.9 1606.17C1111.57 1699.4 1020.57 1876.95 885.512 2081.14C883.263 2084.56 884.183 2089.16 887.608 2091.41C888.886 2092.26 890.292 2092.67 891.698 2092.67H891.672Z" fill="#21263D"/>
<path d="M1496.33 2141C1500.45 2141 1503.77 2137.68 1503.77 2133.56V1390.53C1503.77 1386.41 1500.45 1383.09 1496.33 1383.09C1492.22 1383.09 1488.92 1386.41 1488.92 1390.53V2133.56C1488.92 2137.68 1492.24 2141 1496.33 2141Z" fill="#21263D"/>
<path d="M1303.15 2141C1307.26 2141 1310.58 2137.68 1310.58 2133.56V1390.53C1310.58 1386.41 1307.26 1383.09 1303.15 1383.09C1299.03 1383.09 1295.71 1386.41 1295.71 1390.53V2133.56C1295.71 2137.68 1299.03 2141 1303.15 2141Z" fill="#21263D"/>
<path d="M2329.68 1941.26C2282.7 1961.92 2631.88 1831.75 2985.41 1307.5L2934.21 1257.68C2873.89 1301.47 2660.74 1568.8 2240.96 1750.19C2240.96 1750.19 2212.31 1772.07 2329.68 1941.26V1941.26Z" fill="#F7B6A0"/>
<path d="M2170.52 1674.01C2170.52 1674.01 2399.62 1475.6 2807.97 1341.55C2807.97 1341.55 2917.68 1386.77 2926.19 1474.29C2926.19 1474.29 2523.1 1909.23 2322.78 2017.15C2322.78 2017.15 2107.51 2017.15 2170.52 1674.01V1674.01Z" fill="#2C6496"/>
<path d="M2358.74 1546.87C2360.07 1546.87 2361.43 1546.48 2362.66 1545.77C2418.94 1510.9 2481.87 1476.52 2555.08 1440.83C2603.28 1417.32 2656.47 1399.91 2718.05 1379.69C2747.47 1370.05 2777.91 1360.06 2810.45 1348.56C2814.31 1347.18 2816.35 1342.96 2814.97 1339.07C2813.59 1335.21 2809.38 1333.17 2805.52 1334.57C2773.11 1346 2742.79 1355.94 2713.45 1365.58C2651.34 1385.9 2597.71 1403.49 2548.58 1427.49C2474.92 1463.41 2411.55 1497.99 2354.86 1533.11C2351.38 1535.29 2350.28 1539.86 2352.48 1543.34C2353.89 1545.61 2356.32 1546.87 2358.8 1546.87H2358.74Z" fill="#21263D"/>
<path d="M3163.7 1087.03C3202.19 1120.13 3072.83 1184.75 3056.29 1206.33C3084.79 1189.51 3188.16 1117.6 3212.72 1140.53C3226.01 1155.49 3125.28 1206.61 3108.46 1219.93C3127.25 1213.36 3196.95 1175.19 3210.11 1194.93C3216.02 1210.9 3145.86 1243.8 3126.33 1257.4C3132.44 1257.04 3197.46 1226.29 3198.13 1241.53C3199.84 1256.3 3158.05 1284.45 3136.25 1296.92C3037.81 1352.93 2930.58 1417.83 2911.36 1342.45C2896.97 1286.18 2890.61 1254.77 2978.05 1112.13C2993.11 1087.49 3016.44 1134.68 2996.71 1190.02C3011.1 1192.65 3159.12 1083.07 3163.7 1087.03V1087.03Z" fill="#F7B6A0"/>
<path d="M2984.13 1223.84C2983.98 1222.41 2983.83 1221.03 2983.67 1219.62C2983.37 1216.71 2992.34 1216.4 2992.7 1219.62C2992.85 1221.03 2992.88 1222.41 2992.88 1223.84C2991.62 1223.05 2990.37 1222.23 2989.09 1221.38C2994.36 1221.9 2997.32 1222.89 2997.45 1228.54C2997.5 1232.76 2995.82 1236.98 2998.5 1240.74C3001.16 1244.47 3000.77 1248.76 3000.29 1253.18C2998.17 1272.02 2974.83 1288.72 2958.98 1295.67C2956.32 1296.84 2942.83 1294.88 2948.04 1291.53C2961.21 1283.12 2973.96 1275.78 2982.73 1262.34C2986.97 1255.87 2989.02 1247.33 2984.72 1240.53C2983.57 1238.72 2985.39 1226.09 2986.38 1226.29C2985.46 1226.11 2982.27 1225.47 2982.6 1223.86C2982.93 1222.25 2983.32 1220.62 2983.85 1219.06C2984.72 1216.32 2993.64 1216.86 2992.54 1220.21C2992.11 1221.61 2991.68 1222.97 2991.22 1224.32C2990.55 1226.37 2984.39 1226.14 2984.16 1223.86L2984.13 1223.84Z" fill="#21263D"/>
<path d="M3531.62 1313.33C3478.63 1250.09 3423.37 1266.98 3372.96 1267.26C3067.31 1269.03 2775.79 1400.83 2702.08 1467.77C2682.62 1475.31 2599.27 1623.83 2778.04 1649.8C2868.53 1659.18 3430.12 1470.1 3497.36 1466.11C3497.36 1466.11 3586.65 1423.27 3531.64 1313.33H3531.62Z" fill="#BB6A57"/>
<path d="M3375.72 1511.9C3707.17 1440.25 3826 1463.28 4136.71 1701.9L4194.58 1647.45C4097.35 1515.02 3895.65 1236.62 3461.04 1265.02C3461.04 1265.02 3306.61 1396.77 3375.72 1511.9V1511.9Z" fill="#BB6A57"/>
<path d="M3505.34 1527L2948.96 1707.44C2661.97 1772.45 2588.82 1575.52 2588.82 1575.52C2551.6 1403.82 2677.41 1302.06 2677.41 1302.06C2677.41 1302.06 2879.67 1239.25 3289.1 1179.41C3289.1 1179.41 3461.63 1402.31 3505.34 1527V1527Z" fill="#88284D"/>
<path d="M4132.08 1694.28C4132.08 1694.28 4103.84 1626.34 4160.94 1605.66L4302.68 1703.56L4408.93 1879.19C4408.93 1879.19 4425.88 1917.9 4397.45 1920.43C4397.45 1920.43 4279.36 1860.13 4204.63 1784.62L4192.54 1831.27C4192.54 1831.27 4171.09 1870.4 4152.64 1776.59L4132.11 1694.31L4132.08 1694.28Z" fill="#BB6A57"/>
<path d="M2776 1820.07C2631.42 1765.6 2780.44 1706.78 2797.85 1682.52C2815.28 1658.34 3539.54 1466.91 3539.54 1466.91L3640.58 1708.42C3640.58 1708.42 3086.02 1936.91 2775.97 1820.07H2776Z" fill="#EE9983"/>
<path d="M2878.57 1668.08C2517.78 1563.58 2446.9 1520.72 2241.22 1452.52C2241.22 1452.52 2177.7 1484.16 2217.29 1527.77C2247.61 1561.18 2573.89 1817.08 2839.9 1842.11C2896.16 1847.42 2878.57 1668.11 2878.57 1668.11V1668.08Z" fill="#EE9983"/>
<path d="M3674.93 1809.69C3674.93 1809.69 3900.76 1736.23 3838.8 1582.39C3838.8 1582.39 3761.66 1311.41 3542.63 1308.47L2898.69 1627.61C2898.69 1627.61 2996.99 1843.43 3153.73 1992.49C3153.73 1992.49 3525.71 1875.46 3674.96 1809.69H3674.93Z" fill="#305891"/>
<path d="M2255.84 1458.93L2202.72 1371.07L2130.87 1295.21C2105.54 1319.57 2146.29 1359.62 2146.29 1359.62C2075.97 1324.91 2018.23 1274.53 2018.23 1274.53C1993.51 1260.03 1990.01 1285.57 1990.01 1285.57C2012.76 1319.92 2090.05 1374.4 2090.05 1374.4C2042.31 1349.86 1968.97 1297.97 1968.97 1297.97C1946.53 1289.71 1948.06 1314.4 1948.06 1314.4C1965.93 1368.31 2065.72 1406.55 2065.72 1406.55C2027.61 1393.31 1953.89 1345 1953.89 1345C1936.79 1347.1 1940.52 1356.02 1940.52 1356.02C1948.14 1400.93 2044.25 1437.51 2044.25 1437.51L2008.62 1422.84C1961.59 1398.5 1967.77 1432.27 1967.77 1432.27L1990.37 1448.88C2060.15 1498.24 2131.44 1503.38 2131.44 1503.38L2221.36 1522.63L2255.81 1458.98L2255.84 1458.93Z" fill="#EE9983"/>
<path d="M3412.25 3764.98L3466.36 3156.81L3466.23 2828.13H4029.05V3053.41L3888.36 3764.98H3412.25Z" fill="#007AC3"/>
<path d="M5125.01 1034.01C5120.94 1081.15 5084.67 1161.67 5056.53 1203.51C4885.89 1457.14 4614.82 1627.03 4518.2 1651.34C4501.18 1663.4 4331.35 1650.62 4408.67 1487.38C4450.95 1406.78 4919.22 1043.73 4959.84 989.919C4959.84 989.919 5063.87 927.369 5125.01 1034.04V1034.01Z" fill="#F7B6A0"/>
<path d="M3789.47 3764.98L3691.98 2828.13H4384.49L4342.45 3764.98H3789.47Z" fill="#007AC3"/>
<path d="M3654.13 1307.94L3770.45 1221.08H4029.13L4168.74 1307.94H3654.13Z" fill="#F7B6A0"/>
<g filter="url(#filter2_d_573_84)">
<path d="M3422.14 2179.83C3419.15 2339.67 3416.16 2499.49 3413.19 2659.32C3411.41 2753.47 3407.93 2847.74 3407.9 2941.89C3407.88 3061.06 3482.59 3058.25 3584.09 3033.17C3607.61 3027.37 3630.61 3019.29 3654.23 3013.87C3744.31 2993.24 3808.41 3074.83 3891.74 3099.32C3973.2 3123.25 4056.96 3159.93 4139.68 3173.38C4227.55 3187.61 4327.32 3163.43 4412.1 3137.72C4497.57 3111.8 4506.72 3087.18 4490.9 3009.37C4483.41 2972.69 4482.93 2932.99 4479.07 2895.8C4467.62 2786.04 4456.19 2676.3 4444.79 2566.51C4429.66 2421.37 4437.23 2168.51 4454.58 2044.71L4533.82 1665.76C4533.82 1665.76 4584.07 1539.3 4580.01 1514.58C4563.49 1414.17 4369.67 1360.26 4369.67 1360.26L4033.37 1219.19C3831.77 1378.75 3770.27 1217.68 3770.27 1217.68L3465.47 1347.05C3465.47 1347.05 3392.72 1383.99 3366.29 1479.87L3422.19 2179.81L3422.14 2179.83Z" fill="#305891"/>
</g>
<path d="M4690.07 1081.36L4259.48 1488.33C4209.33 1527.8 4191.74 1597.32 4191.74 1597.32C4270.67 1856.78 4488.47 1853.33 4488.47 1853.33C4568.79 1814.96 4878.27 1528.87 4986.29 1418.06C4834.1 1238.95 4770.28 1163.72 4690.07 1081.36V1081.36Z" fill="#305891"/>
<path d="M3411.56 2832.99C3411.74 2832.99 3411.97 2832.99 3412.17 2832.94C3416.26 2832.61 3419.28 2829 3418.95 2824.94C3412.04 2742.2 3415.09 2679.65 3417.28 2633.97C3418.26 2613.87 3419.1 2596.52 3418.95 2581.44C3418.2 2505.42 3419.69 2446.29 3421.22 2383.66C3423.16 2304.47 3425.21 2222.6 3423.01 2097.98C3421.09 1987.91 3413.65 1915.29 3403.35 1814.81C3397.94 1762.2 3391.83 1702.56 3385.38 1626.39C3385.03 1622.27 3381.35 1619.41 3377.36 1619.59C3373.27 1619.95 3370.23 1623.55 3370.59 1627.59C3377.05 1703.92 3383.16 1763.63 3388.55 1816.32C3398.83 1916.44 3406.27 1988.78 3408.16 2098.21C3410.33 2222.57 3408.31 2304.24 3406.34 2383.28C3404.79 2446.06 3403.33 2505.34 3404.07 2581.56C3404.2 2596.21 3403.38 2613.36 3402.41 2633.23C3400.16 2679.34 3397.09 2742.48 3404.1 2826.17C3404.4 2830.05 3407.65 2832.99 3411.51 2832.99H3411.56Z" fill="#21263D"/>
<path d="M4268.45 2649.69C4271.18 2649.69 4273.82 2648.18 4275.12 2645.55C4276.94 2641.89 4275.43 2637.42 4271.75 2635.6C4093 2547.03 3886.98 2369.22 3844.81 2135.64C3844.09 2131.62 3840.26 2128.96 3836.17 2129.63C3832.13 2130.37 3829.47 2134.26 3830.19 2138.27C3866.82 2341.23 4029.43 2532.13 4265.15 2648.87C4266.2 2649.41 4267.35 2649.64 4268.45 2649.64V2649.69Z" fill="#21263D"/>
<path d="M3966.3 2723.99C3969.44 2723.99 3972.33 2722 3973.35 2718.86C3974.66 2715 3972.53 2710.75 3968.62 2709.5C3953.24 2700.83 3952.04 2551.94 3963.54 2510.47C3964.64 2506.54 3962.34 2502.42 3958.37 2501.32C3954.41 2500.2 3950.32 2502.58 3949.22 2506.49C3941.96 2532.69 3930.05 2712.36 3963.95 2723.58C3964.74 2723.84 3965.51 2723.97 3966.27 2723.97L3966.3 2723.99Z" fill="#21263D"/>
<path d="M3874.66 1297C3935.42 1297 4001.06 1267.55 4024.76 1226.8C4026.8 1223.25 4025.6 1218.7 4022.05 1216.63C4018.49 1214.53 4013.94 1215.76 4011.87 1219.34C3987.82 1260.78 3910.81 1289.74 3850.28 1280.28C3821.45 1275.75 3785.1 1261.01 3775.41 1216.48C3774.54 1212.49 3770.58 1209.96 3766.57 1210.83C3762.56 1211.67 3760.03 1215.66 3760.89 1219.67C3769.84 1260.8 3800.74 1287.54 3847.95 1294.98C3856.64 1296.33 3865.59 1297 3874.64 1297H3874.66Z" fill="#21263D"/>
<path d="M3859.89 1332.96C3866.61 1332.96 3873.46 1332.6 3880.39 1331.97C3946.9 1325.29 3994.54 1306.79 4026.08 1275.35C4028.97 1272.46 4029 1267.75 4026.08 1264.81C4023.2 1261.93 4018.47 1261.93 4015.58 1264.81C3986.57 1293.75 3941.86 1310.83 3878.91 1317.14C3849.36 1320.08 3821.52 1316.24 3798.44 1306.05C3779.07 1297.46 3769.41 1282.73 3758.21 1265.68C3753.89 1259.14 3749.47 1252.39 3744.36 1245.74C3741.85 1242.45 3737.2 1241.88 3733.95 1244.39C3730.71 1246.89 3730.09 1251.55 3732.6 1254.82C3737.48 1261.13 3741.67 1267.55 3745.79 1273.79C3757.72 1292.01 3769.02 1309.24 3792.44 1319.62C3812.37 1328.44 3835.4 1332.94 3859.89 1332.94V1332.96Z" fill="#21263D"/>
<path d="M4506.21 1473.22C4508.62 1473.22 4510.99 1472.07 4512.4 1469.9C4514.67 1466.5 4513.75 1461.84 4510.33 1459.6C4480.27 1439.63 4439.04 1425.42 4399.17 1411.67C4381.58 1405.63 4364.94 1399.91 4349.76 1393.88C4290.71 1370.33 4213.6 1337.92 4140.9 1295.9C4137.35 1293.8 4132.8 1295.03 4130.75 1298.58C4128.71 1302.13 4129.91 1306.68 4133.46 1308.73C4206.98 1351.24 4284.73 1383.93 4344.26 1407.65C4359.73 1413.84 4376.54 1419.59 4394.31 1425.73C4433.31 1439.15 4473.65 1453.03 4502.1 1471.97C4503.35 1472.79 4504.78 1473.22 4506.21 1473.22V1473.22Z" fill="#21263D"/>
<path d="M4488.47 1860.77C4489.96 1860.77 4491.46 1860.28 4492.77 1859.39C4553.47 1816.26 4608.3 1770.74 4661.34 1726.7C4683.71 1708.11 4705.66 1689.91 4727.41 1672.38C4787.58 1623.89 4833.21 1579.05 4890.98 1522.28C4911.99 1501.62 4934.45 1479.51 4959.55 1455.41C4962.52 1452.57 4962.6 1447.87 4959.76 1444.87C4956.92 1441.96 4952.22 1441.83 4949.25 1444.7C4924.1 1468.88 4901.61 1491.04 4880.55 1511.72C4823.06 1568.19 4777.69 1612.84 4718.11 1660.82C4696.28 1678.36 4674.27 1696.66 4651.83 1715.29C4599 1759.13 4544.4 1804.51 4484.15 1847.3C4480.81 1849.65 4480.01 1854.3 4482.39 1857.62C4483.82 1859.67 4486.12 1860.77 4488.45 1860.77H4488.47Z" fill="#21263D"/>
<path d="M4406.58 3041.14C4406.71 3041.14 4406.81 3041.14 4406.94 3041.14C4411.03 3040.96 4414.2 3037.49 4413.99 3033.4C4407.37 2890.94 4403.59 2794.39 4399.98 2677.11C4395.49 2530.26 4396.15 2317.97 4396.76 2130.7C4397.2 1995.07 4397.58 1877.89 4396.02 1803.48C4395.92 1799.42 4392.67 1796.4 4388.46 1796.2C4384.34 1796.27 4381.07 1799.7 4381.17 1803.81C4382.73 1878.04 4382.32 2000.74 4381.91 2130.62C4381.32 2318.02 4380.63 2530.46 4385.13 2677.57C4388.74 2794.9 4392.55 2891.53 4399.17 3034.09C4399.34 3038.05 4402.64 3041.17 4406.58 3041.17V3041.14Z" fill="#21263D"/>
<path d="M3769.41 3764.98C3752.05 3633 3738.71 3495.05 3725.06 3352.23C3717.82 3276.49 3710.39 3198.71 3702.08 3118.7C3701.67 3114.58 3704.64 3110.98 3708.7 3110.54C3712.82 3110.08 3716.44 3113.07 3716.85 3117.16C3725.19 3197.22 3732.62 3275.09 3739.86 3350.83C3753.56 3494.18 3766.93 3632.67 3784.38 3764.98H3769.41V3764.98Z" fill="#21263D"/>
<path d="M4200.71 3354.74C4225.25 3354.74 4250.63 3349.96 4276.5 3340.37C4280.34 3338.94 4282.3 3334.67 4280.87 3330.83C4279.44 3326.95 4275.15 3325.01 4271.31 3326.44C4213.7 3347.83 4158.54 3343.54 4111.81 3313.96C4057.75 3279.76 4020.21 3212.94 4013.84 3139.58C4013.48 3135.46 4009.96 3132.58 4005.81 3132.81C4001.73 3133.16 3998.68 3136.77 3999.04 3140.83C4005.92 3219.92 4045.1 3289.32 4103.87 3326.54C4133.54 3345.3 4166.26 3354.76 4200.74 3354.76L4200.71 3354.74Z" fill="#21263D"/>
<path d="M3502.35 3288.84C3527.19 3288.84 3559.35 3253.1 3579.67 3221.97C3607.53 3179.2 3630.59 3120.72 3611.8 3084.73C3609.91 3081.12 3605.41 3079.72 3601.75 3081.58C3598.13 3083.5 3596.72 3088 3598.64 3091.63C3613.46 3120 3593.55 3173.43 3567.25 3213.81C3540.79 3254.41 3514.59 3274.45 3501.69 3273.96C3497.6 3273.58 3494.04 3276.8 3493.76 3280.89C3493.48 3285.01 3496.6 3288.53 3500.69 3288.81C3501.23 3288.84 3501.79 3288.86 3502.35 3288.86V3288.84Z" fill="#21263D"/>
<path d="M3788.47 3125.37C3792.59 3125.37 3795.91 3122.04 3795.91 3117.93C3795.91 3113.81 3792.59 3110.49 3788.47 3110.49C3769.71 3110.49 3755.91 3109.88 3743.74 3109.31C3731.65 3108.78 3721.58 3108.34 3710.87 3108.7C3715.32 3014.12 3714.4 3014.05 3705.79 3013.38C3698.19 3012.61 3697.27 3019.72 3696.15 3030.3C3695.89 3032.65 3696.79 3034.9 3698.37 3036.44C3698.25 3050.83 3697.48 3076.75 3695.64 3116.24C3695.54 3118.39 3696.33 3120.46 3697.86 3121.94C3699.4 3123.45 3701.49 3124.14 3703.61 3124.01C3716.8 3122.97 3728.38 3123.53 3743.03 3124.19C3755.35 3124.73 3769.33 3125.37 3788.42 3125.37H3788.47Z" fill="#21263D"/>
<path d="M2466.71 3764.98L2299.68 3140.27H2910.88L2891.12 3764.98H2466.71Z" fill="#002B49"/>
<path d="M1972.27 2668.98H2867.58L2911.77 3112.66L2899.12 3354.53L2003.48 3350.93C1979.94 3277.77 1986.18 2986.34 1990.6 2964.28L1972.27 2668.98Z" fill="#002B49"/>
<path d="M2480.21 3764.98H2010.43L1987.43 3188.07C2046.86 2786.82 2559.27 2973.09 2559.27 2973.09L2556.58 3157.47L2480.21 3764.95V3764.98Z" fill="#002B49"/>
<path d="M2622.45 3118.34C2595.23 3131.94 2575.58 3141.78 2562.8 3161.51C2548.76 3183.22 2551.6 3212.41 2554.33 3240.65C2556.05 3258.39 2557.84 3276.77 2555.43 3293.31C2535.55 3429.84 2518.63 3566.47 2500.68 3711.17C2498.46 3729.02 2496.24 3747.01 2494.01 3764.98H2479.03C2481.33 3746.4 2483.63 3727.81 2485.93 3709.38C2503.88 3564.6 2520.82 3427.87 2540.74 3291.19C2542.88 3276.44 2541.27 3259.75 2539.56 3242.11C2536.57 3211.36 2533.48 3179.51 2550.35 3153.44C2565.33 3130.33 2587.61 3119.18 2615.83 3105.05C2643.11 3091.4 2677.05 3074.42 2716.18 3040.22C2719.25 3037.46 2723.95 3037.79 2726.66 3040.89C2729.37 3044.01 2729.04 3048.68 2725.95 3051.37C2685.41 3086.85 2650.52 3104.31 2622.48 3118.31L2622.45 3118.34Z" fill="#003E64"/>
<path d="M2596.77 2855.82C2650.44 2855.82 2720.1 2853.75 2838.01 2846.79C2842.12 2846.56 2845.24 2843.04 2844.98 2838.95C2844.75 2834.86 2841.12 2831.33 2837.14 2831.97C2639.78 2843.57 2578.06 2841.53 2499.94 2838.95C2477.96 2838.23 2454.62 2837.46 2426.56 2836.9C2411.73 2836.62 2392.28 2836.93 2369 2837.23C2284.59 2838.46 2143.37 2840.53 1991.67 2817.17C1987.61 2816.53 1983.82 2819.34 1983.19 2823.38C1982.57 2827.44 1985.36 2831.23 1989.4 2831.84C2142.33 2855.38 2284.34 2853.31 2369.17 2852.09C2392.31 2851.75 2411.61 2851.47 2426.28 2851.75C2454.24 2852.29 2477.53 2853.06 2499.43 2853.82C2531.23 2854.85 2560.29 2855.82 2596.74 2855.82H2596.77Z" fill="#003E64"/>
<path d="M2044.73 3361.05C2203.31 3361.05 2342.74 3256.35 2386.4 3102.8C2387.53 3098.86 2385.23 3094.75 2381.29 3093.62C2377.38 3092.47 2373.21 3094.77 2372.11 3098.76C2329.17 3249.73 2189.89 3351.49 2032.77 3345.97C2028.84 3346.25 2025.23 3349.06 2025.08 3353.13C2024.93 3357.24 2028.15 3360.67 2032.24 3360.85C2036.4 3360.97 2040.57 3361.05 2044.71 3361.05H2044.73Z" fill="#003E64"/>
<path d="M2329.22 980.282L2588.02 978.441L2590.22 1300.29L2331.45 1302.08L2329.22 980.282Z" fill="#BB6A57"/>
<path d="M2701.36 1341.57L2585.03 1254.77H2326.39L2186.7 1341.57H2701.36Z" fill="#BB6A57"/>
<path d="M2933.35 2213.5C2936.34 2373.31 2939.33 2533.15 2942.29 2692.99C2944.06 2787.08 2947.56 2881.4 2947.58 2975.55C2947.58 3094.72 2872.9 3091.91 2771.4 3066.83C2747.85 3061 2724.85 3052.98 2701.23 3047.56C2611.18 3026.95 2574.81 3025.57 2491.48 3050.04C2410.05 3073.96 2299.29 3055.15 2216.58 3068.59C2128.7 3082.88 1980.83 3086.8 1926.8 3016.58C1852.49 2919.98 1869.39 2925.63 1885.26 2847.79C1892.73 2811.11 1893.21 2771.46 1897.1 2734.22C1908.52 2624.48 1899.3 2709.93 1910.72 2600.2C1925.85 2455.03 1920.41 2287.19 1958.06 2145.83L1901.44 1551.39C1881.63 1432.5 1985.87 1393.93 1985.87 1393.93L2322.19 1252.85C2468.58 1363.18 2585.29 1251.32 2585.29 1251.32L2771.98 1327.24C2771.98 1327.24 2861.14 1375.52 2879.72 1527.85L2933.37 2213.44" fill="#88284D"/>
<path d="M2943.95 2866.61H2944.03C2948.15 2866.55 2951.44 2863.21 2951.39 2859.14C2950.04 2722.54 2950.6 2678.98 2951.11 2640.54L2951.39 2615.23C2953.13 2439.34 2953.28 2267.59 2936.62 2100.54C2930.54 2039.52 2926.32 1980.35 2921.82 1917.64C2914 1808.6 2905.95 1695.79 2887.08 1556.66C2886.55 1552.57 2882.81 1549.65 2878.72 1550.29C2874.66 1550.83 2871.8 1554.59 2872.36 1558.65C2891.17 1697.32 2899.22 1809.87 2907.02 1918.69C2911.52 1981.47 2915.76 2040.77 2921.84 2102C2938.43 2268.3 2938.28 2439.59 2936.54 2615.02L2936.26 2640.31C2935.78 2678.83 2935.19 2722.46 2936.54 2859.22C2936.59 2863.28 2939.92 2866.58 2943.98 2866.58L2943.95 2866.61Z" fill="#21263D"/>
<path d="M2078.37 2843.06C2079.47 2843.06 2080.6 2842.8 2081.67 2842.32C2243.49 2762.13 2355.17 2630.97 2380.37 2491.48C2381.09 2487.44 2378.4 2483.58 2374.36 2482.87C2370.3 2482.23 2366.46 2484.83 2365.72 2488.87C2337.02 2647.69 2196.77 2768.7 2075.05 2829C2071.37 2830.87 2069.86 2835.31 2071.7 2839C2072.98 2841.63 2075.64 2843.11 2078.37 2843.11V2843.06Z" fill="#21263D"/>
<path d="M2257.07 2924.12C2259.47 2924.12 2261.82 2922.97 2263.25 2920.82C2322.71 2831.63 2341.26 2714.53 2333.57 2686.82C2332.47 2682.86 2328.33 2680.56 2324.42 2681.66C2320.46 2682.79 2318.16 2686.85 2319.25 2690.81C2325.08 2711.75 2310.13 2823.76 2250.91 2912.56C2248.61 2915.99 2249.55 2920.61 2252.95 2922.89C2254.23 2923.73 2255.66 2924.14 2257.07 2924.14V2924.12Z" fill="#21263D"/>
<path d="M1939.71 2999.71C1943.36 2999.71 1946.56 2996.97 1947.07 2993.24C1955.94 2925.83 1957.09 2887.72 1958.08 2854.11C1959.21 2817.17 1960.16 2785.27 1971.12 2724.51C1995.84 2587.7 2022.65 2315.57 2042.2 2116.85C2047.93 2058.95 2052.99 2007.31 2057.23 1967.08C2057.67 1963.02 2054.73 1959.33 2050.64 1958.93C2046.6 1958.49 2042.89 1961.46 2042.46 1965.55C2038.22 2005.78 2033.1 2057.47 2027.4 2115.39C2007.85 2313.88 1981.09 2585.68 1956.47 2721.92C1945.36 2783.73 1944.36 2816.15 1943.21 2853.7C1942.21 2886.95 1941.06 2924.68 1932.29 2991.32C1931.76 2995.44 1934.62 2999.14 1938.68 2999.68C1939.02 2999.73 1939.35 2999.76 1939.68 2999.76L1939.71 2999.71Z" fill="#21263D"/>
<path d="M1560.59 2308.46C1503.62 2283.97 1511.24 2213.65 1520.54 2164.06C1576.95 1863.65 1758.69 1600.37 1837.82 1539.84C1848.69 1522.02 2009.69 1466.57 2003.3 1647.09C1996.43 1736.53 1795.29 2186.07 1721.22 2308.82C1721.22 2308.82 1678.45 2369.12 1560.62 2308.43L1560.59 2308.46Z" fill="#BB6A57"/>
<path d="M1586.41 1850.92C1697.09 1638.22 1832.61 1487.25 1832.61 1487.25C1899.7 1404.53 2106.31 1360.88 2106.31 1360.88C2106.31 1360.88 2209.63 1574.27 2082.59 1818.92L1907.86 2110.66C1796.52 2030.19 1684.69 1947.06 1586.41 1850.92V1850.92Z" fill="#88284D"/>
<path d="M2204.79 1934.08C2208.73 1934.08 2212.03 1930.98 2212.21 1927.05C2217.86 1814.6 2218.75 1761.74 2213.46 1650.18C2213.26 1646.25 2207.43 1554.51 2129.08 1488.79C2125.94 1486.15 2121.24 1486.56 2118.63 1489.71C2116 1492.85 2116.41 1497.55 2119.55 1500.16C2192.81 1561.61 2198.58 1650.06 2198.63 1650.93C2203.87 1761.81 2202.98 1814.42 2197.38 1926.3C2197.18 1930.39 2200.35 1933.9 2204.44 1934.08C2204.56 1934.08 2204.69 1934.08 2204.82 1934.08H2204.79Z" fill="#21263D"/>
<path d="M1555.81 2168.38C1703.09 2095.91 1782.97 2192.02 1782.97 2192.02C1804.03 2534.45 2155.85 3081.68 2190.81 3144.82L2136.96 3188.1C1895.33 3022.89 1569.13 2549.1 1520 2280.06C1520 2280.06 1508.99 2192.35 1555.79 2168.38H1555.81Z" fill="#BB6A57"/>
<path d="M2134.89 3198.55C2134.89 3198.55 2160.6 3144.16 2216.27 3142.8L2277.64 3154.58C2349.85 3167.75 2359.79 3172.84 2359.79 3172.84C2385.07 3182.93 2394.33 3222.35 2394.33 3222.35L2402.66 3262.76C2408.74 3295.2 2402.38 3293.69 2402.38 3293.69C2388.4 3309.95 2380.86 3300.62 2380.86 3300.62C2385.18 3312.84 2375.56 3316.67 2375.56 3316.67C2363.07 3327.1 2352.28 3320.74 2352.28 3320.74C2353.99 3328.56 2343.79 3334.64 2343.79 3334.64C2319.61 3347.14 2312.94 3329.35 2312.94 3329.35C2321.94 3347.71 2298.93 3350.54 2298.93 3350.54C2279.74 3353.18 2275.83 3340.29 2275.83 3340.29L2243.75 3294.59C2225.01 3289.81 2189.77 3275.44 2189.77 3275.44C2140.87 3255.71 2134.89 3198.5 2134.89 3198.5" fill="#BB6A57"/>
<path d="M2297.35 3234.8C2280.12 3254.17 2260.59 3271.58 2239.76 3288.73C2219.75 3305.2 2188.21 3311.82 2171.77 3324.78C2132.08 3356.14 2167.96 3450 2178.57 3492.16C2184.83 3517.13 2181.15 3554.63 2206.23 3569.43C2228.29 3582.41 2264.79 3565.72 2287.15 3559.84C2389.55 3532.88 2498.54 3450.34 2513.67 3339.73C2522.13 3277.97 2512.52 3237.89 2487.7 3184.01C2475.15 3156.65 2424.36 3063.46 2382.06 3093.95C2373.49 3100.11 2363.17 3151.54 2354.63 3164.76C2338.32 3190.11 2317.31 3212.38 2297.32 3234.82L2297.35 3234.8Z" fill="#002B49"/>
<path d="M4729.07 2546C4700.35 2546.24 4677.26 2569.71 4677.5 2598.43L4681.38 3066.41C4681.62 3095.13 4705.09 3118.22 4733.81 3117.98C4762.52 3117.74 4785.61 3094.27 4785.37 3065.55L4781.93 2649.57L5197.91 2646.12C5226.63 2645.88 5249.72 2622.41 5249.48 2593.69C5249.24 2564.98 5225.77 2541.89 5197.05 2542.13L4729.07 2546ZM7477.14 2342.74C7454.43 2656.36 7332.4 2879.31 7151.56 3026.52C6969.62 3174.63 6723.21 3249.99 6446.19 3257.64C5891.09 3272.98 5228.28 3015.65 4765.96 2560.93L4693.04 2635.07C5174.22 3108.35 5863.91 3377.77 6449.06 3361.61C6742.16 3353.51 7012.82 3273.56 7217.22 3107.17C7422.73 2939.88 7556.32 2689.14 7580.86 2350.26L7477.14 2342.74Z" fill="#A9A9A9"/>
<path d="M8778.84 2813.34C8857.63 2813.34 8921.51 2749.47 8921.51 2670.68C8921.51 2591.9 8857.63 2528.03 8778.84 2528.03C8700.04 2528.03 8636.17 2591.9 8636.17 2670.68C8636.17 2749.47 8700.04 2813.34 8778.84 2813.34Z" fill="#35C5C7"/>
<path d="M7782.44 523.746C7878.63 610.266 7968.01 709.068 8085.19 763.934C8202.54 818.901 8336.35 824.349 8461.27 858.879C8651.9 911.579 8822 1035.34 8930.81 1200.47C9053.96 1387.4 9080.39 1671.09 8906.11 1811.58C8780.21 1913.07 8593.95 1906.1 8462.42 2000.16C8298.68 2117.25 8271.32 2346.41 8166.71 2518.37C8050.4 2709.54 7824.57 2828.49 7601.1 2816.28C7377.64 2804.06 7166.13 2661.21 7071.36 2458.49C7007.89 2322.74 6993.81 2165.15 6912.38 2039.35C6818.47 1894.29 6647.73 1811.71 6556.97 1664.67C6454.88 1499.28 6482.15 1284.61 6576.07 1122.19C6691.15 923.202 6902.19 880.077 7047.58 722.856C7134.82 628.521 7154.65 476.342 7263.3 402.341C7435.88 284.777 7650.04 404.693 7782.44 523.763V523.746Z" fill="#78D8DA"/>
<path d="M8755.27 2306.47C8842.49 2151.83 8860.38 1968.2 8862.96 1790.71C8866.65 1536.92 8842.76 1282.73 8791.88 1034.07C8757.76 867.269 8703.22 690.356 8566.56 588.796C8378.54 449.069 8111.46 505.068 7896.8 598.862C7459.96 789.7 7082.69 1114.43 6828.98 1517.98C6690 1739.03 6588.85 2027.82 6718.78 2254.32C6803.02 2401.19 6965.45 2484.33 7125.45 2539.73C7557.98 2689.49 8476.63 2800.51 8755.29 2306.5L8755.27 2306.47Z" fill="#35C5C7"/>
<path d="M7082.57 1660V1424H6989.77V1380H7227.37V1424H7134.57V1660H7082.57ZM7340.12 1662.8C7316.39 1662.8 7295.59 1658.13 7277.72 1648.8C7260.12 1639.2 7246.39 1626.13 7236.52 1609.6C7226.92 1593.07 7222.12 1574.27 7222.12 1553.2C7222.12 1531.87 7226.79 1513.07 7236.12 1496.8C7245.72 1480.27 7258.79 1467.33 7275.32 1458C7292.12 1448.67 7311.19 1444 7332.52 1444C7353.32 1444 7371.86 1448.53 7388.12 1457.6C7404.39 1466.67 7417.19 1479.47 7426.52 1496C7435.86 1512.53 7440.52 1532 7440.52 1554.4C7440.52 1556.53 7440.39 1558.93 7440.12 1561.6C7440.12 1564.27 7439.99 1566.8 7439.72 1569.2H7261.72V1536H7413.32L7393.72 1546.4C7393.99 1534.13 7391.46 1523.33 7386.12 1514C7380.79 1504.67 7373.46 1497.33 7364.12 1492C7355.06 1486.67 7344.52 1484 7332.52 1484C7320.26 1484 7309.46 1486.67 7300.12 1492C7291.06 1497.33 7283.86 1504.8 7278.52 1514.4C7273.46 1523.73 7270.92 1534.8 7270.92 1547.6V1555.6C7270.92 1568.4 7273.86 1579.73 7279.72 1589.6C7285.59 1599.47 7293.86 1607.07 7304.52 1612.4C7315.19 1617.73 7327.46 1620.4 7341.32 1620.4C7353.32 1620.4 7364.12 1618.53 7373.72 1614.8C7383.32 1611.07 7391.86 1605.2 7399.32 1597.2L7426.12 1628C7416.52 1639.2 7404.39 1647.87 7389.72 1654C7375.32 1659.87 7358.79 1662.8 7340.12 1662.8ZM7488.55 1660V1363.2H7538.55V1660H7488.55ZM7604.18 1660V1446.4H7654.18V1660H7604.18ZM7629.38 1411.2C7620.04 1411.2 7612.31 1408.27 7606.18 1402.4C7600.31 1396.53 7597.38 1389.47 7597.38 1381.2C7597.38 1372.67 7600.31 1365.6 7606.18 1360C7612.31 1354.13 7620.04 1351.2 7629.38 1351.2C7638.71 1351.2 7646.31 1354 7652.18 1359.6C7658.31 1364.93 7661.38 1371.73 7661.38 1380C7661.38 1388.8 7658.44 1396.27 7652.58 1402.4C7646.71 1408.27 7638.98 1411.2 7629.38 1411.2ZM7817.8 1662.8C7795.4 1662.8 7775.4 1658.13 7757.8 1648.8C7740.47 1639.2 7726.87 1626.13 7717 1609.6C7707.13 1593.07 7702.2 1574.27 7702.2 1553.2C7702.2 1531.87 7707.13 1513.07 7717 1496.8C7726.87 1480.27 7740.47 1467.33 7757.8 1458C7775.4 1448.67 7795.4 1444 7817.8 1444C7838.6 1444 7856.87 1448.27 7872.6 1456.8C7888.6 1465.07 7900.73 1477.33 7909 1493.6L7870.6 1516C7864.2 1505.87 7856.33 1498.4 7847 1493.6C7837.93 1488.8 7828.07 1486.4 7817.4 1486.4C7805.13 1486.4 7794.07 1489.07 7784.2 1494.4C7774.33 1499.73 7766.6 1507.47 7761 1517.6C7755.4 1527.47 7752.6 1539.33 7752.6 1553.2C7752.6 1567.07 7755.4 1579.07 7761 1589.2C7766.6 1599.07 7774.33 1606.67 7784.2 1612C7794.07 1617.33 7805.13 1620 7817.4 1620C7828.07 1620 7837.93 1617.6 7847 1612.8C7856.33 1608 7864.2 1600.53 7870.6 1590.4L7909 1612.8C7900.73 1628.8 7888.6 1641.2 7872.6 1650C7856.87 1658.53 7838.6 1662.8 7817.8 1662.8ZM7991.07 1612.4L7992.27 1549.6L8103.87 1446.4H8163.87L8069.07 1541.6L8042.67 1563.6L7991.07 1612.4ZM7950.27 1660V1363.2H8000.27V1660H7950.27ZM8111.47 1660L8033.47 1563.6L8065.07 1523.6L8172.27 1660H8111.47ZM8296.37 1662.8C8272.64 1662.8 8251.84 1658.13 8233.97 1648.8C8216.37 1639.2 8202.64 1626.13 8192.77 1609.6C8183.17 1593.07 8178.37 1574.27 8178.37 1553.2C8178.37 1531.87 8183.04 1513.07 8192.37 1496.8C8201.97 1480.27 8215.04 1467.33 8231.57 1458C8248.37 1448.67 8267.44 1444 8288.77 1444C8309.57 1444 8328.11 1448.53 8344.37 1457.6C8360.64 1466.67 8373.44 1479.47 8382.77 1496C8392.11 1512.53 8396.77 1532 8396.77 1554.4C8396.77 1556.53 8396.64 1558.93 8396.37 1561.6C8396.37 1564.27 8396.24 1566.8 8395.97 1569.2H8217.97V1536H8369.57L8349.97 1546.4C8350.24 1534.13 8347.71 1523.33 8342.37 1514C8337.04 1504.67 8329.71 1497.33 8320.37 1492C8311.31 1486.67 8300.77 1484 8288.77 1484C8276.51 1484 8265.71 1486.67 8256.37 1492C8247.31 1497.33 8240.11 1504.8 8234.77 1514.4C8229.71 1523.73 8227.17 1534.8 8227.17 1547.6V1555.6C8227.17 1568.4 8230.11 1579.73 8235.97 1589.6C8241.84 1599.47 8250.11 1607.07 8260.77 1612.4C8271.44 1617.73 8283.71 1620.4 8297.57 1620.4C8309.57 1620.4 8320.37 1618.53 8329.97 1614.8C8339.57 1611.07 8348.11 1605.2 8355.57 1597.2L8382.37 1628C8372.77 1639.2 8360.64 1647.87 8345.97 1654C8331.57 1659.87 8315.04 1662.8 8296.37 1662.8ZM8444.8 1660V1446.4H8492.4V1505.2L8486.8 1488C8493.2 1473.6 8503.2 1462.67 8516.8 1455.2C8530.67 1447.73 8547.87 1444 8568.4 1444V1491.6C8566.27 1491.07 8564.27 1490.8 8562.4 1490.8C8560.53 1490.53 8558.67 1490.4 8556.8 1490.4C8537.87 1490.4 8522.8 1496 8511.6 1507.2C8500.4 1518.13 8494.8 1534.53 8494.8 1556.4V1660H8444.8ZM8678.77 1662.8C8660.9 1662.8 8643.7 1660.53 8627.17 1656C8610.9 1651.2 8597.97 1645.47 8588.37 1638.8L8607.57 1600.8C8617.17 1606.93 8628.64 1612 8641.97 1616C8655.3 1620 8668.64 1622 8681.97 1622C8697.7 1622 8709.04 1619.87 8715.97 1615.6C8723.17 1611.33 8726.77 1605.6 8726.77 1598.4C8726.77 1592.53 8724.37 1588.13 8719.57 1585.2C8714.77 1582 8708.5 1579.6 8700.77 1578C8693.04 1576.4 8684.37 1574.93 8674.77 1573.6C8665.44 1572.27 8655.97 1570.53 8646.37 1568.4C8637.04 1566 8628.5 1562.67 8620.77 1558.4C8613.04 1553.87 8606.77 1547.87 8601.97 1540.4C8597.17 1532.93 8594.77 1523.07 8594.77 1510.8C8594.77 1497.2 8598.64 1485.47 8606.37 1475.6C8614.1 1465.47 8624.9 1457.73 8638.77 1452.4C8652.9 1446.8 8669.57 1444 8688.77 1444C8703.17 1444 8717.7 1445.6 8732.37 1448.8C8747.04 1452 8759.17 1456.53 8768.77 1462.4L8749.57 1500.4C8739.44 1494.27 8729.17 1490.13 8718.77 1488C8708.64 1485.6 8698.5 1484.4 8688.37 1484.4C8673.17 1484.4 8661.84 1486.67 8654.37 1491.2C8647.17 1495.73 8643.57 1501.47 8643.57 1508.4C8643.57 1514.8 8645.97 1519.6 8650.77 1522.8C8655.57 1526 8661.84 1528.53 8669.57 1530.4C8677.3 1532.27 8685.84 1533.87 8695.17 1535.2C8704.77 1536.27 8714.24 1538 8723.57 1540.4C8732.9 1542.8 8741.44 1546.13 8749.17 1550.4C8757.17 1554.4 8763.57 1560.13 8768.37 1567.6C8773.17 1575.07 8775.57 1584.8 8775.57 1596.8C8775.57 1610.13 8771.57 1621.73 8763.57 1631.6C8755.84 1641.47 8744.77 1649.2 8730.37 1654.8C8715.97 1660.13 8698.77 1662.8 8678.77 1662.8ZM7520.71 2150.8C7497.24 2150.8 7479.11 2144.8 7466.31 2132.8C7453.51 2120.53 7447.11 2102.53 7447.11 2078.8V1887.2H7497.11V2077.6C7497.11 2087.73 7499.64 2095.6 7504.71 2101.2C7510.04 2106.8 7517.37 2109.6 7526.71 2109.6C7537.91 2109.6 7547.24 2106.67 7554.71 2100.8L7568.71 2136.4C7562.84 2141.2 7555.64 2144.8 7547.11 2147.2C7538.57 2149.6 7529.77 2150.8 7520.71 2150.8ZM7411.91 1976V1936H7554.31V1976H7411.91ZM7703.21 2150.8C7679.47 2150.8 7658.67 2146.13 7640.81 2136.8C7623.21 2127.2 7609.47 2114.13 7599.61 2097.6C7590.01 2081.07 7585.21 2062.27 7585.21 2041.2C7585.21 2019.87 7589.87 2001.07 7599.21 1984.8C7608.81 1968.27 7621.87 1955.33 7638.41 1946C7655.21 1936.67 7674.27 1932 7695.61 1932C7716.41 1932 7734.94 1936.53 7751.21 1945.6C7767.47 1954.67 7780.27 1967.47 7789.61 1984C7798.94 2000.53 7803.61 2020 7803.61 2042.4C7803.61 2044.53 7803.47 2046.93 7803.21 2049.6C7803.21 2052.27 7803.07 2054.8 7802.81 2057.2H7624.81V2024H7776.41L7756.81 2034.4C7757.07 2022.13 7754.54 2011.33 7749.21 2002C7743.87 1992.67 7736.54 1985.33 7727.21 1980C7718.14 1974.67 7707.61 1972 7695.61 1972C7683.34 1972 7672.54 1974.67 7663.21 1980C7654.14 1985.33 7646.94 1992.8 7641.61 2002.4C7636.54 2011.73 7634.01 2022.8 7634.01 2035.6V2043.6C7634.01 2056.4 7636.94 2067.73 7642.81 2077.6C7648.67 2087.47 7656.94 2095.07 7667.61 2100.4C7678.27 2105.73 7690.54 2108.4 7704.41 2108.4C7716.41 2108.4 7727.21 2106.53 7736.81 2102.8C7746.41 2099.07 7754.94 2093.2 7762.41 2085.2L7789.21 2116C7779.61 2127.2 7767.47 2135.87 7752.81 2142C7738.41 2147.87 7721.87 2150.8 7703.21 2150.8ZM7977.38 2148V2104.8L7974.58 2095.6V2020C7974.58 2005.33 7970.18 1994 7961.38 1986C7952.58 1977.73 7939.24 1973.6 7921.38 1973.6C7909.38 1973.6 7897.51 1975.47 7885.78 1979.2C7874.31 1982.93 7864.58 1988.13 7856.58 1994.8L7836.98 1958.4C7848.44 1949.6 7862.04 1943.07 7877.78 1938.8C7893.78 1934.27 7910.31 1932 7927.38 1932C7958.31 1932 7982.18 1939.47 7998.98 1954.4C8016.04 1969.07 8024.58 1991.87 8024.58 2022.8V2148H7977.38ZM7910.18 2150.8C7894.18 2150.8 7880.18 2148.13 7868.18 2142.8C7856.18 2137.2 7846.84 2129.6 7840.18 2120C7833.78 2110.13 7830.58 2099.07 7830.58 2086.8C7830.58 2074.8 7833.38 2064 7838.98 2054.4C7844.84 2044.8 7854.31 2037.2 7867.38 2031.6C7880.44 2026 7897.78 2023.2 7919.38 2023.2H7981.38V2056.4H7922.98C7905.91 2056.4 7894.44 2059.2 7888.58 2064.8C7882.71 2070.13 7879.78 2076.8 7879.78 2084.8C7879.78 2093.87 7883.38 2101.07 7890.58 2106.4C7897.78 2111.73 7907.78 2114.4 7920.58 2114.4C7932.84 2114.4 7943.78 2111.6 7953.38 2106C7963.24 2100.4 7970.31 2092.13 7974.58 2081.2L7982.98 2111.2C7978.18 2123.73 7969.51 2133.47 7956.98 2140.4C7944.71 2147.33 7929.11 2150.8 7910.18 2150.8ZM8358.35 1932C8375.41 1932 8390.48 1935.33 8403.55 1942C8416.88 1948.67 8427.28 1958.93 8434.75 1972.8C8442.21 1986.4 8445.95 2004 8445.95 2025.6V2148H8395.95V2032C8395.95 2013.07 8391.81 1998.93 8383.55 1989.6C8375.28 1980.27 8363.41 1975.6 8347.95 1975.6C8337.01 1975.6 8327.28 1978 8318.75 1982.8C8310.48 1987.6 8303.95 1994.67 8299.15 2004C8294.61 2013.33 8292.35 2025.2 8292.35 2039.6V2148H8242.35V2032C8242.35 2013.07 8238.21 1998.93 8229.95 1989.6C8221.68 1980.27 8209.81 1975.6 8194.35 1975.6C8183.41 1975.6 8173.68 1978 8165.15 1982.8C8156.88 1987.6 8150.35 1994.67 8145.55 2004C8141.01 2013.33 8138.75 2025.2 8138.75 2039.6V2148H8088.75V1934.4H8136.35V1991.2L8127.95 1974.4C8135.15 1960.53 8145.55 1950 8159.15 1942.8C8173.01 1935.6 8188.75 1932 8206.35 1932C8226.35 1932 8243.68 1936.93 8258.35 1946.8C8273.28 1956.67 8283.15 1971.6 8287.95 1991.6L8268.35 1984.8C8275.28 1968.8 8286.75 1956 8302.75 1946.4C8318.75 1936.8 8337.28 1932 8358.35 1932Z" fill="white"/>
<path d="M6765.81 800.527C6858.93 800.527 6934.42 725.047 6934.42 631.937C6934.42 538.828 6858.93 463.348 6765.81 463.348C6672.7 463.348 6597.21 538.828 6597.21 631.937C6597.21 725.047 6672.7 800.527 6765.81 800.527Z" fill="#35C5C7"/>
<path d="M7981.54 465.671C7990.05 413.276 7954.46 363.906 7902.06 355.401C7849.66 346.896 7800.29 382.476 7791.78 434.872C7783.27 487.267 7818.86 536.637 7871.26 545.142C7923.66 553.647 7973.04 518.067 7981.54 465.671Z" fill="#35C5C7"/>
<defs>
<filter id="filter0_d_573_84" x="0" y="0" width="5129.01" height="3680.83" filterUnits="userSpaceOnUse" color-interpolation-filters="sRGB">
<feFlood flood-opacity="0" result="BackgroundImageFix"/>
<feColorMatrix in="SourceAlpha" type="matrix" values="0 0 0 0 0 0 0 0 0 0 0 0 0 0 0 0 0 0 127 0" result="hardAlpha"/>
<feOffset dy="4"/>
<feGaussianBlur stdDeviation="2"/>
<feComposite in2="hardAlpha" operator="out"/>
<feColorMatrix type="matrix" values="0 0 0 0 0 0 0 0 0 0 0 0 0 0 0 0 0 0 0.25 0"/>
<feBlend mode="normal" in2="BackgroundImageFix" result="effect1_dropShadow_573_84"/>
<feBlend mode="normal" in="SourceGraphic" in2="effect1_dropShadow_573_84" result="shape"/>
</filter>
<filter id="filter1_d_573_84" x="3585.72" y="0" width="1543.29" height="1267.73" filterUnits="userSpaceOnUse" color-interpolation-filters="sRGB">
<feFlood flood-opacity="0" result="BackgroundImageFix"/>
<feColorMatrix in="SourceAlpha" type="matrix" values="0 0 0 0 0 0 0 0 0 0 0 0 0 0 0 0 0 0 127 0" result="hardAlpha"/>
<feOffset dy="4"/>
<feGaussianBlur stdDeviation="2"/>
<feComposite in2="hardAlpha" operator="out"/>
<feColorMatrix type="matrix" values="0 0 0 0 0 0 0 0 0 0 0 0 0 0 0 0 0 0 0.25 0"/>
<feBlend mode="normal" in2="BackgroundImageFix" result="effect1_dropShadow_573_84"/>
<feBlend mode="normal" in="SourceGraphic" in2="effect1_dropShadow_573_84" result="shape"/>
</filter>
<filter id="filter2_d_573_84" x="3362.29" y="1217.68" width="1221.95" height="1967.93" filterUnits="userSpaceOnUse" color-interpolation-filters="sRGB">
<feFlood flood-opacity="0" result="BackgroundImageFix"/>
<feColorMatrix in="SourceAlpha" type="matrix" values="0 0 0 0 0 0 0 0 0 0 0 0 0 0 0 0 0 0 127 0" result="hardAlpha"/>
<feOffset dy="4"/>
<feGaussianBlur stdDeviation="2"/>
<feComposite in2="hardAlpha" operator="out"/>
<feColorMatrix type="matrix" values="0 0 0 0 0 0 0 0 0 0 0 0 0 0 0 0 0 0 0.25 0"/>
<feBlend mode="normal" in2="BackgroundImageFix" result="effect1_dropShadow_573_84"/>
<feBlend mode="normal" in="SourceGraphic" in2="effect1_dropShadow_573_84" result="shape"/>
</filter>
</defs>
</svg>
