<svg width="9026" height="3766" viewBox="0 0 9026 3766" fill="none" xmlns="http://www.w3.org/2000/svg">
<rect x="5215" y="1063" width="100" height="100" fill="#D9D9D9"/>
<path d="M1266.05 1158.35C1132.39 1148.76 792.946 1166.02 771.935 1351.55C763.832 1423.2 852.093 1469.11 908.428 1485.9C986.03 1509.03 1069.97 1493.47 1148.26 1482.6C1255.9 1467.73 1364.63 1450.39 1470.35 1424.99C1502.84 1417.19 1564.87 1392.6 1578.96 1359.55C1595.6 1320.46 1558.2 1265.56 1529.5 1240.38C1460.94 1180.28 1353.72 1164.61 1266.02 1158.35H1266.05Z" fill="#2C6496"/>
<path d="M1089.09 1458.04C1091.88 1458.04 1094.53 1456.45 1095.81 1453.77C1097.58 1450.06 1095.99 1445.66 1092.28 1443.88C1069 1432.86 1033.42 1429.07 995.768 1425.06C928.774 1417.93 852.859 1409.88 839.849 1358.4C838.826 1354.38 834.813 1351.93 830.826 1353C826.838 1354 824.435 1358.04 825.432 1362.03C840.999 1423.58 922.409 1432.22 994.208 1439.86C1030.56 1443.72 1064.93 1447.38 1085.92 1457.35C1086.94 1457.83 1088.04 1458.06 1089.11 1458.06L1089.09 1458.04Z" fill="#21263D"/>
<path d="M1040.65 1313.15C1042.06 1313.15 1043.49 1312.72 1044.74 1311.9C1048.17 1309.63 1049.11 1305.02 1046.81 1301.6C1037.51 1287.59 1034.88 1275.37 1038.96 1265.3C1043.97 1252.98 1059.21 1243.52 1081.8 1238.69C1085.82 1237.8 1088.37 1233.89 1087.5 1229.85C1086.66 1225.83 1082.72 1223.33 1078.69 1224.15C1051.11 1230.08 1032.11 1242.7 1025.16 1259.7C1021.02 1269.95 1019.21 1286.95 1034.42 1309.83C1035.85 1311.98 1038.2 1313.15 1040.6 1313.15H1040.65Z" fill="#21263D"/>
<path d="M2364.33 1857.16C2349.97 1812.15 2296.7 1741.62 2259.99 1707.06C2037.39 1497.61 1735.39 1392.01 1635.83 1389.71C1616.56 1381.76 1453.76 1431.86 1565.36 1573.94C1624.43 1643.16 2161.56 1893.39 2213.04 1936.87C2213.04 1936.87 2328.37 1974.8 2364.33 1857.19V1857.16Z" fill="#F6AD94"/>
<path d="M2131.09 2049.36C2450.04 2074.9 2418.14 1803.71 2418.14 1803.71C2176.38 1602.67 2052.59 1494.47 1727.64 1378.08C1636.52 1338.18 1534.84 1360.19 1534.84 1360.19L1372.79 1479.08C1372.79 1479.08 1335.34 1583.52 1495.22 1698.94C1495.22 1698.94 1710.16 1905.45 2131.09 2049.36Z" fill="#2C6496"/>
<path d="M930.896 3414.04C1089.45 3414.04 1228.88 3309.34 1272.56 3155.77C1273.69 3151.83 1271.39 3147.74 1267.45 3146.61C1263.54 3145.44 1259.4 3147.76 1258.27 3151.7C1215.33 3302.7 1075.95 3404.59 918.933 3398.94C914.946 3399.14 911.393 3402 911.24 3406.12C911.086 3410.24 914.307 3413.66 918.422 3413.81C922.588 3413.97 926.755 3414.04 930.921 3414.04H930.896Z" fill="#21263D"/>
<path d="M800.409 3390.55C780.063 3311.16 798.16 3101.98 802.429 3080.59L842.047 2778.42L1775.42 2787.88L1797.91 3165.63L1786.15 3390.55H800.409Z" fill="#003056"/>
<path d="M1325.12 3764.98H788.524L787.578 3229.2C847.006 2827.96 1445.43 3026.11 1445.43 3026.11L1442.75 3210.46L1325.12 3764.96V3764.98Z" fill="#003056"/>
<path d="M1482.93 2908.78C1536.58 2908.78 1606.28 2906.71 1724.17 2899.76C1728.28 2899.53 1731.4 2896 1731.17 2891.91C1730.92 2887.8 1727.39 2884.37 1723.32 2884.93C1525.95 2896.51 1464.24 2894.49 1386.13 2891.91C1364.17 2891.2 1340.84 2890.4 1312.8 2889.89C1298 2889.61 1278.54 2889.89 1255.21 2890.23C1170.81 2891.48 1029.56 2893.5 877.909 2870.13C873.82 2869.55 870.037 2872.31 869.423 2876.37C868.81 2880.44 871.57 2884.22 875.634 2884.83C1028.56 2908.37 1170.6 2906.3 1255.44 2905.08C1278.57 2904.77 1297.87 2904.44 1312.51 2904.74C1340.48 2905.28 1363.76 2906.05 1385.67 2906.82C1417.44 2907.86 1446.5 2908.78 1482.98 2908.78H1482.93Z" fill="#21263D"/>
<path d="M851.94 3226.73C995.105 3226.73 1091.85 3164.41 1165.62 3024.63C1167.54 3021.03 1166.13 3016.5 1162.53 3014.59C1158.87 3012.7 1154.4 3014.05 1152.48 3017.68C1080.66 3153.8 990.785 3211.87 851.94 3211.87C847.85 3211.87 844.502 3215.2 844.502 3219.31C844.502 3223.43 847.825 3226.73 851.94 3226.73V3226.73Z" fill="#21263D"/>
<path d="M1293.88 3764.98L1233.35 3179.66H1797.24L1770 3764.98H1293.88Z" fill="#003056"/>
<path d="M1508.61 3171.33C1481.42 3184.93 1461.74 3194.8 1448.98 3214.53C1435.87 3234.78 1438.6 3260.93 1441.52 3288.61C1443.59 3308.39 1445.74 3328.79 1441.47 3346.97C1415.78 3456.17 1391.5 3555.07 1368.01 3650.72C1358.5 3689.47 1349.19 3727.46 1340.04 3765.01H1324.76C1334.16 3726.28 1343.77 3687.17 1353.59 3647.19C1377.05 3551.57 1401.34 3452.72 1427.03 3343.54C1430.71 3327.85 1428.79 3309.54 1426.77 3290.19C1423.7 3261.16 1420.56 3231.15 1436.53 3206.45C1451.51 3183.35 1473.8 3172.2 1502.02 3158.06C1529.29 3144.41 1563.24 3127.42 1602.35 3093.21C1605.44 3090.48 1610.12 3090.79 1612.82 3093.9C1615.53 3097 1615.2 3101.67 1612.13 3104.41C1571.62 3139.86 1536.71 3157.32 1508.67 3171.33H1508.61Z" fill="#21263D"/>
<path d="M1175.84 1062.9C1171.73 1053.42 1168.15 1045.16 1165.29 1038.98C1117.18 935.552 1061.05 676.251 1183.13 626.099C1329.46 565.977 1333.14 809.531 1343.9 876.785C1356.35 954.519 1365.48 1038.36 1336.03 1112.88C1324.96 1140.97 1296.51 1184.12 1264.36 1182.53C1228.75 1180.82 1195.58 1108.15 1175.84 1062.9V1062.9Z" fill="#192E35"/>
<path d="M1127.58 923.538C1126.95 966.763 1150.95 1015.74 1189.8 1033.66C1242.53 1058.04 1262.85 1009.68 1262.88 962.315C1262.9 924.177 1246.18 858.406 1202.94 844.883C1162.17 832.077 1128.1 888.057 1127.56 923.538H1127.58Z" fill="#F7B6A0"/>
<path d="M1471.5 1024.51H1212.7V1346.36H1471.5V1024.51Z" fill="#F7B6A0"/>
<path d="M1291.68 1202.65C1265.74 1148.15 1250.3 1093.04 1254.64 1024.46L1471.63 1024.58L1471.4 1304.34C1403.25 1293.85 1319.36 1260.7 1291.68 1202.65Z" fill="#F2937C"/>
<path d="M1587.52 1394.59L1471.17 1307.76H1212.52L1072.88 1394.59H1587.52Z" fill="#F7B6A0"/>
<path d="M1803.97 2250.95C1806.96 2410.76 1822.47 2534.43 1825.46 2694.27C1827.23 2788.41 1844.56 3104.72 1815.31 3223.45C1785 3346.58 1743.49 3129.41 1641.99 3104.33C1618.45 3098.5 1595.47 3090.45 1571.85 3085.06C1481.78 3064.46 1417.67 3146.05 1334.34 3170.49C1252.91 3194.41 1169.12 3231.1 1086.43 3244.52C998.554 3258.83 898.791 3234.6 813.981 3208.88C728.533 3183.01 719.356 3158.37 735.204 3080.53C742.667 3043.85 743.153 3004.21 747.038 2966.94C758.464 2857.2 769.915 2747.44 781.315 2637.7C796.447 2492.53 791.002 2324.69 828.653 2183.33L772.037 1588.92C752.202 1470.03 856.463 1431.45 856.463 1431.45L1192.76 1290.38C1339.17 1400.68 1471.6 1288.84 1471.6 1288.84L1642.53 1364.76C1642.53 1364.76 1731.71 1413.05 1750.26 1565.37L1803.91 2250.97" fill="#2C6496"/>
<path d="M1824.72 3038.36H1824.8C1828.91 3038.33 1832.21 3034.96 1832.16 3030.87C1831.47 2962.13 1831.34 2893.11 1831.24 2829.64C1831.09 2738.9 1830.96 2660.55 1829.25 2608.96C1827.56 2557.51 1826.31 2513.98 1825.21 2475.43C1821.42 2343.07 1819.35 2270.17 1806.45 2140.72C1800.36 2079.7 1796.12 2020.45 1791.65 1957.75C1783.85 1848.73 1775.8 1735.95 1756.94 1596.84C1756.37 1592.77 1752.62 1589.81 1748.58 1590.5C1744.51 1591.04 1741.65 1594.77 1742.21 1598.86C1761.02 1737.51 1769.08 1850.03 1776.85 1958.85C1781.32 2021.65 1785.56 2080.98 1791.67 2142.23C1804.53 2271.19 1806.6 2343.89 1810.36 2475.89C1811.46 2514.46 1812.68 2558.02 1814.4 2609.48C1816.08 2660.83 1816.24 2739.08 1816.39 2829.69C1816.49 2893.21 1816.62 2962.26 1817.31 3031.02C1817.36 3035.13 1820.68 3038.41 1824.75 3038.41L1824.72 3038.36Z" fill="#21263D"/>
<path d="M964.508 2896.03C965.608 2896.03 966.732 2895.82 967.806 2895.29C1129.66 2815.1 1241.33 2683.91 1266.48 2544.47C1267.22 2540.41 1264.54 2536.55 1260.47 2535.83C1256.38 2535.14 1252.58 2537.78 1251.83 2541.81C1223.18 2700.63 1082.9 2821.67 961.186 2881.94C957.505 2883.78 955.997 2888.26 957.812 2891.94C959.115 2894.57 961.748 2896.03 964.483 2896.03H964.508Z" fill="#21263D"/>
<path d="M1170.96 2946.87C1171.8 2946.87 1172.65 2946.74 1173.46 2946.43C1199.08 2938 1190.36 2814.28 1185.07 2795.16C1183.97 2791.2 1179.85 2788.87 1175.92 2789.99C1171.96 2791.09 1169.66 2795.18 1170.73 2799.12C1178.37 2826.6 1178.01 2923.5 1168.05 2932.73C1164.16 2934.04 1162.4 2938.02 1163.7 2941.91C1164.7 2945 1167.79 2946.84 1170.96 2946.84V2946.87Z" fill="#21263D"/>
<path d="M805.981 3137.59C809.662 3137.59 812.857 3134.85 813.342 3131.12C818.889 3089.07 824.282 3051.16 829.343 3015.53C841.229 2932.1 851.479 2860.01 857.383 2776.73C871.723 2574.18 875.429 2440.26 878.113 2342.51C881.001 2237.4 882.944 2167.9 895.034 2086.33C895.622 2082.26 892.836 2078.48 888.746 2077.92C884.682 2077.25 880.924 2080.09 880.311 2084.18C868.067 2166.67 866.15 2236.43 863.237 2342.1C860.553 2439.75 856.872 2573.46 842.558 2775.68C836.679 2858.45 826.455 2930.28 814.62 3013.49C809.534 3049.14 804.141 3087.1 798.594 3129.18C798.057 3133.29 800.92 3137.03 804.984 3137.54C805.316 3137.59 805.649 3137.61 805.955 3137.61L805.981 3137.59Z" fill="#21263D"/>
<path d="M353.126 1256.46C375.491 1198.61 448.492 1193.98 495.932 1211.06C781.955 1313.92 1068.05 1428.16 1131.49 1504.97C1149.69 1515.15 1211.06 1674.06 1030.43 1674.29C940.813 1670.79 484.149 1486.44 358.749 1416.99C358.749 1416.99 296.918 1376.45 353.126 1256.46V1256.46Z" fill="#F7B6A0"/>
<path d="M200.171 1475.93C200.171 1475.93 98.0311 1069.42 462.371 1170.34C805.955 1315.53 1200.51 1477.13 1200.51 1477.13C1291.2 1533.01 1289.97 1682.04 1289.97 1682.04C1289.97 1682.04 1177.66 1992.39 918.626 1897.96C918.626 1897.96 398.904 1719.82 200.171 1475.93Z" fill="#2C6496"/>
<path d="M197.744 1327.06C33.8245 1084.45 77.8908 869.473 64.3438 440.85L134.15 425.973C161.959 495.143 295.309 1036.65 364.884 1079.21C364.884 1079.21 510.988 1231.38 197.719 1327.06H197.744Z" fill="#F7B6A0"/>
<path d="M4.94019 304.553C-1.96115 382.338 33.0823 445.885 61.4289 483.563C96.9836 519.836 120.525 507.08 149.459 490.286C169.55 478.579 174.534 466.82 181.87 448.109C185.883 431.494 198.587 409.28 198.587 409.28C226.192 351.357 243.573 315.647 243.573 315.647C243.573 315.647 264.073 282.007 251.139 271.757C230.41 255.423 208.658 294.328 208.658 294.328L189.692 319.609C179.314 334.486 177.55 315.596 177.55 315.596L170.419 281.905C151.709 227.688 199.021 133.339 201.552 133.185C134.225 136.074 116.461 253.173 116.461 253.173C116.461 253.173 118.812 188.834 159.914 126.923C159.914 126.923 173.052 78.8916 127.503 113.451C127.503 113.451 68.2536 187.095 72.3688 265.06C72.3688 265.06 58.1316 210.382 96.2424 136.406C96.2424 136.406 93.2518 101.974 64.6751 125.261C64.6751 125.261 22.8581 229.452 36.3541 278.582C36.3541 278.582 24.1106 233.005 31.4209 186.993C31.4209 186.993 20.4554 167.234 5.5792 188.271C5.5792 188.271 -6.53649 268.178 4.94019 304.527V304.553Z" fill="#F7B6A0"/>
<path d="M36.0977 621.724C36.0977 621.724 35.5098 580.161 56.6995 553.321L54.1179 490.182C54.1179 490.182 132.435 499.538 178.572 472.289L187.212 529.318C187.212 529.318 221.923 528.372 242.831 596.239C242.831 596.239 329.481 1043.57 462.345 1170.36C462.345 1170.36 329.916 1543.67 200.145 1475.95C200.145 1475.95 18.9722 1327.08 36.0722 621.75L36.0977 621.724Z" fill="#2C6496"/>
<path d="M887.672 2092.67C890.1 2092.67 892.452 2091.49 893.883 2089.32C944.876 2012.25 1113.27 1749.78 1139.49 1608.83C1140.18 1604.97 1155.55 1514.33 1094.38 1432.4C1091.93 1429.1 1087.27 1428.41 1084 1430.89C1080.71 1433.35 1080.04 1438.02 1082.49 1441.3C1139.7 1517.91 1125.05 1605.3 1124.9 1606.17C1107.57 1699.4 1016.57 1876.95 881.512 2081.14C879.263 2084.56 880.183 2089.16 883.608 2091.41C884.886 2092.26 886.292 2092.67 887.698 2092.67H887.672Z" fill="#21263D"/>
<path d="M1524.21 681.825C1598.28 709.177 1589.95 779.447 1604.47 846.547C1610.42 874.128 1622.21 900.431 1629.49 927.042C1643.42 896.981 1641.68 802.759 1639.95 770.091C1629.11 567.359 1550.64 451.001 1616.94 628.912C1632.38 670.297 1495.86 552.993 1452.41 545.605C1390.5 535.048 1414.02 586.454 1436.31 648.365L1524.21 681.8V681.825Z" fill="#192E35"/>
<path d="M1235.76 1041.02C1260.5 1103.32 1294.29 1154.47 1352.9 1190.51C1410.23 1225.81 1469.56 1243.86 1524.95 1198.2C1569.04 1161.83 1597.62 1108.79 1613.67 1055.29C1650.66 932.23 1622.64 761.834 1544.45 662.551C1458.57 553.58 1292.53 577.711 1228.29 699.207C1175.97 798.157 1195.83 940.41 1235.76 1041V1041.02Z" fill="#F7B6A0"/>
<path d="M1191.05 995.544C1194.3 995.544 1197.31 993.372 1198.24 990.1C1211.5 942.733 1201.35 897.872 1174.05 883.429C1170.43 881.512 1165.9 882.893 1163.98 886.548C1162.07 890.178 1163.45 894.702 1167.1 896.619C1187.55 907.407 1194.94 946.746 1183.9 986.086C1182.77 990.048 1185.1 994.164 1189.06 995.289C1189.75 995.468 1190.41 995.57 1191.08 995.57L1191.05 995.544Z" fill="#F2937C"/>
<path d="M1151.66 935.22C1152.66 935.22 1153.66 934.99 1154.6 934.581C1165.9 929.749 1180.78 927.014 1188.5 931.794C1192 933.967 1196.6 932.945 1198.77 929.443C1200.94 925.941 1199.9 921.34 1196.39 919.167C1183.28 910.936 1163.17 914.694 1148.72 920.88C1144.94 922.49 1143.2 926.887 1144.81 930.67C1146.01 933.507 1148.78 935.22 1151.66 935.22Z" fill="#F2937C"/>
<path d="M1328.72 955.028C1329.28 964.742 1347.58 971.644 1369.62 970.366C1391.63 969.113 1409.03 960.217 1408.5 950.478C1407.96 940.739 1389.63 933.863 1367.6 935.141C1345.57 936.394 1328.18 945.289 1328.72 955.028Z" fill="#F2937C"/>
<path d="M1525.31 955.028C1525.84 964.742 1544.17 971.644 1566.2 970.366C1588.19 969.113 1605.62 960.217 1605.06 950.478C1604.49 940.739 1586.19 933.863 1564.16 935.141C1542.13 936.394 1524.74 945.289 1525.31 955.028Z" fill="#F2937C"/>
<path d="M1474.39 993.117C1490.54 993.117 1508.64 988.644 1516.08 977.959C1519.12 973.588 1522.9 964.488 1514.16 952.371C1456.6 872.746 1472.06 858.738 1483.36 848.513C1486.05 846.085 1488.55 843.784 1490.44 841.228C1492.92 837.93 1492.23 833.278 1488.96 830.799C1485.66 828.319 1480.98 828.984 1478.53 832.307C1477.18 834.096 1475.34 835.681 1473.39 837.445C1454.07 854.929 1441.72 877.551 1502.12 961.114C1505.98 966.456 1504.53 968.527 1503.91 969.421C1498.62 977.013 1475.26 980.745 1460.03 976.527C1456.04 975.428 1451.95 977.703 1450.82 981.691C1449.72 985.653 1452.05 989.743 1456.01 990.868C1461.18 992.325 1467.62 993.143 1474.44 993.143L1474.39 993.117Z" fill="#F2937C"/>
<path d="M1495.43 843.81C1497.14 843.81 1498.85 843.35 1500.44 842.404C1537.47 819.961 1566.38 835.221 1569.55 837.011C1574.18 839.643 1580.06 838.059 1582.74 833.406C1585.4 828.754 1583.76 822.849 1579.14 820.191C1560.27 809.455 1525.74 804.445 1490.42 825.84C1485.87 828.601 1484.41 834.557 1487.17 839.132C1488.99 842.123 1492.18 843.784 1495.43 843.784V843.81Z" fill="#192E35"/>
<path d="M1329.85 852.552C1332.22 852.552 1334.6 851.657 1336.47 849.944C1352.06 835.323 1383.75 829.52 1402.87 843.682C1407.17 846.877 1413.2 845.957 1416.39 841.662C1419.56 837.368 1418.67 831.335 1414.37 828.14C1387.1 807.946 1344.47 815.972 1323.25 835.834C1319.37 839.489 1319.16 845.573 1322.82 849.484C1324.73 851.504 1327.29 852.552 1329.87 852.552H1329.85Z" fill="#192E35"/>
<path d="M1348.22 892.709C1351.04 892.709 1353.75 891.099 1354.97 888.364C1356.38 885.297 1361.21 882.996 1367.27 882.485C1374.96 881.948 1382.78 884.3 1385.39 888.185C1387.69 891.585 1392.29 892.531 1395.72 890.204C1399.12 887.878 1400.01 883.277 1397.71 879.877C1390.73 869.525 1376.26 866.739 1366.04 867.684C1354.38 868.63 1345.16 874.049 1341.48 882.178C1339.76 885.91 1341.4 890.307 1345.13 892.019C1346.13 892.454 1347.2 892.684 1348.22 892.684V892.709Z" fill="#21263D"/>
<path d="M1530.98 892.709C1533.79 892.709 1536.5 891.099 1537.73 888.364C1539.14 885.297 1543.97 882.996 1550.02 882.485C1557.74 881.948 1565.57 884.3 1568.17 888.185C1570.45 891.585 1575.07 892.531 1578.5 890.204C1581.9 887.878 1582.79 883.277 1580.49 879.877C1573.51 869.525 1559.05 866.739 1548.82 867.684C1537.14 868.63 1527.97 874.049 1524.23 882.178C1522.52 885.91 1524.16 890.307 1527.89 892.019C1528.91 892.454 1529.96 892.684 1530.98 892.684V892.709Z" fill="#21263D"/>
<path d="M1231.9 572.7C1216.2 574.719 1200.48 573.134 1187.19 583.589C1157.57 606.927 1154.6 670.321 1149.26 704.395C1142.49 747.237 1138.68 790.564 1136.79 833.892C1136.07 850.865 1140.21 874.612 1135.69 891.023C1140.95 871.928 1167.61 834.148 1196.7 860.195C1208.87 871.034 1216 928.676 1222.11 943.118C1230.24 962.392 1234.17 954.928 1251.81 954.903C1253.24 897.874 1235.91 736.194 1296.39 730.161C1370.69 722.723 1651.81 760.478 1639.56 627.965C1632.66 553.554 1549.31 470.401 1441.83 520.579" fill="#192E35"/>
<path d="M1477.71 1063.23C1479.96 1063.23 1482.21 1063.05 1484.46 1062.77C1495.12 1061.26 1510.07 1055.15 1520.76 1034.86C1522.67 1031.23 1521.27 1026.7 1517.64 1024.79C1513.98 1022.84 1509.48 1024.3 1507.57 1027.93C1501.35 1039.76 1492.87 1046.51 1482.36 1048.02C1467.72 1050.25 1448.8 1041.55 1434.11 1026.22C1431.24 1023.25 1426.51 1023.18 1423.57 1026.04C1420.61 1028.88 1420.51 1033.6 1423.37 1036.6C1436.25 1050.02 1456.7 1063.28 1477.74 1063.28L1477.71 1063.23Z" fill="#F2937C"/>
<path d="M1552.63 529.83C1563.24 492.228 1553.7 460.02 1512.91 457.949C1468.87 455.674 1468.41 525.126 1433.11 515.694C1397.84 506.313 1380.35 455.444 1337.69 493.302C1322.25 507.003 1327.67 527.529 1314.23 542.202C1298.51 559.328 1280.03 554.65 1260.17 549.64C1224.1 540.591 1172.95 532.974 1166.16 581.848C1162.35 609.251 1174.56 614.005 1151.3 628.908C1134.61 639.593 1122.45 642.021 1114.04 663.442C1099.08 701.453 1115.57 754.366 1158.67 765.051C1210.22 777.806 1227.53 715.716 1257.74 688.263C1300.86 649.076 1362.2 636.985 1416.9 643.862C1473.21 650.968 1555.21 671.98 1605.06 634.915C1630.05 616.306 1634.63 598.208 1641.07 566.971C1644.29 551.481 1654.08 517.458 1609.5 497.443C1590.1 488.751 1576.84 508.971 1565.18 519.63L1552.63 529.83V529.83Z" fill="#192E35"/>
<path d="M985.365 3292.6C956.507 3297.33 942.167 3366.96 918.626 3381.17C861.192 3415.93 826.097 3471.94 831.797 3529C836.117 3572.5 830.519 3619.15 865.102 3649.37C897.973 3678.05 949.861 3666.21 990.323 3667.72C1026.57 3669.07 1082.21 3679.02 1119.1 3666.85C1166.1 3651.31 1163.37 3608.7 1172.37 3563.68C1185.35 3498.91 1183.33 3433.39 1183.51 3365.83C1183.61 3325.37 1170.55 3298.76 1136.5 3277.62C1084.95 3245.61 1040.09 3283.63 985.365 3292.62V3292.6Z" fill="#003056"/>
<path d="M1492.33 2141C1496.45 2141 1499.77 2137.68 1499.77 2133.56V1390.53C1499.77 1386.41 1496.45 1383.09 1492.33 1383.09C1488.22 1383.09 1484.92 1386.41 1484.92 1390.53V2133.56C1484.92 2137.68 1488.24 2141 1492.33 2141Z" fill="#21263D"/>
<path d="M1299.15 2141C1303.26 2141 1306.59 2137.68 1306.59 2133.56V1390.53C1306.59 1386.41 1303.26 1383.09 1299.15 1383.09C1295.03 1383.09 1291.71 1386.41 1291.71 1390.53V2133.56C1291.71 2137.68 1295.03 2141 1299.15 2141Z" fill="#21263D"/>
<path d="M2325.68 1941.26C2278.7 1961.92 2627.88 1831.75 2981.41 1307.5L2930.21 1257.68C2869.89 1301.47 2656.74 1568.8 2236.96 1750.19C2236.96 1750.19 2208.31 1772.07 2325.68 1941.26V1941.26Z" fill="#F7B6A0"/>
<path d="M2166.52 1674.01C2166.52 1674.01 2395.62 1475.6 2803.97 1341.55C2803.97 1341.55 2913.68 1386.77 2922.19 1474.29C2922.19 1474.29 2519.1 1909.23 2318.78 2017.15C2318.78 2017.15 2103.51 2017.15 2166.52 1674.01V1674.01Z" fill="#2C6496"/>
<path d="M2354.74 1546.87C2356.07 1546.87 2357.43 1546.48 2358.66 1545.77C2414.94 1510.9 2477.87 1476.52 2551.08 1440.83C2599.28 1417.32 2652.47 1399.91 2714.05 1379.69C2743.47 1370.05 2773.91 1360.06 2806.45 1348.56C2810.31 1347.18 2812.35 1342.96 2810.97 1339.07C2809.59 1335.21 2805.38 1333.17 2801.52 1334.57C2769.11 1346 2738.79 1355.94 2709.45 1365.58C2647.34 1385.9 2593.71 1403.49 2544.58 1427.49C2470.92 1463.41 2407.55 1497.99 2350.86 1533.11C2347.38 1535.29 2346.28 1539.86 2348.48 1543.34C2349.89 1545.61 2352.32 1546.87 2354.8 1546.87H2354.74Z" fill="#21263D"/>
<path d="M3159.7 1087.03C3198.19 1120.13 3068.83 1184.75 3052.29 1206.33C3080.79 1189.51 3184.16 1117.6 3208.72 1140.53C3222.01 1155.49 3121.28 1206.61 3104.46 1219.93C3123.25 1213.36 3192.95 1175.19 3206.11 1194.93C3212.02 1210.9 3141.86 1243.8 3122.33 1257.4C3128.44 1257.04 3193.46 1226.29 3194.13 1241.53C3195.84 1256.3 3154.05 1284.45 3132.25 1296.92C3033.81 1352.93 2926.58 1417.83 2907.36 1342.45C2892.97 1286.18 2886.61 1254.77 2974.05 1112.13C2989.11 1087.49 3012.44 1134.68 2992.71 1190.02C3007.1 1192.65 3155.12 1083.07 3159.7 1087.03V1087.03Z" fill="#F7B6A0"/>
<path d="M2980.13 1223.84C2979.98 1222.41 2979.83 1221.03 2979.67 1219.62C2979.37 1216.71 2988.34 1216.4 2988.7 1219.62C2988.85 1221.03 2988.88 1222.41 2988.88 1223.84C2987.62 1223.05 2986.37 1222.23 2985.09 1221.38C2990.36 1221.9 2993.32 1222.89 2993.45 1228.54C2993.5 1232.76 2991.82 1236.98 2994.5 1240.74C2997.16 1244.47 2996.77 1248.76 2996.29 1253.18C2994.17 1272.02 2970.83 1288.72 2954.98 1295.67C2952.32 1296.84 2938.83 1294.88 2944.04 1291.53C2957.21 1283.12 2969.96 1275.78 2978.73 1262.34C2982.97 1255.87 2985.02 1247.33 2980.72 1240.53C2979.57 1238.72 2981.39 1226.09 2982.38 1226.29C2981.46 1226.11 2978.27 1225.47 2978.6 1223.86C2978.93 1222.25 2979.32 1220.62 2979.85 1219.06C2980.72 1216.32 2989.64 1216.86 2988.54 1220.21C2988.11 1221.61 2987.68 1222.97 2987.22 1224.32C2986.55 1226.37 2980.39 1226.14 2980.16 1223.86L2980.13 1223.84Z" fill="#21263D"/>
<path d="M3527.62 1313.33C3474.63 1250.09 3419.37 1266.98 3368.96 1267.26C3063.31 1269.03 2771.79 1400.83 2698.08 1467.77C2678.62 1475.31 2595.27 1623.83 2774.04 1649.8C2864.53 1659.18 3426.12 1470.1 3493.36 1466.11C3493.36 1466.11 3582.65 1423.27 3527.64 1313.33H3527.62Z" fill="#BB6A57"/>
<path d="M3371.72 1511.9C3703.17 1440.25 3822 1463.28 4132.71 1701.9L4190.58 1647.45C4093.35 1515.02 3891.65 1236.62 3457.04 1265.02C3457.04 1265.02 3302.61 1396.77 3371.72 1511.9V1511.9Z" fill="#BB6A57"/>
<path d="M3501.34 1527L2944.96 1707.44C2657.97 1772.45 2584.82 1575.52 2584.82 1575.52C2547.6 1403.82 2673.41 1302.06 2673.41 1302.06C2673.41 1302.06 2875.67 1239.25 3285.1 1179.41C3285.1 1179.41 3457.63 1402.31 3501.34 1527V1527Z" fill="#88284D"/>
<path d="M4128.08 1694.28C4128.08 1694.28 4099.84 1626.34 4156.94 1605.66L4298.68 1703.56L4404.93 1879.19C4404.93 1879.19 4421.88 1917.9 4393.45 1920.43C4393.45 1920.43 4275.36 1860.13 4200.63 1784.62L4188.54 1831.27C4188.54 1831.27 4167.09 1870.4 4148.64 1776.59L4128.11 1694.31L4128.08 1694.28Z" fill="#BB6A57"/>
<path d="M2772 1820.07C2627.42 1765.6 2776.44 1706.78 2793.85 1682.52C2811.28 1658.34 3535.54 1466.91 3535.54 1466.91L3636.58 1708.42C3636.58 1708.42 3082.02 1936.91 2771.97 1820.07H2772Z" fill="#EE9983"/>
<path d="M2874.57 1668.08C2513.78 1563.58 2442.9 1520.72 2237.22 1452.52C2237.22 1452.52 2173.7 1484.16 2213.29 1527.77C2243.61 1561.18 2569.89 1817.08 2835.9 1842.11C2892.16 1847.42 2874.57 1668.11 2874.57 1668.11V1668.08Z" fill="#EE9983"/>
<path d="M3670.93 1809.69C3670.93 1809.69 3896.76 1736.23 3834.8 1582.39C3834.8 1582.39 3757.66 1311.41 3538.63 1308.47L2894.69 1627.61C2894.69 1627.61 2992.99 1843.43 3149.73 1992.49C3149.73 1992.49 3521.71 1875.46 3670.96 1809.69H3670.93Z" fill="#305891"/>
<path d="M2251.84 1458.93L2198.72 1371.07L2126.87 1295.21C2101.54 1319.57 2142.29 1359.62 2142.29 1359.62C2071.97 1324.91 2014.23 1274.53 2014.23 1274.53C1989.51 1260.03 1986.01 1285.57 1986.01 1285.57C2008.76 1319.92 2086.05 1374.4 2086.05 1374.4C2038.31 1349.86 1964.97 1297.97 1964.97 1297.97C1942.53 1289.71 1944.06 1314.4 1944.06 1314.4C1961.93 1368.31 2061.72 1406.55 2061.72 1406.55C2023.61 1393.31 1949.89 1345 1949.89 1345C1932.79 1347.1 1936.52 1356.02 1936.52 1356.02C1944.14 1400.93 2040.25 1437.51 2040.25 1437.51L2004.62 1422.84C1957.59 1398.5 1963.77 1432.27 1963.77 1432.27L1986.37 1448.88C2056.15 1498.24 2127.44 1503.38 2127.44 1503.38L2217.36 1522.63L2251.81 1458.98L2251.84 1458.93Z" fill="#EE9983"/>
<path d="M3408.25 3764.98L3462.36 3156.81L3462.23 2828.13H4025.05V3053.41L3884.36 3764.98H3408.25Z" fill="#007AC3"/>
<path d="M4081.69 976.271C4086.29 966.788 4090.23 958.531 4093.42 952.345C4146.85 848.896 4192.65 613.777 4056.44 517.178C3930.81 428.094 3906.99 722.901 3895.02 790.154C3881.2 867.888 3871.05 951.732 3903.77 1026.24C3916.09 1054.31 3947.68 1097.49 3983.41 1095.93C4022.95 1094.19 4059.76 1021.54 4081.69 976.297V976.271Z" fill="#A9723E"/>
<path d="M5121.01 1034.02C5099.95 741.996 4966.01 555.7 4711.81 210.332L4647.7 241.824C4668.61 313.398 4818.47 634.508 4873.33 1066.33C4873.33 1066.33 5052.53 1203.52 5121.01 1034.02V1034.02Z" fill="#F7B6A0"/>
<path d="M5121.01 1034.01C5116.94 1081.15 5080.67 1161.67 5052.53 1203.51C4881.89 1457.14 4610.82 1627.03 4514.2 1651.34C4497.18 1663.4 4327.35 1650.62 4404.67 1487.38C4446.95 1406.78 4915.22 1043.73 4955.84 989.919C4955.84 989.919 5059.87 927.369 5121.01 1034.04V1034.01Z" fill="#F7B6A0"/>
<path d="M3785.47 3764.98L3687.98 2828.13H4380.49L4338.45 3764.98H3785.47Z" fill="#007AC3"/>
<path d="M4024.92 937.902H3766.12V1259.73H4024.92V937.902Z" fill="#F7B6A0"/>
<path d="M3945.91 1116.02C3971.88 1061.52 3987.32 1006.41 3982.95 937.824L3765.99 938.003L3766.22 1217.73C3834.34 1207.22 3918.26 1174.07 3945.91 1116.02Z" fill="#F2937C"/>
<path d="M3650.13 1307.94L3766.45 1221.08H4025.13L4164.74 1307.94H3650.13Z" fill="#F7B6A0"/>
<path d="M3418.14 2179.83C3415.15 2339.67 3412.16 2499.49 3409.19 2659.32C3407.41 2753.47 3403.93 2847.74 3403.9 2941.89C3403.88 3061.06 3478.59 3058.25 3580.09 3033.17C3603.61 3027.37 3626.61 3019.29 3650.23 3013.87C3740.31 2993.24 3804.41 3074.83 3887.74 3099.32C3969.2 3123.25 4052.96 3159.93 4135.68 3173.38C4223.55 3187.61 4323.32 3163.43 4408.1 3137.72C4493.57 3111.8 4502.72 3087.18 4486.9 3009.37C4479.41 2972.69 4478.93 2932.99 4475.07 2895.8C4463.62 2786.04 4452.19 2676.3 4440.79 2566.51C4425.66 2421.37 4433.23 2168.51 4450.58 2044.71L4529.82 1665.76C4529.82 1665.76 4580.07 1539.3 4576.01 1514.58C4559.49 1414.17 4365.67 1360.26 4365.67 1360.26L4029.37 1219.19C3827.77 1378.75 3766.27 1217.68 3766.27 1217.68L3461.47 1347.05C3461.47 1347.05 3388.72 1383.99 3362.29 1479.87L3418.19 2179.81L3418.14 2179.83Z" fill="#305891"/>
<path d="M4686.07 1081.36L4255.48 1488.33C4205.33 1527.8 4187.74 1597.32 4187.74 1597.32C4266.67 1856.78 4484.47 1853.33 4484.47 1853.33C4564.79 1814.96 4874.27 1528.87 4982.29 1418.06C4830.1 1238.95 4766.28 1163.72 4686.07 1081.36V1081.36Z" fill="#305891"/>
<path d="M3407.56 2832.99C3407.74 2832.99 3407.97 2832.99 3408.17 2832.94C3412.26 2832.61 3415.28 2829 3414.95 2824.94C3408.04 2742.2 3411.09 2679.65 3413.28 2633.97C3414.26 2613.87 3415.1 2596.52 3414.95 2581.44C3414.2 2505.42 3415.69 2446.29 3417.22 2383.66C3419.16 2304.47 3421.21 2222.6 3419.01 2097.98C3417.09 1987.91 3409.65 1915.29 3399.35 1814.81C3393.94 1762.2 3387.83 1702.56 3381.38 1626.39C3381.03 1622.27 3377.35 1619.41 3373.36 1619.59C3369.27 1619.95 3366.23 1623.55 3366.59 1627.59C3373.05 1703.92 3379.16 1763.63 3384.55 1816.32C3394.83 1916.44 3402.27 1988.78 3404.16 2098.21C3406.33 2222.57 3404.31 2304.24 3402.34 2383.28C3400.79 2446.06 3399.33 2505.34 3400.07 2581.56C3400.2 2596.21 3399.38 2613.36 3398.41 2633.23C3396.16 2679.34 3393.09 2742.48 3400.1 2826.17C3400.4 2830.05 3403.65 2832.99 3407.51 2832.99H3407.56Z" fill="#21263D"/>
<path d="M4264.45 2649.69C4267.18 2649.69 4269.82 2648.18 4271.12 2645.55C4272.94 2641.89 4271.43 2637.42 4267.75 2635.6C4089 2547.03 3882.98 2369.22 3840.81 2135.64C3840.09 2131.62 3836.26 2128.96 3832.17 2129.63C3828.13 2130.37 3825.47 2134.26 3826.19 2138.27C3862.82 2341.23 4025.43 2532.13 4261.15 2648.87C4262.2 2649.41 4263.35 2649.64 4264.45 2649.64V2649.69Z" fill="#21263D"/>
<path d="M3962.3 2723.99C3965.44 2723.99 3968.33 2722 3969.35 2718.86C3970.66 2715 3968.53 2710.75 3964.62 2709.5C3949.24 2700.83 3948.04 2551.94 3959.54 2510.47C3960.64 2506.54 3958.34 2502.42 3954.37 2501.32C3950.41 2500.2 3946.32 2502.58 3945.22 2506.49C3937.96 2532.69 3926.05 2712.36 3959.95 2723.58C3960.74 2723.84 3961.51 2723.97 3962.27 2723.97L3962.3 2723.99Z" fill="#21263D"/>
<path d="M3870.66 1297C3931.42 1297 3997.06 1267.55 4020.76 1226.8C4022.8 1223.25 4021.6 1218.7 4018.05 1216.63C4014.49 1214.53 4009.94 1215.76 4007.87 1219.34C3983.82 1260.78 3906.81 1289.74 3846.28 1280.28C3817.45 1275.75 3781.1 1261.01 3771.41 1216.48C3770.54 1212.49 3766.58 1209.96 3762.57 1210.83C3758.56 1211.67 3756.03 1215.66 3756.89 1219.67C3765.84 1260.8 3796.74 1287.54 3843.95 1294.98C3852.64 1296.33 3861.59 1297 3870.64 1297H3870.66Z" fill="#21263D"/>
<path d="M3855.89 1332.96C3862.61 1332.96 3869.46 1332.6 3876.39 1331.97C3942.9 1325.29 3990.54 1306.79 4022.08 1275.35C4024.97 1272.46 4025 1267.75 4022.08 1264.81C4019.2 1261.93 4014.47 1261.93 4011.58 1264.81C3982.57 1293.75 3937.86 1310.83 3874.91 1317.14C3845.36 1320.08 3817.52 1316.24 3794.44 1306.05C3775.07 1297.46 3765.41 1282.73 3754.21 1265.68C3749.89 1259.14 3745.47 1252.39 3740.36 1245.74C3737.85 1242.45 3733.2 1241.88 3729.95 1244.39C3726.71 1246.89 3726.09 1251.55 3728.6 1254.82C3733.48 1261.13 3737.67 1267.55 3741.79 1273.79C3753.72 1292.01 3765.02 1309.24 3788.44 1319.62C3808.37 1328.44 3831.4 1332.94 3855.89 1332.94V1332.96Z" fill="#21263D"/>
<path d="M4502.21 1473.22C4504.62 1473.22 4506.99 1472.07 4508.4 1469.9C4510.67 1466.5 4509.75 1461.84 4506.33 1459.6C4476.27 1439.63 4435.04 1425.42 4395.17 1411.67C4377.58 1405.63 4360.94 1399.91 4345.76 1393.88C4286.71 1370.33 4209.6 1337.92 4136.9 1295.9C4133.35 1293.8 4128.8 1295.03 4126.75 1298.58C4124.71 1302.13 4125.91 1306.68 4129.46 1308.73C4202.98 1351.24 4280.73 1383.93 4340.26 1407.65C4355.73 1413.84 4372.54 1419.59 4390.31 1425.73C4429.31 1439.15 4469.65 1453.03 4498.1 1471.97C4499.35 1472.79 4500.78 1473.22 4502.21 1473.22V1473.22Z" fill="#21263D"/>
<path d="M4484.47 1860.77C4485.96 1860.77 4487.46 1860.28 4488.77 1859.39C4549.47 1816.26 4604.3 1770.74 4657.34 1726.7C4679.71 1708.11 4701.66 1689.91 4723.41 1672.38C4783.58 1623.89 4829.21 1579.05 4886.98 1522.28C4907.99 1501.62 4930.45 1479.51 4955.55 1455.41C4958.52 1452.57 4958.6 1447.87 4955.76 1444.87C4952.92 1441.96 4948.22 1441.83 4945.25 1444.7C4920.1 1468.88 4897.61 1491.04 4876.55 1511.72C4819.06 1568.19 4773.69 1612.84 4714.11 1660.82C4692.28 1678.36 4670.27 1696.66 4647.83 1715.29C4595 1759.13 4540.4 1804.51 4480.15 1847.3C4476.81 1849.65 4476.01 1854.3 4478.39 1857.62C4479.82 1859.67 4482.12 1860.77 4484.45 1860.77H4484.47Z" fill="#21263D"/>
<path d="M4402.58 3041.14C4402.71 3041.14 4402.81 3041.14 4402.94 3041.14C4407.03 3040.96 4410.2 3037.49 4409.99 3033.4C4403.37 2890.94 4399.59 2794.39 4395.98 2677.11C4391.49 2530.26 4392.15 2317.97 4392.76 2130.7C4393.2 1995.07 4393.58 1877.89 4392.02 1803.48C4391.92 1799.42 4388.67 1796.4 4384.46 1796.2C4380.34 1796.27 4377.07 1799.7 4377.17 1803.81C4378.73 1878.04 4378.32 2000.74 4377.91 2130.62C4377.32 2318.02 4376.63 2530.46 4381.13 2677.57C4384.74 2794.9 4388.55 2891.53 4395.17 3034.09C4395.34 3038.05 4398.64 3041.17 4402.58 3041.17V3041.14Z" fill="#21263D"/>
<path d="M3713.42 595.139C3639.34 622.541 3647.7 692.76 3633.18 759.886C3627.23 787.442 3615.42 813.745 3608.16 840.355C3594.23 810.32 3599.47 741.609 3595.02 709.248C3579.53 597.133 3633.1 471.572 3609.64 534.455C3594.2 575.84 3741.76 466.358 3785.22 458.945C3847.12 448.388 3823.61 499.818 3801.32 561.704L3713.39 595.139H3713.42Z" fill="#A9723E"/>
<path d="M4110.04 836.904C4110.68 880.104 4086.68 929.106 4047.8 947.05C3995.07 971.411 3974.75 923.048 3974.72 875.733C3974.72 837.543 3991.41 771.797 4034.66 758.224C4075.43 745.443 4109.5 801.424 4110.04 836.904V836.904Z" fill="#F7B6A0"/>
<path d="M4001.84 954.387C3977.12 1016.68 3943.33 1067.83 3884.72 1103.9C3827.37 1139.17 3768.06 1157.25 3712.65 1111.57C3668.56 1075.19 3639.98 1022.13 3623.93 968.651C3586.94 845.595 3614.98 675.199 3693.17 575.916C3779.06 466.946 3945.1 491.076 4009.33 612.547C4061.68 711.497 4041.82 853.801 4001.87 954.362L4001.84 954.387Z" fill="#F7B6A0"/>
<path d="M3700.28 893.472C3749.1 906.841 3791.04 897.306 3836.98 879.157C3887.25 859.296 3913.84 879.362 3940.21 924.479C3948.42 938.512 3978.04 924.479 3992.51 925.987C3998.08 926.575 4004.65 929.668 4009.66 933.374C4044.12 834.705 4058.1 704.85 4009.3 612.597C3945.07 491.101 3779.03 466.97 3693.15 575.967C3633.05 652.269 3602.74 770.544 3608.67 877.112C3640.39 874.428 3668.86 884.934 3700.25 893.523L3700.28 893.472Z" fill="#F7B6A0"/>
<path d="M3712.65 1111.57C3768.06 1157.25 3827.34 1139.17 3884.72 1103.9C3943.33 1067.83 3977.12 1016.68 4001.84 954.387C4002.51 952.751 4014.01 901.448 4014.01 901.448C3985.84 868.243 3955.93 955.358 3940.21 924.454C3928.35 901.141 3891.24 876.295 3861.44 886.008C3830.66 896.08 3802.03 909.117 3769.85 914.408C3714.03 923.559 3664.03 886.52 3609.64 891.76C3612.02 918.6 3616.69 944.545 3623.93 968.65C3640.01 1022.13 3668.58 1075.19 3712.65 1111.57Z" fill="#A9723E"/>
<path d="M4046.57 908.914C4047.24 908.914 4047.93 908.786 4048.59 908.607C4052.55 907.508 4054.88 903.393 4053.75 899.405C4042.74 860.065 4050.1 820.776 4070.55 809.964C4074.2 807.995 4075.58 803.496 4073.67 799.867C4071.72 796.262 4067.23 794.856 4063.6 796.748C4036.3 811.191 4026.15 856.077 4039.42 903.444C4040.34 906.741 4043.33 908.914 4046.57 908.914V908.914Z" fill="#F2937C"/>
<path d="M4085.96 848.562C4088.85 848.562 4091.61 846.875 4092.81 844.037C4094.42 840.229 4092.68 835.832 4088.9 834.221C4074.46 828.035 4054.37 824.303 4041.23 832.56C4037.73 834.733 4036.68 839.334 4038.85 842.785C4041.05 846.287 4045.63 847.36 4049.13 845.188C4056.82 840.356 4071.7 843.091 4083.02 847.948C4083.97 848.357 4084.96 848.562 4085.96 848.562V848.562Z" fill="#F2937C"/>
<path d="M3705.42 809.422C3704.62 823.124 3697.34 833.834 3689.13 833.374C3680.9 832.888 3674.9 821.411 3675.66 807.71C3676.46 794.06 3683.74 783.324 3691.94 783.784C3700.18 784.244 3706.18 795.696 3705.42 809.422V809.422Z" fill="#21263D"/>
<path d="M3883.44 819.57C3882.65 833.272 3875.37 843.982 3867.16 843.548C3858.96 843.062 3852.92 831.585 3853.69 817.883C3854.48 804.182 3861.77 793.472 3869.97 793.957C3878.2 794.417 3884.21 805.895 3883.44 819.57V819.57Z" fill="#21263D"/>
<path d="M3870.36 762.033C3885.54 762.417 3911.79 766.277 3924.7 771.006C3927.95 729.519 3859.11 738.082 3842.8 739.36C3834.91 739.973 3827.7 743.118 3832.25 761.062C3834.57 770.188 3841.58 761.318 3870.36 762.033Z" fill="#A9723E"/>
<path d="M3701.43 760.805C3686.24 761.214 3660.02 765.074 3647.06 769.777C3643.84 728.316 3712.65 736.828 3728.98 738.132C3736.85 738.745 3744.09 741.94 3739.54 759.885C3737.21 768.985 3730.21 760.089 3701.43 760.805Z" fill="#A9723E"/>
<path d="M3908.9 868.37C3908.34 878.134 3890.04 884.985 3868.01 883.732C3845.97 882.48 3828.59 873.584 3829.15 863.82C3829.69 854.081 3848.02 847.255 3870.05 848.482C3892.06 849.735 3909.47 858.656 3908.9 868.37V868.37Z" fill="#F2937C"/>
<path d="M3712.32 868.371C3711.73 878.084 3693.45 884.986 3671.42 883.734C3649.41 882.456 3632.01 873.586 3632.57 863.821C3633.13 854.082 3651.43 847.231 3673.44 848.484C3695.45 849.736 3712.85 858.657 3712.32 868.371V868.371Z" fill="#F2937C"/>
<path d="M3761.11 906.841C3768.65 906.841 3775.94 905.792 3781.69 904.208C3785.65 903.083 3787.95 898.968 3786.85 895.005C3785.75 891.043 3781.64 888.743 3777.65 889.842C3762.47 894.085 3742.43 891.554 3736.45 884.55C3735.5 883.451 3732.97 880.512 3736.32 873.124C3745.7 852.445 3752.75 837.951 3758.07 827.036C3770.72 801.065 3774.12 794.087 3774.12 773.458C3774.12 769.343 3770.8 766.02 3766.68 766.02C3762.57 766.02 3759.25 769.343 3759.25 773.458C3759.25 790.661 3757.02 795.237 3744.68 820.518C3739.33 831.484 3732.2 846.131 3722.75 866.989C3716.41 880.921 3721.52 890.046 3725.12 894.238C3733.05 903.466 3747.51 906.789 3761.11 906.789V906.841Z" fill="#F2937C"/>
<path d="M4088.62 566.689C4054.44 499.767 3984.54 464.901 3911.56 457.718C3841.91 450.867 3685.5 455.136 3662.63 532.001C3624.7 659.53 3866.98 636.038 3941.26 643.477C4001.74 649.561 3984.41 811.215 3985.84 868.269C4003.48 868.269 4007.44 875.759 4015.57 856.485C4021.68 842.042 4028.81 784.349 4040.97 773.485C4070.04 747.463 4096.7 785.244 4101.96 804.339C4101.96 804.339 4136.9 690.511 4088.62 566.689V566.689Z" fill="#A9723E"/>
<path d="M3773.48 974.965C3809.27 974.965 3830.61 943.881 3845.1 922.742C3847.43 919.342 3846.59 914.69 3843.16 912.389C3839.76 910.037 3835.11 910.881 3832.78 914.306C3813.97 941.734 3796.03 964.178 3765.76 959.449C3761.73 958.784 3757.89 961.621 3757.28 965.711C3756.66 969.776 3759.45 973.559 3763.51 974.198C3766.94 974.709 3770.26 974.99 3773.46 974.99L3773.48 974.965Z" fill="#F2937C"/>
<path d="M4484.58 48.9069C4518.55 11.203 4580.25 142.029 4601.44 159.054C4585.23 130.143 4515.68 25.1854 4539.15 1.13157C4554.41 -11.8028 4603.25 90.0617 4616.19 107.188C4610.03 88.2724 4573.48 17.6957 4593.49 5.01699C4609.59 -0.529961 4640.88 70.3534 4653.99 90.2151C4653.84 84.1058 4624.52 18.3604 4639.78 18.0792C4654.6 16.6733 4681.8 59.0806 4693.79 81.1662C4747.59 180.832 4810.09 289.496 4734.28 307.006C4677.71 320.145 4646.12 325.82 4505.51 235.152C4481.2 219.533 4528.87 197.294 4583.75 218.23C4586.74 203.915 4480.51 53.457 4484.55 48.9325L4484.58 48.9069Z" fill="#F7B6A0"/>
<path d="M4617.44 229.734C4616.03 229.708 4614.6 229.657 4613.17 229.606C4607.78 229.478 4607.75 225.031 4613.17 225.184C4615.06 225.21 4616.93 225.363 4618.79 225.516C4616.62 226.309 4614.45 227.127 4612.28 227.945C4612.61 221.12 4617.82 220.89 4623.8 221.478C4631.32 222.244 4636.92 218.103 4644.97 219.203C4666.34 222.04 4685.74 242.464 4692.74 262.326C4694.66 267.668 4681.6 267.591 4679.32 264.115C4671.22 251.692 4665.08 239.575 4652.94 230.296C4645.38 224.519 4640.14 227.664 4632.42 228.482C4630.17 228.712 4628.18 228.354 4625.93 227.996C4625.18 227.868 4624.44 227.791 4623.73 227.689C4619.97 226.794 4619.59 226.871 4622.55 227.97C4621.91 230.45 4618.16 230.833 4616.03 230.45C4614.3 230.117 4612.58 229.785 4610.87 229.351C4605.15 227.945 4612.33 224.775 4615.42 225.542C4616.67 225.874 4617.95 226.181 4619.2 226.462C4622.94 227.408 4619.64 229.836 4617.39 229.785L4617.44 229.734Z" fill="#21263D"/>
<path d="M3765.41 3764.98C3748.05 3633 3734.71 3495.05 3721.06 3352.23C3713.82 3276.49 3706.39 3198.71 3698.08 3118.7C3697.67 3114.58 3700.64 3110.98 3704.7 3110.54C3708.82 3110.08 3712.44 3113.07 3712.85 3117.16C3721.19 3197.22 3728.62 3275.09 3735.86 3350.83C3749.56 3494.18 3762.93 3632.67 3780.38 3764.98H3765.41V3764.98Z" fill="#21263D"/>
<path d="M4196.71 3354.74C4221.25 3354.74 4246.63 3349.96 4272.5 3340.37C4276.34 3338.94 4278.3 3334.67 4276.87 3330.83C4275.44 3326.95 4271.15 3325.01 4267.31 3326.44C4209.7 3347.83 4154.54 3343.54 4107.81 3313.96C4053.75 3279.76 4016.21 3212.94 4009.84 3139.58C4009.48 3135.46 4005.96 3132.58 4001.81 3132.81C3997.73 3133.16 3994.68 3136.77 3995.04 3140.83C4001.92 3219.92 4041.1 3289.32 4099.87 3326.54C4129.54 3345.3 4162.26 3354.76 4196.74 3354.76L4196.71 3354.74Z" fill="#21263D"/>
<path d="M3498.35 3288.84C3523.19 3288.84 3555.35 3253.1 3575.67 3221.97C3603.53 3179.2 3626.59 3120.72 3607.8 3084.73C3605.91 3081.12 3601.41 3079.72 3597.75 3081.58C3594.13 3083.5 3592.72 3088 3594.64 3091.63C3609.46 3120 3589.55 3173.43 3563.25 3213.81C3536.79 3254.41 3510.59 3274.45 3497.69 3273.96C3493.6 3273.58 3490.04 3276.8 3489.76 3280.89C3489.48 3285.01 3492.6 3288.53 3496.69 3288.81C3497.23 3288.84 3497.79 3288.86 3498.35 3288.86V3288.84Z" fill="#21263D"/>
<path d="M3784.47 3125.37C3788.59 3125.37 3791.91 3122.04 3791.91 3117.93C3791.91 3113.81 3788.59 3110.49 3784.47 3110.49C3765.71 3110.49 3751.91 3109.88 3739.74 3109.31C3727.65 3108.78 3717.58 3108.34 3706.87 3108.7C3711.32 3014.12 3710.4 3014.05 3701.79 3013.38C3694.19 3012.61 3693.27 3019.72 3692.15 3030.3C3691.89 3032.65 3692.79 3034.9 3694.37 3036.44C3694.25 3050.83 3693.48 3076.75 3691.64 3116.24C3691.54 3118.39 3692.33 3120.46 3693.86 3121.94C3695.4 3123.45 3697.49 3124.14 3699.61 3124.01C3712.8 3122.97 3724.38 3123.53 3739.03 3124.19C3751.35 3124.73 3765.33 3125.37 3784.42 3125.37H3784.47Z" fill="#21263D"/>
<path d="M3586.41 495.064C3593.33 426.098 3619.05 398.056 3690.33 390.95C3748.74 385.147 3809.88 381.62 3868.65 375.92C3950.8 367.944 3975.41 417.56 4028.22 465.182C4059.51 493.402 4144.49 495.064 4133.43 551.556C4121.52 612.24 4050.97 624.459 4006.95 640.716C3910.49 676.35 3812.97 637.163 3718.35 616.637C3650.13 601.862 3577.89 580.39 3586.41 495.064V495.064Z" fill="#A9723E"/>
<path d="M2462.71 3764.98L2295.68 3140.27H2906.88L2887.12 3764.98H2462.71Z" fill="#002B49"/>
<path d="M1968.27 2668.98H2863.58L2907.77 3112.66L2895.12 3354.53L1999.48 3350.93C1975.94 3277.77 1982.18 2986.34 1986.6 2964.28L1968.27 2668.98Z" fill="#002B49"/>
<path d="M2476.21 3764.98H2006.43L1983.43 3188.07C2042.86 2786.82 2555.27 2973.09 2555.27 2973.09L2552.58 3157.47L2476.21 3764.95V3764.98Z" fill="#002B49"/>
<path d="M2618.45 3118.34C2591.23 3131.94 2571.58 3141.78 2558.8 3161.51C2544.76 3183.22 2547.6 3212.41 2550.33 3240.65C2552.05 3258.39 2553.84 3276.77 2551.43 3293.31C2531.55 3429.84 2514.63 3566.47 2496.68 3711.17C2494.46 3729.02 2492.24 3747.01 2490.01 3764.98H2475.03C2477.33 3746.4 2479.63 3727.81 2481.93 3709.38C2499.88 3564.6 2516.82 3427.87 2536.74 3291.19C2538.88 3276.44 2537.27 3259.75 2535.56 3242.11C2532.57 3211.36 2529.48 3179.51 2546.35 3153.44C2561.33 3130.33 2583.61 3119.18 2611.83 3105.05C2639.11 3091.4 2673.05 3074.42 2712.18 3040.22C2715.25 3037.46 2719.95 3037.79 2722.66 3040.89C2725.37 3044.01 2725.04 3048.68 2721.95 3051.37C2681.41 3086.85 2646.52 3104.31 2618.48 3118.31L2618.45 3118.34Z" fill="#003E64"/>
<path d="M2592.77 2855.82C2646.44 2855.82 2716.1 2853.75 2834.01 2846.79C2838.12 2846.56 2841.24 2843.04 2840.98 2838.95C2840.75 2834.86 2837.12 2831.33 2833.14 2831.97C2635.78 2843.57 2574.06 2841.53 2495.94 2838.95C2473.96 2838.23 2450.62 2837.46 2422.56 2836.9C2407.73 2836.62 2388.28 2836.93 2365 2837.23C2280.59 2838.46 2139.37 2840.53 1987.67 2817.17C1983.61 2816.53 1979.82 2819.34 1979.19 2823.38C1978.57 2827.44 1981.36 2831.23 1985.4 2831.84C2138.33 2855.38 2280.34 2853.31 2365.17 2852.09C2388.31 2851.75 2407.61 2851.47 2422.28 2851.75C2450.24 2852.29 2473.53 2853.06 2495.43 2853.82C2527.23 2854.85 2556.29 2855.82 2592.74 2855.82H2592.77Z" fill="#003E64"/>
<path d="M2040.73 3361.05C2199.31 3361.05 2338.74 3256.35 2382.4 3102.8C2383.53 3098.86 2381.23 3094.75 2377.29 3093.62C2373.38 3092.47 2369.21 3094.77 2368.11 3098.76C2325.17 3249.73 2185.89 3351.49 2028.77 3345.97C2024.84 3346.25 2021.23 3349.06 2021.08 3353.13C2020.93 3357.24 2024.15 3360.67 2028.24 3360.85C2032.4 3360.97 2036.57 3361.05 2040.71 3361.05H2040.73Z" fill="#003E64"/>
<path d="M2268.63 1019.19C2263.95 1009.73 2259.97 1001.47 2256.7 995.362C2202.48 892.322 2138.12 633.532 2273.34 582.306C2435.44 520.931 2441.4 764.486 2453.87 831.586C2468.29 909.244 2479.05 993.01 2446.94 1067.78C2434.83 1095.95 2403.57 1139.3 2367.83 1138.02C2328.27 1136.57 2290.92 1064.2 2268.63 1019.16V1019.19Z" fill="#3E1600"/>
<path d="M2633.94 635.247C2708.22 662.035 2700.4 732.357 2715.46 799.354C2721.64 826.859 2733.63 853.086 2741.12 879.645C2754.82 849.507 2757.04 815.535 2761.29 783.123C2770.03 715.997 2776.06 657.179 2751.29 592.251C2735.52 550.969 2604.63 506.619 2561.1 499.589C2499.14 489.543 2523.04 540.769 2545.81 602.502L2633.97 635.247H2633.94Z" fill="#3E1600"/>
<path d="M2239.19 880.056C2238.91 923.281 2263.29 972.079 2302.24 989.716C2355.21 1013.64 2375.14 965.1 2374.81 917.785C2374.56 879.621 2357.3 814.029 2313.98 800.762C2273.08 788.313 2239.44 844.524 2239.19 880.03V880.056Z" fill="#BB6A57"/>
<path d="M2325.22 980.282L2584.02 978.441L2586.22 1300.29L2327.45 1302.08L2325.22 980.282Z" fill="#BB6A57"/>
<path d="M2405.46 1157.89C2379.08 1103.59 2363.23 1048.59 2367.07 979.977L2584 978.469L2585.92 1258.22C2517.69 1248.22 2433.55 1215.74 2405.43 1157.91L2405.46 1157.89Z" fill="#9D483E"/>
<path d="M2348.28 996.695C2373.48 1058.81 2407.66 1109.68 2466.55 1145.29C2524.19 1180.15 2583.59 1197.71 2638.65 1151.65C2682.48 1114.97 2710.62 1061.65 2726.27 1008.02C2762.33 884.708 2732.99 714.541 2654.01 615.898C2567.31 507.591 2401.47 532.949 2338.13 654.956C2286.58 754.316 2307.54 896.441 2348.25 996.695H2348.28Z" fill="#BB6A57"/>
<path d="M2303.19 951.552C2306.46 951.552 2309.45 949.379 2310.35 946.056C2323.26 898.562 2312.72 853.802 2285.35 839.539C2281.67 837.698 2277.2 839.079 2275.3 842.734C2273.41 846.39 2274.82 850.888 2278.47 852.78C2299 863.465 2306.69 902.703 2295.96 942.17C2294.88 946.132 2297.24 950.248 2301.2 951.322C2301.86 951.475 2302.5 951.552 2303.17 951.552H2303.19Z" fill="#9D483E"/>
<path d="M2263.29 891.481C2264.29 891.481 2265.28 891.302 2266.26 890.868C2277.55 885.934 2292.43 883.071 2300.17 887.851C2303.68 889.998 2308.28 888.874 2310.42 885.372C2312.57 881.87 2311.47 877.269 2307.97 875.121C2291.43 865.024 2267.3 874.125 2260.33 877.192C2256.54 878.828 2254.8 883.25 2256.47 886.982C2257.69 889.794 2260.43 891.456 2263.32 891.456L2263.29 891.481Z" fill="#9D483E"/>
<path d="M2643.58 849.456C2644.47 863.131 2651.86 873.791 2660.07 873.254C2668.27 872.717 2674.23 861.214 2673.33 847.513C2672.44 833.863 2665.08 823.178 2656.85 823.715C2648.64 824.251 2642.71 835.729 2643.58 849.456Z" fill="#21263D"/>
<path d="M2465.63 861.011C2466.52 874.686 2473.91 885.371 2482.11 884.834C2490.35 884.298 2496.25 872.795 2495.38 859.119C2494.51 845.392 2487.15 834.733 2478.89 835.244C2470.69 835.832 2464.78 847.335 2465.63 861.011Z" fill="#21263D"/>
<path d="M2440.58 909.987C2441.19 919.701 2459.57 926.423 2481.55 924.992C2503.59 923.56 2520.92 914.486 2520.28 904.798C2519.64 895.11 2501.28 888.362 2479.25 889.793C2457.27 891.225 2439.94 900.248 2440.55 909.987H2440.58Z" fill="#AB5642"/>
<path d="M2637.16 908.454C2637.78 918.193 2656.13 924.891 2678.14 923.485C2700.17 922.053 2717.5 913.004 2716.84 903.316C2716.2 893.552 2697.82 886.803 2675.84 888.26C2653.86 889.717 2636.53 898.741 2637.16 908.454Z" fill="#AB5642"/>
<path d="M2588.04 947.283C2601.81 947.283 2616.59 943.884 2624.54 934.451C2628.12 930.234 2633.15 921.057 2626.71 907.177C2617.1 886.42 2609.87 871.799 2604.45 860.884C2591.92 835.68 2589.67 831.13 2589.55 813.927C2589.52 809.862 2586.2 806.539 2582.11 806.539H2582.06C2577.94 806.59 2574.64 809.939 2574.67 814.054C2574.82 834.657 2578.27 841.61 2591.1 867.453C2596.52 878.343 2603.68 892.811 2613.21 913.388C2616.64 920.776 2614.13 923.715 2613.19 924.814C2607.26 931.869 2587.24 934.554 2572.04 930.387C2568.1 929.262 2563.98 931.639 2562.89 935.627C2561.81 939.615 2564.14 943.705 2568.13 944.753C2573.72 946.286 2580.75 947.258 2588.09 947.258L2588.04 947.283Z" fill="#9D483E"/>
<path d="M2606.21 795.905C2608.84 795.905 2611.45 794.831 2613.37 792.709C2629.65 774.867 2669.42 784.734 2680.23 791.406C2684.76 794.192 2690.74 792.786 2693.53 788.262C2696.31 783.686 2694.91 777.756 2690.38 774.969C2674.53 765.205 2624.1 752.219 2599.1 779.724C2595.53 783.661 2595.81 789.744 2599.74 793.323C2601.58 795.01 2603.94 795.879 2606.24 795.879L2606.21 795.905Z" fill="#3E1600"/>
<path d="M2440.81 807.435C2443.21 807.435 2445.59 806.54 2447.45 804.751C2462.97 790.104 2494.66 784.097 2513.86 798.054C2518.15 801.198 2524.21 800.252 2527.36 795.932C2530.5 791.612 2529.55 785.605 2525.23 782.461C2497.42 762.165 2455.68 770.37 2434.16 790.769C2430.28 794.424 2430.12 800.559 2433.78 804.419C2435.67 806.387 2438.23 807.41 2440.78 807.41L2440.81 807.435Z" fill="#3E1600"/>
<path d="M2697.36 1341.57L2581.03 1254.77H2322.39L2182.7 1341.57H2697.36Z" fill="#BB6A57"/>
<path d="M2929.35 2213.5C2932.34 2373.31 2935.33 2533.15 2938.29 2692.99C2940.06 2787.08 2943.56 2881.4 2943.58 2975.55C2943.58 3094.72 2868.9 3091.91 2767.4 3066.83C2743.85 3061 2720.85 3052.98 2697.23 3047.56C2607.18 3026.95 2570.81 3025.57 2487.48 3050.04C2406.05 3073.96 2295.29 3055.15 2212.58 3068.59C2124.7 3082.88 1976.83 3086.8 1922.8 3016.58C1848.49 2919.98 1865.39 2925.63 1881.26 2847.79C1888.73 2811.11 1889.21 2771.46 1893.1 2734.22C1904.52 2624.48 1895.3 2709.93 1906.72 2600.2C1921.85 2455.03 1916.41 2287.19 1954.06 2145.83L1897.44 1551.39C1877.63 1432.5 1981.87 1393.93 1981.87 1393.93L2318.19 1252.85C2464.58 1363.18 2581.29 1251.32 2581.29 1251.32L2767.98 1327.24C2767.98 1327.24 2857.14 1375.52 2875.72 1527.85L2929.37 2213.44" fill="#88284D"/>
<path d="M2247.01 847.437C2251.41 831.256 2247.09 807.892 2247.67 791.175C2249.16 748.307 2252.58 705.491 2258.82 663.084C2265.28 618.938 2274.64 574.384 2283.13 530.8C2286.22 514.952 2289.82 500.918 2304.19 490.847C2320.29 479.549 2344.65 491.281 2357.07 477.222C2361.47 472.238 2357.76 457.846 2363.03 450.612C2370.54 440.234 2378.29 439.774 2389.76 438.087C2408.22 435.352 2420.69 444.171 2438.61 450.127C2462.18 432.949 2444.59 402.096 2486.36 410.812C2508.42 415.439 2530.65 443.148 2548.9 430.751C2569.84 416.513 2562.91 390.516 2600.28 398.364C2627.58 404.09 2639.64 426.737 2654.65 445.935C2681 424.002 2698.66 407.566 2726.04 443.097C2741.22 462.729 2742.52 490.259 2751.45 506.874C2764.38 531.056 2778 546.291 2759.45 574.409C2745.64 595.319 2726.75 596.29 2707.2 604.726C2740.05 696.135 2466.04 703.497 2417.73 679.418C2365.58 653.421 2411.06 754.979 2402.42 767.402C2373.15 817.504 2364.69 853.418 2363.69 910.473C2346.11 910.6 2342.17 918.116 2333.89 898.97C2327.68 884.553 2320.09 826.987 2307.89 816.2C2278.6 790.382 2252.25 828.342 2247.09 847.513L2247.01 847.437Z" fill="#3E1600"/>
<path d="M2939.95 2866.61H2940.03C2944.15 2866.55 2947.44 2863.21 2947.39 2859.14C2946.04 2722.54 2946.6 2678.98 2947.11 2640.54L2947.39 2615.23C2949.13 2439.34 2949.28 2267.59 2932.62 2100.54C2926.54 2039.52 2922.32 1980.35 2917.82 1917.64C2910 1808.6 2901.95 1695.79 2883.08 1556.66C2882.55 1552.57 2878.81 1549.65 2874.72 1550.29C2870.66 1550.83 2867.8 1554.59 2868.36 1558.65C2887.17 1697.32 2895.22 1809.87 2903.02 1918.69C2907.52 1981.47 2911.76 2040.77 2917.84 2102C2934.43 2268.3 2934.28 2439.59 2932.54 2615.02L2932.26 2640.31C2931.78 2678.83 2931.19 2722.46 2932.54 2859.22C2932.59 2863.28 2935.92 2866.58 2939.98 2866.58L2939.95 2866.61Z" fill="#21263D"/>
<path d="M2074.37 2843.06C2075.47 2843.06 2076.6 2842.8 2077.67 2842.32C2239.49 2762.13 2351.17 2630.97 2376.37 2491.48C2377.09 2487.44 2374.4 2483.58 2370.36 2482.87C2366.3 2482.23 2362.46 2484.83 2361.72 2488.87C2333.02 2647.69 2192.77 2768.7 2071.05 2829C2067.37 2830.87 2065.86 2835.31 2067.7 2839C2068.98 2841.63 2071.64 2843.11 2074.37 2843.11V2843.06Z" fill="#21263D"/>
<path d="M2253.07 2924.12C2255.47 2924.12 2257.82 2922.97 2259.25 2920.82C2318.71 2831.63 2337.26 2714.53 2329.57 2686.82C2328.47 2682.86 2324.33 2680.56 2320.42 2681.66C2316.46 2682.79 2314.16 2686.85 2315.25 2690.81C2321.08 2711.75 2306.13 2823.76 2246.91 2912.56C2244.61 2915.99 2245.55 2920.61 2248.95 2922.89C2250.23 2923.73 2251.66 2924.14 2253.07 2924.14V2924.12Z" fill="#21263D"/>
<path d="M1935.71 2999.71C1939.36 2999.71 1942.56 2996.97 1943.07 2993.24C1951.94 2925.83 1953.09 2887.72 1954.08 2854.11C1955.21 2817.17 1956.16 2785.27 1967.12 2724.51C1991.84 2587.7 2018.65 2315.57 2038.2 2116.85C2043.93 2058.95 2048.99 2007.31 2053.23 1967.08C2053.67 1963.02 2050.73 1959.33 2046.64 1958.93C2042.6 1958.49 2038.89 1961.46 2038.46 1965.55C2034.22 2005.78 2029.1 2057.47 2023.4 2115.39C2003.85 2313.88 1977.09 2585.68 1952.47 2721.92C1941.36 2783.73 1940.36 2816.15 1939.21 2853.7C1938.21 2886.95 1937.06 2924.68 1928.29 2991.32C1927.76 2995.44 1930.62 2999.14 1934.68 2999.68C1935.02 2999.73 1935.35 2999.76 1935.68 2999.76L1935.71 2999.71Z" fill="#21263D"/>
<path d="M1556.59 2308.46C1499.62 2283.97 1507.24 2213.65 1516.54 2164.06C1572.95 1863.65 1754.69 1600.37 1833.82 1539.84C1844.69 1522.02 2005.69 1466.57 1999.3 1647.09C1992.43 1736.53 1791.29 2186.07 1717.22 2308.82C1717.22 2308.82 1674.45 2369.12 1556.62 2308.43L1556.59 2308.46Z" fill="#BB6A57"/>
<path d="M1582.41 1850.92C1693.09 1638.22 1828.61 1487.25 1828.61 1487.25C1895.7 1404.53 2102.31 1360.88 2102.31 1360.88C2102.31 1360.88 2205.63 1574.27 2078.59 1818.92L1903.86 2110.66C1792.52 2030.19 1680.69 1947.06 1582.41 1850.92V1850.92Z" fill="#88284D"/>
<path d="M2200.79 1934.08C2204.73 1934.08 2208.03 1930.98 2208.21 1927.05C2213.86 1814.6 2214.75 1761.74 2209.46 1650.18C2209.26 1646.25 2203.43 1554.51 2125.08 1488.79C2121.94 1486.15 2117.24 1486.56 2114.63 1489.71C2112 1492.85 2112.41 1497.55 2115.55 1500.16C2188.81 1561.61 2194.58 1650.06 2194.63 1650.93C2199.87 1761.81 2198.98 1814.42 2193.38 1926.3C2193.18 1930.39 2196.35 1933.9 2200.44 1934.08C2200.56 1934.08 2200.69 1934.08 2200.82 1934.08H2200.79Z" fill="#21263D"/>
<path d="M1551.81 2168.38C1699.09 2095.91 1778.97 2192.02 1778.97 2192.02C1800.03 2534.45 2151.85 3081.68 2186.81 3144.82L2132.96 3188.1C1891.33 3022.89 1565.13 2549.1 1516 2280.06C1516 2280.06 1504.99 2192.35 1551.79 2168.38H1551.81Z" fill="#BB6A57"/>
<path d="M2130.89 3198.55C2130.89 3198.55 2156.6 3144.16 2212.27 3142.8L2273.64 3154.58C2345.85 3167.75 2355.79 3172.84 2355.79 3172.84C2381.07 3182.93 2390.33 3222.35 2390.33 3222.35L2398.66 3262.76C2404.74 3295.2 2398.38 3293.69 2398.38 3293.69C2384.4 3309.95 2376.86 3300.62 2376.86 3300.62C2381.18 3312.84 2371.57 3316.67 2371.57 3316.67C2359.07 3327.1 2348.28 3320.74 2348.28 3320.74C2349.99 3328.56 2339.79 3334.64 2339.79 3334.64C2315.61 3347.14 2308.94 3329.35 2308.94 3329.35C2317.94 3347.71 2294.94 3350.54 2294.94 3350.54C2275.74 3353.18 2271.83 3340.29 2271.83 3340.29L2239.75 3294.59C2221.01 3289.81 2185.77 3275.44 2185.77 3275.44C2136.87 3255.71 2130.89 3198.5 2130.89 3198.5" fill="#BB6A57"/>
<path d="M2575.61 1010.09C2596.11 1010.09 2617.79 1004.8 2629.45 1001.47C2633.41 1000.32 2635.68 996.183 2634.56 992.246C2633.43 988.284 2629.27 986.035 2625.36 987.134C2597.19 995.262 2562.04 999.787 2547.86 988.489C2544.64 985.907 2539.93 986.469 2537.4 989.639C2534.82 992.86 2535.36 997.563 2538.55 1000.12C2547.88 1007.56 2561.45 1010.09 2575.61 1010.09V1010.09Z" fill="#9D483E"/>
<path d="M2293.35 3234.8C2276.12 3254.17 2256.59 3271.58 2235.76 3288.73C2215.75 3305.2 2184.21 3311.82 2167.77 3324.78C2128.08 3356.14 2163.96 3450 2174.57 3492.16C2180.83 3517.13 2177.15 3554.63 2202.23 3569.43C2224.29 3582.41 2260.79 3565.72 2283.15 3559.84C2385.55 3532.88 2494.54 3450.34 2509.67 3339.73C2518.13 3277.97 2508.52 3237.89 2483.7 3184.01C2471.15 3156.65 2420.36 3063.46 2378.06 3093.95C2369.49 3100.11 2359.17 3151.54 2350.63 3164.76C2334.32 3190.11 2313.31 3212.38 2293.32 3234.82L2293.35 3234.8Z" fill="#002B49"/>
<path d="M4725.07 2546C4696.35 2546.24 4673.26 2569.71 4673.5 2598.43L4677.38 3066.41C4677.62 3095.13 4701.09 3118.22 4729.81 3117.98C4758.52 3117.74 4781.61 3094.27 4781.37 3065.55L4777.93 2649.57L5193.91 2646.12C5222.63 2645.88 5245.72 2622.41 5245.48 2593.69C5245.24 2564.98 5221.77 2541.89 5193.05 2542.13L4725.07 2546ZM7473.14 2342.74C7450.43 2656.36 7328.4 2879.31 7147.56 3026.52C6965.62 3174.63 6719.21 3249.99 6442.19 3257.64C5887.09 3272.98 5224.28 3015.65 4761.96 2560.93L4689.04 2635.07C5170.22 3108.35 5859.91 3377.77 6445.06 3361.61C6738.16 3353.51 7008.82 3273.56 7213.22 3107.17C7418.73 2939.88 7552.32 2689.14 7576.86 2350.26L7473.14 2342.74Z" fill="#A9A9A9"/>
<path d="M7778.44 523.746C7874.63 610.266 7964.01 709.068 8081.19 763.934C8198.54 818.901 8332.35 824.349 8457.27 858.879C8647.9 911.579 8818 1035.34 8926.81 1200.47C9049.96 1387.4 9076.39 1671.09 8902.11 1811.58C8776.21 1913.07 8589.95 1906.1 8458.42 2000.16C8294.68 2117.25 8267.32 2346.41 8162.71 2518.37C8046.4 2709.54 7820.57 2828.49 7597.1 2816.28C7373.64 2804.06 7162.13 2661.21 7067.36 2458.49C7003.89 2322.74 6989.81 2165.15 6908.38 2039.35C6814.47 1894.29 6643.73 1811.71 6552.97 1664.67C6450.88 1499.28 6478.15 1284.61 6572.07 1122.19C6687.15 923.202 6898.19 880.077 7043.58 722.856C7130.82 628.521 7150.65 476.342 7259.3 402.341C7431.88 284.777 7646.04 404.693 7778.44 523.763V523.746Z" fill="#78D8DA"/>
<path d="M8751.27 2306.47C8838.49 2151.83 8856.38 1968.2 8858.96 1790.71C8862.65 1536.92 8838.76 1282.73 8787.88 1034.07C8753.76 867.269 8699.22 690.356 8562.56 588.796C8374.54 449.069 8107.46 505.068 7892.8 598.862C7455.96 789.7 7078.69 1114.43 6824.98 1517.98C6686 1739.03 6584.85 2027.82 6714.78 2254.32C6799.02 2401.19 6961.45 2484.33 7121.45 2539.73C7553.98 2689.49 8472.63 2800.51 8751.29 2306.5L8751.27 2306.47Z" fill="#35C5C7"/>
<path d="M8774.84 2813.34C8853.63 2813.34 8917.51 2749.47 8917.51 2670.68C8917.51 2591.9 8853.63 2528.03 8774.84 2528.03C8696.04 2528.03 8632.17 2591.9 8632.17 2670.68C8632.17 2749.47 8696.04 2813.34 8774.84 2813.34Z" fill="#35C5C7"/>
<path d="M7078.57 1660V1424H6985.77V1380H7223.37V1424H7130.57V1660H7078.57ZM7336.12 1662.8C7312.39 1662.8 7291.59 1658.13 7273.72 1648.8C7256.12 1639.2 7242.39 1626.13 7232.52 1609.6C7222.92 1593.07 7218.12 1574.27 7218.12 1553.2C7218.12 1531.87 7222.79 1513.07 7232.12 1496.8C7241.72 1480.27 7254.79 1467.33 7271.32 1458C7288.12 1448.67 7307.19 1444 7328.52 1444C7349.32 1444 7367.86 1448.53 7384.12 1457.6C7400.39 1466.67 7413.19 1479.47 7422.52 1496C7431.86 1512.53 7436.52 1532 7436.52 1554.4C7436.52 1556.53 7436.39 1558.93 7436.12 1561.6C7436.12 1564.27 7435.99 1566.8 7435.72 1569.2H7257.72V1536H7409.32L7389.72 1546.4C7389.99 1534.13 7387.46 1523.33 7382.12 1514C7376.79 1504.67 7369.46 1497.33 7360.12 1492C7351.06 1486.67 7340.52 1484 7328.52 1484C7316.26 1484 7305.46 1486.67 7296.12 1492C7287.06 1497.33 7279.86 1504.8 7274.52 1514.4C7269.46 1523.73 7266.92 1534.8 7266.92 1547.6V1555.6C7266.92 1568.4 7269.86 1579.73 7275.72 1589.6C7281.59 1599.47 7289.86 1607.07 7300.52 1612.4C7311.19 1617.73 7323.46 1620.4 7337.32 1620.4C7349.32 1620.4 7360.12 1618.53 7369.72 1614.8C7379.32 1611.07 7387.86 1605.2 7395.32 1597.2L7422.12 1628C7412.52 1639.2 7400.39 1647.87 7385.72 1654C7371.32 1659.87 7354.79 1662.8 7336.12 1662.8ZM7484.55 1660V1363.2H7534.55V1660H7484.55ZM7600.18 1660V1446.4H7650.18V1660H7600.18ZM7625.38 1411.2C7616.04 1411.2 7608.31 1408.27 7602.18 1402.4C7596.31 1396.53 7593.38 1389.47 7593.38 1381.2C7593.38 1372.67 7596.31 1365.6 7602.18 1360C7608.31 1354.13 7616.04 1351.2 7625.38 1351.2C7634.71 1351.2 7642.31 1354 7648.18 1359.6C7654.31 1364.93 7657.38 1371.73 7657.38 1380C7657.38 1388.8 7654.44 1396.27 7648.58 1402.4C7642.71 1408.27 7634.98 1411.2 7625.38 1411.2ZM7813.8 1662.8C7791.4 1662.8 7771.4 1658.13 7753.8 1648.8C7736.47 1639.2 7722.87 1626.13 7713 1609.6C7703.13 1593.07 7698.2 1574.27 7698.2 1553.2C7698.2 1531.87 7703.13 1513.07 7713 1496.8C7722.87 1480.27 7736.47 1467.33 7753.8 1458C7771.4 1448.67 7791.4 1444 7813.8 1444C7834.6 1444 7852.87 1448.27 7868.6 1456.8C7884.6 1465.07 7896.73 1477.33 7905 1493.6L7866.6 1516C7860.2 1505.87 7852.33 1498.4 7843 1493.6C7833.93 1488.8 7824.07 1486.4 7813.4 1486.4C7801.13 1486.4 7790.07 1489.07 7780.2 1494.4C7770.33 1499.73 7762.6 1507.47 7757 1517.6C7751.4 1527.47 7748.6 1539.33 7748.6 1553.2C7748.6 1567.07 7751.4 1579.07 7757 1589.2C7762.6 1599.07 7770.33 1606.67 7780.2 1612C7790.07 1617.33 7801.13 1620 7813.4 1620C7824.07 1620 7833.93 1617.6 7843 1612.8C7852.33 1608 7860.2 1600.53 7866.6 1590.4L7905 1612.8C7896.73 1628.8 7884.6 1641.2 7868.6 1650C7852.87 1658.53 7834.6 1662.8 7813.8 1662.8ZM7987.07 1612.4L7988.27 1549.6L8099.87 1446.4H8159.87L8065.07 1541.6L8038.67 1563.6L7987.07 1612.4ZM7946.27 1660V1363.2H7996.27V1660H7946.27ZM8107.47 1660L8029.47 1563.6L8061.07 1523.6L8168.27 1660H8107.47ZM8292.37 1662.8C8268.64 1662.8 8247.84 1658.13 8229.97 1648.8C8212.37 1639.2 8198.64 1626.13 8188.77 1609.6C8179.17 1593.07 8174.37 1574.27 8174.37 1553.2C8174.37 1531.87 8179.04 1513.07 8188.37 1496.8C8197.97 1480.27 8211.04 1467.33 8227.57 1458C8244.37 1448.67 8263.44 1444 8284.77 1444C8305.57 1444 8324.11 1448.53 8340.37 1457.6C8356.64 1466.67 8369.44 1479.47 8378.77 1496C8388.11 1512.53 8392.77 1532 8392.77 1554.4C8392.77 1556.53 8392.64 1558.93 8392.37 1561.6C8392.37 1564.27 8392.24 1566.8 8391.97 1569.2H8213.97V1536H8365.57L8345.97 1546.4C8346.24 1534.13 8343.71 1523.33 8338.37 1514C8333.04 1504.67 8325.71 1497.33 8316.37 1492C8307.31 1486.67 8296.77 1484 8284.77 1484C8272.51 1484 8261.71 1486.67 8252.37 1492C8243.31 1497.33 8236.11 1504.8 8230.77 1514.4C8225.71 1523.73 8223.17 1534.8 8223.17 1547.6V1555.6C8223.17 1568.4 8226.11 1579.73 8231.97 1589.6C8237.84 1599.47 8246.11 1607.07 8256.77 1612.4C8267.44 1617.73 8279.71 1620.4 8293.57 1620.4C8305.57 1620.4 8316.37 1618.53 8325.97 1614.8C8335.57 1611.07 8344.11 1605.2 8351.57 1597.2L8378.37 1628C8368.77 1639.2 8356.64 1647.87 8341.97 1654C8327.57 1659.87 8311.04 1662.8 8292.37 1662.8ZM8440.8 1660V1446.4H8488.4V1505.2L8482.8 1488C8489.2 1473.6 8499.2 1462.67 8512.8 1455.2C8526.67 1447.73 8543.87 1444 8564.4 1444V1491.6C8562.27 1491.07 8560.27 1490.8 8558.4 1490.8C8556.53 1490.53 8554.67 1490.4 8552.8 1490.4C8533.87 1490.4 8518.8 1496 8507.6 1507.2C8496.4 1518.13 8490.8 1534.53 8490.8 1556.4V1660H8440.8ZM8674.77 1662.8C8656.9 1662.8 8639.7 1660.53 8623.17 1656C8606.9 1651.2 8593.97 1645.47 8584.37 1638.8L8603.57 1600.8C8613.17 1606.93 8624.64 1612 8637.97 1616C8651.3 1620 8664.64 1622 8677.97 1622C8693.7 1622 8705.04 1619.87 8711.97 1615.6C8719.17 1611.33 8722.77 1605.6 8722.77 1598.4C8722.77 1592.53 8720.37 1588.13 8715.57 1585.2C8710.77 1582 8704.5 1579.6 8696.77 1578C8689.04 1576.4 8680.37 1574.93 8670.77 1573.6C8661.44 1572.27 8651.97 1570.53 8642.37 1568.4C8633.04 1566 8624.5 1562.67 8616.77 1558.4C8609.04 1553.87 8602.77 1547.87 8597.97 1540.4C8593.17 1532.93 8590.77 1523.07 8590.77 1510.8C8590.77 1497.2 8594.64 1485.47 8602.37 1475.6C8610.1 1465.47 8620.9 1457.73 8634.77 1452.4C8648.9 1446.8 8665.57 1444 8684.77 1444C8699.17 1444 8713.7 1445.6 8728.37 1448.8C8743.04 1452 8755.17 1456.53 8764.77 1462.4L8745.57 1500.4C8735.44 1494.27 8725.17 1490.13 8714.77 1488C8704.64 1485.6 8694.5 1484.4 8684.37 1484.4C8669.17 1484.4 8657.84 1486.67 8650.37 1491.2C8643.17 1495.73 8639.57 1501.47 8639.57 1508.4C8639.57 1514.8 8641.97 1519.6 8646.77 1522.8C8651.57 1526 8657.84 1528.53 8665.57 1530.4C8673.3 1532.27 8681.84 1533.87 8691.17 1535.2C8700.77 1536.27 8710.24 1538 8719.57 1540.4C8728.9 1542.8 8737.44 1546.13 8745.17 1550.4C8753.17 1554.4 8759.57 1560.13 8764.37 1567.6C8769.17 1575.07 8771.57 1584.8 8771.57 1596.8C8771.57 1610.13 8767.57 1621.73 8759.57 1631.6C8751.84 1641.47 8740.77 1649.2 8726.37 1654.8C8711.97 1660.13 8694.77 1662.8 8674.77 1662.8ZM7516.71 2150.8C7493.24 2150.8 7475.11 2144.8 7462.31 2132.8C7449.51 2120.53 7443.11 2102.53 7443.11 2078.8V1887.2H7493.11V2077.6C7493.11 2087.73 7495.64 2095.6 7500.71 2101.2C7506.04 2106.8 7513.37 2109.6 7522.71 2109.6C7533.91 2109.6 7543.24 2106.67 7550.71 2100.8L7564.71 2136.4C7558.84 2141.2 7551.64 2144.8 7543.11 2147.2C7534.57 2149.6 7525.77 2150.8 7516.71 2150.8ZM7407.91 1976V1936H7550.31V1976H7407.91ZM7699.21 2150.8C7675.47 2150.8 7654.67 2146.13 7636.81 2136.8C7619.21 2127.2 7605.47 2114.13 7595.61 2097.6C7586.01 2081.07 7581.21 2062.27 7581.21 2041.2C7581.21 2019.87 7585.87 2001.07 7595.21 1984.8C7604.81 1968.27 7617.87 1955.33 7634.41 1946C7651.21 1936.67 7670.27 1932 7691.61 1932C7712.41 1932 7730.94 1936.53 7747.21 1945.6C7763.47 1954.67 7776.27 1967.47 7785.61 1984C7794.94 2000.53 7799.61 2020 7799.61 2042.4C7799.61 2044.53 7799.47 2046.93 7799.21 2049.6C7799.21 2052.27 7799.07 2054.8 7798.81 2057.2H7620.81V2024H7772.41L7752.81 2034.4C7753.07 2022.13 7750.54 2011.33 7745.21 2002C7739.87 1992.67 7732.54 1985.33 7723.21 1980C7714.14 1974.67 7703.61 1972 7691.61 1972C7679.34 1972 7668.54 1974.67 7659.21 1980C7650.14 1985.33 7642.94 1992.8 7637.61 2002.4C7632.54 2011.73 7630.01 2022.8 7630.01 2035.6V2043.6C7630.01 2056.4 7632.94 2067.73 7638.81 2077.6C7644.67 2087.47 7652.94 2095.07 7663.61 2100.4C7674.27 2105.73 7686.54 2108.4 7700.41 2108.4C7712.41 2108.4 7723.21 2106.53 7732.81 2102.8C7742.41 2099.07 7750.94 2093.2 7758.41 2085.2L7785.21 2116C7775.61 2127.2 7763.47 2135.87 7748.81 2142C7734.41 2147.87 7717.87 2150.8 7699.21 2150.8ZM7973.38 2148V2104.8L7970.58 2095.6V2020C7970.58 2005.33 7966.18 1994 7957.38 1986C7948.58 1977.73 7935.24 1973.6 7917.38 1973.6C7905.38 1973.6 7893.51 1975.47 7881.78 1979.2C7870.31 1982.93 7860.58 1988.13 7852.58 1994.8L7832.98 1958.4C7844.44 1949.6 7858.04 1943.07 7873.78 1938.8C7889.78 1934.27 7906.31 1932 7923.38 1932C7954.31 1932 7978.18 1939.47 7994.98 1954.4C8012.04 1969.07 8020.58 1991.87 8020.58 2022.8V2148H7973.38ZM7906.18 2150.8C7890.18 2150.8 7876.18 2148.13 7864.18 2142.8C7852.18 2137.2 7842.84 2129.6 7836.18 2120C7829.78 2110.13 7826.58 2099.07 7826.58 2086.8C7826.58 2074.8 7829.38 2064 7834.98 2054.4C7840.84 2044.8 7850.31 2037.2 7863.38 2031.6C7876.44 2026 7893.78 2023.2 7915.38 2023.2H7977.38V2056.4H7918.98C7901.91 2056.4 7890.44 2059.2 7884.58 2064.8C7878.71 2070.13 7875.78 2076.8 7875.78 2084.8C7875.78 2093.87 7879.38 2101.07 7886.58 2106.4C7893.78 2111.73 7903.78 2114.4 7916.58 2114.4C7928.84 2114.4 7939.78 2111.6 7949.38 2106C7959.24 2100.4 7966.31 2092.13 7970.58 2081.2L7978.98 2111.2C7974.18 2123.73 7965.51 2133.47 7952.98 2140.4C7940.71 2147.33 7925.11 2150.8 7906.18 2150.8ZM8354.35 1932C8371.41 1932 8386.48 1935.33 8399.55 1942C8412.88 1948.67 8423.28 1958.93 8430.75 1972.8C8438.21 1986.4 8441.95 2004 8441.95 2025.6V2148H8391.95V2032C8391.95 2013.07 8387.81 1998.93 8379.55 1989.6C8371.28 1980.27 8359.41 1975.6 8343.95 1975.6C8333.01 1975.6 8323.28 1978 8314.75 1982.8C8306.48 1987.6 8299.95 1994.67 8295.15 2004C8290.61 2013.33 8288.35 2025.2 8288.35 2039.6V2148H8238.35V2032C8238.35 2013.07 8234.21 1998.93 8225.95 1989.6C8217.68 1980.27 8205.81 1975.6 8190.35 1975.6C8179.41 1975.6 8169.68 1978 8161.15 1982.8C8152.88 1987.6 8146.35 1994.67 8141.55 2004C8137.01 2013.33 8134.75 2025.2 8134.75 2039.6V2148H8084.75V1934.4H8132.35V1991.2L8123.95 1974.4C8131.15 1960.53 8141.55 1950 8155.15 1942.8C8169.01 1935.6 8184.75 1932 8202.35 1932C8222.35 1932 8239.68 1936.93 8254.35 1946.8C8269.28 1956.67 8279.15 1971.6 8283.95 1991.6L8264.35 1984.8C8271.28 1968.8 8282.75 1956 8298.75 1946.4C8314.75 1936.8 8333.28 1932 8354.35 1932Z" fill="white"/>
</svg>
