<?xml version="1.0" encoding="utf-8"?>
<!-- Generator: Adobe Illustrator 26.1.0, SVG Export Plug-In . SVG Version: 6.00 Build 0)  -->
<svg version="1.1" id="Capa_3" xmlns="http://www.w3.org/2000/svg" xmlns:xlink="http://www.w3.org/1999/xlink" x="0px" y="0px"
	 viewBox="0 0 2122 2122" style="enable-background:new 0 0 2122 2122;" xml:space="preserve">
<style type="text/css">
	.st0{fill:#1D160F;}
</style>
<path class="st0" d="M303.1,1164.5c0,68.2,50.5,124.8,116.1,134.3c-18,20.8-27.1,44-27.1,69.5c0,56.9,46.3,103.2,103.2,103.2
	c4.1,0,8.1-0.2,12.2-0.7c-4.3,11.2-6.6,23.2-6.6,35.4c0,54.6,44.4,99.1,99.1,99.1c9,0,17.9-1.2,26.4-3.6
	c-1.9,12.8-2.8,27.7-0.2,40.2c13.3,65.3,68.6,107.5,140.8,107.5c33.3,0,58.3-8.7,75-16.5c0.9,73.9,61.4,133.8,135.5,133.8
	c62.9,0,118-44,132.1-105c0.8-1.8,1.2-3.8,1.2-5.9v-1.6h-0.1c0.2-8.6,0.6-45.1,0.9-210.8h139.6v231.3c0,8.3,6.7,15,15,15h120.2
	c7.4,64.1,62,114,128.1,114c71.1,0,129-57.9,129-129c0-71.1-57.9-129-129-129c-66.1,0-120.7,49.9-128.1,114h-105.3v-231.3
	c0-8.3-6.7-15-15-15h-154.5c0.1-40.9,0.1-88.8,0.2-144.8h449.5c8.1,63.4,62.4,112.5,127.9,112.5c71.1,0,129-57.9,129-129
	c0-71.1-57.9-129-129-129c-66.6,0-121.5,50.7-128.3,115.6h-449.1c0.1-99.8,0.1-223.6,0.2-377h95.6v130c0,8.3,6.7,15,15,15h153.1
	c4.7,66.9,60.6,119.9,128.6,119.9c71.1,0,129-57.9,129-129c0-71.1-57.9-129-129-129c-64,0-117.3,46.9-127.3,108.2h-139.5v-130
	c0-8.3-6.7-15-15-15h-110.5c0-47,0-96.7,0-149.3h431.6c6.7,64.8,61.7,115.6,128.3,115.6c71.1,0,129-57.9,129-129s-57.9-129-129-129
	c-65.5,0-119.8,49.1-127.9,112.5h-432c0-46.1,0-94.3,0-144.8h136.8c8.3,0,15-6.7,15-15V361.6H1369c7.4,64.1,62,114,128.1,114
	c71.1,0,129-57.9,129-129c0-71.1-57.9-129-129-129c-66.1,0-120.7,49.9-128.1,114h-120.2c-8.3,0-15,6.7-15,15v231.3h-121.8
	c0-57.9,0-118.5,0-182.2v-3.5c0-75.8-61.7-137.5-137.5-137.5c-75.8,0-137.5,61.7-137.5,137.5c0,1.9,0,3.7,0.1,5.6
	c-11.7-5.1-26.7-9-45-9c-4.5,0-9.2,0.2-13.8,0.7c-61.1,6.3-105.5,51.1-105.9,106.6c-12.8-5.2-29.8-9.5-50.8-9.5
	c-6.5,0-13.2,0.4-19.9,1.2c-69.1,8.3-121.2,64.7-121.2,131.2c0,21.3,5.5,42,15.8,60.3c-0.9,0-1.7,0-2.6,0
	c-58.2,0-105.6,47.4-105.6,105.6c0,38.1,13.1,62.9,26.4,78.7c-42.8,10.9-74.6,49.8-74.6,96c0,33.4,16.5,63.3,42.4,81.3
	C346.5,1057.4,303.1,1092.4,303.1,1164.5z M1514.5,1675.6c54.6,0,99.1,44.4,99.1,99.1s-44.4,99.1-99.1,99.1
	c-54.6,0-99.1-44.4-99.1-99.1S1459.8,1675.6,1514.5,1675.6z M1689.2,1253.1c54.6,0,99.1,44.4,99.1,99.1c0,54.6-44.4,99.1-99.1,99.1
	c-54.6,0-99.1-44.4-99.1-99.1C1590.1,1297.6,1634.6,1253.1,1689.2,1253.1z M1504.2,998.5c54.6,0,99.1,44.4,99.1,99.1
	c0,54.6-44.4,99.1-99.1,99.1s-99.1-44.4-99.1-99.1C1405.2,1043,1449.6,998.5,1504.2,998.5z M1671.8,670c54.6,0,99.1,44.4,99.1,99.1
	s-44.4,99.1-99.1,99.1c-54.6,0-99.1-44.4-99.1-99.1S1617.2,670,1671.8,670z M1497.1,247.6c54.6,0,99.1,44.4,99.1,99.1
	s-44.4,99.1-99.1,99.1c-54.6,0-99.1-44.4-99.1-99.1S1442.5,247.6,1497.1,247.6z M426.4,1057.5c12-2.5,13.5-11.1,13.6-14.6
	c0.2-7.5-5.1-13.9-12.5-15.2c-33.4-5.6-57.7-34.2-57.7-68.1c0-38.1,31-69.1,69.1-69.1c2.8,0,5.8,0.3,9.2,0.7
	c11.8,7.2,31.9,15.9,60.1,15.9c24.8,0,55.9-6.7,93-27.1c7.2-4,9.9-13.1,5.9-20.3c-4-7.2-13.1-9.9-20.3-5.9
	c-11.1,6.1-21.5,10.8-31.2,14.3c-39.5,14.3-66.9,9.1-82.7,2.4c-10.2-4.3-15.6-9.2-16.3-9.9c-1.5-1.5-3.3-2.6-5.3-3.3
	c-12.7-9.3-33.4-28.7-33.4-72.4c0-41.7,34-75.7,75.7-75.7c10.7,0,21.1,2.2,30.9,6.6c6.8,3,14.8,0.6,18.8-5.6l1.3-1.9
	c3.9-6.2,2.8-14.3-2.7-19.2c-20-17.9-31.5-43.4-31.5-70.1c0-51.4,40.8-95,94.8-101.5c5.6-0.7,11.1-1,16.4-1
	c39.7,0,58.8,18.5,59.5,19.2c2,2.1,4.5,3.4,7.2,4.1c12.4,13.8,36.1,47,31.6,96.3c-0.7,8.2,5.3,15.5,13.6,16.2c0.5,0,0.9,0.1,1.4,0.1
	c7.7,0,14.2-5.8,14.9-13.6c6.2-69.4-32.9-113.2-45.6-125.6c-1.2-5.4-1.8-10.8-1.8-16.3c0-40.9,32.5-72.8,79-77.6
	c3.6-0.4,7.2-0.6,10.7-0.6c28.5,0,45.1,12.4,51.4,18.2c11.1,28.8,43.8,74.5,100.5,74.5c5,0,10.2-0.4,15.5-1.1
	c8.2-1.2,13.9-8.7,12.7-16.9c-1.2-8.2-8.8-13.9-16.9-12.7c-7.2,1-13.8,1-19.9,0.3c-26.4-3.2-43.6-20.6-53.5-35.4
	c-4.1-6.1-7-11.7-8.8-15.8c-0.1-1.3-0.3-2.6-0.7-3.8c-3.6-11-5.5-22.3-5.5-33.7c0-59.3,48.3-107.6,107.6-107.6
	c59.3,0,107.6,48.3,107.6,107.6v3.5c0,81.6,0.1,543-0.1,905.6c-4.5-0.8-9.8-1.9-15.8-3.3c-22.4-5.3-53.7-15.1-84.7-32.6
	c3.8-4.4,8-9.7,12.3-16.1c25-37.4,51.7-109.2,5.4-218.4c-3.2-7.6-12-11.2-19.6-7.9c-7.6,3.2-11.2,12-7.9,19.6
	c3.8,9.1,7.1,17.8,9.9,26.3c31.2,95.2-1.7,152-21.2,175.3c-1.5,1.8-2.9,3.4-4.2,4.8c-22-16.2-42.5-37.1-57.6-63.9
	c-3.9-7-7.5-14.3-10.6-22.1c-3.1-7.7-11.8-11.4-19.5-8.3c-7.7,3.1-11.4,11.8-8.3,19.5c48.4,120.2,178.9,150.8,221.8,157.7
	c-0.1,226.4-0.4,407.6-0.9,420.9l0,0.1c-10.1,48.7-53.6,84-103.4,84c-58.2,0-105.6-47.4-105.6-105.6c0-6.6,0.7-13.4,2-20.1l0.1-1.1
	l0.1-0.7c0.1-0.9,0.7-7,3.8-16c7.9-22.5,31.8-62.8,103.7-82.5c8.9-2.4,18.5-4.6,29-6.3c8.2-1.4,13.7-9.1,12.3-17.2
	c-1.4-8.2-9.1-13.7-17.2-12.3c-126.8,21-154.1,95.3-159.9,122.4c-1,0.5-2,1-3.1,1.6c-13.2,7.2-37.8,20.5-75.8,20.5
	c-57.4,0-101.2-32.8-111.5-83.5c-3.5-17.2,3.3-46.3,6.2-56c0.4-1.4,0.6-2.7,0.6-4.1c2.8-7.4,7.2-16.7,13.9-26.2
	c3.1-4.4,6.8-8.9,11-13.2c9.5-9.8,22.1-19,38.5-25.6c7.7-3.1,11.4-11.8,8.2-19.5c-3.1-7.7-11.8-11.4-19.5-8.2
	c-50.2,20.3-71.7,59.1-80.5,83.3c-10.3,5.9-22,8.9-34,8.9c-38.1,0-69.1-31-69.1-69.1c0-17.6,6.7-34.3,18.8-47.3
	c4.7-5,5.4-12.7,1.6-18.5l-1.7-2.6c-4.2-6.5-12.8-8.7-19.6-5c-10.6,5.7-22.6,8.7-34.6,8.7c-40.4,0-73.3-32.9-73.3-73.3
	c0-39.4,32-62.7,42.4-70.3c0.4-0.3,0.9-0.6,1.4-1c0.5-0.2,1-0.4,1.5-0.6c0.9-0.5,9.9-5.3,22.5-8.3c15.9-3.8,37.6-4.8,56.3,9.2
	c4.6,3.4,8.9,7.7,13,13.1c2.9,3.9,7.4,6,12,6c3.1,0,6.3-1,9-3c6.6-5,7.9-14.4,2.9-21c-38.6-51.2-99.1-38.3-127.8-23.5
	c-5.9,0.9-11.3,1.4-16.4,1.4c-58.3,0-105.8-47.5-105.8-105.8C333.1,1085.6,398.3,1063.4,426.4,1057.5z"/>
<path class="st0" d="M887,652.3c1.2,0,8.7,0.2,19.6,2c20.2,3.3,52.3,12.1,78.3,35.6c-2.3,5.5-6.2,13.4-12.4,21.8
	c-0.4,0.6-0.9,1.2-1.4,1.8c-6.6,8.5-15.6,17.4-27.7,24.6c-9.3,5.6-20.5,10.1-33.8,12.8c-8.1,1.6-13.4,9.5-11.8,17.6
	c1.4,7.1,7.7,12.1,14.7,12.1c1,0,1.9-0.1,2.9-0.3c39.7-7.8,64.5-28.9,79.7-48.8c4.4-5.7,7.9-11.3,10.8-16.5
	c7.1,11.3,12.9,24.6,16.6,40.4c1.3,5.6,2.4,11.4,3.2,17.6c0.9,7.6,7.4,13.1,14.8,13.1c0.6,0,1.2,0,1.9-0.1c8.2-1,14-8.5,13-16.7
	c-5.2-41.6-21.3-71.3-41.6-92.6c-0.7-0.9-1.5-1.7-2.3-2.4c-50-50.2-123.2-51.7-124.2-51.7c-8.3-0.2-15,6.6-15.1,14.8
	C872.1,645.4,878.7,652.2,887,652.3z"/>
<path class="st0" d="M784.1,1324.8c-8.2,0-14.9,6.6-15,14.8c-0.1,8.3,6.6,15,14.8,15.1c1.3,0,8.5,0.2,19.2,1.6
	c24,3.3,65.6,13.4,98.6,44c-2,5.2-5.4,12.6-10.6,20.8c-9.5,14.9-25,32.4-49.5,44c-9,4.2-19.1,7.7-30.7,10
	c-8.1,1.6-13.4,9.5-11.8,17.6c1.4,7.1,7.7,12.1,14.7,12.1c1,0,1.9-0.1,2.9-0.3c45.8-9,74.5-33.4,91.9-56.3
	c6.1-8,10.9-15.9,14.5-22.8c10.1,15,18.1,33.3,22.8,55.3c1.2,5.6,2.3,11.3,3,17.4c0.9,7.6,7.4,13.1,14.8,13.1c0.6,0,1.2,0,1.9-0.1
	c8.2-1,14-8.5,13-16.7c-6-48.1-24.7-82.4-48.2-107.1c-0.8-1-1.6-1.9-2.6-2.7c-57.8-58.1-142.5-59.8-143.7-59.8H784.1z"/>
<path class="st0" d="M473.8,1126c2.6,1.7,5.4,2.5,8.3,2.5c4.8,0,9.6-2.3,12.5-6.6c0.7-1.1,4.8-7,11.8-15.1
	c16.7-19.3,50.4-51.3,97.7-62.8c3.2,4.5,7.4,11.2,11.5,19.9c8.3,17.7,15.7,43.5,10.9,74.3c-1.5,9.7-4.2,19.9-8.6,30.6
	c-3.1,7.7,0.6,16.4,8.2,19.5c1.9,0.8,3.8,1.1,5.6,1.1c5.9,0,11.5-3.5,13.9-9.3c18.5-45.4,13.6-84.7,3.6-113.2
	c-3.7-10.6-8.2-19.7-12.4-27.1c19.9-0.4,41.6,3.2,64.9,12.4c5.3,2.1,10.7,4.4,16.2,7.1c7.4,3.6,16.4,0.6,20-6.8
	c3.6-7.4,0.6-16.4-6.8-20c-45.7-22.5-86.8-26-122.1-19.5c-0.9,0.1-1.8,0.2-2.7,0.5c-85.1,16.9-135.9,91-136.6,92.1
	C465.1,1112.1,466.9,1121.4,473.8,1126z"/>
<path class="st0" d="M709,811.4c1.1,0.2,7.6,1.3,16.9,4.2c32.2,10,98.3,40.7,94.4,124.2c-0.2,5-0.6,10.2-1.4,15.6
	c-1.1,8.2,4.6,15.8,12.7,16.9c0.7,0.1,1.4,0.1,2.1,0.1c7.3,0,13.7-5.4,14.8-12.9c21.1-149.9-133.1-177.5-134.7-177.7
	c-8.1-1.4-15.9,4.1-17.2,12.3C695.4,802.4,700.9,810.1,709,811.4z"/>
<path class="st0" d="M774.2,1137.5c-8.5-0.3-15.2,6.1-15.6,14.3c-0.3,6.5-1.1,12.3-2.3,17.8c-8.4,36.7-37,50.6-56.4,55.9
	c-10.2,2.7-17.8,3.1-18.8,3.2c-8.2,0.3-14.7,7.2-14.4,15.4c0.3,8.1,6.9,14.5,15,14.5l0.5,0c35.4-1.1,103.1-24.5,106.5-105.5
	C788.8,1144.8,782.4,1137.9,774.2,1137.5z"/>
<path class="st0" d="M890.4,852.1c-8.3,0.4-14.7,7.3-14.3,15.6c0.4,8.3,7.1,14.6,15.6,14.3c9.5-0.4,18.3,0.1,26.4,1.4
	c37.7,5.8,60.3,27.1,72.5,43.8c8.1,11,11.6,20,12,21c2.3,6,8,9.7,14,9.7c1.7,0,3.5-0.3,5.2-0.9c7.7-2.9,11.7-11.5,8.8-19.3
	C1030.3,936.8,995.9,847.6,890.4,852.1z"/>
</svg>
