<svg width="32768" height="6585" viewBox="0 0 32768 6585" fill="#ffffff" xmlns="http://www.w3.org/2000/svg">
<path d="M4375.13 602.568C6868.12 893.109 6820.91 330.547 10219.2 602.585C14797.8 969.108 16266.2 602.576 18704.2 359.598C22295 1.73189 21972 178.785 25933 602.591C27943.4 817.702 31528.3 -471.242 32767 193.131C32767 774.776 32739.3 4160.13 32767 6582.91H10219.2H0.973442V602.585C1775.4 267.826 2200.8 349.163 4375.13 602.568Z" fill="#D9D9D9" fill-opacity="0.8"/>
<path d="M10219.2 602.585C6820.91 330.547 6868.12 893.109 4375.13 602.568C2200.8 349.163 1775.4 267.826 0.973442 602.585V6582.91H10219.2M10219.2 602.585V6582.91M10219.2 602.585C14797.8 969.108 16266.2 602.576 18704.2 359.598C22295 1.73189 21972 178.785 25933 602.591C27943.4 817.702 31528.3 -471.242 32767 193.131C32767 774.776 32739.3 4160.13 32767 6582.91H10219.2" stroke="black"/>
</svg>
