<?xml version="1.0" encoding="utf-8"?>
<!-- Generator: Adobe Illustrator 26.1.0, SVG Export Plug-In . SVG Version: 6.00 Build 0)  -->
<svg version="1.1" id="Layer_1" xmlns="http://www.w3.org/2000/svg" xmlns:xlink="http://www.w3.org/1999/xlink" x="0px" y="0px"
	 viewBox="0 0 4168.4 1953.4" style="enable-background:new 0 0 4168.4 1953.4;" xml:space="preserve">
<style type="text/css">
	
		.st0{fill-rule:evenodd;clip-rule:evenodd;stroke:#000000;stroke-width:22.3829;stroke-linecap:round;stroke-linejoin:round;stroke-miterlimit:2.6131;}
	
		.st1{fill-rule:evenodd;clip-rule:evenodd;fill:none;stroke:#000000;stroke-width:22.3829;stroke-linecap:round;stroke-linejoin:round;stroke-miterlimit:2.6131;}
	
		.st2{fill-rule:evenodd;clip-rule:evenodd;fill:#FFFFFF;stroke:#000000;stroke-width:22.3829;stroke-linecap:round;stroke-linejoin:round;stroke-miterlimit:2.6131;}
</style>
<g>
	<path class="st0" d="M2103.4,1086c-18.8,0-28.1-28.1-28.5-43.2c-3-123.4-112.5-104-112.5-245.4c0-111.7,90.6-202.3,202.3-202.3
		c111.7,0,202.3,90.6,202.3,202.3c0,141.4-109.4,122-112.5,245.4c-0.4,15.2-12,43.2-28.5,43.2H2103.4z"/>
	<line class="st1" x1="2090.8" y1="1134.4" x2="2238.5" y2="1134.4"/>
	<line class="st1" x1="2090.8" y1="1174.8" x2="2238.5" y2="1174.8"/>
	<line class="st1" x1="2108.5" y1="1215.3" x2="2220.9" y2="1215.3"/>
	<line class="st1" x1="2164.7" y1="567.1" x2="2164.7" y2="496.6"/>
	<line class="st1" x1="2286" y1="594.5" x2="2322" y2="532.2"/>
	<line class="st1" x1="2379.2" y1="680.8" x2="2442.8" y2="644"/>
	<line class="st1" x1="2417.4" y1="804.6" x2="2492.4" y2="804.6"/>
	<line class="st1" x1="2388" y1="933.5" x2="2454.2" y2="971.7"/>
	<line class="st1" x1="2043.4" y1="594.5" x2="2007.4" y2="532.2"/>
	<line class="st1" x1="1950.2" y1="680.8" x2="1886.6" y2="644"/>
	<line class="st1" x1="1911.9" y1="804.6" x2="1837" y2="804.6"/>
	<line class="st1" x1="1941.4" y1="933.5" x2="1875.2" y2="971.7"/>
	<path class="st2" d="M2155.6,639.9c3.8,5.2,6.1,12.3,4.4,22.6c-1.7,10.2-33.4,29-41.7,36.5c-47,42.3-35,29.4-60.9,85.3
		c-18.6,40.1-60.7,40.6-53.4-4.2c10.4-63.6,43.6-106.2,92.2-134.9C2116.9,633,2138.3,616.2,2155.6,639.9z"/>
</g>
</svg>
