<svg width="521" height="380" viewBox="0 0 521 380" fill="none" xmlns="http://www.w3.org/2000/svg">
<path d="M31.7162 373.051C18.3646 357.34 26.1537 332.734 38.7318 316.395C51.3099 300.055 68.3959 286.191 74.5677 266.52C81.8451 243.312 71.9466 218.387 60.3763 196.988C48.8099 175.594 35.017 154.023 33.9623 129.723C32.6654 99.8477 51.0131 72.707 71.5131 50.9375C98.0287 22.7773 133.849 -1.93751 172.267 2.52343C199.81 5.72265 223.423 23.4062 243.521 42.5117C263.615 61.6172 282.083 83.0664 306.033 97.043C323.314 107.129 342.962 112.93 362.892 114.777C388.478 117.148 414.49 113.145 439.853 117.238C465.22 121.332 491.591 136.727 496.994 161.848C505.005 199.113 464.275 230.926 463.478 269.035C463.115 286.445 471.193 302.73 476.814 319.211C482.439 335.691 485.333 355.086 475.665 369.566" stroke="#90DBF0" stroke-width="2.48178" stroke-miterlimit="10" stroke-linecap="round" stroke-linejoin="round" stroke-dasharray="8.69 8.69"/>
<path d="M465.746 89.8711C465.746 95.3555 461.301 99.8008 455.82 99.8008C450.336 99.8008 445.891 95.3555 445.891 89.8711C445.891 84.3906 450.336 79.9453 455.82 79.9453C461.301 79.9453 465.746 84.3906 465.746 89.8711Z" fill="#90DBF0"/>
<path d="M33.918 70.4336C33.918 74.7734 30.4023 78.293 26.0625 78.293C21.7188 78.293 18.2031 74.7734 18.2031 70.4336C18.2031 66.0937 21.7188 62.5742 26.0625 62.5742C30.4023 62.5742 33.918 66.0937 33.918 70.4336Z" fill="#90DBF0"/>
<path d="M13.2383 214.789C13.2383 218.445 10.2734 221.406 6.62109 221.406C2.96484 221.406 0 218.445 0 214.789C0 211.137 2.96484 208.172 6.62109 208.172C10.2734 208.172 13.2383 211.137 13.2383 214.789Z" fill="#90DBF0"/>
<path d="M473.195 77.0508C473.195 83.2187 468.195 88.2188 462.027 88.2188C455.859 88.2188 450.859 83.2187 450.859 77.0508C450.859 70.8828 455.859 65.8828 462.027 65.8828C468.195 65.8828 473.195 70.8828 473.195 77.0508Z" stroke="#90DBF0" stroke-width="1.24089" stroke-miterlimit="10"/>
<path d="M36.4063 60.918C36.4063 65.0312 33.0703 68.3633 28.9609 68.3633C24.8477 68.3633 21.5156 65.0312 21.5156 60.918C21.5156 56.8086 24.8477 53.4727 28.9609 53.4727C33.0703 53.4727 36.4063 56.8086 36.4063 60.918Z" stroke="#90DBF0" stroke-width="1.24089" stroke-miterlimit="10"/>
<mask id="mask0_720_1219" style="mask-type:alpha" maskUnits="userSpaceOnUse" x="479" y="193" width="42" height="57">
<path d="M479.484 193H520.145V250H479.484V193Z" fill="black"/>
</mask>
<g mask="url(#mask0_720_1219)">
<path d="M519.523 221.406C519.523 227.348 514.711 232.16 508.77 232.16C502.832 232.16 498.016 227.348 498.016 221.406C498.016 215.469 502.832 210.652 508.77 210.652C514.711 210.652 519.523 215.469 519.523 221.406Z" stroke="#90DBF0" stroke-width="1.24089" stroke-miterlimit="10"/>
</g>
<path d="M66.1836 105.941C55.4297 105.941 46.6797 114.691 46.6797 125.445C46.6797 136.199 55.4297 144.945 66.1836 144.945C76.9375 144.945 85.6836 136.199 85.6836 125.445C85.6836 114.691 76.9375 105.941 66.1836 105.941ZM66.1836 146.645C54.4961 146.645 44.9844 137.133 44.9844 125.445C44.9844 113.758 54.4961 104.246 66.1836 104.246C77.8711 104.246 87.3828 113.758 87.3828 125.445C87.3828 137.133 77.8711 146.645 66.1836 146.645Z" fill="#90DBF0"/>
<path d="M59.3722 145.371C49.38 128.098 58.9229 106.371 59.3331 105.453L60.88 106.148C60.7823 106.367 51.2862 128.008 60.8409 144.523L59.3722 145.371Z" fill="#90DBF0"/>
<path d="M73.1133 145.371L71.6484 144.523C81.2031 128.008 71.7031 106.367 71.6094 106.148L73.1523 105.453C73.5664 106.371 83.1094 128.098 73.1133 145.371Z" fill="#90DBF0"/>
<path d="M85.543 120.074H46.8203V118.379H85.543V120.074Z" fill="#90DBF0"/>
<path d="M85.543 133.5H46.8203V131.805H85.543V133.5Z" fill="#90DBF0"/>
<path d="M67.0312 145.797H65.3359V105.094H67.0312V145.797Z" fill="#90DBF0"/>
<path d="M502.73 182.973H465.914C463.402 182.973 461.367 180.938 461.367 178.422V141.609C461.367 139.098 463.402 137.062 465.914 137.062H502.73C505.242 137.062 507.281 139.098 507.281 141.609V178.422C507.281 180.938 505.242 182.973 502.73 182.973Z" fill="#90DBF0"/>
<path d="M488.151 166.786C489.124 165.836 489.979 164.954 490.889 164.122C491.901 163.2 492.702 163.2 493.698 164.141C494.889 165.274 496.042 166.45 497.182 167.637C497.995 168.477 498.003 169.407 497.225 170.27C496.483 171.09 495.706 171.895 494.874 172.625C493.577 173.762 491.932 173.661 490.53 173.207C481.237 170.223 474.659 164.247 471.284 155.008C470.05 151.633 471.491 148.356 474.604 146.743C475.382 146.336 476.143 146.465 476.761 147.067C477.995 148.274 479.218 149.493 480.397 150.758C481.147 151.567 481.1 152.571 480.319 153.415C479.593 154.196 478.831 154.95 478.05 155.684C477.589 156.118 477.511 156.489 477.87 157.063C480.452 161.149 483.913 164.297 488.151 166.786Z" fill="white"/>
<path d="M328.523 50.6016H276.23C275.137 50.6016 274.25 49.7148 274.25 48.6172V16.1797C274.25 15.0859 275.137 14.1992 276.23 14.1992H328.523C329.617 14.1992 330.504 15.0859 330.504 16.1797V48.6172C330.504 49.7148 329.617 50.6016 328.523 50.6016Z" fill="#90DBF0"/>
<path d="M302.348 38.9938C302.242 38.9938 302.137 38.9586 302.051 38.8883L274.938 16.7086C274.738 16.5446 274.707 16.2516 274.871 16.0524C275.035 15.8532 275.332 15.8258 275.527 15.986L302.344 37.9274L329.379 15.525C329.578 15.361 329.867 15.3883 330.035 15.5875C330.199 15.7828 330.172 16.0758 329.973 16.2399L302.645 38.8883C302.559 38.9586 302.453 38.9938 302.348 38.9938Z" fill="white"/>
<path d="M275.082 49.3861C274.969 49.3861 274.856 49.3432 274.766 49.2611C274.579 49.0893 274.567 48.7924 274.739 48.6049L291.801 29.9916C291.977 29.8002 292.27 29.7885 292.457 29.9643C292.649 30.1361 292.661 30.4291 292.489 30.6205L275.422 49.2338C275.332 49.3354 275.207 49.3861 275.082 49.3861Z" fill="white"/>
<path d="M329.529 49.3861C329.4 49.3861 329.275 49.3354 329.185 49.2338L312.123 30.6205C311.951 30.4291 311.959 30.1361 312.15 29.9643C312.338 29.7885 312.635 29.8002 312.806 29.9916L329.869 48.6049C330.045 48.7924 330.033 49.0893 329.842 49.2611C329.752 49.3432 329.639 49.3861 329.529 49.3861Z" fill="white"/>
<path d="M269.457 228.176V192.406H241.34V228.176C241.34 232.48 237.852 235.973 233.547 235.973C258.32 272.715 277.527 235.973 277.527 235.973H277.25C272.945 235.973 269.457 232.48 269.457 228.176Z" fill="#F68C7B"/>
<path d="M269.469 211.648V217.184C266.984 218.996 264.426 220.438 262.195 221.508C258.035 223.527 253.176 223.527 248.992 221.527C246.645 220.414 243.945 218.902 241.344 216.926V211.395C243.945 213.371 246.645 214.883 248.992 216.02C253.176 218.02 258.035 217.996 262.195 215.996C264.426 214.93 266.984 213.484 269.469 211.648Z" fill="#153149"/>
<mask id="mask1_720_1219" style="mask-type:alpha" maskUnits="userSpaceOnUse" x="200" y="235" width="117" height="131">
<path d="M200.484 235H316.484V365.832H200.484V235Z" fill="black"/>
</mask>
<g mask="url(#mask1_720_1219)">
<path d="M232.883 235.059C232.883 235.059 251.496 247.055 276.312 235.059C276.312 235.059 298.547 235.059 302.582 243.121C306.613 251.188 315.609 368.453 315.609 368.453H200.516C200.516 368.453 201.758 257.082 207.031 247.469C212.305 237.852 232.883 235.059 232.883 235.059Z" fill="#F03756"/>
</g>
<path d="M379.863 320.344C378.227 318.121 376.574 315.926 374.902 313.742C374.277 312.941 373.633 312.164 373.004 311.371H322.781C323.727 312.277 324.684 313.176 325.625 314.09C330.449 318.758 335.191 323.496 339.793 328.324C333.777 329.254 327.723 330.098 321.652 330.867C311.008 332.219 300.285 333.312 289.527 334.242C278.805 335.223 267.887 335.879 257.289 336.426L257.004 336.438C256.902 336.438 256.805 336.449 256.719 336.465C256.715 336.465 256.715 336.465 256.715 336.465C252.672 334.105 243.668 329.109 242.203 330.43C240.301 332.141 245.504 338.711 245.504 338.711C245.504 338.711 226.742 338.613 226.047 340.809C225.348 343.004 240.504 344.094 240.504 344.094C240.504 344.094 228 345.699 227.328 348.188C226.66 350.668 242.707 349.047 242.707 349.047C242.707 349.047 230.684 353.547 231.484 356.203C232.285 358.859 246.5 352.672 246.5 352.672C246.5 352.672 238.844 357.672 239.766 359.441C240.477 360.805 252.023 356.457 257.328 354.371C279.449 356.777 301.281 357.758 323.465 357.473C329.074 357.422 334.684 357.211 340.305 357C345.926 356.664 351.559 356.402 357.203 355.871C359.227 355.723 361.238 355.547 363.262 355.352C363.859 355.293 364.457 355.234 365.055 355.176C376.078 354.07 384.465 344.77 384.465 333.691C384.465 329.121 383.031 324.66 380.328 320.977C380.176 320.766 380.02 320.555 379.863 320.344Z" fill="#F68C7B"/>
<path d="M342.285 334.121L339.391 328.125L344.145 330.605" stroke="#153149" stroke-width="0.930668" stroke-miterlimit="10" stroke-linecap="round" stroke-linejoin="round"/>
<path d="M334.781 323.16L381.742 323.145C381.742 323.145 383.918 327.203 384.035 329.41L334.781 323.16Z" fill="#153149"/>
<path d="M278.452 235.058C278.452 235.058 292.206 231.023 319.507 254.91C346.804 278.8 383.409 323.16 383.409 323.16H330.984C330.984 323.16 295.929 287.175 275.144 273.523C275.144 273.523 253.843 253.05 278.452 235.058Z" fill="#F03756"/>
<path d="M330.703 319.645H378.063" stroke="#153149" stroke-width="0.930668" stroke-miterlimit="10" stroke-linecap="round" stroke-linejoin="round"/>
<path d="M266.961 338.711C266.961 338.711 272.164 332.141 270.266 330.43C268.797 329.109 259.793 334.105 255.75 336.465C255.664 336.449 255.562 336.438 255.465 336.438L255.18 336.426C244.582 335.879 233.66 335.223 222.938 334.242C212.18 333.312 201.461 332.219 190.812 330.867C184.746 330.098 178.688 329.254 172.672 328.324C177.273 323.496 182.016 318.758 186.844 314.09C187.781 313.176 188.738 312.277 189.688 311.371H139.465C138.832 312.164 138.191 312.941 137.566 313.742C135.891 315.926 134.242 318.121 132.602 320.344C132.449 320.555 132.293 320.766 132.137 320.977C129.434 324.66 128 329.121 128 333.691C128 344.77 136.387 354.07 147.41 355.176C148.008 355.234 148.605 355.293 149.207 355.352C151.227 355.547 153.238 355.723 155.262 355.871C160.906 356.402 166.543 356.664 172.164 357C177.785 357.211 183.395 357.422 189 357.473C211.184 357.758 233.02 356.777 255.137 354.371C260.445 356.457 271.988 360.805 272.699 359.441C273.621 357.672 265.965 352.672 265.965 352.672C265.965 352.672 280.18 358.859 280.98 356.203C281.781 353.547 269.758 349.047 269.758 349.047C269.758 349.047 285.809 350.668 285.137 348.188C284.465 345.699 271.965 344.094 271.965 344.094C271.965 344.094 287.117 343.004 286.422 340.809C285.727 338.613 266.961 338.711 266.961 338.711Z" fill="#F68C7B"/>
<path d="M158.008 331.434L172.898 328.332L164.832 333.812" stroke="#153149" stroke-width="0.930668" stroke-miterlimit="10" stroke-linecap="round" stroke-linejoin="round"/>
<path d="M177.547 323.16H130.496C130.496 323.16 128.949 327.09 128.844 327.918C128.742 328.746 177.547 323.16 177.547 323.16Z" fill="#153149"/>
<path d="M232.879 235.058C232.879 235.058 219.125 231.023 191.828 254.91C164.527 278.8 127.922 323.16 127.922 323.16H180.348C180.348 323.16 215.402 287.175 236.188 273.523C236.188 273.523 257.492 253.05 232.879 235.058Z" fill="#F03756"/>
<path d="M229.984 238.369C229.984 238.369 250.25 256.154 278.793 238.369" stroke="#153149" stroke-width="0.930668" stroke-miterlimit="10" stroke-linecap="round" stroke-linejoin="round"/>
<path d="M135.672 317.371H180.965" stroke="#153149" stroke-width="0.930668" stroke-miterlimit="10" stroke-linecap="round" stroke-linejoin="round"/>
<path d="M288.864 173.223C286.907 172.422 284.805 172.484 282.993 173.238C283.024 172.578 283.055 171.918 283.079 171.258C283.707 155.633 271.145 142.652 255.508 142.668C239.875 142.688 227.34 155.691 227.997 171.313C228.024 171.953 228.055 172.598 228.086 173.242C226.274 172.484 224.172 172.418 222.211 173.223C218.274 174.832 216.387 179.328 217.997 183.262C219.586 187.152 225.684 191.715 229.629 190.273C230.274 194.539 231.125 198.184 232.247 200.664C235.75 208.441 243.407 213.332 248.997 216.008C253.172 218.008 258.028 218 262.2 215.992C267.778 213.309 275.395 208.41 278.887 200.617C279.997 198.145 280.84 194.52 281.477 190.281C285.418 191.691 291.493 187.145 293.079 183.262C294.688 179.328 292.801 174.832 288.864 173.223Z" fill="#F68C7B"/>
<path d="M255.746 179.379C256.324 180.566 256.449 181.926 256.391 183.191C256.332 184.469 256.098 185.691 255.855 186.848C255.621 188.016 255.277 189.145 255.32 189.98C255.301 190.828 256.031 191.809 256.781 192.895C256.129 192.77 255.523 192.547 254.926 192.184C254.34 191.816 253.777 191.223 253.492 190.453C253.203 189.699 253.188 188.93 253.227 188.254C253.273 187.574 253.383 186.969 253.512 186.348C253.777 185.117 254.156 183.973 254.547 182.848C254.945 181.719 255.328 180.629 255.746 179.379Z" fill="#153149"/>
<path d="M248.387 173.408C247.727 173.389 246.98 173.319 246.301 173.311C245.613 173.307 244.937 173.315 244.285 173.428C243.625 173.526 243.016 173.76 242.426 174.076C241.812 174.373 241.305 174.862 240.754 175.377L240.703 175.424C240.496 175.616 240.176 175.604 239.988 175.397C239.848 175.248 239.816 175.037 239.891 174.858C240.215 174.073 240.656 173.26 241.355 172.655C242.027 172.041 242.855 171.541 243.738 171.287C244.613 171.018 245.527 170.897 246.414 170.963C247.309 171.037 248.133 171.209 248.98 171.651C249.437 171.889 249.617 172.451 249.379 172.908C249.207 173.237 248.871 173.424 248.523 173.412L248.387 173.408Z" fill="#153149"/>
<path d="M262.106 171.651C262.954 171.209 263.778 171.037 264.672 170.963C265.559 170.897 266.473 171.018 267.348 171.287C268.231 171.541 269.059 172.041 269.731 172.655C270.43 173.26 270.872 174.073 271.2 174.858C271.305 175.119 271.18 175.412 270.922 175.522C270.735 175.6 270.528 175.557 270.383 175.424L270.333 175.377C269.782 174.862 269.274 174.373 268.661 174.076C268.071 173.76 267.461 173.526 266.801 173.428C266.149 173.315 265.473 173.307 264.786 173.311C264.106 173.319 263.36 173.389 262.7 173.408L262.563 173.412C262.047 173.428 261.618 173.022 261.602 172.506C261.59 172.139 261.797 171.811 262.106 171.651Z" fill="#153149"/>
<path d="M267.941 182.965C267.941 185.156 266.832 186.938 265.469 186.938C264.105 186.938 263 185.156 263 182.965C263 180.77 264.105 178.992 265.469 178.992C266.832 178.992 267.941 180.77 267.941 182.965Z" fill="#153149"/>
<path d="M248.082 182.965C248.082 185.156 246.977 186.938 245.613 186.938C244.25 186.938 243.141 185.156 243.141 182.965C243.141 180.77 244.25 178.992 245.613 178.992C246.977 178.992 248.082 180.77 248.082 182.965Z" fill="#153149"/>
<path d="M260.875 197.953C261.172 197.77 261.473 197.629 261.77 197.488C262.063 197.34 262.363 197.227 262.656 197.094L263.539 196.73C263.836 196.602 264.121 196.469 264.438 196.316C264.293 196.641 264.039 196.895 263.77 197.113C263.5 197.336 263.191 197.488 262.879 197.629C262.563 197.758 262.238 197.859 261.902 197.91C261.566 197.969 261.227 198.004 260.875 197.953Z" fill="#153149"/>
<path d="M254.953 195.773C256.023 195.898 257.062 195.953 258.074 195.922C259.082 195.875 260.062 195.73 260.953 195.383C261.859 195.066 262.645 194.496 263.293 193.766C263.652 193.422 263.906 192.988 264.207 192.566C264.496 192.141 264.695 191.656 265 191.195C264.918 192.262 264.668 193.379 264.012 194.316C263.742 194.824 263.293 195.203 262.883 195.609L262.156 196.094C261.91 196.246 261.633 196.34 261.371 196.465C260.285 196.867 259.129 196.969 258.031 196.824C256.934 196.684 255.871 196.355 254.953 195.773Z" fill="#153149"/>
<path d="M289.664 143.676C287.559 136.449 266.457 135.527 248.496 141.207C248.496 141.207 249.656 126.519 232.625 151.016C232.625 151.016 223.344 156.441 223.383 163.058C223.406 167.812 229.106 176.797 232.317 181.488C233.109 182.644 234.906 182.266 235.16 180.887C236.094 175.848 237.609 166.785 237.438 161.742C237.438 161.742 263.379 170.121 275.727 167.297C275.77 171.48 276.024 180.703 277.379 181.176C279.133 181.785 287.996 171.398 288.508 168.5C288.797 166.836 287.563 162.766 286.195 159.988C290.281 154.793 291.137 148.726 289.664 143.676Z" fill="#153149"/>
<path d="M327.535 357.699H187.578V272.844C187.578 271.164 188.941 269.805 190.621 269.805H324.496C326.176 269.805 327.535 271.164 327.535 272.844V357.699Z" fill="#90DBF0"/>
<path d="M267.367 313.75C267.367 319.164 262.977 323.555 257.562 323.555C252.148 323.555 247.758 319.164 247.758 313.75C247.758 308.336 252.148 303.945 257.562 303.945C262.977 303.945 267.367 308.336 267.367 313.75Z" fill="#305EA4"/>
<path d="M492.855 380H14.5156V357.664H492.855V380Z" fill="#153149"/>
<path d="M70.9388 254.56C68.2669 253.888 72.7122 248.634 75.513 245.646C71.7943 237.251 66.7162 231.248 63.3919 227.896C61.5911 226.087 58.5911 226.31 57.1068 228.384C49.806 238.599 47.5365 250.9 47.8763 263.005C51.0091 264.197 57.388 266.919 57.1497 269.287C56.9349 271.439 51.5521 269.751 48.1966 268.478C50.4076 293.232 62.1654 315.666 62.1654 315.666C81.8451 288.935 82.5951 267.302 77.8333 251.853C75.6654 253.47 72.9154 255.052 70.9388 254.56Z" fill="#66CCCB"/>
<path d="M59.3463 324.44C59.0768 323.538 80.3424 262.39 99.7721 262.077C119.202 261.765 131.737 286.206 127.35 290.28C122.963 294.355 97.2643 288.401 100.71 292.159C104.159 295.921 111.053 304.069 106.667 305.636C102.28 307.202 88.8033 304.386 85.358 307.831C81.9088 311.276 61.8502 332.901 59.3463 324.44Z" fill="#5AC7C3"/>
<path d="M66.241 316.921C66.241 316.921 45.2449 260.195 18.9168 255.808C-7.40746 251.421 0.428474 290.597 11.3972 288.714C22.366 286.835 35.8425 281.195 34.2722 287.148C32.7058 293.101 17.3503 303.757 27.3816 307.202C37.4089 310.652 49.0027 306.265 52.4519 311.277C55.8972 316.292 60.9128 321.62 66.241 316.921Z" fill="#5AC7C3"/>
<path d="M78.5938 281.758C74.6641 286.93 63.9102 311.129 63.9102 311.129C63.9102 311.129 56.4648 293.547 51.2969 285.48" stroke="#153149" stroke-width="0.930668" stroke-miterlimit="10" stroke-linecap="round" stroke-linejoin="round"/>
<path d="M63.9102 305.336L61.0156 232.535" stroke="#153149" stroke-width="0.930668" stroke-miterlimit="10" stroke-linecap="round" stroke-linejoin="round"/>
<path d="M80.9727 357.66H47.1289L40.8594 311.906H87.2422L80.9727 357.66Z" fill="#F8A431"/>
<path d="M44.2656 317.746H83.9727" stroke="#153149" stroke-width="0.930668" stroke-miterlimit="10" stroke-linecap="round" stroke-linejoin="round"/>
</svg>
