<?xml version="1.0" encoding="utf-8"?>
<!-- Generator: Adobe Illustrator 26.1.0, SVG Export Plug-In . SVG Version: 6.00 Build 0)  -->
<svg version="1.1" id="Capa_3" xmlns="http://www.w3.org/2000/svg" xmlns:xlink="http://www.w3.org/1999/xlink" x="0px" y="0px"
	 viewBox="0 0 2122 2122" style="enable-background:new 0 0 2122 2122;" xml:space="preserve">
<style type="text/css">
	.st0{fill:#0A0600;}
</style>
<path class="st0" d="M770,1810.2c381.8,86.4,810-120.1,798.5-464c-7.7-229.4-365.6-133.4-486.2-277.8
	C981.9,948.3,1274,701,1045,595.2C689.6,431,292.1,710.7,216.1,1046.2C140.2,1381.8,388.2,1723.8,770,1810.2z M1210,1417.7
	c62.5-38,138.4-27.2,169.6,24.1c31.1,51.3,5.6,123.6-56.9,161.5c-62.5,38-138.5,27.2-169.6-24.1
	C1122,1528,1147.4,1455.6,1210,1417.7z M1055.4,1609.9c8.1,59.4-44.1,115.6-116.6,125.5c-72.5,9.9-137.8-30.3-145.9-89.7
	c-8.1-59.4,44.1-115.6,116.6-125.5C981.9,1510.4,1047.3,1550.5,1055.4,1609.9z M717.9,754.1c3.9-54.3,66.3-94.1,139.2-88.8
	c73,5.3,128.9,53.6,125,107.9c-3.9,54.3-66.3,94.1-139.2,88.8C770,856.8,714,808.4,717.9,754.1z M699.5,1599
	c-38.4,38.7-111.6,28.3-163.5-23.2c-51.9-51.5-62.9-124.6-24.6-163.3c38.4-38.7,111.6-28.3,163.5,23.2S737.9,1560.3,699.5,1599z
	 M475.5,821.9c65.5-32.6,138.2-19.5,162.5,29.2c24.3,48.8-9.1,114.7-74.6,147.3c-65.5,32.6-138.3,19.5-162.5-29.2
	C376.7,920.5,410,854.5,475.5,821.9z M315.9,1239.3c-14.8-71.6,20.9-139.5,79.6-151.7c58.7-12.1,118.3,36.2,133.1,107.8
	c14.8,71.6-20.9,139.5-79.6,151.7C390.3,1359.2,330.7,1310.9,315.9,1239.3z"/>
<path class="st0" d="M1614,1275.1l111.3-65.9c-34.1-109.4-110-271.3-212.2-443.9c-172-290.5-353.1-501.4-404.5-471
	C1057.2,324.8,1155,585,1327,875.5C1429.1,1048.1,1534.5,1192.6,1614,1275.1z"/>
<path class="st0" d="M1657.2,1350c6.8,11.6,16.7,20.2,27.9,25.7c-13.6,19.2-21.4,48.6-6.8,92.7c35.1,105.8,124.7,85.7,193.1,159.7
	c0,0,115.8-144.7-14.2-265.6c-29.3-27.3-55.3-38.1-77.7-38.4c1.6-13.9-1-28.3-8.7-41.3l-28.2-47.6l-113.6,67.2L1657.2,1350z"/>
</svg>
