<?xml version="1.0" encoding="utf-8"?>
<!-- Generator: Adobe Illustrator 26.1.0, SVG Export Plug-In . SVG Version: 6.00 Build 0)  -->
<svg version="1.1" xmlns="http://www.w3.org/2000/svg" xmlns:xlink="http://www.w3.org/1999/xlink" x="0px" y="0px"
	 viewBox="0 0 5000 5000" style="enable-background:new 0 0 5000 5000;" xml:space="preserve">
<style type="text/css">
	.st0{opacity:0.5;}
	.st1{fill:#1A1A1A;}
	.st2{fill:#FBB03B;}
</style>
<g id="Layer_1">
</g>
<g id="Layer_2">
	<g>
		<g>
			<g>
				<g>
					<g class="st0">
						<path class="st1" d="M2007.9,2641.5c43,20.6,51,38,51,74.4v50.6c0,25.3-6.7,77.5-26.9,77.5c-18.8,0-33.6-9.5-51-17.4
							l-549.3-281.7c-22.8-11.1-21.5-55.4-22.8-83.9c1.3-28.5,0-72.8,22.8-83.9l549.3-281.7c17.5-7.9,32.2-17.4,51-17.4
							c20.1,0,26.9,52.2,26.9,77.5v49.1c0,38-8.1,55.4-51,76l-351.8,180.4L2007.9,2641.5z"/>
						<path class="st1" d="M2346.3,2954.8c-47,112.4-41.6,145.6-102.1,145.6c-33.6,0-115.5-6.3-115.5-58.6
							c0-36.4,68.5-153.5,142.3-330.7l334.4-808.7c47-112.4,41.6-145.6,102.1-145.6c33.6,0,115.5,6.3,115.5,58.6
							c0,36.4-68.5,153.5-142.3,330.7L2346.3,2954.8z"/>
						<path class="st1" d="M3323.9,2461.1l-351.8-180.4c-43-20.6-51-38-51-74.4v-50.6c0-25.3,6.7-77.5,26.9-77.5
							c18.8,0,33.6,9.5,51,17.4l549.3,281.7c22.8,11.1,21.5,55.4,22.8,83.9c-1.3,28.5,0,72.8-22.8,83.9L2999,2826.6
							c-17.5,7.9-32.2,17.4-51,17.4c-20.1,0-26.9-52.2-26.9-77.5v-49.1c0-38,8.1-55.4,51-76L3323.9,2461.1z"/>
					</g>
					<g>
						<path class="st2" d="M1986.9,2621.5c43,20.6,51,38,51,74.4v50.6c0,25.3-6.7,77.5-26.9,77.5c-18.8,0-33.6-9.5-51-17.4
							l-549.3-281.7c-22.8-11.1-21.5-55.4-22.8-83.9c1.3-28.5,0-72.8,22.8-83.9l549.3-281.7c17.5-7.9,32.2-17.4,51-17.4
							c20.1,0,26.9,52.2,26.9,77.5v49.1c0,38-8.1,55.4-51,76l-351.8,180.4L1986.9,2621.5z"/>
						<path class="st2" d="M2325.3,2934.8c-47,112.4-41.6,145.6-102.1,145.6c-33.6,0-115.5-6.3-115.5-58.6
							c0-36.4,68.5-153.5,142.3-330.7l334.4-808.7c47-112.4,41.6-145.6,102.1-145.6c33.6,0,115.5,6.3,115.5,58.6
							c0,36.4-68.5,153.5-142.3,330.7L2325.3,2934.8z"/>
						<path class="st2" d="M3302.9,2441.1l-351.8-180.4c-43-20.6-51-38-51-74.4v-50.6c0-25.3,6.7-77.5,26.9-77.5
							c18.8,0,33.6,9.5,51,17.4l549.3,281.7c22.8,11.1,21.5,55.4,22.8,83.9c-1.3,28.5,0,72.8-22.8,83.9L2978,2806.6
							c-17.5,7.9-32.2,17.4-51,17.4c-20.1,0-26.9-52.2-26.9-77.5v-49.1c0-38,8.1-55.4,51-76L3302.9,2441.1z"/>
					</g>
				</g>
			</g>
		</g>
	</g>
</g>
</svg>
