<svg id="Layer_1" data-name="Layer 1" xmlns="http://www.w3.org/2000/svg" viewBox="0 0 619.95 113.72"><defs><style>.cls-1{fill:#000;}</style></defs><path class="cls-1" d="M393.29,395.28v20h20.4v90.9h20.55v-90.9h20.7v-20Z" transform="translate(-393.29 -395.11)"/><path class="cls-1" d="M534.07,433.57a40,40,0,0,0-30.23-13.09,41.88,41.88,0,0,0-31.35,13.2,43.94,43.94,0,0,0-12.75,31.65,41.73,41.73,0,0,0,12.83,30.83,42.44,42.44,0,0,0,31,12.67,43.44,43.44,0,0,0,24.68-7.72q11.47-7.73,15.22-19l-22.05.15a19.44,19.44,0,0,1-7.87,5.25,29.41,29.41,0,0,1-10.73,2,22.75,22.75,0,0,1-13.57-4.35,21.85,21.85,0,0,1-8.33-11.7h64.5a5.35,5.35,0,0,1,.08-.89c0-.3.12-.65.22-1.05.2-1.2.38-2.42.53-3.67a32,32,0,0,0,.22-3.81Q546.44,446.66,534.07,433.57Zm-53.48,22.16a20.26,20.26,0,0,1,8.4-11.07,26.88,26.88,0,0,1,13.5-4.68h1.2a24.61,24.61,0,0,1,13.95,4.2,21.49,21.49,0,0,1,8.7,11.55Z" transform="translate(-393.29 -395.11)"/><path class="cls-1" d="M559.34,395.28V506.13h19.95V395.28Z" transform="translate(-393.29 -395.11)"/><path class="cls-1" d="M595.34,395.28v18.15h19.95V395.28Zm0,64.5v11a13.67,13.67,0,0,0,6.2-2.48q2.46-1.87,2.46-5.92v-2.55Zm19.2,7.12a14,14,0,0,1-3.21,6.67,5.51,5.51,0,0,1-.75.9l-.9.9a17.7,17.7,0,0,1-5.15,3.6,18.37,18.37,0,0,1-5.91,1.65,4.55,4.55,0,0,1-1.12.15h-2.16v25.36h19.95V459.72h-.24A50.09,50.09,0,0,1,614.54,466.9ZM595.34,423v16.75h19.95V423Z" transform="translate(-393.29 -395.11)"/><path class="cls-1" d="M690.89,479.28a21.21,21.21,0,0,1-7.73,7.43,20.71,20.71,0,0,1-10.42,2.77q-10.95,0-18-7.05t-7-18a24.34,24.34,0,0,1,6.67-17.4q6.67-7,17.33-7a22.64,22.64,0,0,1,11.17,2.63,22,22,0,0,1,8,8l22.5.15a38.92,38.92,0,0,0-15.68-21.9,43.79,43.79,0,0,0-25.72-8.4,43.22,43.22,0,0,0-31.2,12.68,41.52,41.52,0,0,0-13,31,46.64,46.64,0,0,0,3.37,17.55,43.31,43.31,0,0,0,23.1,23.4,45.46,45.46,0,0,0,15.23,3.6,5.58,5.58,0,0,0,1.35.15h1.35a43.6,43.6,0,0,0,25.5-8.17,39.7,39.7,0,0,0,15.75-21.53h-22.5Z" transform="translate(-393.29 -395.11)"/><path class="cls-1" d="M727.34,395.28V506.13h19.95V395.28Z" transform="translate(-393.29 -395.11)"/><path class="cls-1" d="M796.24,505.78H784.93q-8.31,0-13.15-5.6t-4.84-16.39v-8.46q0-9.6-3.21-13.81t-11.1-4.2h-2.78V443.57h2.78q7.88,0,11.1-4.21t3.21-13.8V417.1q0-10.8,4.84-16.4t13.15-5.59h11.31v12.5h-4.67a19.59,19.59,0,0,0-4.65.51,7.24,7.24,0,0,0-3.49,1.93,9.28,9.28,0,0,0-2.18,4.29,29.4,29.4,0,0,0-.73,7.24V428q0,8.19-3.53,13.55a23.11,23.11,0,0,1-9.41,8.21v1.36a23.18,23.18,0,0,1,9.41,8.21q3.53,5.37,3.53,13.55v6.42a29.49,29.49,0,0,0,.73,7.25,9.33,9.33,0,0,0,2.18,4.29,6.75,6.75,0,0,0,3.47,2,21,21,0,0,0,4.67.48h4.67Z" transform="translate(-393.29 -395.11)"/><path class="cls-1" d="M885.06,433.57a40,40,0,0,0-30.22-13.09,41.88,41.88,0,0,0-31.35,13.2,43.94,43.94,0,0,0-12.75,31.65,41.72,41.72,0,0,0,12.82,30.83,42.46,42.46,0,0,0,31,12.67,43.41,43.41,0,0,0,24.67-7.72q11.47-7.73,15.23-19l-22.05.15a19.48,19.48,0,0,1-7.88,5.25,29.36,29.36,0,0,1-10.72,2,22.78,22.78,0,0,1-13.58-4.35,21.83,21.83,0,0,1-8.32-11.7h64.5a5.34,5.34,0,0,1,.07-.89c0-.3.13-.65.23-1.05.2-1.2.37-2.42.52-3.67a32,32,0,0,0,.23-3.81Q897.44,446.66,885.06,433.57Zm-53.47,22.16a20.26,20.26,0,0,1,8.4-11.07,26.88,26.88,0,0,1,13.5-4.68h1.2a24.61,24.61,0,0,1,13.95,4.2,21.49,21.49,0,0,1,8.7,11.55Z" transform="translate(-393.29 -395.11)"/><path class="cls-1" d="M946.64,420.48A20.08,20.08,0,0,0,936.29,423a23.07,23.07,0,0,0-7.5,7.57h-.3V423H910.34v83.1h19.95V459.18a35.45,35.45,0,0,1,1-8.47,12.83,12.83,0,0,1,4.73-7,13.89,13.89,0,0,1,3.75-2.17,26.91,26.91,0,0,1,4.2-1.28,10.29,10.29,0,0,1,2.1-.37c.7-.05,1.4-.13,2.1-.23V420.33Z" transform="translate(-393.29 -395.11)"/><path class="cls-1" d="M1005.29,463a76,76,0,0,0-18-7.88c-.6-.2-1.28-.4-2-.6l-2.32-.6a19.67,19.67,0,0,1-4.8-2.47A4.77,4.77,0,0,1,976,447v-.15a6.1,6.1,0,0,1,2.25-5.17,8.85,8.85,0,0,1,5.55-1.73,8.64,8.64,0,0,1,5,1.5,6.21,6.21,0,0,1,2.63,4.35H1011a23.27,23.27,0,0,0-8.25-18,27.17,27.17,0,0,0-18.6-7.38,29.77,29.77,0,0,0-19.5,7.07q-8.55,7.06-8.55,18.65a22.59,22.59,0,0,0,2,9.62,23.06,23.06,0,0,0,6.08,7.82,21.92,21.92,0,0,0,2.62,2,24.84,24.84,0,0,0,2.48,1.43q1.5.75,3,1.35c1,.4,2,.8,3.15,1.21l1.8.6q.9.3,2,.6c.8.3,1.62.57,2.47.82a23.09,23.09,0,0,1,2.63,1,23.4,23.4,0,0,1,6.22,3.24,6.73,6.73,0,0,1,2.78,5.78,6.84,6.84,0,0,1-2.85,5.93,10.86,10.86,0,0,1-6.45,2,9.52,9.52,0,0,1-7-2.7,12.51,12.51,0,0,1-3.45-6.75h-20.4q.45,12.75,8.92,20.7t21.23,7.95a19.45,19.45,0,0,0,2.4-.15l2.4-.3a38,38,0,0,0,9.07-3,31.44,31.44,0,0,0,7.73-5.1,27.3,27.3,0,0,0,6.3-9.07,27.94,27.94,0,0,0,2.1-10.88Q1013.24,467.88,1005.29,463Z" transform="translate(-393.29 -395.11)"/></svg>