<?xml version="1.0" encoding="utf-8"?>
<!-- Generator: Adobe Illustrator 26.1.0, SVG Export Plug-In . SVG Version: 6.00 Build 0)  -->
<svg version="1.1" xmlns="http://www.w3.org/2000/svg" xmlns:xlink="http://www.w3.org/1999/xlink" x="0px" y="0px"
	 viewBox="0 0 2700 1724" style="enable-background:new 0 0 2700 1724;" xml:space="preserve">
<style type="text/css">
	.st0{fill-rule:evenodd;clip-rule:evenodd;fill:#FFFFFF;}
	.st1{fill:none;stroke:#231F20;stroke-width:5;stroke-miterlimit:10;stroke-dasharray:14.8319,14.8319;}
	.st2{fill:none;stroke:#231F20;stroke-width:5;stroke-miterlimit:10;stroke-dasharray:15.1726,15.1726;}
	.st3{fill:none;stroke:#231F20;stroke-width:5;stroke-miterlimit:10;stroke-dasharray:14.8431,14.8431;}
	.st4{fill:none;stroke:#231F20;stroke-width:5;stroke-miterlimit:10;stroke-dasharray:14.8336,14.8336;}
	.st5{fill-rule:evenodd;clip-rule:evenodd;fill:#231F20;}
</style>
<g id="BACKGROUND">
</g>
<g id="Layer_1">
	<g id="XMLID_42_">
		<g id="XMLID_52_">
			<path id="XMLID_54_" class="st0" d="M266.1,688.7H473c38.5,0,69.6,31.7,69.6,69.6v207.5c0,38.5-31.1,69.6-69.6,69.6H266.1
				c-38.5,0-69.6-31.1-69.6-69.6V758.2C196.5,720.4,227.6,688.7,266.1,688.7L266.1,688.7z"/>
			<path id="XMLID_53_" class="st1" d="M266.1,688.7H473c38.5,0,69.6,31.7,69.6,69.6v207.5c0,38.5-31.1,69.6-69.6,69.6H266.1
				c-38.5,0-69.6-31.1-69.6-69.6V758.2C196.5,720.4,227.6,688.7,266.1,688.7z"/>
		</g>
	</g>
	<g id="XMLID_35_">
		<g id="XMLID_36_">
			<path id="XMLID_41_" class="st0" d="M2230.8,703.1h198.9c36.8,0,66.7,30.4,66.7,66.7v198.9c0,36.8-29.8,66.7-66.7,66.7h-198.9
				c-36.3,0-66.7-29.8-66.7-66.7V769.8C2164.1,733.5,2194.5,703.1,2230.8,703.1L2230.8,703.1z"/>
			<path id="XMLID_40_" class="st2" d="M2230.8,703.1h198.9c36.8,0,66.7,30.4,66.7,66.7v198.9c0,36.8-29.8,66.7-66.7,66.7h-198.9
				c-36.3,0-66.7-29.8-66.7-66.7V769.8C2164.1,733.5,2194.5,703.1,2230.8,703.1z"/>
		</g>
	</g>
	<g id="XMLID_30_">
		<g id="XMLID_32_">
			<path id="XMLID_34_" class="st0" d="M756.1,688.7H963c38.5,0,69.6,31.7,69.6,69.6v207.5c0,38.5-31.1,69.6-69.6,69.6H756.1
				c-38.5,0-69.6-31.1-69.6-69.6V758.2C686.6,720.4,717.7,688.7,756.1,688.7L756.1,688.7z"/>
			<path id="XMLID_33_" class="st1" d="M756.1,688.7H963c38.5,0,69.6,31.7,69.6,69.6v207.5c0,38.5-31.1,69.6-69.6,69.6H756.1
				c-38.5,0-69.6-31.1-69.6-69.6V758.2C686.6,720.4,717.7,688.7,756.1,688.7z"/>
		</g>
	</g>
	<g id="XMLID_9_">
		<g id="XMLID_12_">
			<path id="XMLID_56_" class="st0" d="M1736.4,688.7h207.5c37.8,0,69.6,31.7,69.6,69.6v207.5c0,38.5-31.7,69.6-69.6,69.6h-207.5
				c-38.5,0-69.6-31.1-69.6-69.6V758.2C1666.8,720.4,1697.9,688.7,1736.4,688.7L1736.4,688.7z"/>
			<path id="XMLID_55_" class="st3" d="M1736.4,688.7h207.5c37.8,0,69.6,31.7,69.6,69.6v207.5c0,38.5-31.7,69.6-69.6,69.6h-207.5
				c-38.5,0-69.6-31.1-69.6-69.6V758.2C1666.8,720.4,1697.9,688.7,1736.4,688.7z"/>
		</g>
	</g>
	<g id="XMLID_4_">
		<g id="XMLID_57_">
			<path id="XMLID_59_" class="st0" d="M1246.2,688.7h207.5c37.8,0,69,31.7,69,69.6v207.5c0,38.5-31.1,69.6-69,69.6h-207.5
				c-38.5,0-69.6-31.1-69.6-69.6V758.2C1176.7,720.4,1207.8,688.7,1246.2,688.7L1246.2,688.7z"/>
			<path id="XMLID_58_" class="st4" d="M1246.2,688.7h207.5c37.8,0,69,31.7,69,69.6v207.5c0,38.5-31.1,69.6-69,69.6h-207.5
				c-38.5,0-69.6-31.1-69.6-69.6V758.2C1176.7,720.4,1207.8,688.7,1246.2,688.7z"/>
		</g>
	</g>
	<g id="XMLID_74_">
		<g id="XMLID_75_">
			<path id="XMLID_77_" class="st0" d="M266.1,1171.9H473c38.5,0,69.6,31.7,69.6,69.6V1449c0,38.5-31.1,69.6-69.6,69.6H266.1
				c-38.5,0-69.6-31.1-69.6-69.6v-207.5C196.5,1203.7,227.6,1171.9,266.1,1171.9L266.1,1171.9z"/>
			<path id="XMLID_76_" class="st1" d="M266.1,1171.9H473c38.5,0,69.6,31.7,69.6,69.6V1449c0,38.5-31.1,69.6-69.6,69.6H266.1
				c-38.5,0-69.6-31.1-69.6-69.6v-207.5C196.5,1203.7,227.6,1171.9,266.1,1171.9z"/>
		</g>
	</g>
	<g id="XMLID_70_">
		<g id="XMLID_71_">
			<path id="XMLID_73_" class="st0" d="M2230.8,1186.4h198.9c36.8,0,66.7,30.4,66.7,66.7v198.9c0,36.8-29.8,66.7-66.7,66.7h-198.9
				c-36.3,0-66.7-29.8-66.7-66.7v-198.9C2164.1,1216.8,2194.5,1186.4,2230.8,1186.4L2230.8,1186.4z"/>
			<path id="XMLID_72_" class="st2" d="M2230.8,1186.4h198.9c36.8,0,66.7,30.4,66.7,66.7v198.9c0,36.8-29.8,66.7-66.7,66.7h-198.9
				c-36.3,0-66.7-29.8-66.7-66.7v-198.9C2164.1,1216.8,2194.5,1186.4,2230.8,1186.4z"/>
		</g>
	</g>
	<g id="XMLID_63_">
		<g id="XMLID_67_">
			<path id="XMLID_69_" class="st0" d="M756.1,1171.9H963c38.5,0,69.6,31.7,69.6,69.6V1449c0,38.5-31.1,69.6-69.6,69.6H756.1
				c-38.5,0-69.6-31.1-69.6-69.6v-207.5C686.6,1203.7,717.7,1171.9,756.1,1171.9L756.1,1171.9z"/>
			<path id="XMLID_68_" class="st1" d="M756.1,1171.9H963c38.5,0,69.6,31.7,69.6,69.6V1449c0,38.5-31.1,69.6-69.6,69.6H756.1
				c-38.5,0-69.6-31.1-69.6-69.6v-207.5C686.6,1203.7,717.7,1171.9,756.1,1171.9z"/>
		</g>
	</g>
	<g id="XMLID_11_">
		<g id="XMLID_62_">
			<path id="XMLID_79_" class="st0" d="M1736.4,1171.9h207.5c37.8,0,69.6,31.7,69.6,69.6V1449c0,38.5-31.7,69.6-69.6,69.6h-207.5
				c-38.5,0-69.6-31.1-69.6-69.6v-207.5C1666.8,1203.7,1697.9,1171.9,1736.4,1171.9L1736.4,1171.9z"/>
			<path id="XMLID_78_" class="st3" d="M1736.4,1171.9h207.5c37.8,0,69.6,31.7,69.6,69.6V1449c0,38.5-31.7,69.6-69.6,69.6h-207.5
				c-38.5,0-69.6-31.1-69.6-69.6v-207.5C1666.8,1203.7,1697.9,1171.9,1736.4,1171.9z"/>
		</g>
	</g>
	<g id="XMLID_5_">
		<g id="XMLID_80_">
			<path id="XMLID_82_" class="st0" d="M1246.2,1171.9h207.5c37.8,0,69,31.7,69,69.6V1449c0,38.5-31.1,69.6-69,69.6h-207.5
				c-38.5,0-69.6-31.1-69.6-69.6v-207.5C1176.7,1203.7,1207.8,1171.9,1246.2,1171.9L1246.2,1171.9z"/>
			<path id="XMLID_81_" class="st4" d="M1246.2,1171.9h207.5c37.8,0,69,31.7,69,69.6V1449c0,38.5-31.1,69.6-69,69.6h-207.5
				c-38.5,0-69.6-31.1-69.6-69.6v-207.5C1176.7,1203.7,1207.8,1171.9,1246.2,1171.9z"/>
		</g>
	</g>
	<path id="XMLID_197_" class="st5" d="M2330.2,752.2c59.9,0,108.3,48.4,108.3,108.3c0,59.9-48.4,108.3-108.3,108.3
		c-16.5,0-31.9-3.8-45.6-9.9l-57.7,9.9l7.7-57.2l-0.6-1.1c-7.7-14.8-12.1-31.9-12.1-50C2221.9,800.6,2270.3,752.2,2330.2,752.2
		L2330.2,752.2z M2300.5,812.1h11.5h19.2h8.8c0,0,28.6-1.1,29.1,25.8c0,0,1.1,12.1-12.1,19.8c0,0,14.3,6,14.3,23.1
		c0,0,0,29.7-35.2,26.4h-0.5h-23.6h-11.5h-0.6c-1.6,0-2.7-1.1-2.7-2.7V904v-8.8l0,0v-30.2l0,0v-10.4l0,0v-30.2l0,0v-8.8v-1.1
		c0-1.1,1.1-2.2,2.7-2.2H2300.5z M2340.1,827h-8.2h-16.5v24.7h18.7l0,0h0.6c3.3,0,17.6-1.1,18.7-13.2
		C2353.3,838.5,2352.8,828.6,2340.1,827L2340.1,827z M2337.4,867.7h-3.3h-18.7v24.7h18.7c8.2,0,19.2-2.7,19.2-13.2
		C2353.3,879.2,2352.8,867.7,2337.4,867.7L2337.4,867.7z M2262,944.7l15.4-2.7l9.3-1.6c13.2,7.1,28,11,43.4,11
		c50,0,90.7-40.7,90.7-90.7c0-50-40.7-90.7-90.7-90.7s-90.7,40.7-90.7,90.7c0,18.1,5.5,34.6,14.3,48.9l-1.1,8.2l-2.2,15.9l-1.6,13.2
		L2262,944.7z"/>
	<path id="XMLID_31_" class="st5" d="M1908.6,804c-11.7-7.2-20.8-20.8-23-34.3c-0.5-3.2-0.9-5.9-0.9-9H1849v84v58.2
		c0,16.7-13.5,30.2-30.2,30.2c-5.4,0-9.9-1.4-14.4-3.6c-9.5-5-16.2-15.3-16.2-26.6c0-16.7,13.5-30.2,30.7-30.2c3.2,0,5.9,0.5,9,1.4
		v-28v-8.1c-3.2-0.5-5.9-0.9-9-0.9c-36.6,0-66.4,29.3-66.4,65.9c0,22.1,11.3,42,28.4,53.7c10.8,7.2,23.9,11.7,37.9,11.7
		c36.6,0,65.9-29.3,65.9-65.4v-74c13.5,12.2,31.6,18.1,49.7,16.7v-26.6v-9C1925.3,811.6,1916.2,808.9,1908.6,804z"/>
	<path id="XMLID_151_" class="st5" d="M818.3,805.5h-28.7h-19.3c-6.4,0-12.3,5.3-12.3,12.3v19.3v14.6v35.2
		c0,17.6,14.1,31.6,31.6,31.6h53.9h28.7h19.3c6.4,0,12.3-5.9,12.3-12.9v-18.7v-15.2v-34.6c0-17.6-14.1-31.6-31.6-31.6H818.3z
		 M961.2,906.2c0,11.1-8.2,12.3-16.4,5.3l-27-24c-5.9-4.7-5.9-5.3-5.9-12.3v-27c0-7,0-7.6,5.9-12.3l27-24c8.2-7,16.4-5.9,16.4,5.9
		V906.2z"/>
	<g id="XMLID_142_">
		<path id="XMLID_149_" class="st5" d="M1285.8,788.4c20.8-1.7,45.4-2.5,64.2-2.5l0,0l0,0c18.7,0,42.9,0.8,64.2,2.5
			c24.6,2.1,37.1,6.2,40.4,30.8c1.7,11.2,2.5,26.7,2.5,42.5l0,0c0,15.8-0.8,31.7-2.5,42.5c-3.3,25-15.8,28.7-40.4,30.8
			c-21.2,2.1-45.4,2.5-64.2,2.5l0,0l0,0c-18.7,0-43.3-0.4-64.2-2.5c-24.6-2.1-37.5-5.8-40.8-30.8c-1.2-10.8-2.1-26.7-2.1-42.5l0,0
			c0-15.8,0.8-31.2,2.1-42.5C1248.3,794.6,1261.2,790.5,1285.8,788.4L1285.8,788.4z"/>
		<polygon id="XMLID_143_" class="st0" points="1328.3,829.6 1384.1,861.7 1328.3,894.2 		"/>
	</g>
	<path id="XMLID_119_" class="st5" d="M274,859c43.5-18.2,96-44.2,141.6-61.7c42.1-15.4,41.4-11.2,35,30.8
		c-4.9,33.6-10.5,67.3-16.1,100.9c-2.1,16.1-10.5,24.5-28,14.7l-54.7-38.5c-7.7-6.3-5.6-11.2,0.7-17.5l50.5-47.7
		c13.3-13.3,7-18.2-8.4-7.7l-69.4,47c-9.8,7-20.3,7-31.5,3.5l-23.8-8.4C254.4,868.8,266.3,862.5,274,859L274,859z"/>
	<g id="XMLID_218_">
		<g id="XMLID_49_">
			<path id="XMLID_51_" class="st0" d="M266.1,205.4H473c38.5,0,69.6,31.7,69.6,69.6v207.5c0,38.5-31.1,69.6-69.6,69.6H266.1
				c-38.5,0-69.6-31.1-69.6-69.6V275C196.5,237.1,227.6,205.4,266.1,205.4L266.1,205.4z"/>
			<path id="XMLID_50_" class="st1" d="M266.1,205.4H473c38.5,0,69.6,31.7,69.6,69.6v207.5c0,38.5-31.1,69.6-69.6,69.6H266.1
				c-38.5,0-69.6-31.1-69.6-69.6V275C196.5,237.1,227.6,205.4,266.1,205.4z"/>
		</g>
	</g>
	<path id="XMLID_217_" class="st5" d="M333.8,498.6h44.8V395.3h33.1l6.6-41.7h-39.7v-31.5c0-11.7,11.2-18.3,21.9-18.3h19.3v-34.6
		l-34.6-1.5c-33.1-2-51.4,23.9-51.4,54.9v31h-37.7v41.7h37.7V498.6z"/>
	<g id="XMLID_216_">
		<g id="XMLID_46_">
			<path id="XMLID_48_" class="st0" d="M2230.8,212.6h198.9c36.8,0,66.7,30.4,66.7,66.7v198.9c0,36.8-29.8,66.7-66.7,66.7h-198.9
				c-36.3,0-66.7-29.8-66.7-66.7V279.3C2164.1,243,2194.5,212.6,2230.8,212.6L2230.8,212.6z"/>
			<path id="XMLID_47_" class="st2" d="M2230.8,212.6h198.9c36.8,0,66.7,30.4,66.7,66.7v198.9c0,36.8-29.8,66.7-66.7,66.7h-198.9
				c-36.3,0-66.7-29.8-66.7-66.7V279.3C2164.1,243,2194.5,212.6,2230.8,212.6z"/>
		</g>
	</g>
	<g id="XMLID_213_">
		<path id="XMLID_215_" class="st5" d="M2330.2,263.2c64.4,0,116.1,50.7,116.1,112.9S2394.6,489,2330.2,489
			c-12.7,0-24.8-2.1-36.4-5.8l-21.1,9c-12.1,5.3-16.9,0.5-16.9-14.2v-14.8c-25.3-21.1-41.7-52.2-41.7-87.1
			C2214.1,313.8,2266.4,263.2,2330.2,263.2L2330.2,263.2z"/>
		<path id="XMLID_214_" class="st0" d="M2263.7,404.6l28-42.7c3.7-6.3,7.4-12.7,15.3-14.2c5.8-1.6,10.6,0.5,15.3,4.2l24.8,18.5
			c4.2,3.2,5.3,3.2,9.5,0l32.2-23.7c8.4-6.9,15.8-2.6,10,6.9l-30.6,49.1c0,0-6.9,11.1-16.4,10.6c0,0-6.9,0-11.6-4.2l-26.4-20.6
			c-3.2-2.1-4.7-2.1-8.4,0.5l-33.2,25.3C2262.7,421.5,2256.9,415.1,2263.7,404.6L2263.7,404.6z"/>
	</g>
	<g id="XMLID_212_">
		<g id="XMLID_43_">
			<path id="XMLID_45_" class="st0" d="M756.1,205.4H963c38.5,0,69.6,31.7,69.6,69.6v207.5c0,38.5-31.1,69.6-69.6,69.6H756.1
				c-38.5,0-69.6-31.1-69.6-69.6V275C686.6,237.1,717.7,205.4,756.1,205.4L756.1,205.4z"/>
			<path id="XMLID_44_" class="st1" d="M756.1,205.4H963c38.5,0,69.6,31.7,69.6,69.6v207.5c0,38.5-31.1,69.6-69.6,69.6H756.1
				c-38.5,0-69.6-31.1-69.6-69.6V275C686.6,237.1,717.7,205.4,756.1,205.4z"/>
		</g>
	</g>
	<path id="XMLID_205_" class="st5" d="M809.6,270.4h100c32.1,0,58.6,26.4,58.6,58.6v99.5c0,32.1-26.4,58.6-58.6,58.6h-100
		c-32.1,0-58.6-26.4-58.6-58.6V329C751,296.8,777.4,270.4,809.6,270.4L809.6,270.4z M917.9,308.2L917.9,308.2
		c6.7,0,12.4,5.7,12.4,12.4l0,0c0,6.7-5.7,12.4-12.4,12.4l0,0c-7.3,0-12.4-5.7-12.4-12.4l0,0C905.5,313.9,910.6,308.2,917.9,308.2
		L917.9,308.2z M859.3,319.6h0.5c32.1,0,59.1,27,59.1,59.1l0,0c0,32.7-27,59.1-59.1,59.1h-0.5c-32.1,0-58.6-26.4-58.6-59.1l0,0
		C800.8,346.6,827.2,319.6,859.3,319.6L859.3,319.6z M859.3,339.9h0.5c21.3,0,38.9,17.6,38.9,38.9l0,0c0,21.8-17.6,39.4-38.9,39.4
		h-0.5c-21.3,0-38.9-17.6-38.9-39.4l0,0C820.5,357.5,838.1,339.9,859.3,339.9L859.3,339.9z M810.1,289.1h99
		c22.3,0,40.4,18.1,40.4,40.4V428c0,22.3-18.1,40.4-40.4,40.4h-99c-22.3,0-40.4-18.1-40.4-40.4v-98.5
		C769.7,307.2,787.8,289.1,810.1,289.1L810.1,289.1z"/>
	<g id="XMLID_193_">
		<path id="XMLID_194_" class="st5" d="M1351.2,1250.1L1351.2,1250.1c57.8,4.4,52.9,45.8,51.8,79.1c0,0,3.3,1.1,15.3-5.5
			c0,0,6.5-4.4,11.5,0.5c0,0,6,6.5-6,13.1l-19.6,14.2c0,0,0,28.4,45.8,49.7c0,0-1.1,4.9-23.5,9.3c0,0-3.8,1.1-6,9.8
			c-1.6,5.5-12.6,3.3-18,3.3c0,0-11.5,0-23.5,10.4c0,0-12,7.6-27.8,8.7l0,0c-15.8-1.1-27.3-8.7-27.3-8.7c-12-10.4-24-10.4-24-10.4
			c-4.9,0-16.4,2.2-17.5-3.3c-2.2-8.7-6.5-9.8-6.5-9.8c-22.4-4.4-23.5-9.3-23.5-9.3c45.8-21.3,45.8-49.7,45.8-49.7l-19.6-14.2
			c-11.5-6.5-5.5-13.1-5.5-13.1c4.9-4.9,11.5-0.5,11.5-0.5c12,6.5,15.3,5.5,15.3,5.5C1298.2,1295.9,1293.9,1254.4,1351.2,1250.1
			L1351.2,1250.1z"/>
	</g>
	<g id="XMLID_192_">
		<g id="XMLID_37_">
			<path id="XMLID_39_" class="st0" d="M1736.4,205.4h207.5c37.8,0,69.6,31.7,69.6,69.6v207.5c0,38.5-31.7,69.6-69.6,69.6h-207.5
				c-38.5,0-69.6-31.1-69.6-69.6V275C1666.8,237.1,1697.9,205.4,1736.4,205.4L1736.4,205.4z"/>
			<path id="XMLID_38_" class="st3" d="M1736.4,205.4h207.5c37.8,0,69.6,31.7,69.6,69.6v207.5c0,38.5-31.7,69.6-69.6,69.6h-207.5
				c-38.5,0-69.6-31.1-69.6-69.6V275C1666.8,237.1,1697.9,205.4,1736.4,205.4z"/>
		</g>
	</g>
	<path id="XMLID_188_" class="st5" d="M1801.6,329.2c6-3.8,9.9-1.1,12.1,4.9l5.5,14.3c0,0,3.8,7.7-6,15.4c-1.6,1.1-1.6,1.1-1.1,3.8
		c2.2,6.6,11,26.4,39,41.8c2.7,1.6,3.3,1.6,6-0.5c2.2-2.2,4.9-4.9,7.1-7.1c4.9-4.4,7.7-6,12.1-2.7c3.3,2.2,6.6,4.9,9.9,7.1
		c3.3,2.7,8.8,6,3.3,12.6l-4.9,6c-7.1,8.8-13.2,9.3-22.5,7.1c-35.7-9.3-62.1-34.6-73.7-70.4C1784.6,347.9,1790.1,336.4,1801.6,329.2
		L1801.6,329.2z M1840.1,270.4c59.9,0,108.3,48.4,108.3,108.3c0,59.9-48.4,108.3-108.3,108.3c-16.5,0-31.9-3.3-45.6-9.9l-57.7,9.9
		l7.7-57.2l-0.5-1.1c-7.7-14.8-12.1-31.9-12.1-50C1731.8,318.8,1780.2,270.4,1840.1,270.4L1840.1,270.4z M1771.9,462.9l15.4-2.7
		l9.3-1.6c13.2,7.1,27.5,11,43.4,11c50,0,90.7-40.7,90.7-90.7c0-50-40.7-90.7-90.7-90.7s-90.7,40.7-90.7,90.7
		c0,18.1,5.5,34.6,14.3,48.9l-1.1,8.2l-2.2,16.5l-1.6,12.6L1771.9,462.9z"/>
	<g id="XMLID_2_">
		<path id="XMLID_185_" class="st5" d="M859.3,1247.6c56.9,0,103.4,37.7,103.4,83.7c0,24.6-12.6,46-33.4,61.3
			c-43.2,37.2-67.3,47.6-67.3,47.6c-9.3,4.9-10.9,2.2-9.8-6.6c1.1-5.5,2.2-12.6,2.2-12.6c1.1-4.9-4.4-6-6.6-6.6h-1.1l0,0l0,0
			c-51.4-4.9-90.8-40.5-90.8-83.2C755.9,1285.4,802.4,1247.6,859.3,1247.6L859.3,1247.6z"/>
		<path id="XMLID_179_" class="st0" d="M790.9,1355.4h32.3v-8.8h-22.4v-37.7h-9.8V1355.4z M828.7,1355.4h9.8v-46.5h-9.8V1355.4z
			 M879,1308.9v28.4l-21.9-28.4h-8.2v46.5h9.8v-27.9l21.9,27.9h8.2v-46.5H879z M909.1,1347.2v-10.9h20.8v-8.2h-20.8v-10.4h20.8v-8.8
			h-30.6v46.5h30.6v-8.2H909.1z"/>
	</g>
	<path id="XMLID_162_" class="st5" d="M277.7,1311.9h37.1v124.6h-37.1V1311.9z M296,1248.7c12.4,0,22.4,10.1,22.4,22.4
		c0,12.4-10.1,22.4-22.4,22.4c-12.4,0-22-10.1-22-22.4C274,1258.8,283.6,1248.7,296,1248.7L296,1248.7z M336.8,1311.9h36.6v17.4
		c7.8-11.4,20.6-18.8,35.3-18.8h10.1c23.4,0,42.1,19.2,42.1,42.1v18.8v22.4v42.6h-36.6v-0.5v-11l0,0v-55.9l0,0
		c-0.5-14.2-10.1-25.2-24.3-25.2l0,0c-14.2,0-26.1,11-26.6,25.2l0,0v48.5v18.8h-36.6V1311.9z"/>
	<g id="XMLID_155_">
		<g id="XMLID_157_">
			<path id="XMLID_160_" class="st5" d="M2284.7,1236.9c34.6,0,62.5,28,62.5,62.5c0,34.6-28,62.5-62.5,62.5
				c-34.6,0-62.5-28-62.5-62.5C2222.1,1264.9,2250.1,1236.9,2284.7,1236.9L2284.7,1236.9z"/>
			<path id="XMLID_159_" class="st5" d="M2379.6,1453.6c-32.4,0-59.2-26.3-59.2-58.7c0-32.4,26.9-59.2,59.2-59.2
				s58.7,26.9,58.7,59.2C2438.3,1427.3,2411.9,1453.6,2379.6,1453.6L2379.6,1453.6z"/>
			<path id="XMLID_158_" class="st5" d="M2331.3,1241.3c58.1,0,105.3,47.2,105.3,104.8c0,58.1-47.2,105.3-105.3,105.3
				c-57.6,0-104.8-47.2-104.8-105.3C2226.5,1288.5,2273.7,1241.3,2331.3,1241.3L2331.3,1241.3z"/>
		</g>
		<path id="XMLID_156_" class="st0" d="M2320.3,1353.2c8.2,3.3,15.9,5.5,21.9,11.5c9.9,9.9,2.2,21.4-13.2,21.4
			c-12.1,0.5-32.4-15.4-38.4-2.2c-8.8,18.6,32.9,21.4,47.2,19.7c16.5-2.2,26.3-8.8,30.2-21.4c10.4-34.6-23-40-45.5-52.1
			c-7.7-4.4-12.6-12.1-7.7-18.1c8.8-11.5,25.2-5.5,36.8-2.2c20.8,6,25.2-26.3-25.8-22.5c-17.6,1.6-29.6,8.2-34,21.9
			C2284.7,1330.7,2300.6,1345.5,2320.3,1353.2L2320.3,1353.2z"/>
	</g>
	<g id="XMLID_141_">
		<g id="XMLID_13_">
			<path id="XMLID_29_" class="st0" d="M1246.2,205.4h207.5c37.8,0,69,31.7,69,69.6v207.5c0,38.5-31.1,69.6-69,69.6h-207.5
				c-38.5,0-69.6-31.1-69.6-69.6V275C1176.7,237.1,1207.8,205.4,1246.2,205.4L1246.2,205.4z"/>
			<path id="XMLID_14_" class="st4" d="M1246.2,205.4h207.5c37.8,0,69,31.7,69,69.6v207.5c0,38.5-31.1,69.6-69,69.6h-207.5
				c-38.5,0-69.6-31.1-69.6-69.6V275C1176.7,237.1,1207.8,205.4,1246.2,205.4z"/>
		</g>
	</g>
	<path id="XMLID_140_" class="st5" d="M1351.7,347.1c-8.8-46.2,46.8-73.7,79.5-40.4c0,0,14.6-4.1,27.5-12.3c0,0-4.7,15.8-20.5,25.7
		c0,0,17.5-2.3,25.2-7c0,0-7.6,15.8-21.6,21.6c7.6,105.9-106.4,170.2-198.9,117.6c0,0,45.6,2.3,64.9-19.9c0,0-28.1,2.3-42.1-31.6
		c0,0,10.5,4.1,21.1-1.2c0,0-32.8-5.3-35.7-44.5c0,0,10.5,8.2,22.2,5.3c0,0-36.3-21.6-15.8-60.8
		C1257.6,299.8,1296.2,348.9,1351.7,347.1L1351.7,347.1z"/>
	<g id="XMLID_92_">
		<path id="XMLID_93_" class="st5" d="M1774.9,1272.8c-9.8,8.7-17.4,19.1-22.9,30.5c-1.1,2.7-2.7,5.5-3.8,8.7
			c10.4,3.3,20.7,6,31.6,7.1c2.7,0.5,4.9,0.5,7.6,0.5c0-4.9,0-10.4,0.5-15.3c1.6-17.4,6.5-33.8,14.2-49.1
			C1792.3,1259.7,1783.1,1265.2,1774.9,1272.8L1774.9,1272.8z M1744.9,1323c-1.1,6-2.2,11.5-2.2,17.4c-1.1,12.5,1.1,25.6,4.9,37.6
			c4.4,12,10.9,22.9,19.6,32.7c1.6,2.2,3.8,3.8,5.5,6c7.1-9.3,15.3-17.4,24.5-25.1c2.2-1.6,4.4-3.8,7.1-5.5
			c-4.4-8.2-8.2-17.4-10.9-26.7c-2.7-9.3-4.9-18.5-5.5-28.4c-3.3,0-6,0-9.3-0.5C1767.3,1329.5,1755.8,1326.8,1744.9,1323
			L1744.9,1323z M1782,1424.4c4.9,3.3,10.4,6.5,15.8,9.3c11.5,5.5,24,8.7,37.1,9.8c7.6,0,15.3,0,22.9-1.6
			c-14.7-8.7-27.8-19.6-38.7-33.3c-3.3-3.8-6-8.2-8.7-12.5c-2.2,1.6-4.4,3.3-6,4.9C1795.6,1407.5,1788.5,1415.7,1782,1424.4
			L1782,1424.4z M1877.9,1435.9c9.8-4.4,19.1-9.8,27.3-17.4c9.8-8.7,17.4-19.1,22.9-30.5c1.6-2.7,2.7-5.5,3.8-8.2
			c-10.4-3.8-20.7-6.5-31.6-7.6c-2.7,0-4.9-0.5-7.1-0.5c0,5.5-0.5,10.4-1.1,15.3C1890.5,1404.2,1885.6,1420.6,1877.9,1435.9
			L1877.9,1435.9z M1935.2,1368.2c1.1-5.5,2.2-11.5,2.7-16.9c0.5-13.1-1.1-25.6-5.5-38.2c-4.4-11.5-10.9-22.9-19.6-32.7
			c-1.6-2.2-3.8-3.8-5.5-6c-7.1,9.3-15.3,18-24,25.1c-2.7,2.2-4.9,3.8-7.1,5.5c4.4,8.7,8.2,17.4,10.9,26.7
			c2.7,9.3,4.4,19.1,5.5,28.4c2.7,0,6,0,8.7,0.5C1912.8,1361.7,1924.3,1364.4,1935.2,1368.2L1935.2,1368.2z M1898.7,1267.4
			c-5.5-3.8-10.4-7.1-16.4-9.8c-11.5-5.5-24-8.7-36.5-9.3c-7.6-0.5-15.8,0-22.9,1.1c14.2,8.7,27.3,19.6,38.2,33.3
			c3.3,3.8,6.5,8.2,9.3,12.5c1.6-1.6,3.8-3.3,5.5-4.4C1884.5,1283.7,1892.1,1276.1,1898.7,1267.4L1898.7,1267.4z M1880.7,1360.1
			c-11.5,0.5-22.9,2.2-34.4,5.5c-11.5,3.8-22.4,8.7-32.2,14.2c-3.8-7.1-7.1-15.3-9.8-23.4c-2.2-8.2-3.8-16.4-4.9-25.1
			c11.5,0,23.4-2.2,34.9-5.5c11.5-3.3,22.4-8.2,32.2-14.2c3.8,7.6,7.1,15.3,9.3,23.4C1878.5,1343.2,1880.1,1351.9,1880.7,1360.1
			L1880.7,1360.1z M1819.6,1390.1c9.3-5.5,19.1-9.8,30-13.1c10.4-3.3,21.3-4.9,31.6-5.5c0,4.9,0,9.8-0.5,14.2
			c-1.6,16.9-6.5,32.7-14.2,47.4c-14.7-7.6-27.8-18.5-38.2-31.6C1825.1,1397.7,1822.3,1393.9,1819.6,1390.1L1819.6,1390.1z
			 M1798.9,1319.7c0-4.9,0-9.3,0.5-14.2c1.6-16.9,7.1-32.7,14.7-47.4c14.2,8.2,27.3,18.5,38.2,31.6c2.7,3.8,5.5,7.6,8.2,12
			c-9.3,4.9-19.1,9.3-29.4,12.5C1820.1,1317.5,1809.2,1319.2,1798.9,1319.7L1798.9,1319.7z M1742.7,1299c6-12.5,14.2-24,25.1-33.8
			c10.9-9.8,23.4-16.9,36.5-21.8c13.6-4.4,27.8-6.5,42-6c13.6,1.1,27.8,4.4,40.9,10.9c12.5,6,24,14.2,33.8,25.1s16.9,23.4,21.3,36.5
			c4.9,13.6,6.5,27.8,6,42c-1.1,13.6-4.4,27.8-10.4,40.9c-6,12.5-14.7,24-25.6,33.8c-10.9,9.8-23.4,16.9-36.5,21.3
			c-13.1,4.9-27.8,6.5-41.4,6c-14.2-1.1-28.4-4.4-40.9-10.4c-12.5-6-24-14.7-33.8-25.6c-9.8-10.9-16.9-23.4-21.8-36.5
			c-4.4-13.1-6.5-27.8-6-41.4C1732.9,1325.7,1736.2,1311.5,1742.7,1299L1742.7,1299z"/>
	</g>
</g>
</svg>
