<svg width="1239" height="816" viewBox="0 0 1239 816" fill="none" xmlns="http://www.w3.org/2000/svg">
<path d="M1086.5 766.82C1133.95 729.81 1237 649.497 1237 484.998C1269.71 -132.929 670.305 45.8782 670.305 45.8782C670.305 45.8782 550.37 114.991 383.431 22.2861C307.079 -20.1107 225.766 3.12455 161.759 53.0482C121.471 84.4716 88.0474 126.452 67.0129 169.308C67.0129 169.308 -75.5001 340.498 55.9999 528.498C105.5 599.266 200 546.998 217.5 680.498C228.306 765.958 409.91 882.284 607.589 766.821C704.142 710.418 805.622 747.717 805.622 747.717C805.622 747.717 922 816 1013 790.5" fill="#696969"/>
</svg>
