<svg width="571" height="1070" viewBox="0 0 571 1070" fill="none" xmlns="http://www.w3.org/2000/svg">
<path d="M-414.428 226.522L-383.745 414.226C-382.121 414.514 -215.628 537.641 -119.853 537.073C-119.853 537.073 -104.135 541.482 -96.1726 544.008L-96.3793 543.779C-99.0263 540.25 -98.6857 535.414 -98.0687 531.074C-91.6154 485.642 -68.1703 444.519 -43.2299 405.91C-38.3774 398.398 -32.6854 390.367 -23.957 388.091C-22.9663 387.833 -21.9715 387.661 -20.981 387.565C-18.0051 387.277 -15.0347 387.67 -12.1087 388.488C-17.822 380.523 -32.9753 367.783 -32.9753 367.783C-137.078 278.572 -414.428 226.522 -414.428 226.522Z" fill="#764E9A"/>
<path d="M57.3429 508.265C57.3429 508.265 66.5207 485.617 70.4633 474.056C72.4429 468.256 74.2968 462.162 74.1866 456.114C74.1583 454.485 74.0176 452.863 73.6608 451.251C71.1294 439.769 60.3427 432.193 50.3947 425.759C35.6178 416.205 20.8452 406.65 6.06968 397.101C0.731447 393.649 -5.12969 390.142 -11.1673 388.446C-14.1618 387.608 -17.2029 387.199 -20.2466 387.498C-21.2645 387.597 -22.2781 387.771 -23.2917 388.036C-32.2183 390.362 -38.044 398.588 -43.0067 406.282C-68.5244 445.818 -92.4995 487.938 -99.0839 534.481C-99.7149 538.923 -100.056 543.88 -97.3501 547.497L-97.1398 547.727C-95.5307 549.73 -93.1922 551.032 -90.9083 552.251C-72.9723 561.813 -55.0349 571.38 -37.1032 580.944C-26.7945 586.444 -12.3032 597.797 0.188546 596.989C3.30538 596.787 6.01828 595.751 8.42997 594.18C15.9401 589.294 20.5068 579.132 24.8057 572.014C38.381 549.533 57.3429 508.265 57.3429 508.265Z" fill="#EF7D87"/>
<path d="M302.986 882.119C312.047 883.332 315.558 873.766 316.025 866.001C317.42 842.68 307.619 819.709 293.307 801.053C282.325 786.737 267.908 768.324 277.659 753.254C343.011 776.243 393.15 829.797 456.771 857.159C462.96 859.826 469.711 862.218 476.39 863.054C484.679 864.094 490.301 854.859 485.446 848.117C466.441 821.718 438.201 802.32 409.593 785.912C396.098 778.17 381.706 770.276 371.557 758.947C368.012 754.992 371.774 748.907 376.917 750.317C427.483 764.151 469.85 802.421 521.612 814.568C527.483 815.95 533.877 814.288 537.639 809.648C545.727 799.684 533.715 787.14 523.191 780.555C484.397 756.274 445.607 731.991 406.813 707.71C400.953 704.041 404.65 695.19 411.433 696.599C449.564 704.531 484.475 734.656 524.734 736.75C528.412 736.945 532.185 735.81 534.541 733.022C540.429 726.049 532.163 716.731 524.728 711.812C486.247 686.403 445.517 664.349 403.197 645.892C311.628 595.899 413.633 634.083 413.633 634.083C432.5 641.523 451.082 650.226 470.927 648.51C475.605 648.108 480.731 646.871 481.866 640.807C482.678 636.495 480.746 632.137 477.438 629.193C461.509 615.018 443.032 605.728 423.253 598.975L289.542 567.757C257.268 557.8 226.214 543.938 196.581 527.74C182.216 519.883 167.262 511.354 151.914 505.255C124.646 489.243 97.9004 472.042 71.2832 454.522C71.3886 460.426 69.5746 466.376 67.6379 472.038C65.7087 477.679 63.6661 483.286 61.5273 488.853C59.3884 494.42 57.1434 499.946 54.8119 505.434L55.2564 505.737C46.3056 528.32 28.5584 567.982 6.99435 589.318L24.4507 596.97L103.439 627.602C128.222 638.059 151.847 650.323 172.081 667.74C173.616 669.831 175.071 671.99 176.37 674.281C176.762 675.296 177.218 676.169 177.702 676.973C186.73 694.664 187.804 715.376 193.595 734.453C202.356 763.318 221.884 787.634 240.984 811.151L294.494 877.066C296.633 879.7 299.619 881.678 302.998 882.125L302.986 882.119Z" fill="#EA5C36"/>
</svg>
