<svg width="681" height="721" viewBox="0 0 681 721" fill="none" xmlns="http://www.w3.org/2000/svg">
<path d="M17.2313 152.637L37.9058 279.116C38.9998 279.31 151.187 362.276 215.722 361.893C215.722 361.893 226.313 364.863 231.678 366.566L231.539 366.411C229.755 364.034 229.985 360.775 230.4 357.85C234.749 327.238 250.547 299.528 267.352 273.512C270.622 268.451 274.457 263.039 280.338 261.506C281.006 261.331 281.676 261.216 282.344 261.151C284.349 260.957 286.35 261.222 288.322 261.773C284.472 256.406 274.262 247.822 274.262 247.822C204.115 187.71 17.2313 152.637 17.2313 152.637Z" fill="#764E9A"/>
<path d="M335.12 342.481C335.12 342.481 341.305 327.22 343.961 319.43C345.295 315.522 346.544 311.415 346.47 307.34C346.451 306.243 346.356 305.15 346.116 304.064C344.41 296.327 337.142 291.222 330.439 286.886C320.482 280.449 310.527 274.011 300.571 267.576C296.974 265.25 293.025 262.887 288.957 261.744C286.939 261.179 284.89 260.904 282.839 261.105C282.153 261.172 281.47 261.289 280.787 261.468C274.772 263.035 270.847 268.578 267.503 273.762C250.308 300.403 234.153 328.784 229.717 360.146C229.292 363.139 229.062 366.479 230.885 368.916L231.027 369.071C232.111 370.421 233.687 371.298 235.226 372.119C247.311 378.563 259.398 385.009 271.481 391.453C278.427 395.16 288.191 402.809 296.609 402.265C298.709 402.129 300.537 401.431 302.162 400.372C307.222 397.08 310.299 390.232 313.196 385.436C322.343 370.288 335.12 342.481 335.12 342.481Z" fill="#EF7D87"/>
<path d="M500.639 594.393C506.745 595.21 509.11 588.764 509.425 583.532C510.365 567.818 503.761 552.339 494.117 539.769C486.717 530.122 477.002 517.715 483.573 507.56C527.608 523.051 561.393 559.137 604.263 577.574C608.433 579.371 612.982 580.983 617.482 581.546C623.067 582.247 626.856 576.024 623.584 571.481C610.778 553.693 591.75 540.622 572.473 529.566C563.38 524.35 553.682 519.03 546.844 511.397C544.455 508.731 546.99 504.632 550.455 505.581C584.527 514.904 613.076 540.691 647.954 548.875C651.909 549.806 656.218 548.687 658.753 545.56C664.203 538.846 656.109 530.393 649.018 525.957C622.878 509.595 596.74 493.233 570.599 476.872C566.651 474.4 569.142 468.436 573.713 469.385C599.406 474.73 622.93 495.029 650.058 496.44C652.535 496.571 655.078 495.807 656.666 493.928C660.633 489.229 655.063 482.95 650.053 479.636C624.124 462.515 596.679 447.654 568.163 435.218C506.462 401.532 575.195 427.261 575.195 427.261C587.908 432.274 600.429 438.138 613.801 436.982C616.954 436.711 620.407 435.878 621.172 431.792C621.719 428.886 620.417 425.949 618.188 423.966C607.455 414.414 595.005 408.154 581.677 403.604L491.58 382.569C469.834 375.86 448.908 366.519 428.941 355.604C419.261 350.311 409.185 344.563 398.843 340.454C380.47 329.665 362.448 318.074 344.513 306.269C344.584 310.247 343.362 314.256 342.057 318.072C340.757 321.873 339.38 325.651 337.939 329.402C336.498 333.153 334.985 336.876 333.414 340.574L333.714 340.779C327.682 355.996 315.724 382.72 301.194 397.097L312.956 402.253L366.18 422.894C382.88 429.94 398.799 438.203 412.432 449.939C413.467 451.349 414.447 452.803 415.323 454.347C415.587 455.031 415.894 455.619 416.22 456.161C422.304 468.081 423.027 482.038 426.929 494.892C432.833 514.342 445.991 530.727 458.861 546.573L494.917 590.988C496.358 592.763 498.37 594.095 500.647 594.397L500.639 594.393Z" fill="#EA5C36"/>
</svg>
