<svg width="686" height="937" viewBox="0 0 686 937" fill="none" xmlns="http://www.w3.org/2000/svg">
<path d="M552.48 430.513C544.519 429.191 535.707 428.799 526.635 427.369C525.047 431.972 523.735 436.635 522.534 441.324C511.016 486.336 515.549 534.966 504.323 580.274C503.895 582.001 503.506 583.74 503.027 585.451C502.031 589.053 501.152 593.53 503.937 596.029C505.222 597.185 506.998 597.576 508.691 597.929C516.644 599.583 524.595 601.234 532.552 602.886C541.979 545.801 548.632 488.256 552.477 430.509L552.48 430.513Z" fill="white"/>
<path d="M897.513 596.615C895.662 592.753 897.219 587.955 900.525 585.336C904.346 582.307 908.043 579.129 911.641 575.839C915.733 571.991 919.683 567.993 923.452 563.827C926.872 560.04 932.238 559.561 936.313 562.677C938.627 564.45 939.733 567.518 939.538 570.442L948.037 565.15L876.537 450.32C862.062 448.898 847.584 447.49 833.116 446.022L553.327 417.615C553.069 421.913 552.758 426.21 552.471 430.509C548.626 488.256 541.973 545.801 532.546 602.886C531.793 607.433 531.064 611.989 530.283 616.536C606.151 639.746 682.343 661.884 758.818 682.975L897.508 596.618L897.513 596.615ZM813.211 493.537C812.843 491.089 813.815 488.647 815.272 486.744C816.622 484.967 819.158 483.734 821.34 483.514C823.525 483.287 826.496 484.019 828.129 485.596C835.001 492.247 841.869 498.9 848.741 505.551C850.528 507.282 851.618 509.186 851.984 511.641C852.349 514.085 851.373 516.529 849.923 518.434C848.566 520.209 846.037 521.444 843.85 521.667C841.664 521.889 838.695 521.162 837.06 519.58C830.192 512.927 823.32 506.276 816.447 499.625C814.66 497.894 813.57 495.991 813.204 493.535L813.211 493.537ZM847.344 607.383C849.368 612.08 846.432 617.265 842.067 619.172C838.537 620.714 835.087 622.421 831.671 624.214C824.863 627.941 818.315 632.125 812.113 636.797C808.044 639.868 802.355 638.467 799.375 634.64C796.282 630.669 797.681 624.765 801.488 621.888C811.995 613.968 823.499 607.335 835.551 602.061C840.227 600.014 845.456 603.019 847.337 607.381L847.344 607.383ZM689.655 472.258C689.947 469.834 691.489 467.782 693.349 466.326C695.146 464.921 697.945 464.389 700.158 464.764C702.558 465.171 704.623 466.581 706.092 468.481C712.374 476.626 718.654 484.767 724.936 492.912C726.431 494.843 726.804 497.377 726.52 499.737C726.23 502.153 724.685 504.212 722.823 505.664C721.028 507.062 718.227 507.601 716.014 507.226C713.614 506.819 711.549 505.409 710.085 503.507C703.798 495.364 697.516 487.219 691.237 479.078C689.746 477.144 689.373 474.61 689.655 472.258ZM749.218 568.778C749.626 566.33 751.023 564.369 752.909 562.849C763.383 554.437 774.736 547.332 786.7 541.236C788.844 540.14 791.66 540.622 793.793 541.5C796.002 542.414 797.568 544.421 798.486 546.556C799.403 548.68 799.194 551.601 798.243 553.654C797.171 555.974 795.398 557.226 793.209 558.345C792.493 558.708 791.787 559.087 791.076 559.459C781.37 564.727 772.147 570.84 763.534 577.759C759.562 580.947 753.702 579.331 750.796 575.602C749.392 573.798 748.85 570.993 749.218 568.778ZM579.227 470.406C577.329 466.006 579.967 460.112 584.504 458.617C592.069 456.124 599.637 453.636 607.202 451.144C612.057 449.546 616.961 451.752 618.988 456.464C620.882 460.866 618.248 466.758 613.707 468.256C606.142 470.748 598.577 473.24 591.009 475.729C586.154 477.326 581.258 475.122 579.223 470.408L579.227 470.406ZM605.419 584.33C606.336 586.455 606.125 589.371 605.172 591.431C604.329 593.256 602.201 595.624 600.14 596.115C592.03 598.058 584.049 600.505 576.246 603.45C571.465 605.252 566.426 602.684 564.46 598.129C563.541 596.001 563.752 593.084 564.701 591.027C565.666 588.947 567.591 587.146 569.735 586.336C577.54 583.396 585.521 580.949 593.631 579.006C595.17 578.423 596.752 578.273 598.383 578.545C599.165 578.786 599.942 579.029 600.724 579.27C602.933 580.184 604.498 582.191 605.421 584.324L605.419 584.33ZM707.158 607.478C707.519 609.925 706.547 612.366 705.093 614.274C703.742 616.051 701.207 617.283 699.024 617.504C696.837 617.726 693.861 616.998 692.233 615.417C682.54 605.998 674.767 595.191 668.87 583.038C667.806 580.85 668.233 578.098 669.117 575.937C670.024 573.726 672.023 572.166 674.147 571.249C676.265 570.342 679.184 570.557 681.236 571.516C683.51 572.574 684.866 574.377 685.933 576.569C686.352 577.435 686.802 578.282 687.241 579.13C691.039 586.025 695.619 592.451 700.895 598.301C701.887 599.347 702.88 600.387 703.915 601.388C705.698 603.122 706.796 605.02 707.162 607.475L707.158 607.478ZM650.332 524.011C642.788 532.876 633.873 540.699 624.018 546.889C619.691 549.601 614.474 548.837 611.277 544.727C608.363 540.985 609.34 534.52 613.393 531.979C618.789 528.589 623.846 524.701 628.558 520.414C631.262 517.823 633.852 515.126 636.279 512.273C639.585 508.389 645.168 508.085 649.143 511.126C653.039 514.108 653.423 520.375 650.328 524.013L650.332 524.011Z" fill="#F9B233"/>
<path d="M716.013 507.226C718.224 507.597 721.027 507.061 722.822 505.664C724.684 504.212 726.229 502.153 726.519 499.736C726.803 497.377 726.432 494.847 724.935 492.911C718.653 484.766 712.369 476.628 706.091 468.48C704.619 466.576 702.562 465.168 700.157 464.763C697.951 464.39 695.148 464.925 693.353 466.323C691.49 467.775 689.946 469.834 689.658 472.255C689.372 474.609 689.745 477.144 691.24 479.075C697.519 487.216 703.801 495.361 710.088 503.503C711.555 505.41 713.617 506.816 716.017 507.223L716.013 507.226Z" fill="#F8DA61"/>
<path d="M624.021 546.88C633.875 540.69 642.794 532.865 650.334 524.002C653.429 520.364 653.046 514.097 649.149 511.115C645.175 508.074 639.592 508.378 636.29 512.259C633.866 515.116 631.273 517.809 628.565 520.402C623.853 524.69 618.796 528.578 613.4 531.968C609.343 534.512 608.369 540.973 611.287 544.72C614.481 548.825 619.698 549.59 624.025 546.877L624.021 546.88Z" fill="#F8DA61"/>
<path d="M692.232 615.409C693.86 616.99 696.84 617.716 699.023 617.496C701.207 617.269 703.738 616.038 705.091 614.266C706.545 612.359 707.52 609.921 707.152 607.473C706.783 605.013 705.692 603.117 703.909 601.383C702.878 600.379 701.885 599.34 700.889 598.296C695.616 592.45 691.036 586.024 687.235 579.125C686.794 578.272 686.344 577.426 685.927 576.564C684.86 574.372 683.505 572.569 681.23 571.511C679.171 570.551 676.256 570.332 674.141 571.244C672.01 572.159 670.012 573.72 669.107 575.934C668.227 578.093 667.8 580.845 668.864 583.033C674.764 595.19 682.537 605.997 692.228 615.412L692.232 615.409Z" fill="#F8DA61"/>
<path d="M576.253 603.447C584.056 600.503 592.032 598.058 600.147 596.112C602.208 595.622 604.335 593.254 605.179 591.429C606.128 589.371 606.336 586.451 605.426 584.328C604.504 582.195 602.943 580.186 600.729 579.275C599.947 579.034 599.17 578.791 598.388 578.55C596.764 578.279 595.178 578.432 593.636 579.01C585.526 580.954 577.545 583.401 569.743 586.345C567.597 587.151 565.671 588.952 564.706 591.031C563.757 593.089 563.546 596.005 564.466 598.134C566.434 602.692 571.471 605.256 576.252 603.454L576.253 603.447Z" fill="#F8DA61"/>
<path d="M591.012 475.721C598.578 473.229 606.145 470.741 613.711 468.248C618.252 466.75 620.886 460.859 618.988 456.46C616.957 451.743 612.054 449.537 607.202 451.139C599.636 453.632 592.071 456.124 584.503 458.612C579.962 460.11 577.328 466.002 579.226 470.401C581.257 475.117 586.156 477.326 591.012 475.721Z" fill="#F8DA61"/>
<path d="M259.875 240.035C250.039 241.849 249.667 253.154 251.853 261.511C258.41 286.617 276.5 307.528 297.793 322.343C314.13 333.708 335.455 348.228 330.491 367.472C254.617 365.523 184.061 326.102 108.481 318.937C101.125 318.24 93.2831 318.019 86.054 319.414C77.0741 321.147 74.3948 332.827 81.7578 338.284C110.6 359.667 146.634 370.509 182.033 378.06C198.729 381.623 216.417 385.046 230.862 393.546C235.905 396.512 234.085 404.228 228.247 404.494C170.894 407.154 113.673 381.217 55.6625 386.076C49.0819 386.625 43 390.561 40.6755 396.749C35.689 410.038 52.4955 419.179 65.7007 422.537C114.395 434.922 163.088 447.314 211.782 459.7C219.14 461.576 218.337 472.189 210.795 473.015C168.403 477.665 121.74 457.778 79.1398 469.325C75.2486 470.382 71.7134 472.864 70.2203 476.614C66.4906 485.984 78.2909 493.013 87.7146 495.66C136.472 509.354 186.415 518.726 236.779 523.757C344.594 543.592 229.981 539.796 229.981 539.796C207.797 538.386 185.487 535.546 165.422 544.134C160.691 546.162 155.789 549.214 156.69 556.005C157.329 560.843 160.834 564.778 165.29 566.762C186.727 576.293 209.138 579.792 232.033 580.162L381.85 567.446C418.845 566.932 455.908 570.961 492.302 577.947C496.266 578.711 500.28 579.497 504.318 580.274C515.544 534.967 511.014 486.341 522.529 441.324C500.59 437.49 479.13 431.151 462.996 416.273C445.937 400.539 437.616 377.695 424.407 358.617C405.374 331.125 376.711 312.116 348.761 293.802L270.456 242.481C267.324 240.429 263.537 239.365 259.87 240.045L259.875 240.035Z" fill="#F18778"/>
</svg>
