<svg width="758" height="769" viewBox="0 0 758 769" fill="none" xmlns="http://www.w3.org/2000/svg">
<path d="M371.954 323.727C366.589 322.836 360.651 322.572 354.539 321.609C353.469 324.71 352.585 327.852 351.776 331.012C344.014 361.342 347.069 394.11 339.504 424.639C339.216 425.803 338.954 426.975 338.631 428.128C337.96 430.555 337.368 433.571 339.244 435.256C340.11 436.034 341.307 436.297 342.448 436.535C347.807 437.65 353.164 438.762 358.526 439.875C364.878 401.411 369.361 362.635 371.952 323.724L371.954 323.727Z" fill="white"/>
<path d="M664.508 334.179C654.754 333.22 570.8 335.168 561.051 334.179L372.523 315.037C372.35 317.934 372.14 320.829 371.947 323.725C369.356 362.636 364.873 401.412 358.521 439.877C358.014 442.941 357.523 446.011 356.996 449.075C408.118 464.714 612.977 528.023 664.508 542.234C652.119 485.795 651.007 390.423 664.508 334.179ZM547.639 366.195C547.391 364.546 548.046 362.9 549.028 361.618C549.937 360.421 551.646 359.59 553.117 359.442C554.588 359.289 556.591 359.781 557.691 360.844C562.321 365.326 566.949 369.809 571.579 374.291C572.784 375.457 573.518 376.74 573.765 378.394C574.011 380.041 573.353 381.688 572.376 382.971C571.462 384.168 569.758 384.999 568.284 385.15C566.811 385.3 564.81 384.81 563.708 383.744C559.081 379.261 554.45 374.779 549.82 370.298C548.615 369.131 547.881 367.849 547.634 366.194L547.639 366.195ZM570.638 442.907C572.002 446.072 570.023 449.566 567.083 450.85C564.704 451.89 562.379 453.04 560.078 454.248C555.49 456.759 551.078 459.579 546.899 462.727C544.157 464.796 540.324 463.852 538.316 461.273C536.232 458.597 537.174 454.619 539.74 452.681C546.819 447.344 554.571 442.875 562.692 439.321C565.843 437.942 569.366 439.967 570.634 442.906L570.638 442.907ZM464.384 351.857C464.581 350.224 465.62 348.841 466.874 347.86C468.084 346.913 469.97 346.554 471.461 346.807C473.079 347.082 474.47 348.032 475.46 349.312C479.693 354.8 483.924 360.286 488.157 365.774C489.164 367.075 489.416 368.783 489.225 370.373C489.029 372.001 487.988 373.388 486.733 374.367C485.524 375.309 483.637 375.672 482.146 375.419C480.528 375.145 479.137 374.195 478.15 372.913C473.914 367.426 469.681 361.938 465.45 356.453C464.445 355.149 464.194 353.442 464.384 351.857ZM504.519 416.894C504.794 415.245 505.735 413.924 507.006 412.899C514.063 407.231 521.714 402.443 529.775 398.336C531.22 397.597 533.117 397.922 534.555 398.514C536.043 399.13 537.098 400.482 537.717 401.921C538.335 403.352 538.194 405.32 537.553 406.704C536.83 408.266 535.636 409.11 534.161 409.864C533.678 410.109 533.203 410.364 532.724 410.615C526.183 414.165 519.969 418.283 514.165 422.946C511.489 425.094 507.541 424.005 505.582 421.492C504.636 420.277 504.271 418.387 504.519 416.894ZM389.976 350.609C388.696 347.645 390.474 343.673 393.531 342.665C398.629 340.986 403.728 339.309 408.826 337.63C412.097 336.553 415.401 338.04 416.767 341.215C418.044 344.181 416.269 348.151 413.209 349.16C408.111 350.84 403.014 352.519 397.914 354.196C394.643 355.272 391.344 353.787 389.973 350.611L389.976 350.609ZM407.624 427.374C408.242 428.805 408.1 430.77 407.458 432.158C406.889 433.388 405.456 434.984 404.067 435.314C398.602 436.624 393.225 438.273 387.967 440.257C384.746 441.471 381.35 439.74 380.025 436.672C379.406 435.237 379.548 433.272 380.187 431.886C380.838 430.485 382.135 429.271 383.579 428.725C388.839 426.744 394.216 425.095 399.681 423.786C400.718 423.393 401.784 423.292 402.883 423.476C403.41 423.638 403.934 423.802 404.461 423.964C405.949 424.58 407.004 425.932 407.626 427.369L407.624 427.374ZM476.178 442.971C476.421 444.62 475.766 446.265 474.786 447.55C473.876 448.747 472.168 449.578 470.697 449.726C469.224 449.877 467.218 449.386 466.122 448.321C459.59 441.973 454.353 434.692 450.379 426.503C449.662 425.029 449.949 423.174 450.545 421.718C451.157 420.228 452.503 419.177 453.934 418.559C455.362 417.948 457.328 418.093 458.711 418.739C460.244 419.452 461.157 420.667 461.876 422.144C462.159 422.727 462.462 423.298 462.757 423.869C465.317 428.516 468.403 432.846 471.958 436.787C472.626 437.492 473.295 438.193 473.993 438.868C475.194 440.036 475.934 441.315 476.181 442.969L476.178 442.971ZM437.888 386.729C432.804 392.703 426.797 397.974 420.157 402.145C417.241 403.972 413.726 403.457 411.572 400.688C409.608 398.166 410.267 393.811 412.997 392.098C416.633 389.814 420.041 387.194 423.216 384.305C425.038 382.56 426.783 380.742 428.418 378.82C430.646 376.203 434.408 375.998 437.086 378.047C439.711 380.057 439.97 384.279 437.885 386.731L437.888 386.729Z" fill="#F9B233"/>
<path d="M546.901 462.728C551.08 459.579 555.492 456.76 560.08 454.249C562.378 453.043 564.705 451.895 567.082 450.853C570.024 449.564 572.001 446.074 570.637 442.91C569.368 439.968 565.845 437.942 562.696 439.325C554.575 442.879 546.821 447.345 539.743 452.684C537.173 454.622 536.236 458.601 538.32 461.277C540.327 463.856 544.161 464.8 546.903 462.731L546.901 462.728Z" fill="#F8DA61"/>
<path d="M573.768 378.391C573.522 376.737 572.787 375.454 571.583 374.288C566.955 369.804 562.325 365.323 557.694 360.842C556.592 359.776 554.593 359.289 553.12 359.439C551.646 359.589 549.941 360.418 549.028 361.617C548.051 362.9 547.392 364.545 547.639 366.194C547.886 367.849 548.62 369.131 549.825 370.298C554.453 374.781 559.083 379.262 563.711 383.746C564.812 384.811 566.813 385.301 568.287 385.151C569.755 385 571.464 384.169 572.379 382.973C573.355 381.69 574.013 380.043 573.767 378.396L573.768 378.391Z" fill="#F8DA61"/>
<path d="M604.95 423.985C604.703 422.33 603.969 421.048 602.765 419.881C598.137 415.398 593.506 410.917 588.876 406.435C587.774 405.37 585.775 404.882 584.302 405.033C582.828 405.183 581.122 406.012 580.21 407.211C579.233 408.494 578.573 410.138 578.821 411.788C579.068 413.442 579.802 414.725 581.006 415.891C585.634 420.375 590.265 424.856 594.892 429.339C595.994 430.405 597.995 430.895 599.468 430.745C600.937 430.594 602.646 429.763 603.56 428.567C604.537 427.284 605.195 425.636 604.949 423.99L604.95 423.985Z" fill="#F8DA61"/>
<path d="M635.95 379.985C635.703 378.33 634.969 377.048 633.765 375.881C629.137 371.398 624.506 366.917 619.876 362.435C618.774 361.37 616.775 360.882 615.302 361.033C613.828 361.183 612.122 362.012 611.21 363.211C610.233 364.494 609.573 366.138 609.821 367.788C610.068 369.442 610.802 370.725 612.006 371.891C616.634 376.375 621.265 380.856 625.892 385.339C626.994 386.405 628.995 386.895 630.468 386.745C631.937 386.594 633.646 385.763 634.56 384.567C635.537 383.284 636.195 381.636 635.949 379.99L635.95 379.985Z" fill="#F8DA61"/>
<path d="M532.728 410.61C533.207 410.36 533.682 410.104 534.165 409.86C535.64 409.106 536.834 408.262 537.557 406.699C538.196 405.313 538.339 403.348 537.721 401.917C537.102 400.478 536.047 399.126 534.558 398.51C533.124 397.916 531.223 397.593 529.779 398.332C521.717 402.439 514.069 407.23 507.009 412.895C505.736 413.921 504.793 415.24 504.52 416.892C504.272 418.384 504.637 420.274 505.583 421.49C507.541 424.003 511.49 425.092 514.166 422.943C519.97 418.281 526.184 414.162 532.725 410.612L532.728 410.61Z" fill="#F8DA61"/>
<path d="M482.147 375.419C483.636 375.669 485.525 375.308 486.735 374.366C487.99 373.388 489.03 372 489.226 370.372C489.417 368.782 489.167 367.078 488.158 365.773C483.925 360.285 479.691 354.801 475.461 349.311C474.469 348.028 473.083 347.079 471.463 346.807C469.976 346.555 468.087 346.916 466.878 347.857C465.623 348.836 464.582 350.223 464.388 351.854C464.195 353.441 464.447 355.149 465.454 356.45C469.685 361.936 473.918 367.424 478.154 372.911C479.143 374.195 480.532 375.142 482.15 375.417L482.147 375.419Z" fill="#F8DA61"/>
<path d="M420.16 402.137C426.8 397.966 432.81 392.693 437.89 386.721C439.976 384.27 439.717 380.047 437.092 378.038C434.414 375.989 430.652 376.194 428.427 378.808C426.793 380.734 425.047 382.549 423.222 384.296C420.046 387.185 416.639 389.805 413.003 392.089C410.269 393.803 409.614 398.157 411.579 400.682C413.732 403.448 417.247 403.963 420.163 402.135L420.16 402.137Z" fill="#F8DA61"/>
<path d="M466.124 448.315C467.221 449.38 469.229 449.869 470.7 449.721C472.171 449.568 473.877 448.739 474.789 447.544C475.768 446.259 476.425 444.617 476.177 442.967C475.929 441.31 475.193 440.032 473.992 438.864C473.297 438.187 472.628 437.487 471.957 436.784C468.404 432.845 465.318 428.515 462.757 423.866C462.459 423.291 462.156 422.721 461.875 422.14C461.156 420.663 460.243 419.448 458.71 418.735C457.323 418.088 455.359 417.941 453.934 418.555C452.498 419.172 451.151 420.223 450.542 421.716C449.949 423.17 449.661 425.025 450.378 426.499C454.354 434.691 459.591 441.972 466.121 448.317L466.124 448.315Z" fill="#F8DA61"/>
<path d="M387.972 440.253C393.229 438.269 398.604 436.622 404.072 435.311C405.461 434.98 406.894 433.384 407.462 432.155C408.102 430.768 408.243 428.8 407.629 427.37C407.008 425.933 405.956 424.579 404.464 423.965C403.937 423.803 403.414 423.639 402.887 423.477C401.793 423.294 400.724 423.397 399.685 423.787C394.22 425.096 388.842 426.745 383.585 428.729C382.139 429.272 380.841 430.486 380.191 431.887C379.552 433.273 379.409 435.238 380.029 436.673C381.355 439.744 384.749 441.472 387.971 440.258L387.972 440.253Z" fill="#F8DA61"/>
<path d="M397.919 354.188C403.017 352.509 408.116 350.833 413.213 349.153C416.273 348.144 418.048 344.174 416.769 341.21C415.401 338.032 412.097 336.545 408.828 337.625C403.73 339.304 398.632 340.983 393.533 342.66C390.473 343.669 388.698 347.639 389.977 350.604C391.345 353.782 394.647 355.27 397.919 354.188Z" fill="#F8DA61"/>
<path d="M174.791 195.38C168.163 196.602 167.912 204.219 169.386 209.851C173.804 226.767 185.993 240.858 200.34 250.84C211.349 258.498 225.718 268.283 222.373 281.25C171.248 279.936 123.706 253.373 72.7785 248.545C67.8216 248.076 62.5376 247.927 57.6665 248.867C51.6157 250.035 49.8103 257.905 54.7716 261.582C74.206 275.99 98.4864 283.296 122.339 288.384C133.589 290.785 145.508 293.091 155.241 298.818C158.639 300.817 157.413 306.016 153.479 306.196C114.834 307.988 76.2767 290.511 37.1881 293.785C32.7539 294.155 28.6558 296.807 27.0895 300.977C23.7295 309.932 35.0541 316.091 43.952 318.353C76.7633 326.699 109.573 335.049 142.385 343.394C147.342 344.659 146.801 351.81 141.72 352.367C113.155 355.5 81.7121 342.099 53.0075 349.88C50.3856 350.592 48.0035 352.265 46.9974 354.791C44.4843 361.105 52.4355 365.841 58.7854 367.625C91.6393 376.852 125.292 383.167 159.228 386.557C231.876 399.922 154.647 397.365 154.647 397.365C139.7 396.415 124.667 394.501 111.146 400.288C107.959 401.654 104.655 403.711 105.262 408.287C105.693 411.547 108.055 414.198 111.057 415.535C125.502 421.957 140.603 424.315 156.03 424.565L256.98 415.996C281.908 415.65 306.882 418.365 331.405 423.072C334.076 423.586 336.78 424.116 339.501 424.64C347.066 394.111 344.013 361.346 351.772 331.013C336.989 328.429 322.529 324.158 311.658 314.132C300.163 303.531 294.556 288.138 285.655 275.283C272.831 256.758 253.517 243.95 234.684 231.609L181.92 197.028C179.81 195.646 177.258 194.928 174.787 195.386L174.791 195.38Z" fill="#F18778"/>
</svg>
