<svg width="1558" height="1213" viewBox="0 0 1558 1213" fill="none" xmlns="http://www.w3.org/2000/svg">
<path d="M1411.04 1098.68C1481.46 1043.75 1542.46 925.121 1555.19 684.695C1603.73 -232.355 959.048 68.7374 959.048 68.7374C959.048 68.7374 781.055 171.306 533.305 33.7251C419.994 -29.1948 299.319 5.28844 204.328 79.3788C144.537 126.013 94.935 188.316 63.7183 251.916C63.7183 251.916 -164.532 690.072 248.557 801.406C248.557 801.406 389.772 823.573 414.448 1018.76C430.486 1145.59 572.603 1310.03 865.974 1138.67C1009.26 1054.96 1159.87 1110.32 1159.87 1110.32C1159.87 1110.32 1297.68 1187.11 1411.04 1098.69" fill="#696969"/>
</svg>
