<svg width="2617" height="2097" viewBox="0 0 2617 2097" fill="none" xmlns="http://www.w3.org/2000/svg">
<path d="M813.349 1245.05C813.349 1239.19 808.604 1234.45 802.747 1234.45C796.89 1234.45 792.145 1239.19 792.145 1245.05C792.145 1250.91 796.89 1255.65 802.747 1255.65C808.604 1255.65 813.349 1250.91 813.349 1245.05Z" fill="white"/>
<path d="M511.085 523.265C511.085 523.265 520.263 500.617 524.206 489.056C526.185 483.256 528.039 477.162 527.929 471.114C527.9 469.485 527.76 467.863 527.403 466.251C524.872 454.769 514.085 447.193 504.137 440.759C489.36 431.205 474.587 421.65 459.812 412.101C454.474 408.649 448.613 405.142 442.575 403.446C439.58 402.608 436.539 402.199 433.496 402.498C432.478 402.597 431.464 402.771 430.45 403.036C421.524 405.362 415.698 413.588 410.735 421.282C385.218 460.818 361.243 502.938 354.658 549.481C354.027 553.923 353.686 558.88 356.392 562.497L356.602 562.727C358.212 564.73 360.55 566.032 362.834 567.251C380.77 576.813 398.707 586.38 416.639 595.944C426.948 601.444 441.439 612.797 453.931 611.989C457.048 611.787 459.76 610.751 462.172 609.18C469.682 604.294 474.249 594.132 478.548 587.014C492.123 564.533 511.085 523.265 511.085 523.265Z" fill="#EF7D87"/>
<g filter="url(#filter0_d_574_151)">
<path d="M1994.78 1596.68C2065.21 1541.75 2126.2 1423.12 2138.93 1182.7C2187.47 265.645 1542.79 566.737 1542.79 566.737C1542.79 566.737 1364.8 669.306 1117.05 531.725C1003.74 468.805 883.062 503.288 788.07 577.379C728.28 624.013 678.677 686.316 647.461 749.916C647.461 749.916 419.21 1188.07 832.299 1299.41C832.299 1299.41 973.515 1321.57 998.191 1516.76C1014.23 1643.59 1156.34 1808.03 1449.72 1636.67C1593.01 1552.96 1743.61 1608.32 1743.61 1608.32C1743.61 1608.32 1881.42 1685.11 1994.78 1596.69" fill="#696969"/>
</g>
<path d="M2221.22 1465.51C2213.26 1464.19 2204.45 1463.8 2195.38 1462.37C2193.79 1466.97 2192.48 1471.63 2191.28 1476.32C2179.76 1521.34 2184.29 1569.97 2173.06 1615.27C2172.64 1617 2172.25 1618.74 2171.77 1620.45C2170.77 1624.05 2169.89 1628.53 2172.68 1631.03C2173.96 1632.18 2175.74 1632.58 2177.43 1632.93C2185.39 1634.58 2193.34 1636.23 2201.29 1637.89C2210.72 1580.8 2217.37 1523.26 2221.22 1465.51L2221.22 1465.51Z" fill="white"/>
<path d="M2566.25 1631.62C2564.4 1627.75 2565.96 1622.96 2569.27 1620.34C2573.09 1617.31 2576.79 1614.13 2580.38 1610.84C2584.48 1606.99 2588.43 1602.99 2592.19 1598.83C2595.61 1595.04 2600.98 1594.56 2605.05 1597.68C2607.37 1599.45 2608.47 1602.52 2608.28 1605.44L2616.78 1600.15L2545.28 1485.32C2530.8 1483.9 2516.33 1482.49 2501.86 1481.02L2222.07 1452.61C2221.81 1456.91 2221.5 1461.21 2221.21 1465.51C2217.37 1523.26 2210.71 1580.8 2201.29 1637.89C2200.54 1642.43 2199.81 1646.99 2199.02 1651.54C2274.89 1674.75 2351.09 1696.88 2427.56 1717.98L2566.25 1631.62L2566.25 1631.62ZM2481.95 1528.54C2481.59 1526.09 2482.56 1523.65 2484.01 1521.74C2485.36 1519.97 2487.9 1518.73 2490.08 1518.51C2492.27 1518.29 2495.24 1519.02 2496.87 1520.6C2503.74 1527.25 2510.61 1533.9 2517.48 1540.55C2519.27 1542.28 2520.36 1544.19 2520.73 1546.64C2521.09 1549.09 2520.12 1551.53 2518.67 1553.43C2517.31 1555.21 2514.78 1556.44 2512.59 1556.67C2510.41 1556.89 2507.44 1556.16 2505.8 1554.58C2498.93 1547.93 2492.06 1541.28 2485.19 1534.63C2483.4 1532.89 2482.31 1530.99 2481.95 1528.54L2481.95 1528.54ZM2516.09 1642.38C2518.11 1647.08 2515.17 1652.27 2510.81 1654.17C2507.28 1655.71 2503.83 1657.42 2500.41 1659.21C2493.6 1662.94 2487.06 1667.12 2480.86 1671.8C2476.79 1674.87 2471.1 1673.47 2468.12 1669.64C2465.02 1665.67 2466.42 1659.77 2470.23 1656.89C2480.74 1648.97 2492.24 1642.34 2504.29 1637.06C2508.97 1635.01 2514.2 1638.02 2516.08 1642.38L2516.09 1642.38ZM2358.4 1507.26C2358.69 1504.83 2360.23 1502.78 2362.09 1501.33C2363.89 1499.92 2366.69 1499.39 2368.9 1499.76C2371.3 1500.17 2373.37 1501.58 2374.83 1503.48C2381.12 1511.63 2387.4 1519.77 2393.68 1527.91C2395.17 1529.84 2395.55 1532.38 2395.26 1534.74C2394.97 1537.15 2393.43 1539.21 2391.57 1540.66C2389.77 1542.06 2386.97 1542.6 2384.76 1542.23C2382.36 1541.82 2380.29 1540.41 2378.83 1538.51C2372.54 1530.36 2366.26 1522.22 2359.98 1514.08C2358.49 1512.14 2358.11 1509.61 2358.4 1507.26ZM2417.96 1603.78C2418.37 1601.33 2419.76 1599.37 2421.65 1597.85C2432.12 1589.44 2443.48 1582.33 2455.44 1576.24C2457.59 1575.14 2460.4 1575.62 2462.54 1576.5C2464.74 1577.41 2466.31 1579.42 2467.23 1581.56C2468.15 1583.68 2467.94 1586.6 2466.99 1588.65C2465.91 1590.97 2464.14 1592.23 2461.95 1593.35C2461.23 1593.71 2460.53 1594.09 2459.82 1594.46C2450.11 1599.73 2440.89 1605.84 2432.28 1612.76C2428.3 1615.95 2422.44 1614.33 2419.54 1610.6C2418.13 1608.8 2417.59 1605.99 2417.96 1603.78ZM2247.97 1505.41C2246.07 1501.01 2248.71 1495.11 2253.25 1493.62C2260.81 1491.12 2268.38 1488.64 2275.94 1486.14C2280.8 1484.55 2285.7 1486.75 2287.73 1491.46C2289.62 1495.87 2286.99 1501.76 2282.45 1503.26C2274.88 1505.75 2267.32 1508.24 2259.75 1510.73C2254.9 1512.33 2250 1510.12 2247.97 1505.41L2247.97 1505.41ZM2274.16 1619.33C2275.08 1621.45 2274.87 1624.37 2273.91 1626.43C2273.07 1628.26 2270.94 1630.62 2268.88 1631.11C2260.77 1633.06 2252.79 1635.51 2244.99 1638.45C2240.21 1640.25 2235.17 1637.68 2233.2 1633.13C2232.28 1631 2232.49 1628.08 2233.44 1626.03C2234.41 1623.95 2236.33 1622.15 2238.48 1621.34C2246.28 1618.4 2254.26 1615.95 2262.37 1614.01C2263.91 1613.42 2265.49 1613.27 2267.12 1613.55C2267.91 1613.79 2268.68 1614.03 2269.47 1614.27C2271.68 1615.18 2273.24 1617.19 2274.16 1619.32L2274.16 1619.33ZM2375.9 1642.48C2376.26 1644.92 2375.29 1647.37 2373.83 1649.27C2372.48 1651.05 2369.95 1652.28 2367.77 1652.5C2365.58 1652.73 2362.6 1652 2360.98 1650.42C2351.28 1641 2343.51 1630.19 2337.61 1618.04C2336.55 1615.85 2336.97 1613.1 2337.86 1610.94C2338.77 1608.73 2340.76 1607.17 2342.89 1606.25C2345.01 1605.34 2347.93 1605.56 2349.98 1606.52C2352.25 1607.57 2353.61 1609.38 2354.67 1611.57C2355.09 1612.44 2355.54 1613.28 2355.98 1614.13C2359.78 1621.02 2364.36 1627.45 2369.64 1633.3C2370.63 1634.35 2371.62 1635.39 2372.66 1636.39C2374.44 1638.12 2375.54 1640.02 2375.9 1642.48L2375.9 1642.48ZM2319.07 1559.01C2311.53 1567.88 2302.61 1575.7 2292.76 1581.89C2288.43 1584.6 2283.22 1583.84 2280.02 1579.73C2277.1 1575.98 2278.08 1569.52 2282.14 1566.98C2287.53 1563.59 2292.59 1559.7 2297.3 1555.41C2300 1552.82 2302.59 1550.13 2305.02 1547.27C2308.33 1543.39 2313.91 1543.09 2317.88 1546.13C2321.78 1549.11 2322.16 1555.37 2319.07 1559.01L2319.07 1559.01Z" fill="#F9B233"/>
<path d="M2292.76 1581.88C2302.62 1575.69 2311.54 1567.86 2319.08 1559C2322.17 1555.36 2321.79 1549.1 2317.89 1546.11C2313.92 1543.07 2308.33 1543.38 2305.03 1547.26C2302.61 1550.12 2300.02 1552.81 2297.31 1555.4C2292.59 1559.69 2287.54 1563.58 2282.14 1566.97C2278.09 1569.51 2277.11 1575.97 2280.03 1579.72C2283.22 1583.83 2288.44 1584.59 2292.77 1581.88L2292.76 1581.88Z" fill="#F8DA61"/>
<path d="M2360.97 1650.41C2362.6 1651.99 2365.58 1652.72 2367.76 1652.5C2369.95 1652.27 2372.48 1651.04 2373.83 1649.27C2375.29 1647.36 2376.26 1644.92 2375.89 1642.47C2375.53 1640.01 2374.43 1638.12 2372.65 1636.38C2371.62 1635.38 2370.63 1634.34 2369.63 1633.3C2364.36 1627.45 2359.78 1621.02 2355.98 1614.12C2355.54 1613.27 2355.09 1612.43 2354.67 1611.56C2353.6 1609.37 2352.25 1607.57 2349.97 1606.51C2347.91 1605.55 2345 1605.33 2342.88 1606.24C2340.75 1607.16 2338.75 1608.72 2337.85 1610.93C2336.97 1613.09 2336.54 1615.84 2337.61 1618.03C2343.51 1630.19 2351.28 1641 2360.97 1650.41L2360.97 1650.41Z" fill="#F8DA61"/>
<path d="M2245 1638.45C2252.8 1635.5 2260.77 1633.06 2268.89 1631.11C2270.95 1630.62 2273.08 1628.25 2273.92 1626.43C2274.87 1624.37 2275.08 1621.45 2274.17 1619.33C2273.25 1617.2 2271.68 1615.19 2269.47 1614.27C2268.69 1614.03 2267.91 1613.79 2267.13 1613.55C2265.51 1613.28 2263.92 1613.43 2262.38 1614.01C2254.27 1615.95 2246.29 1618.4 2238.48 1621.35C2236.34 1622.15 2234.41 1623.95 2233.45 1626.03C2232.5 1628.09 2232.29 1631.01 2233.21 1633.13C2235.18 1637.69 2240.21 1640.26 2244.99 1638.45L2245 1638.45Z" fill="#F8DA61"/>
<path d="M2259.75 1510.72C2267.32 1508.23 2274.89 1505.74 2282.45 1503.25C2286.99 1501.75 2289.63 1495.86 2287.73 1491.46C2285.7 1486.74 2280.8 1484.54 2275.94 1486.14C2268.38 1488.63 2260.81 1491.12 2253.25 1493.61C2248.7 1495.11 2246.07 1501 2247.97 1505.4C2250 1510.12 2254.9 1512.33 2259.75 1510.72Z" fill="#F8DA61"/>
<path d="M1925.4 1275.02C1915.57 1276.83 1915.19 1288.13 1917.38 1296.49C1923.94 1321.6 1942.03 1342.51 1963.32 1357.32C1979.66 1368.69 2000.98 1383.21 1996.02 1402.45C1920.14 1400.5 1849.59 1361.08 1774.01 1353.92C1766.65 1353.22 1758.81 1353 1751.58 1354.39C1742.6 1356.13 1739.92 1367.81 1747.29 1373.26C1776.13 1394.65 1812.16 1405.49 1847.56 1413.04C1864.26 1416.6 1881.94 1420.03 1896.39 1428.53C1901.43 1431.49 1899.61 1439.21 1893.77 1439.47C1836.42 1442.13 1779.2 1416.2 1721.19 1421.06C1714.61 1421.61 1708.53 1425.54 1706.2 1431.73C1701.22 1445.02 1718.02 1454.16 1731.23 1457.52C1779.92 1469.9 1828.62 1482.29 1877.31 1494.68C1884.67 1496.56 1883.86 1507.17 1876.32 1508C1833.93 1512.65 1787.27 1492.76 1744.67 1504.31C1740.78 1505.36 1737.24 1507.84 1735.75 1511.59C1732.02 1520.96 1743.82 1527.99 1753.24 1530.64C1802 1544.33 1851.94 1553.71 1902.31 1558.74C2010.12 1578.57 1895.51 1574.78 1895.51 1574.78C1873.32 1573.37 1851.01 1570.53 1830.95 1579.11C1826.22 1581.14 1821.32 1584.19 1822.22 1590.99C1822.86 1595.82 1826.36 1599.76 1830.82 1601.74C1852.25 1611.27 1874.67 1614.77 1897.56 1615.14L2047.38 1602.43C2084.37 1601.91 2121.44 1605.94 2157.83 1612.93C2161.79 1613.69 2165.81 1614.48 2169.84 1615.25C2181.07 1569.95 2176.54 1521.32 2188.06 1476.3C2166.12 1472.47 2144.66 1466.13 2128.52 1451.25C2111.46 1435.52 2103.14 1412.68 2089.93 1393.6C2070.9 1366.11 2042.24 1347.1 2014.29 1328.78L1935.98 1277.46C1932.85 1275.41 1929.06 1274.35 1925.4 1275.03L1925.4 1275.02Z" fill="#F18778"/>
<path d="M756.729 897.119C765.79 898.332 769.3 888.766 769.768 881.001C771.162 857.68 761.361 834.709 747.05 816.053C736.067 801.737 721.65 783.324 731.401 768.254C796.753 791.243 846.892 844.797 910.514 872.159C916.703 874.826 923.454 877.218 930.132 878.054C938.421 879.094 944.044 869.859 939.188 863.117C920.183 836.718 891.943 817.32 863.335 800.912C849.84 793.17 835.449 785.276 825.299 773.947C821.754 769.992 825.516 763.907 830.659 765.317C881.225 779.151 923.592 817.421 975.354 829.568C981.225 830.95 987.62 829.288 991.382 824.648C999.469 814.684 987.457 802.14 976.934 795.555C938.139 771.274 899.349 746.991 860.555 722.71C854.695 719.041 858.392 710.19 865.175 711.599C903.306 719.531 938.217 749.656 978.477 751.75C982.154 751.945 985.927 750.81 988.284 748.022C994.171 741.049 985.905 731.731 978.47 726.812C939.989 701.403 899.259 679.349 856.939 660.892C765.37 610.899 867.375 649.083 867.375 649.083C886.242 656.523 904.824 665.226 924.669 663.51C929.348 663.108 934.473 661.871 935.608 655.807C936.42 651.495 934.488 647.137 931.18 644.193C915.252 630.018 896.775 620.728 876.995 613.975L743.284 582.757C711.011 572.8 679.956 558.938 650.323 542.74C635.958 534.883 621.004 526.354 605.656 520.255C578.388 504.243 551.643 487.042 525.025 469.522C525.131 475.426 523.317 481.376 521.38 487.038C519.451 492.679 517.408 498.286 515.269 503.853C513.131 509.42 510.886 514.946 508.554 520.434L508.999 520.737C500.048 543.32 482.301 582.982 460.737 604.318L478.193 611.97L557.181 642.602C581.965 653.059 605.59 665.323 625.823 682.74C627.359 684.831 628.813 686.99 630.112 689.281C630.505 690.296 630.96 691.169 631.444 691.973C640.473 709.664 641.547 730.376 647.337 749.453C656.098 778.318 675.626 802.634 694.726 826.151L748.236 892.066C750.375 894.7 753.361 896.678 756.74 897.125L756.729 897.119Z" fill="#EA5C36"/>
<path d="M25.5725 236.248L56.2551 423.952C57.8785 424.241 224.372 547.368 320.147 546.8C320.147 546.8 335.865 551.208 343.827 553.734L343.621 553.505C340.974 549.977 341.314 545.141 341.931 540.8C348.385 495.369 371.83 454.245 396.77 415.636C401.623 408.125 407.315 400.094 416.043 397.818C417.034 397.559 418.029 397.387 419.019 397.292C421.995 397.003 424.965 397.397 427.891 398.214C422.178 390.25 407.025 377.51 407.025 377.51C302.922 288.299 25.5725 236.248 25.5725 236.248Z" fill="#764E9A"/>
<defs>
<filter id="filter0_d_574_151" x="536.559" y="493.945" width="1604.98" height="1259.4" filterUnits="userSpaceOnUse" color-interpolation-filters="sRGB">
<feFlood flood-opacity="0" result="BackgroundImageFix"/>
<feColorMatrix in="SourceAlpha" type="matrix" values="0 0 0 0 0 0 0 0 0 0 0 0 0 0 0 0 0 0 127 0" result="hardAlpha"/>
<feOffset dx="-24" dy="19"/>
<feGaussianBlur stdDeviation="12"/>
<feComposite in2="hardAlpha" operator="out"/>
<feColorMatrix type="matrix" values="0 0 0 0 0 0 0 0 0 0 0 0 0 0 0 0 0 0 0.25 0"/>
<feBlend mode="normal" in2="BackgroundImageFix" result="effect1_dropShadow_574_151"/>
<feBlend mode="normal" in="SourceGraphic" in2="effect1_dropShadow_574_151" result="shape"/>
</filter>
</defs>
</svg>
