<svg width="1920" height="1152" viewBox="0 0 1920 1152" fill="none" xmlns="http://www.w3.org/2000/svg">
<path fill-rule="evenodd" clip-rule="evenodd" d="M-71 40.5541C-71 40.5541 712.5 131.801 951 40.5541C1189.5 -50.6927 1972 40.5541 1972 40.5541V1015.3C972.939 1197.57 972.939 1197.57 -71 1015.3V40.5541Z" fill="#B1B1B1"/>
<path fill-rule="evenodd" clip-rule="evenodd" d="M445.004 468C446.74 455.586 457.271 446.035 470.008 446.035C470.464 446.035 470.911 446.049 471.363 446.072C475.996 440.368 483.017 436.725 490.879 436.725C500.001 436.725 507.997 441.627 512.434 448.971C517.058 442.986 524.253 439.135 532.334 439.135C542.687 439.135 551.582 445.446 555.481 454.476C558.522 443.806 568.236 436 579.747 436C593.695 436 605 447.454 605 461.585C605 463.8 604.723 465.948 604.2 467.995H445L445.004 468Z" fill="white"/>
<path fill-rule="evenodd" clip-rule="evenodd" d="M698.282 503.351L812.751 701.65L959 955H374L520.249 701.65L634.718 503.351C641.457 491.68 653.024 485 666.498 485C679.973 485 691.543 491.68 698.278 503.351H698.282Z" fill="#888888"/>
<path fill-rule="evenodd" clip-rule="evenodd" d="M666 485V955H959L812.502 701.65L697.837 503.351C691.09 491.68 679.501 485 666.003 485H666Z" fill="#727272"/>
<path fill-rule="evenodd" clip-rule="evenodd" d="M665.468 640.68L681.798 659.492C684.186 662.242 687.56 663.454 691.151 662.847C694.738 662.239 697.529 659.986 698.883 656.601L711.989 623.8C713.246 620.653 715.72 618.503 719.011 617.702C722.302 616.901 725.486 617.672 728.047 619.889L735.008 625.913C737.869 628.39 741.57 629.068 745.121 627.773C748.672 626.477 751.069 623.57 751.666 619.832L753.86 606.103C754.243 603.703 753.843 601.524 752.629 599.418L697.229 503.358C690.497 491.682 678.934 485 665.468 485C652.001 485 640.438 491.682 633.706 503.358L566.39 620.085C564.099 624.054 564.679 628.874 567.843 632.185C571.007 635.496 575.789 636.294 579.853 634.185L587.001 630.473C591.359 628.21 596.587 629.331 599.635 633.186L615.195 652.88C617.129 655.326 619.776 656.651 622.89 656.732C626.004 656.812 628.718 655.627 630.776 653.284L646.056 635.877C648.06 633.594 650.674 632.415 653.708 632.422C656.742 632.432 659.349 633.624 661.34 635.917L665.471 640.677L665.468 640.68Z" fill="white"/>
<path fill-rule="evenodd" clip-rule="evenodd" d="M666 640.68L682.233 659.492C684.605 662.242 687.959 663.454 691.529 662.847C695.095 662.239 697.869 659.986 699.214 656.601L712.242 623.8C713.491 620.653 715.95 618.503 719.221 617.702C722.492 616.901 725.657 617.672 728.203 619.889L735.123 625.913C737.966 628.39 741.645 629.068 745.174 627.773C748.704 626.477 751.087 623.57 751.68 619.832L753.861 606.103C754.242 603.703 753.844 601.524 752.638 599.418L697.57 503.358C690.879 491.682 679.386 485 666 485V640.68Z" fill="#C3BDBD"/>
<path fill-rule="evenodd" clip-rule="evenodd" d="M1258.26 487.897L1376.25 692.102L1527 953H924L1074.75 692.102L1192.74 487.897C1199.69 475.879 1211.61 469 1225.5 469C1239.39 469 1251.31 475.879 1258.26 487.897H1258.26Z" fill="#888888"/>
<path fill-rule="evenodd" clip-rule="evenodd" d="M1226 469V953H1527L1376.5 692.103L1258.7 487.9C1251.77 475.883 1239.87 469.003 1226 469.003V469Z" fill="#727272"/>
<path fill-rule="evenodd" clip-rule="evenodd" d="M1225.65 629.053L1242.5 648.395C1244.97 651.221 1248.45 652.465 1252.15 651.843C1255.86 651.218 1258.73 648.9 1260.13 645.425L1273.65 611.703C1274.95 608.467 1277.5 606.259 1280.89 605.434C1284.29 604.609 1287.58 605.401 1290.22 607.682L1297.4 613.874C1300.35 616.419 1304.17 617.117 1307.84 615.787C1311.5 614.453 1313.97 611.467 1314.59 607.626L1316.86 593.508C1317.25 591.041 1316.84 588.799 1315.59 586.634L1258.43 487.873C1251.48 475.871 1239.55 469 1225.66 469C1211.76 469 1199.83 475.871 1192.89 487.873L1123.43 607.882C1121.07 611.962 1121.67 616.917 1124.93 620.323C1128.2 623.728 1133.13 624.546 1137.32 622.378L1144.7 618.564C1149.19 616.236 1154.59 617.39 1157.73 621.354L1173.79 641.6C1175.78 644.114 1178.51 645.478 1181.73 645.561C1184.94 645.644 1187.74 644.424 1189.86 642.013L1205.63 624.117C1207.69 621.773 1210.39 620.559 1213.52 620.569C1216.65 620.579 1219.34 621.806 1221.4 624.164L1225.66 629.059L1225.65 629.053Z" fill="white"/>
<path fill-rule="evenodd" clip-rule="evenodd" d="M1226 629.053L1242.79 648.395C1245.24 651.221 1248.71 652.465 1252.4 651.843C1256.09 651.218 1258.95 648.9 1260.35 645.425L1273.82 611.703C1275.11 608.467 1277.65 606.259 1281.03 605.434C1284.41 604.609 1287.69 605.401 1290.32 607.682L1297.48 613.874C1300.42 616.419 1304.22 617.117 1307.87 615.787C1311.52 614.453 1313.99 611.467 1314.6 607.626L1316.86 593.508C1317.25 591.041 1316.84 588.799 1315.59 586.634L1258.65 487.873C1251.73 475.871 1239.85 469 1226 469V629.059L1226 629.053Z" fill="#C3BDBD"/>
<path fill-rule="evenodd" clip-rule="evenodd" d="M986.375 424.554L1121 657.447L1293 955H605L777 657.447L911.625 424.554C919.549 410.848 933.155 403 949 403C964.845 403 978.451 410.845 986.375 424.554Z" fill="#888888"/>
<path fill-rule="evenodd" clip-rule="evenodd" d="M949 401V953H1293L1121 655.447L986.375 422.554C978.451 408.848 964.845 401 949 401Z" fill="#727272"/>
<path fill-rule="evenodd" clip-rule="evenodd" d="M820 582.289L825.351 593.395C827.884 598.648 832.564 601.941 838.345 602.532C844.122 603.124 849.37 600.849 852.907 596.22L887.104 551.449C890.584 546.89 895.713 544.619 901.41 545.113C907.107 545.604 911.771 548.723 914.426 553.813L940.217 603.241C943.222 608.998 948.916 612.282 955.381 611.981C961.846 611.68 967.214 607.886 969.677 601.874L988.281 556.472C990.485 551.095 994.936 547.531 1000.65 546.569C1006.36 545.611 1011.72 547.524 1015.54 551.89L1033.6 572.49C1037.9 577.396 1044.26 579.227 1050.49 577.343C1056.72 575.463 1061.03 570.419 1061.93 563.943L1063 556.215L986.227 422.602C978.333 408.865 964.778 401 948.992 401C933.207 401 919.652 408.862 911.757 422.602L820.003 582.289H820Z" fill="white"/>
<path fill-rule="evenodd" clip-rule="evenodd" d="M1063 556.217L986.232 422.603C978.338 408.866 964.784 401 949 401V611.039C950.981 611.757 953.138 612.085 955.388 611.981C961.853 611.681 967.221 607.886 969.684 601.875L988.286 556.471C990.49 551.094 994.94 547.53 1000.65 546.568C1006.36 545.61 1011.72 547.524 1015.55 551.889L1033.6 572.49C1037.9 577.396 1044.26 579.226 1050.49 577.343C1056.72 575.462 1061.03 570.419 1061.93 563.943L1063 556.214V556.217Z" fill="#C3BDBD"/>
<path fill-rule="evenodd" clip-rule="evenodd" d="M197.221 296.81C216.845 296.81 233.682 308.725 240.868 325.699C246.659 323.18 253.051 321.779 259.769 321.779C262.711 321.779 265.587 322.05 268.382 322.562C273.597 302.118 292.169 287 314.275 287C332.922 287 349.05 297.758 356.771 313.397C362.812 310.607 369.543 309.045 376.64 309.045C402.794 309.045 424 330.205 424 356.313C424 358.582 423.835 360.815 423.527 363H125C128.62 348.994 138.512 337.507 151.506 331.691C156.958 311.595 175.356 296.81 197.221 296.81Z" fill="white"/>
<path fill-rule="evenodd" clip-rule="evenodd" d="M1767 378.996C1763.89 357.267 1744.99 340.555 1722.15 340.555C1721.33 340.555 1720.52 340.577 1719.72 340.621C1711.41 330.636 1698.81 324.268 1684.72 324.268C1668.35 324.268 1654.01 332.844 1646.05 345.7C1637.76 335.225 1624.85 328.49 1610.35 328.49C1591.79 328.49 1575.83 339.531 1568.83 355.333C1563.38 336.656 1545.96 323 1525.3 323C1500.29 323 1480 343.046 1480 367.778C1480 371.651 1480.5 375.414 1481.43 379H1767V378.996Z" fill="white"/>
<path fill-rule="evenodd" clip-rule="evenodd" d="M1425.08 433.168C1414.78 433.168 1405.94 439.437 1402.16 448.372C1399.12 447.048 1395.77 446.308 1392.24 446.308C1390.7 446.308 1389.18 446.451 1387.71 446.718C1384.97 435.959 1375.22 428 1363.61 428C1353.82 428 1345.35 433.663 1341.3 441.894C1338.13 440.427 1334.59 439.602 1330.87 439.602C1317.13 439.602 1306 450.74 1306 464.478C1306 465.672 1306.08 466.85 1306.25 468H1463C1461.1 460.63 1455.9 454.583 1449.08 451.525C1446.22 440.948 1436.56 433.168 1425.08 433.168Z" fill="white"/>
</svg>
