<svg width="275" height="329" viewBox="0 0 275 329" fill="none" xmlns="http://www.w3.org/2000/svg">
<g clip-path="url(#clip0_605_218)">
<rect width="275" height="329" rx="27" transform="matrix(1 0 0 -1 0 329)" fill="#DBDBDB"/>
<g filter="url(#filter0_i_605_218)">
<path d="M226.128 201L160.276 297.265L157.607 354.449L266.121 414.281L331.972 318.014L334.64 260.823L226.128 201Z" fill="url(#paint0_linear_605_218)"/>
<path d="M206.855 260.941L315.366 320.769L249.515 417.038L141 357.21L206.855 260.941Z" fill="url(#paint1_linear_605_218)"/>
<path d="M206.855 260.943L209.52 203.758L318.03 263.586L315.366 320.77L206.855 260.943Z" fill="url(#paint2_linear_605_218)"/>
<path d="M141 357.212L143.665 300.025L209.519 203.758L206.855 260.943L141 357.212Z" fill="url(#paint3_linear_605_218)"/>
</g>
</g>
<defs>
<filter id="filter0_i_605_218" x="127" y="201" width="207.641" height="242.039" filterUnits="userSpaceOnUse" color-interpolation-filters="sRGB">
<feFlood flood-opacity="0" result="BackgroundImageFix"/>
<feBlend mode="normal" in="SourceGraphic" in2="BackgroundImageFix" result="shape"/>
<feColorMatrix in="SourceAlpha" type="matrix" values="0 0 0 0 0 0 0 0 0 0 0 0 0 0 0 0 0 0 127 0" result="hardAlpha"/>
<feOffset dx="-14" dy="26"/>
<feGaussianBlur stdDeviation="24"/>
<feComposite in2="hardAlpha" operator="arithmetic" k2="-1" k3="1"/>
<feColorMatrix type="matrix" values="0 0 0 0 0 0 0 0 0 0 0 0 0 0 0 0 0 0 0.25 0"/>
<feBlend mode="normal" in2="shape" result="effect1_innerShadow_605_218"/>
</filter>
<linearGradient id="paint0_linear_605_218" x1="133.587" y1="112.328" x2="269.124" y2="366.711" gradientUnits="userSpaceOnUse">
<stop stop-color="#00F2F2"/>
<stop offset="1" stop-color="#8800F2" stop-opacity="0"/>
</linearGradient>
<linearGradient id="paint1_linear_605_218" x1="117.341" y1="196.044" x2="199.154" y2="402.684" gradientUnits="userSpaceOnUse">
<stop stop-color="#00F2F2"/>
<stop offset="1" stop-color="#8800F2" stop-opacity="0"/>
</linearGradient>
<linearGradient id="paint2_linear_605_218" x1="191.77" y1="155.109" x2="260.323" y2="302.382" gradientUnits="userSpaceOnUse">
<stop stop-color="#00FFFF"/>
<stop offset="1" stop-color="#8800F2" stop-opacity="0"/>
</linearGradient>
<linearGradient id="paint3_linear_605_218" x1="131.703" y1="139.96" x2="249.189" y2="258.578" gradientUnits="userSpaceOnUse">
<stop stop-color="#00FFFF"/>
<stop offset="1" stop-color="#8800F2" stop-opacity="0"/>
</linearGradient>
<clipPath id="clip0_605_218">
<rect width="275" height="329" rx="25" fill="white"/>
</clipPath>
</defs>
</svg>
