<svg width="2746" height="1718" viewBox="0 0 2746 1718" fill="none" xmlns="http://www.w3.org/2000/svg">
<path d="M1870.42 1224.03C1917.85 1186.04 2020.86 1103.6 2018.42 937.141C2042.36 311.482 1438.95 499.221 1438.95 499.221C1438.95 499.221 1318.71 570.519 1148.54 478.604C1070.72 436.568 988.846 461.003 924.866 512.248C884.596 544.503 851.422 587.363 830.787 630.967C830.787 630.967 689.223 805.814 824.96 994.561C876.055 1065.61 970.831 1011.65 990.498 1146.54C1002.69 1232.89 1188.03 1348.54 1386.19 1229.46C1482.98 1171.29 1586.14 1207.88 1586.14 1207.88C1586.14 1207.88 1704.82 1275.66 1796.45 1248.82" fill="#696969"/>
<path d="M2021.95 1120.73C2016.59 1119.84 2010.65 1119.57 2004.54 1118.61C2003.47 1121.71 2002.58 1124.85 2001.78 1128.01C1994.01 1158.34 1997.07 1191.11 1989.5 1221.64C1989.22 1222.8 1988.95 1223.97 1988.63 1225.13C1987.96 1227.55 1987.37 1230.57 1989.24 1232.26C1990.11 1233.03 1991.31 1233.3 1992.45 1233.54C1997.81 1234.65 2003.16 1235.76 2008.53 1236.88C2014.88 1198.41 2019.36 1159.64 2021.95 1120.72L2021.95 1120.73Z" fill="white"/>
<path d="M2610.5 1126C2413 1120.73 2218.54 1131.94 2022.52 1112.04C2022.35 1114.93 2022.14 1117.83 2021.95 1120.73C2019.36 1159.64 2014.87 1198.41 2008.52 1236.88C2008.01 1239.94 2007.52 1243.01 2007 1246.07C2058.12 1261.71 2555 1371 2615.5 1359C2711.5 1329.5 2727.5 1148.86 2610.5 1126ZM2197.64 1163.2C2197.39 1161.55 2198.05 1159.9 2199.03 1158.62C2199.94 1157.42 2201.65 1156.59 2203.12 1156.44C2204.59 1156.29 2206.59 1156.78 2207.69 1157.84C2212.32 1162.33 2216.95 1166.81 2221.58 1171.29C2222.78 1172.46 2223.52 1173.74 2223.76 1175.39C2224.01 1177.04 2223.35 1178.69 2222.38 1179.97C2221.46 1181.17 2219.76 1182 2218.28 1182.15C2216.81 1182.3 2214.81 1181.81 2213.71 1180.74C2209.08 1176.26 2204.45 1171.78 2199.82 1167.3C2198.62 1166.13 2197.88 1164.85 2197.63 1163.19L2197.64 1163.2ZM2220.64 1239.91C2222 1243.07 2220.02 1246.57 2217.08 1247.85C2214.7 1248.89 2212.38 1250.04 2210.08 1251.25C2205.49 1253.76 2201.08 1256.58 2196.9 1259.73C2194.16 1261.8 2190.32 1260.85 2188.32 1258.27C2186.23 1255.6 2187.17 1251.62 2189.74 1249.68C2196.82 1244.34 2204.57 1239.87 2212.69 1236.32C2215.84 1234.94 2219.37 1236.97 2220.63 1239.91L2220.64 1239.91ZM2114.38 1148.86C2114.58 1147.22 2115.62 1145.84 2116.87 1144.86C2118.08 1143.91 2119.97 1143.55 2121.46 1143.81C2123.08 1144.08 2124.47 1145.03 2125.46 1146.31C2129.69 1151.8 2133.92 1157.29 2138.16 1162.77C2139.16 1164.08 2139.42 1165.78 2139.22 1167.37C2139.03 1169 2137.99 1170.39 2136.73 1171.37C2135.52 1172.31 2133.64 1172.67 2132.15 1172.42C2130.53 1172.14 2129.14 1171.19 2128.15 1169.91C2123.91 1164.43 2119.68 1158.94 2115.45 1153.45C2114.45 1152.15 2114.19 1150.44 2114.38 1148.86ZM2154.52 1213.89C2154.79 1212.24 2155.73 1210.92 2157.01 1209.9C2164.06 1204.23 2171.71 1199.44 2179.78 1195.34C2181.22 1194.6 2183.12 1194.92 2184.55 1195.51C2186.04 1196.13 2187.1 1197.48 2187.72 1198.92C2188.33 1200.35 2188.19 1202.32 2187.55 1203.7C2186.83 1205.27 2185.64 1206.11 2184.16 1206.86C2183.68 1207.11 2183.2 1207.36 2182.72 1207.61C2176.18 1211.16 2169.97 1215.28 2164.17 1219.95C2161.49 1222.09 2157.54 1221.01 2155.58 1218.49C2154.64 1217.28 2154.27 1215.39 2154.52 1213.89ZM2039.98 1147.61C2038.7 1144.64 2040.47 1140.67 2043.53 1139.67C2048.63 1137.99 2053.73 1136.31 2058.83 1134.63C2062.1 1133.55 2065.4 1135.04 2066.77 1138.21C2068.04 1141.18 2066.27 1145.15 2063.21 1146.16C2058.11 1147.84 2053.01 1149.52 2047.91 1151.2C2044.64 1152.27 2041.34 1150.79 2039.97 1147.61L2039.98 1147.61ZM2057.62 1224.37C2058.24 1225.81 2058.1 1227.77 2057.46 1229.16C2056.89 1230.39 2055.46 1231.98 2054.07 1232.31C2048.6 1233.62 2043.22 1235.27 2037.97 1237.26C2034.75 1238.47 2031.35 1236.74 2030.03 1233.67C2029.41 1232.24 2029.55 1230.27 2030.19 1228.89C2030.84 1227.48 2032.14 1226.27 2033.58 1225.73C2038.84 1223.74 2044.22 1222.1 2049.68 1220.79C2050.72 1220.39 2051.78 1220.29 2052.88 1220.48C2053.41 1220.64 2053.93 1220.8 2054.46 1220.96C2055.95 1221.58 2057 1222.93 2057.63 1224.37L2057.62 1224.37ZM2126.18 1239.97C2126.42 1241.62 2125.77 1243.26 2124.79 1244.55C2123.88 1245.75 2122.17 1246.58 2120.7 1246.73C2119.22 1246.88 2117.22 1246.39 2116.12 1245.32C2109.59 1238.97 2104.35 1231.69 2100.38 1223.5C2099.66 1222.03 2099.95 1220.17 2100.55 1218.72C2101.16 1217.23 2102.5 1216.18 2103.93 1215.56C2105.36 1214.95 2107.33 1215.09 2108.71 1215.74C2110.24 1216.45 2111.16 1217.67 2111.88 1219.14C2112.16 1219.73 2112.46 1220.3 2112.76 1220.87C2115.32 1225.52 2118.4 1229.85 2121.96 1233.79C2122.63 1234.49 2123.3 1235.19 2123.99 1235.87C2125.19 1237.04 2125.93 1238.31 2126.18 1239.97L2126.18 1239.97ZM2087.89 1183.73C2082.8 1189.7 2076.8 1194.97 2070.16 1199.14C2067.24 1200.97 2063.73 1200.46 2061.57 1197.69C2059.61 1195.17 2060.27 1190.81 2063 1189.1C2066.63 1186.81 2070.04 1184.19 2073.22 1181.31C2075.04 1179.56 2076.78 1177.74 2078.42 1175.82C2080.65 1173.2 2084.41 1173 2087.09 1175.05C2089.71 1177.06 2089.97 1181.28 2087.88 1183.73L2087.89 1183.73Z" fill="#F9B233"/>
<path d="M2196.9 1259.73C2201.08 1256.58 2205.49 1253.76 2210.08 1251.25C2212.38 1250.04 2214.71 1248.9 2217.08 1247.85C2220.02 1246.56 2222 1243.07 2220.64 1239.91C2219.37 1236.97 2215.84 1234.94 2212.7 1236.32C2204.57 1239.88 2196.82 1244.35 2189.74 1249.68C2187.17 1251.62 2186.24 1255.6 2188.32 1258.28C2190.33 1260.86 2194.16 1261.8 2196.9 1259.73L2196.9 1259.73Z" fill="#F8DA61"/>
<path d="M2483.06 1289.08C2487.4 1285.81 2491.98 1282.89 2496.75 1280.28C2499.13 1279.03 2501.55 1277.84 2504.02 1276.75C2507.07 1275.42 2509.13 1271.79 2507.71 1268.51C2506.39 1265.45 2502.73 1263.35 2499.46 1264.78C2491.03 1268.47 2482.98 1273.11 2475.63 1278.66C2472.96 1280.67 2471.99 1284.8 2474.15 1287.58C2476.24 1290.26 2480.22 1291.24 2483.07 1289.09L2483.06 1289.08Z" fill="#F8DA61"/>
<path d="M2223.77 1175.39C2223.52 1173.74 2222.79 1172.45 2221.58 1171.29C2216.96 1166.8 2212.32 1162.32 2207.69 1157.84C2206.59 1156.78 2204.59 1156.29 2203.12 1156.44C2201.65 1156.59 2199.94 1157.42 2199.03 1158.62C2198.05 1159.9 2197.39 1161.54 2197.64 1163.19C2197.89 1164.85 2198.62 1166.13 2199.82 1167.3C2204.45 1171.78 2209.08 1176.26 2213.71 1180.75C2214.81 1181.81 2216.81 1182.3 2218.29 1182.15C2219.76 1182 2221.46 1181.17 2222.38 1179.97C2223.36 1178.69 2224.01 1177.04 2223.77 1175.4L2223.77 1175.39Z" fill="#F8DA61"/>
<path d="M2510.96 1201.51C2510.7 1199.8 2509.94 1198.46 2508.69 1197.25C2503.89 1192.6 2499.08 1187.95 2494.27 1183.29C2493.13 1182.19 2491.05 1181.68 2489.52 1181.84C2487.99 1181.99 2486.22 1182.85 2485.27 1184.1C2484.26 1185.43 2483.57 1187.14 2483.83 1188.85C2484.09 1190.57 2484.85 1191.9 2486.1 1193.11C2490.9 1197.77 2495.71 1202.42 2500.52 1207.07C2501.66 1208.18 2503.74 1208.69 2505.27 1208.53C2506.79 1208.38 2508.57 1207.51 2509.52 1206.27C2510.53 1204.94 2511.21 1203.23 2510.96 1201.52L2510.96 1201.51Z" fill="#F8DA61"/>
<path d="M2449.53 1160.66C2449.28 1158.94 2448.51 1157.61 2447.26 1156.4C2442.46 1151.75 2437.65 1147.09 2432.84 1142.44C2431.7 1141.33 2429.62 1140.83 2428.09 1140.98C2426.56 1141.14 2424.79 1142 2423.84 1143.25C2422.83 1144.58 2422.14 1146.29 2422.4 1148C2422.66 1149.72 2423.42 1151.05 2424.67 1152.26C2429.48 1156.91 2434.28 1161.57 2439.09 1166.22C2440.23 1167.33 2442.31 1167.84 2443.84 1167.68C2445.37 1167.53 2447.14 1166.66 2448.09 1165.42C2449.1 1164.09 2449.79 1162.38 2449.53 1160.67L2449.53 1160.66Z" fill="#F8DA61"/>
<path d="M2455.53 1317.66C2455.28 1315.94 2454.51 1314.61 2453.26 1313.4C2448.46 1308.75 2443.65 1304.09 2438.84 1299.44C2437.7 1298.33 2435.62 1297.83 2434.09 1297.98C2432.56 1298.14 2430.79 1299 2429.84 1300.25C2428.83 1301.58 2428.14 1303.29 2428.4 1305C2428.66 1306.72 2429.42 1308.05 2430.67 1309.26C2435.48 1313.91 2440.28 1318.57 2445.09 1323.22C2446.23 1324.33 2448.31 1324.84 2449.84 1324.68C2451.37 1324.53 2453.14 1323.66 2454.09 1322.42C2455.1 1321.09 2455.79 1319.38 2455.53 1317.67L2455.53 1317.66Z" fill="#F8DA61"/>
<path d="M2254.95 1220.98C2254.7 1219.33 2253.97 1218.05 2252.76 1216.88C2248.14 1212.4 2243.51 1207.92 2238.88 1203.44C2237.77 1202.37 2235.78 1201.88 2234.3 1202.03C2232.83 1202.18 2231.12 1203.01 2230.21 1204.21C2229.23 1205.49 2228.57 1207.14 2228.82 1208.79C2229.07 1210.44 2229.8 1211.72 2231.01 1212.89C2235.63 1217.37 2240.26 1221.86 2244.89 1226.34C2245.99 1227.41 2247.99 1227.9 2249.47 1227.75C2250.94 1227.59 2252.65 1226.76 2253.56 1225.57C2254.54 1224.28 2255.19 1222.64 2254.95 1220.99L2254.95 1220.98Z" fill="#F8DA61"/>
<path d="M2543.34 1248.85C2543.08 1247.14 2542.32 1245.8 2541.07 1244.59C2536.26 1239.94 2531.45 1235.29 2526.65 1230.63C2525.5 1229.53 2523.43 1229.02 2521.9 1229.18C2520.37 1229.33 2518.6 1230.19 2517.65 1231.44C2516.63 1232.77 2515.95 1234.48 2516.21 1236.19C2516.46 1237.91 2517.23 1239.24 2518.48 1240.45C2523.28 1245.11 2528.09 1249.76 2532.89 1254.41C2534.04 1255.52 2536.12 1256.03 2537.65 1255.87C2539.17 1255.72 2540.94 1254.85 2541.89 1253.61C2542.91 1252.28 2543.59 1250.57 2543.34 1248.86L2543.34 1248.85Z" fill="#F8DA61"/>
<path d="M2285.95 1176.98C2285.7 1175.33 2284.97 1174.05 2283.76 1172.88C2279.14 1168.4 2274.51 1163.92 2269.88 1159.44C2268.77 1158.37 2266.78 1157.88 2265.3 1158.03C2263.83 1158.18 2262.12 1159.01 2261.21 1160.21C2260.23 1161.49 2259.57 1163.14 2259.82 1164.79C2260.07 1166.44 2260.8 1167.72 2262.01 1168.89C2266.63 1173.37 2271.26 1177.86 2275.89 1182.34C2276.99 1183.41 2278.99 1183.9 2280.47 1183.75C2281.94 1183.59 2283.65 1182.76 2284.56 1181.57C2285.54 1180.28 2286.19 1178.64 2285.95 1176.99L2285.95 1176.98Z" fill="#F8DA61"/>
<path d="M2575.53 1203.17C2575.27 1201.45 2574.51 1200.12 2573.26 1198.91C2568.45 1194.25 2563.64 1189.6 2558.84 1184.95C2557.69 1183.84 2555.62 1183.34 2554.09 1183.49C2552.56 1183.65 2550.79 1184.51 2549.84 1185.75C2548.82 1187.09 2548.14 1188.79 2548.4 1190.51C2548.65 1192.22 2549.41 1193.56 2550.67 1194.77C2555.47 1199.42 2560.28 1204.08 2565.08 1208.73C2566.23 1209.84 2568.3 1210.35 2569.83 1210.19C2571.36 1210.03 2573.13 1209.17 2574.08 1207.93C2575.1 1206.6 2575.78 1204.89 2575.53 1203.18L2575.53 1203.17Z" fill="#F8DA61"/>
<path d="M2182.73 1207.61C2183.21 1207.36 2183.68 1207.1 2184.16 1206.86C2185.64 1206.11 2186.83 1205.26 2187.56 1203.7C2188.2 1202.31 2188.34 1200.35 2187.72 1198.92C2187.1 1197.48 2186.05 1196.13 2184.56 1195.51C2183.12 1194.92 2181.22 1194.59 2179.78 1195.33C2171.72 1199.44 2164.07 1204.23 2157.01 1209.9C2155.74 1210.92 2154.79 1212.24 2154.52 1213.89C2154.27 1215.38 2154.64 1217.27 2155.58 1218.49C2157.54 1221 2161.49 1222.09 2164.17 1219.94C2169.97 1215.28 2176.18 1211.16 2182.72 1207.61L2182.73 1207.61Z" fill="#F8DA61"/>
<path d="M2468.35 1234.97C2468.84 1234.71 2469.34 1234.44 2469.84 1234.19C2471.37 1233.41 2472.61 1232.53 2473.36 1230.91C2474.02 1229.47 2474.17 1227.43 2473.53 1225.94C2472.89 1224.45 2471.79 1223.04 2470.25 1222.4C2468.76 1221.79 2466.78 1221.45 2465.28 1222.22C2456.91 1226.48 2448.97 1231.46 2441.64 1237.34C2440.32 1238.41 2439.34 1239.78 2439.06 1241.49C2438.8 1243.04 2439.18 1245 2440.16 1246.27C2442.19 1248.87 2446.29 1250.01 2449.07 1247.77C2455.1 1242.93 2461.55 1238.66 2468.34 1234.97L2468.35 1234.97Z" fill="#F8DA61"/>
<path d="M2132.15 1172.42C2133.64 1172.67 2135.53 1172.31 2136.73 1171.37C2137.99 1170.39 2139.03 1169 2139.23 1167.37C2139.42 1165.78 2139.17 1164.08 2138.16 1162.77C2133.93 1157.29 2129.69 1151.8 2125.46 1146.31C2124.47 1145.03 2123.08 1144.08 2121.46 1143.81C2119.98 1143.55 2118.09 1143.92 2116.88 1144.86C2115.62 1145.84 2114.58 1147.22 2114.39 1148.85C2114.2 1150.44 2114.45 1152.15 2115.45 1153.45C2119.69 1158.94 2123.92 1164.42 2128.15 1169.91C2129.14 1171.2 2130.53 1172.14 2132.15 1172.42L2132.15 1172.42Z" fill="#F8DA61"/>
<path d="M2415.83 1198.43C2417.38 1198.69 2419.34 1198.31 2420.59 1197.34C2421.9 1196.32 2422.98 1194.88 2423.18 1193.19C2423.38 1191.54 2423.12 1189.77 2422.07 1188.41C2417.68 1182.72 2413.28 1177.02 2408.89 1171.32C2407.86 1169.99 2406.42 1169 2404.74 1168.72C2403.19 1168.46 2401.23 1168.83 2399.97 1169.81C2398.67 1170.83 2397.59 1172.27 2397.39 1173.96C2397.19 1175.61 2397.45 1177.38 2398.5 1178.73C2402.89 1184.43 2407.28 1190.13 2411.68 1195.82C2412.71 1197.16 2414.15 1198.14 2415.83 1198.43L2415.83 1198.43Z" fill="#F8DA61"/>
<path d="M2275.96 1273.37C2277.5 1273.63 2279.47 1273.26 2280.72 1272.28C2282.02 1271.26 2283.1 1269.82 2283.31 1268.13C2283.51 1266.48 2283.25 1264.71 2282.2 1263.36C2277.8 1257.66 2273.41 1251.96 2269.02 1246.26C2267.99 1244.93 2266.55 1243.95 2264.86 1243.66C2263.32 1243.4 2261.36 1243.77 2260.1 1244.75C2258.8 1245.77 2257.72 1247.21 2257.52 1248.9C2257.32 1250.55 2257.58 1252.32 2258.63 1253.68C2263.02 1259.37 2267.41 1265.07 2271.81 1270.77C2272.84 1272.1 2274.28 1273.08 2275.96 1273.37L2275.96 1273.37Z" fill="#F8DA61"/>
<path d="M2070.16 1199.14C2076.8 1194.97 2082.81 1189.69 2087.89 1183.72C2089.98 1181.27 2089.72 1177.05 2087.09 1175.04C2084.41 1172.99 2080.65 1173.19 2078.43 1175.81C2076.79 1177.73 2075.05 1179.55 2073.22 1181.3C2070.05 1184.18 2066.64 1186.8 2063 1189.09C2060.27 1190.8 2059.61 1195.16 2061.58 1197.68C2063.73 1200.45 2067.25 1200.96 2070.16 1199.14L2070.16 1199.14Z" fill="#F8DA61"/>
<path d="M2351.46 1226.17C2358.36 1221.84 2364.6 1216.36 2369.87 1210.16C2372.04 1207.62 2371.77 1203.23 2369.05 1201.15C2366.27 1199.02 2362.36 1199.23 2360.05 1201.95C2358.35 1203.95 2356.54 1205.83 2354.64 1207.64C2351.35 1210.64 2347.81 1213.36 2344.03 1215.74C2341.2 1217.52 2340.51 1222.04 2342.56 1224.66C2344.79 1227.53 2348.44 1228.06 2351.47 1226.17L2351.46 1226.17Z" fill="#F8DA61"/>
<path d="M2293.4 1229.93C2300.29 1225.6 2306.53 1220.12 2311.81 1213.92C2313.97 1211.37 2313.71 1206.99 2310.98 1204.9C2308.2 1202.78 2304.29 1202.99 2301.98 1205.7C2300.29 1207.7 2298.47 1209.59 2296.58 1211.4C2293.28 1214.4 2289.74 1217.12 2285.97 1219.49C2283.13 1221.27 2282.45 1225.79 2284.49 1228.42C2286.72 1231.29 2290.37 1231.82 2293.4 1229.92L2293.4 1229.93Z" fill="#F8DA61"/>
<path d="M2116.12 1245.32C2117.22 1246.38 2119.23 1246.87 2120.7 1246.72C2122.17 1246.57 2123.88 1245.74 2124.79 1244.54C2125.77 1243.26 2126.43 1241.62 2126.18 1239.97C2125.93 1238.31 2125.19 1237.03 2123.99 1235.86C2123.3 1235.19 2122.63 1234.49 2121.96 1233.78C2118.4 1229.84 2115.32 1225.51 2112.76 1220.87C2112.46 1220.29 2112.16 1219.72 2111.88 1219.14C2111.16 1217.66 2110.24 1216.45 2108.71 1215.74C2107.32 1215.09 2105.36 1214.94 2103.93 1215.56C2102.5 1216.17 2101.15 1217.22 2100.54 1218.72C2099.95 1220.17 2099.66 1222.02 2100.38 1223.5C2104.35 1231.69 2109.59 1238.97 2116.12 1245.32L2116.12 1245.32Z" fill="#F8DA61"/>
<path d="M2399.19 1274.12C2400.33 1275.22 2402.42 1275.73 2403.94 1275.58C2405.47 1275.42 2407.24 1274.56 2408.19 1273.32C2409.21 1271.98 2409.89 1270.28 2409.63 1268.56C2409.37 1266.84 2408.61 1265.52 2407.36 1264.3C2406.64 1263.6 2405.95 1262.87 2405.25 1262.14C2401.56 1258.05 2398.35 1253.56 2395.7 1248.73C2395.39 1248.13 2395.07 1247.54 2394.78 1246.94C2394.03 1245.4 2393.09 1244.14 2391.49 1243.4C2390.05 1242.73 2388.01 1242.58 2386.53 1243.22C2385.04 1243.86 2383.65 1244.95 2383.01 1246.5C2382.4 1248.01 2382.1 1249.93 2382.84 1251.46C2386.97 1259.97 2392.41 1267.53 2399.19 1274.12L2399.19 1274.12Z" fill="#F8DA61"/>
<path d="M2037.97 1237.25C2043.23 1235.27 2048.6 1233.62 2054.07 1232.31C2055.46 1231.98 2056.89 1230.38 2057.46 1229.15C2058.1 1227.77 2058.24 1225.8 2057.63 1224.37C2057.01 1222.93 2055.96 1221.58 2054.46 1220.96C2053.94 1220.8 2053.41 1220.64 2052.89 1220.48C2051.79 1220.29 2050.72 1220.4 2049.68 1220.79C2044.22 1222.1 2038.84 1223.75 2033.58 1225.73C2032.14 1226.27 2030.84 1227.49 2030.19 1228.89C2029.55 1230.27 2029.41 1232.24 2030.03 1233.67C2031.36 1236.74 2034.75 1238.47 2037.97 1237.26L2037.97 1237.25Z" fill="#F8DA61"/>
<path d="M2318.04 1265.75C2323.5 1263.69 2329.08 1261.98 2334.76 1260.61C2336.2 1260.27 2337.69 1258.61 2338.28 1257.34C2338.94 1255.9 2339.09 1253.85 2338.45 1252.37C2337.81 1250.88 2336.72 1249.47 2335.17 1248.83C2334.62 1248.67 2334.08 1248.49 2333.53 1248.33C2332.39 1248.14 2331.28 1248.24 2330.21 1248.65C2324.53 1250.01 2318.95 1251.72 2313.49 1253.78C2311.99 1254.34 2310.64 1255.6 2309.96 1257.06C2309.3 1258.5 2309.15 1260.54 2309.8 1262.03C2311.17 1265.22 2314.7 1267.01 2318.04 1265.75L2318.04 1265.75Z" fill="#F8DA61"/>
<path d="M2047.92 1151.19C2053.02 1149.51 2058.12 1147.83 2063.21 1146.15C2066.27 1145.14 2068.05 1141.17 2066.77 1138.21C2065.4 1135.03 2062.1 1133.55 2058.83 1134.62C2053.73 1136.3 2048.63 1137.98 2043.53 1139.66C2040.47 1140.67 2038.7 1144.64 2039.98 1147.6C2041.35 1150.78 2044.65 1152.27 2047.92 1151.19Z" fill="#F8DA61"/>
<path d="M2328.37 1176.39C2333.67 1174.64 2338.96 1172.9 2344.25 1171.16C2347.43 1170.11 2349.27 1165.99 2347.94 1162.91C2346.52 1159.61 2343.09 1158.07 2339.7 1159.19C2334.41 1160.93 2329.11 1162.67 2323.82 1164.42C2320.64 1165.46 2318.8 1169.59 2320.13 1172.66C2321.55 1175.96 2324.97 1177.51 2328.37 1176.39Z" fill="#F8DA61"/>
<path d="M1824.79 992.38C1818.16 993.602 1817.91 1001.22 1819.39 1006.85C1823.8 1023.77 1835.99 1037.86 1850.34 1047.84C1861.35 1055.5 1875.72 1065.28 1872.37 1078.25C1821.25 1076.94 1773.71 1050.37 1722.78 1045.55C1717.82 1045.08 1712.54 1044.93 1707.67 1045.87C1701.62 1047.03 1699.81 1054.9 1704.77 1058.58C1724.21 1072.99 1748.49 1080.3 1772.34 1085.38C1783.59 1087.78 1795.51 1090.09 1805.24 1095.82C1808.64 1097.82 1807.41 1103.02 1803.48 1103.2C1764.83 1104.99 1726.28 1087.51 1687.19 1090.78C1682.75 1091.16 1678.66 1093.81 1677.09 1097.98C1673.73 1106.93 1685.05 1113.09 1693.95 1115.35C1726.76 1123.7 1759.57 1132.05 1792.38 1140.39C1797.34 1141.66 1796.8 1148.81 1791.72 1149.37C1763.15 1152.5 1731.71 1139.1 1703.01 1146.88C1700.39 1147.59 1698 1149.26 1697 1151.79C1694.48 1158.11 1702.44 1162.84 1708.79 1164.63C1741.64 1173.85 1775.29 1180.17 1809.23 1183.56C1881.88 1196.92 1804.65 1194.36 1804.65 1194.36C1789.7 1193.41 1774.67 1191.5 1761.15 1197.29C1757.96 1198.65 1754.66 1200.71 1755.26 1205.29C1755.69 1208.55 1758.06 1211.2 1761.06 1212.54C1775.5 1218.96 1790.6 1221.31 1806.03 1221.56L1906.98 1213C1931.91 1212.65 1956.88 1215.36 1981.4 1220.07C1984.08 1220.59 1986.78 1221.12 1989.5 1221.64C1997.07 1191.11 1994.01 1158.35 2001.77 1128.01C1986.99 1125.43 1972.53 1121.16 1961.66 1111.13C1950.16 1100.53 1944.56 1085.14 1935.66 1072.28C1922.83 1053.76 1903.52 1040.95 1884.68 1028.61L1831.92 994.028C1829.81 992.646 1827.26 991.928 1824.79 992.386L1824.79 992.38Z" fill="#F18778"/>
<path d="M1551.19 1271C1551.19 1267.05 1547.99 1263.86 1544.04 1263.86C1540.1 1263.86 1536.9 1267.05 1536.9 1271C1536.9 1274.95 1540.1 1278.14 1544.04 1278.14C1547.99 1278.14 1551.19 1274.95 1551.19 1271Z" fill="white"/>
<path d="M67.0017 240.983C25.4991 258.002 7.5006 335.501 39.002 364.478C39.002 364.478 319.5 557.841 607.727 561.884C607.727 561.884 618.318 564.854 623.683 566.556L623.544 566.402C621.761 564.025 621.99 560.766 622.406 557.841C626.754 527.229 642.552 499.519 659.357 473.503C662.627 468.442 666.463 463.03 672.344 461.497C673.012 461.322 673.682 461.207 674.349 461.142C676.355 460.948 678.356 461.213 680.328 461.764C676.478 456.397 666.267 447.813 666.267 447.813C453 318.5 67.0017 240.983 67.0017 240.983Z" fill="#764E9A"/>
<path d="M727.126 542.473C727.126 542.473 733.31 527.212 735.967 519.422C737.301 515.514 738.55 511.408 738.476 507.332C738.457 506.235 738.362 505.142 738.122 504.056C736.416 496.319 729.148 491.214 722.444 486.879C712.487 480.441 702.533 474.003 692.577 467.568C688.98 465.242 685.031 462.879 680.963 461.737C678.945 461.172 676.896 460.896 674.845 461.097C674.159 461.164 673.476 461.281 672.793 461.46C666.778 463.028 662.853 468.571 659.509 473.754C642.314 500.395 626.159 528.776 621.723 560.138C621.297 563.131 621.068 566.471 622.891 568.908L623.033 569.064C624.117 570.413 625.693 571.29 627.231 572.111C639.317 578.555 651.404 585.001 663.486 591.446C670.433 595.152 680.197 602.801 688.614 602.257C690.715 602.121 692.543 601.423 694.168 600.364C699.228 597.072 702.305 590.225 705.202 585.428C714.349 570.28 727.126 542.473 727.126 542.473Z" fill="#EF7D87"/>
<path d="M892.643 794.385C898.749 795.202 901.114 788.756 901.429 783.524C902.369 767.81 895.765 752.331 886.121 739.761C878.721 730.114 869.006 717.707 875.577 707.553C919.612 723.044 953.397 759.129 996.267 777.566C1000.44 779.363 1004.99 780.975 1009.49 781.538C1015.07 782.239 1018.86 776.016 1015.59 771.474C1002.78 753.685 983.754 740.614 964.477 729.559C955.384 724.342 945.686 719.022 938.847 711.389C936.459 708.724 938.993 704.624 942.459 705.574C976.531 714.896 1005.08 740.683 1039.96 748.867C1043.91 749.799 1048.22 748.679 1050.76 745.552C1056.21 738.838 1048.11 730.386 1041.02 725.949C1014.88 709.588 988.744 693.225 962.603 676.864C958.655 674.392 961.146 668.428 965.717 669.377C991.41 674.722 1014.93 695.021 1042.06 696.432C1044.54 696.563 1047.08 695.799 1048.67 693.92C1052.64 689.221 1047.07 682.943 1042.06 679.628C1016.13 662.507 988.683 647.647 960.167 635.21C898.466 601.524 967.199 627.253 967.199 627.253C979.912 632.266 992.433 638.13 1005.81 636.974C1008.96 636.703 1012.41 635.87 1013.18 631.784C1013.72 628.878 1012.42 625.942 1010.19 623.958C999.459 614.407 987.009 608.146 973.681 603.596L883.584 582.561C861.837 575.852 840.912 566.512 820.945 555.597C811.265 550.303 801.189 544.556 790.847 540.446C772.474 529.657 754.452 518.067 736.517 506.261C736.588 510.239 735.365 514.248 734.06 518.064C732.761 521.865 731.384 525.643 729.943 529.394C728.502 533.145 726.989 536.869 725.418 540.566L725.718 540.771C719.686 555.988 707.728 582.712 693.198 597.089L704.96 602.246L758.184 622.886C774.884 629.932 790.803 638.196 804.436 649.932C805.471 651.341 806.451 652.796 807.327 654.339C807.591 655.023 807.897 655.611 808.224 656.153C814.308 668.073 815.031 682.03 818.933 694.885C824.836 714.334 837.994 730.719 850.865 746.565L886.921 790.98C888.362 792.755 890.374 794.087 892.651 794.389L892.643 794.385Z" fill="#EA5C36"/>
</svg>
